  0
SECTION
  2
HEADER
  9
$ANGBASE
  50
0.0
  9
$ANGDIR
  70
1
  9
$MEASUREMENT
  70
1
  0
ENDSEC
  0
SECTION
  2
TABLES
  0
TABLE
  2
LTYPE
  70
4
  0
LTYPE
  5
40F
  2
CONTINUOUS
  70
0
  3
Solid line
  72
65
  73
0
  40
0.0
  0
LTYPE
  5
410
  2
DASHDOT
 70
0
  3
Dash Dot ____ _ ____ _
 72
65
 73
4
 40
2.0
 49
1.25
 49
-0.25
 49
0.25
 49
-0.25
  0
LTYPE
  5
411
  2
DASHED
 70
0
  3
Dashed __ __ __ __ __
 72
65
 73
2
 40
0.75
 49
0.5
 49
-0.25
  0
LTYPE
  5
43B
  2
DOTTED
 70
0
  3
Dotted .  .  .  .
 72
65
 73
2
 40
0.2
 49
0.0
 49
-0.2
  0
ENDTAB
  0
TABLE
  2
STYLE
  70
4
  0
STYLE
  2
KICAD
  70
0
  40
0
  41
1
  42
1
  50
0
  71
0
  3
isocp.shx
  0
STYLE
  2
KICADB
  70
0
  40
0
  41
1
  42
1
  50
0
  71
0
  3
isocp.shx
  0
STYLE
  2
KICADI
  70
0
  40
0
  41
1
  42
1
  50
15
  71
0
  3
isocp.shx
  0
STYLE
  2
KICADBI
  70
0
  40
0
  41
1
  42
1
  50
15
  71
0
  3
isocp.shx
  0
ENDTAB
  0
TABLE
  2
LAYER
  70
1
  0
LAYER
  2
BLACK
  70
0
  62
7
  6
CONTINUOUS
  0
ENDTAB
  0
ENDSEC
  0
SECTION
  2
ENTITIES
0
LINE
8
BLACK
6
CONTINUOUS
10
238.132
20
-121.61
11
235.832
21
-121.61
0
LINE
8
BLACK
6
CONTINUOUS
10
235.832
20
-121.61
11
235.832
21
-119.61
0
LINE
8
BLACK
6
CONTINUOUS
10
235.832
20
-119.61
11
238.132
21
-119.61
0
LINE
8
BLACK
6
CONTINUOUS
10
238.132
20
-119.61
11
238.132
21
-121.61
0
LINE
8
BLACK
6
CONTINUOUS
10
225.432
20
-119.07
11
223.132
21
-119.07
0
LINE
8
BLACK
6
CONTINUOUS
10
223.132
20
-119.07
11
223.132
21
-117.07
0
LINE
8
BLACK
6
CONTINUOUS
10
223.132
20
-117.07
11
225.432
21
-117.07
0
LINE
8
BLACK
6
CONTINUOUS
10
225.432
20
-117.07
11
225.432
21
-119.07
0
LINE
8
BLACK
6
CONTINUOUS
10
219.082
20
-116.847
11
216.782
21
-116.847
0
LINE
8
BLACK
6
CONTINUOUS
10
216.782
20
-116.847
11
216.782
21
-114.847
0
LINE
8
BLACK
6
CONTINUOUS
10
216.782
20
-114.847
11
219.082
21
-114.847
0
LINE
8
BLACK
6
CONTINUOUS
10
219.082
20
-114.847
11
219.082
21
-116.847
0
LINE
8
BLACK
6
CONTINUOUS
10
206.382
20
-114.307
11
204.082
21
-114.307
0
LINE
8
BLACK
6
CONTINUOUS
10
204.082
20
-114.307
11
204.082
21
-112.307
0
LINE
8
BLACK
6
CONTINUOUS
10
204.082
20
-112.307
11
206.382
21
-112.307
0
LINE
8
BLACK
6
CONTINUOUS
10
206.382
20
-112.307
11
206.382
21
-114.307
0
LINE
8
BLACK
6
CONTINUOUS
10
161.932
20
-98.536
11
159.632
21
-98.536
0
LINE
8
BLACK
6
CONTINUOUS
10
159.632
20
-98.536
11
159.632
21
-96.536
0
LINE
8
BLACK
6
CONTINUOUS
10
159.632
20
-96.536
11
161.932
21
-96.536
0
LINE
8
BLACK
6
CONTINUOUS
10
161.932
20
-96.536
11
161.932
21
-98.536
0
LINE
8
BLACK
6
CONTINUOUS
10
149.232
20
-95.996
11
146.932
21
-95.996
0
LINE
8
BLACK
6
CONTINUOUS
10
146.932
20
-95.996
11
146.932
21
-93.996
0
LINE
8
BLACK
6
CONTINUOUS
10
146.932
20
-93.996
11
149.232
21
-93.996
0
LINE
8
BLACK
6
CONTINUOUS
10
149.232
20
-93.996
11
149.232
21
-95.996
0
LINE
8
BLACK
6
CONTINUOUS
10
238.132
20
-89.011
11
235.832
21
-89.011
0
LINE
8
BLACK
6
CONTINUOUS
10
235.832
20
-89.011
11
235.832
21
-87.011
0
LINE
8
BLACK
6
CONTINUOUS
10
235.832
20
-87.011
11
238.132
21
-87.011
0
LINE
8
BLACK
6
CONTINUOUS
10
238.132
20
-87.011
11
238.132
21
-89.011
0
LINE
8
BLACK
6
CONTINUOUS
10
225.432
20
-86.471
11
223.132
21
-86.471
0
LINE
8
BLACK
6
CONTINUOUS
10
223.132
20
-86.471
11
223.132
21
-84.471
0
LINE
8
BLACK
6
CONTINUOUS
10
223.132
20
-84.471
11
225.432
21
-84.471
0
LINE
8
BLACK
6
CONTINUOUS
10
225.432
20
-84.471
11
225.432
21
-86.471
0
LINE
8
BLACK
6
CONTINUOUS
10
219.082
20
-84.2485
11
216.782
21
-84.2485
0
LINE
8
BLACK
6
CONTINUOUS
10
216.782
20
-84.2485
11
216.782
21
-82.2485
0
LINE
8
BLACK
6
CONTINUOUS
10
216.782
20
-82.2485
11
219.082
21
-82.2485
0
LINE
8
BLACK
6
CONTINUOUS
10
219.082
20
-82.2485
11
219.082
21
-84.2485
0
LINE
8
BLACK
6
CONTINUOUS
10
180.982
20
-84.2485
11
178.682
21
-84.2485
0
LINE
8
BLACK
6
CONTINUOUS
10
178.682
20
-84.2485
11
178.682
21
-82.2485
0
LINE
8
BLACK
6
CONTINUOUS
10
178.682
20
-82.2485
11
180.982
21
-82.2485
0
LINE
8
BLACK
6
CONTINUOUS
10
180.982
20
-82.2485
11
180.982
21
-84.2485
0
LINE
8
BLACK
6
CONTINUOUS
10
206.382
20
-81.7085
11
204.082
21
-81.7085
0
LINE
8
BLACK
6
CONTINUOUS
10
204.082
20
-81.7085
11
204.082
21
-79.7085
0
LINE
8
BLACK
6
CONTINUOUS
10
204.082
20
-79.7085
11
206.382
21
-79.7085
0
LINE
8
BLACK
6
CONTINUOUS
10
206.382
20
-79.7085
11
206.382
21
-81.7085
0
LINE
8
BLACK
6
CONTINUOUS
10
168.282
20
-81.7085
11
165.982
21
-81.7085
0
LINE
8
BLACK
6
CONTINUOUS
10
165.982
20
-81.7085
11
165.982
21
-79.7085
0
LINE
8
BLACK
6
CONTINUOUS
10
165.982
20
-79.7085
11
168.282
21
-79.7085
0
LINE
8
BLACK
6
CONTINUOUS
10
168.282
20
-79.7085
11
168.282
21
-81.7085
0
LINE
8
BLACK
6
CONTINUOUS
10
200.032
20
-79.486
11
197.732
21
-79.486
0
LINE
8
BLACK
6
CONTINUOUS
10
197.732
20
-79.486
11
197.732
21
-77.486
0
LINE
8
BLACK
6
CONTINUOUS
10
197.732
20
-77.486
11
200.032
21
-77.486
0
LINE
8
BLACK
6
CONTINUOUS
10
200.032
20
-77.486
11
200.032
21
-79.486
0
LINE
8
BLACK
6
CONTINUOUS
10
161.932
20
-79.486
11
159.632
21
-79.486
0
LINE
8
BLACK
6
CONTINUOUS
10
159.632
20
-79.486
11
159.632
21
-77.486
0
LINE
8
BLACK
6
CONTINUOUS
10
159.632
20
-77.486
11
161.932
21
-77.486
0
LINE
8
BLACK
6
CONTINUOUS
10
161.932
20
-77.486
11
161.932
21
-79.486
0
LINE
8
BLACK
6
CONTINUOUS
10
187.332
20
-76.946
11
185.032
21
-76.946
0
LINE
8
BLACK
6
CONTINUOUS
10
185.032
20
-76.946
11
185.032
21
-74.946
0
LINE
8
BLACK
6
CONTINUOUS
10
185.032
20
-74.946
11
187.332
21
-74.946
0
LINE
8
BLACK
6
CONTINUOUS
10
187.332
20
-74.946
11
187.332
21
-76.946
0
LINE
8
BLACK
6
CONTINUOUS
10
149.232
20
-76.946
11
146.932
21
-76.946
0
LINE
8
BLACK
6
CONTINUOUS
10
146.932
20
-76.946
11
146.932
21
-74.946
0
LINE
8
BLACK
6
CONTINUOUS
10
146.932
20
-74.946
11
149.232
21
-74.946
0
LINE
8
BLACK
6
CONTINUOUS
10
149.232
20
-74.946
11
149.232
21
-76.946
0
LINE
8
BLACK
6
CONTINUOUS
10
238.132
20
-69.961
11
235.832
21
-69.961
0
LINE
8
BLACK
6
CONTINUOUS
10
235.832
20
-69.961
11
235.832
21
-67.961
0
LINE
8
BLACK
6
CONTINUOUS
10
235.832
20
-67.961
11
238.132
21
-67.961
0
LINE
8
BLACK
6
CONTINUOUS
10
238.132
20
-67.961
11
238.132
21
-69.961
0
LINE
8
BLACK
6
CONTINUOUS
10
225.432
20
-67.421
11
223.132
21
-67.421
0
LINE
8
BLACK
6
CONTINUOUS
10
223.132
20
-67.421
11
223.132
21
-65.421
0
LINE
8
BLACK
6
CONTINUOUS
10
223.132
20
-65.421
11
225.432
21
-65.421
0
LINE
8
BLACK
6
CONTINUOUS
10
225.432
20
-65.421
11
225.432
21
-67.421
0
LINE
8
BLACK
6
CONTINUOUS
10
219.082
20
-65.1985
11
216.782
21
-65.1985
0
LINE
8
BLACK
6
CONTINUOUS
10
216.782
20
-65.1985
11
216.782
21
-63.1985
0
LINE
8
BLACK
6
CONTINUOUS
10
216.782
20
-63.1985
11
219.082
21
-63.1985
0
LINE
8
BLACK
6
CONTINUOUS
10
219.082
20
-63.1985
11
219.082
21
-65.1985
0
LINE
8
BLACK
6
CONTINUOUS
10
180.982
20
-65.1985
11
178.682
21
-65.1985
0
LINE
8
BLACK
6
CONTINUOUS
10
178.682
20
-65.1985
11
178.682
21
-63.1985
0
LINE
8
BLACK
6
CONTINUOUS
10
178.682
20
-63.1985
11
180.982
21
-63.1985
0
LINE
8
BLACK
6
CONTINUOUS
10
180.982
20
-63.1985
11
180.982
21
-65.1985
0
LINE
8
BLACK
6
CONTINUOUS
10
206.382
20
-62.6585
11
204.082
21
-62.6585
0
LINE
8
BLACK
6
CONTINUOUS
10
204.082
20
-62.6585
11
204.082
21
-60.6585
0
LINE
8
BLACK
6
CONTINUOUS
10
204.082
20
-60.6585
11
206.382
21
-60.6585
0
LINE
8
BLACK
6
CONTINUOUS
10
206.382
20
-60.6585
11
206.382
21
-62.6585
0
LINE
8
BLACK
6
CONTINUOUS
10
168.282
20
-62.6585
11
165.982
21
-62.6585
0
LINE
8
BLACK
6
CONTINUOUS
10
165.982
20
-62.6585
11
165.982
21
-60.6585
0
LINE
8
BLACK
6
CONTINUOUS
10
165.982
20
-60.6585
11
168.282
21
-60.6585
0
LINE
8
BLACK
6
CONTINUOUS
10
168.282
20
-60.6585
11
168.282
21
-62.6585
0
LINE
8
BLACK
6
CONTINUOUS
10
200.032
20
-60.436
11
197.732
21
-60.436
0
LINE
8
BLACK
6
CONTINUOUS
10
197.732
20
-60.436
11
197.732
21
-58.436
0
LINE
8
BLACK
6
CONTINUOUS
10
197.732
20
-58.436
11
200.032
21
-58.436
0
LINE
8
BLACK
6
CONTINUOUS
10
200.032
20
-58.436
11
200.032
21
-60.436
0
LINE
8
BLACK
6
CONTINUOUS
10
161.932
20
-60.436
11
159.632
21
-60.436
0
LINE
8
BLACK
6
CONTINUOUS
10
159.632
20
-60.436
11
159.632
21
-58.436
0
LINE
8
BLACK
6
CONTINUOUS
10
159.632
20
-58.436
11
161.932
21
-58.436
0
LINE
8
BLACK
6
CONTINUOUS
10
161.932
20
-58.436
11
161.932
21
-60.436
0
LINE
8
BLACK
6
CONTINUOUS
10
187.332
20
-57.896
11
185.032
21
-57.896
0
LINE
8
BLACK
6
CONTINUOUS
10
185.032
20
-57.896
11
185.032
21
-55.896
0
LINE
8
BLACK
6
CONTINUOUS
10
185.032
20
-55.896
11
187.332
21
-55.896
0
LINE
8
BLACK
6
CONTINUOUS
10
187.332
20
-55.896
11
187.332
21
-57.896
0
LINE
8
BLACK
6
CONTINUOUS
10
149.232
20
-57.896
11
146.932
21
-57.896
0
LINE
8
BLACK
6
CONTINUOUS
10
146.932
20
-57.896
11
146.932
21
-55.896
0
LINE
8
BLACK
6
CONTINUOUS
10
146.932
20
-55.896
11
149.232
21
-55.896
0
LINE
8
BLACK
6
CONTINUOUS
10
149.232
20
-55.896
11
149.232
21
-57.896
0
LINE
8
BLACK
6
CONTINUOUS
10
238.132
20
-50.911
11
235.832
21
-50.911
0
LINE
8
BLACK
6
CONTINUOUS
10
235.832
20
-50.911
11
235.832
21
-48.911
0
LINE
8
BLACK
6
CONTINUOUS
10
235.832
20
-48.911
11
238.132
21
-48.911
0
LINE
8
BLACK
6
CONTINUOUS
10
238.132
20
-48.911
11
238.132
21
-50.911
0
LINE
8
BLACK
6
CONTINUOUS
10
225.432
20
-48.371
11
223.132
21
-48.371
0
LINE
8
BLACK
6
CONTINUOUS
10
223.132
20
-48.371
11
223.132
21
-46.371
0
LINE
8
BLACK
6
CONTINUOUS
10
223.132
20
-46.371
11
225.432
21
-46.371
0
LINE
8
BLACK
6
CONTINUOUS
10
225.432
20
-46.371
11
225.432
21
-48.371
0
LINE
8
BLACK
6
CONTINUOUS
10
219.082
20
-46.1485
11
216.782
21
-46.1485
0
LINE
8
BLACK
6
CONTINUOUS
10
216.782
20
-46.1485
11
216.782
21
-44.1485
0
LINE
8
BLACK
6
CONTINUOUS
10
216.782
20
-44.1485
11
219.082
21
-44.1485
0
LINE
8
BLACK
6
CONTINUOUS
10
219.082
20
-44.1485
11
219.082
21
-46.1485
0
LINE
8
BLACK
6
CONTINUOUS
10
180.982
20
-46.1485
11
178.682
21
-46.1485
0
LINE
8
BLACK
6
CONTINUOUS
10
178.682
20
-46.1485
11
178.682
21
-44.1485
0
LINE
8
BLACK
6
CONTINUOUS
10
178.682
20
-44.1485
11
180.982
21
-44.1485
0
LINE
8
BLACK
6
CONTINUOUS
10
180.982
20
-44.1485
11
180.982
21
-46.1485
0
LINE
8
BLACK
6
CONTINUOUS
10
206.382
20
-43.6085
11
204.082
21
-43.6085
0
LINE
8
BLACK
6
CONTINUOUS
10
204.082
20
-43.6085
11
204.082
21
-41.6085
0
LINE
8
BLACK
6
CONTINUOUS
10
204.082
20
-41.6085
11
206.382
21
-41.6085
0
LINE
8
BLACK
6
CONTINUOUS
10
206.382
20
-41.6085
11
206.382
21
-43.6085
0
LINE
8
BLACK
6
CONTINUOUS
10
168.282
20
-43.6085
11
165.982
21
-43.6085
0
LINE
8
BLACK
6
CONTINUOUS
10
165.982
20
-43.6085
11
165.982
21
-41.6085
0
LINE
8
BLACK
6
CONTINUOUS
10
165.982
20
-41.6085
11
168.282
21
-41.6085
0
LINE
8
BLACK
6
CONTINUOUS
10
168.282
20
-41.6085
11
168.282
21
-43.6085
0
LINE
8
BLACK
6
CONTINUOUS
10
200.032
20
-41.386
11
197.732
21
-41.386
0
LINE
8
BLACK
6
CONTINUOUS
10
197.732
20
-41.386
11
197.732
21
-39.386
0
LINE
8
BLACK
6
CONTINUOUS
10
197.732
20
-39.386
11
200.032
21
-39.386
0
LINE
8
BLACK
6
CONTINUOUS
10
200.032
20
-39.386
11
200.032
21
-41.386
0
LINE
8
BLACK
6
CONTINUOUS
10
187.332
20
-38.846
11
185.032
21
-38.846
0
LINE
8
BLACK
6
CONTINUOUS
10
185.032
20
-38.846
11
185.032
21
-36.846
0
LINE
8
BLACK
6
CONTINUOUS
10
185.032
20
-36.846
11
187.332
21
-36.846
0
LINE
8
BLACK
6
CONTINUOUS
10
187.332
20
-36.846
11
187.332
21
-38.846
  0
ENDSEC
  0
EOF
