  0
SECTION
  2
HEADER
  9
$ANGBASE
  50
0.0
  9
$ANGDIR
  70
1
  9
$MEASUREMENT
  70
1
  0
ENDSEC
  0
SECTION
  2
TABLES
  0
TABLE
  2
LTYPE
  70
4
  0
LTYPE
  5
40F
  2
CONTINUOUS
  70
0
  3
Solid line
  72
65
  73
0
  40
0.0
  0
LTYPE
  5
410
  2
DASHDOT
 70
0
  3
Dash Dot ____ _ ____ _
 72
65
 73
4
 40
2.0
 49
1.25
 49
-0.25
 49
0.25
 49
-0.25
  0
LTYPE
  5
411
  2
DASHED
 70
0
  3
Dashed __ __ __ __ __
 72
65
 73
2
 40
0.75
 49
0.5
 49
-0.25
  0
LTYPE
  5
43B
  2
DOTTED
 70
0
  3
Dotted .  .  .  .
 72
65
 73
2
 40
0.2
 49
0.0
 49
-0.2
  0
ENDTAB
  0
TABLE
  2
STYLE
  70
4
  0
STYLE
  2
KICAD
  70
0
  40
0
  41
1
  42
1
  50
0
  71
0
  3
isocp.shx
  0
STYLE
  2
KICADB
  70
0
  40
0
  41
1
  42
1
  50
0
  71
0
  3
isocp.shx
  0
STYLE
  2
KICADI
  70
0
  40
0
  41
1
  42
1
  50
15
  71
0
  3
isocp.shx
  0
STYLE
  2
KICADBI
  70
0
  40
0
  41
1
  42
1
  50
15
  71
0
  3
isocp.shx
  0
ENDTAB
  0
TABLE
  2
LAYER
  70
1
  0
LAYER
  2
BLACK
  70
0
  62
7
  6
CONTINUOUS
  0
ENDTAB
  0
ENDSEC
  0
SECTION
  2
ENTITIES
0
LINE
8
BLACK
6
CONTINUOUS
10
173.305
20
-128.94
11
173.324
21
-128.673
0
LINE
8
BLACK
6
CONTINUOUS
10
173.324
20
-128.673
11
173.381
21
-128.412
0
LINE
8
BLACK
6
CONTINUOUS
10
173.381
20
-128.412
11
173.474
21
-128.161
0
LINE
8
BLACK
6
CONTINUOUS
10
173.474
20
-128.161
11
173.603
21
-127.926
0
LINE
8
BLACK
6
CONTINUOUS
10
173.603
20
-127.926
11
173.763
21
-127.712
0
LINE
8
BLACK
6
CONTINUOUS
10
173.763
20
-127.712
11
173.952
21
-127.523
0
LINE
8
BLACK
6
CONTINUOUS
10
173.952
20
-127.523
11
174.166
21
-127.363
0
LINE
8
BLACK
6
CONTINUOUS
10
174.166
20
-127.363
11
174.401
21
-127.234
0
LINE
8
BLACK
6
CONTINUOUS
10
174.401
20
-127.234
11
174.652
21
-127.141
0
LINE
8
BLACK
6
CONTINUOUS
10
174.652
20
-127.141
11
174.913
21
-127.084
0
LINE
8
BLACK
6
CONTINUOUS
10
174.913
20
-127.084
11
175.18
21
-127.065
0
LINE
8
BLACK
6
CONTINUOUS
10
175.18
20
-127.065
11
175.447
21
-127.084
0
LINE
8
BLACK
6
CONTINUOUS
10
175.447
20
-127.084
11
175.708
21
-127.141
0
LINE
8
BLACK
6
CONTINUOUS
10
175.708
20
-127.141
11
175.959
21
-127.234
0
LINE
8
BLACK
6
CONTINUOUS
10
175.959
20
-127.234
11
176.194
21
-127.363
0
LINE
8
BLACK
6
CONTINUOUS
10
176.194
20
-127.363
11
176.408
21
-127.523
0
LINE
8
BLACK
6
CONTINUOUS
10
176.408
20
-127.523
11
176.597
21
-127.712
0
LINE
8
BLACK
6
CONTINUOUS
10
176.597
20
-127.712
11
176.757
21
-127.926
0
LINE
8
BLACK
6
CONTINUOUS
10
176.757
20
-127.926
11
176.886
21
-128.161
0
LINE
8
BLACK
6
CONTINUOUS
10
176.886
20
-128.161
11
176.979
21
-128.412
0
LINE
8
BLACK
6
CONTINUOUS
10
176.979
20
-128.412
11
177.036
21
-128.673
0
LINE
8
BLACK
6
CONTINUOUS
10
177.036
20
-128.673
11
177.055
21
-128.94
0
LINE
8
BLACK
6
CONTINUOUS
10
177.055
20
-128.94
11
177.036
21
-129.207
0
LINE
8
BLACK
6
CONTINUOUS
10
177.036
20
-129.207
11
176.979
21
-129.468
0
LINE
8
BLACK
6
CONTINUOUS
10
176.979
20
-129.468
11
176.886
21
-129.719
0
LINE
8
BLACK
6
CONTINUOUS
10
176.886
20
-129.719
11
176.757
21
-129.954
0
LINE
8
BLACK
6
CONTINUOUS
10
176.757
20
-129.954
11
176.597
21
-130.168
0
LINE
8
BLACK
6
CONTINUOUS
10
176.597
20
-130.168
11
176.408
21
-130.357
0
LINE
8
BLACK
6
CONTINUOUS
10
176.408
20
-130.357
11
176.194
21
-130.517
0
LINE
8
BLACK
6
CONTINUOUS
10
176.194
20
-130.517
11
175.959
21
-130.646
0
LINE
8
BLACK
6
CONTINUOUS
10
175.959
20
-130.646
11
175.708
21
-130.739
0
LINE
8
BLACK
6
CONTINUOUS
10
175.708
20
-130.739
11
175.447
21
-130.796
0
LINE
8
BLACK
6
CONTINUOUS
10
175.447
20
-130.796
11
175.18
21
-130.815
0
LINE
8
BLACK
6
CONTINUOUS
10
175.18
20
-130.815
11
174.913
21
-130.796
0
LINE
8
BLACK
6
CONTINUOUS
10
174.913
20
-130.796
11
174.652
21
-130.739
0
LINE
8
BLACK
6
CONTINUOUS
10
174.652
20
-130.739
11
174.401
21
-130.646
0
LINE
8
BLACK
6
CONTINUOUS
10
174.401
20
-130.646
11
174.166
21
-130.517
0
LINE
8
BLACK
6
CONTINUOUS
10
174.166
20
-130.517
11
173.952
21
-130.357
0
LINE
8
BLACK
6
CONTINUOUS
10
173.952
20
-130.357
11
173.763
21
-130.168
0
LINE
8
BLACK
6
CONTINUOUS
10
173.763
20
-130.168
11
173.603
21
-129.954
0
LINE
8
BLACK
6
CONTINUOUS
10
173.603
20
-129.954
11
173.474
21
-129.719
0
LINE
8
BLACK
6
CONTINUOUS
10
173.474
20
-129.719
11
173.381
21
-129.468
0
LINE
8
BLACK
6
CONTINUOUS
10
173.381
20
-129.468
11
173.324
21
-129.207
0
LINE
8
BLACK
6
CONTINUOUS
10
173.324
20
-129.207
11
173.305
21
-128.94
0
LINE
8
BLACK
6
CONTINUOUS
10
173.45
20
-128.94
11
173.469
21
-129.198
0
LINE
8
BLACK
6
CONTINUOUS
10
173.469
20
-129.198
11
173.527
21
-129.45
0
LINE
8
BLACK
6
CONTINUOUS
10
173.527
20
-129.45
11
173.621
21
-129.691
0
LINE
8
BLACK
6
CONTINUOUS
10
173.621
20
-129.691
11
173.751
21
-129.914
0
LINE
8
BLACK
6
CONTINUOUS
10
173.751
20
-129.914
11
173.912
21
-130.117
0
LINE
8
BLACK
6
CONTINUOUS
10
173.912
20
-130.117
11
174.101
21
-130.292
0
LINE
8
BLACK
6
CONTINUOUS
10
174.101
20
-130.292
11
174.315
21
-130.438
0
LINE
8
BLACK
6
CONTINUOUS
10
174.315
20
-130.438
11
174.548
21
-130.55
0
LINE
8
BLACK
6
CONTINUOUS
10
174.548
20
-130.55
11
174.795
21
-130.626
0
LINE
8
BLACK
6
CONTINUOUS
10
174.795
20
-130.626
11
175.051
21
-130.665
0
LINE
8
BLACK
6
CONTINUOUS
10
175.051
20
-130.665
11
175.309
21
-130.665
0
LINE
8
BLACK
6
CONTINUOUS
10
175.309
20
-130.665
11
175.565
21
-130.626
0
LINE
8
BLACK
6
CONTINUOUS
10
175.565
20
-130.626
11
175.812
21
-130.55
0
LINE
8
BLACK
6
CONTINUOUS
10
175.812
20
-130.55
11
176.045
21
-130.438
0
LINE
8
BLACK
6
CONTINUOUS
10
176.045
20
-130.438
11
176.259
21
-130.292
0
LINE
8
BLACK
6
CONTINUOUS
10
176.259
20
-130.292
11
176.448
21
-130.117
0
LINE
8
BLACK
6
CONTINUOUS
10
176.448
20
-130.117
11
176.609
21
-129.914
0
LINE
8
BLACK
6
CONTINUOUS
10
176.609
20
-129.914
11
176.739
21
-129.691
0
LINE
8
BLACK
6
CONTINUOUS
10
176.739
20
-129.691
11
176.833
21
-129.45
0
LINE
8
BLACK
6
CONTINUOUS
10
176.833
20
-129.45
11
176.891
21
-129.198
0
LINE
8
BLACK
6
CONTINUOUS
10
176.891
20
-129.198
11
176.91
21
-128.94
0
LINE
8
BLACK
6
CONTINUOUS
10
176.91
20
-128.94
11
176.891
21
-128.682
0
LINE
8
BLACK
6
CONTINUOUS
10
176.891
20
-128.682
11
176.833
21
-128.43
0
LINE
8
BLACK
6
CONTINUOUS
10
176.833
20
-128.43
11
176.739
21
-128.189
0
LINE
8
BLACK
6
CONTINUOUS
10
176.739
20
-128.189
11
176.609
21
-127.966
0
LINE
8
BLACK
6
CONTINUOUS
10
176.609
20
-127.966
11
176.448
21
-127.763
0
LINE
8
BLACK
6
CONTINUOUS
10
176.448
20
-127.763
11
176.259
21
-127.588
0
LINE
8
BLACK
6
CONTINUOUS
10
176.259
20
-127.588
11
176.045
21
-127.442
0
LINE
8
BLACK
6
CONTINUOUS
10
176.045
20
-127.442
11
175.812
21
-127.33
0
LINE
8
BLACK
6
CONTINUOUS
10
175.812
20
-127.33
11
175.565
21
-127.254
0
LINE
8
BLACK
6
CONTINUOUS
10
175.565
20
-127.254
11
175.309
21
-127.215
0
LINE
8
BLACK
6
CONTINUOUS
10
175.309
20
-127.215
11
175.051
21
-127.215
0
LINE
8
BLACK
6
CONTINUOUS
10
175.051
20
-127.215
11
174.795
21
-127.254
0
LINE
8
BLACK
6
CONTINUOUS
10
174.795
20
-127.254
11
174.548
21
-127.33
0
LINE
8
BLACK
6
CONTINUOUS
10
174.548
20
-127.33
11
174.315
21
-127.442
0
LINE
8
BLACK
6
CONTINUOUS
10
174.315
20
-127.442
11
174.101
21
-127.588
0
LINE
8
BLACK
6
CONTINUOUS
10
174.101
20
-127.588
11
173.912
21
-127.763
0
LINE
8
BLACK
6
CONTINUOUS
10
173.912
20
-127.763
11
173.751
21
-127.966
0
LINE
8
BLACK
6
CONTINUOUS
10
173.751
20
-127.966
11
173.621
21
-128.189
0
LINE
8
BLACK
6
CONTINUOUS
10
173.621
20
-128.189
11
173.527
21
-128.43
0
LINE
8
BLACK
6
CONTINUOUS
10
173.527
20
-128.43
11
173.469
21
-128.682
0
LINE
8
BLACK
6
CONTINUOUS
10
173.469
20
-128.682
11
173.45
21
-128.94
0
LINE
8
BLACK
6
CONTINUOUS
10
171.605
20
-128.94
11
171.625
21
-128.566
0
LINE
8
BLACK
6
CONTINUOUS
10
171.625
20
-128.566
11
171.683
21
-128.197
0
LINE
8
BLACK
6
CONTINUOUS
10
171.683
20
-128.197
11
171.78
21
-127.835
0
LINE
8
BLACK
6
CONTINUOUS
10
171.78
20
-127.835
11
171.914
21
-127.486
0
LINE
8
BLACK
6
CONTINUOUS
10
171.914
20
-127.486
11
172.084
21
-127.152
0
LINE
8
BLACK
6
CONTINUOUS
10
172.084
20
-127.152
11
172.288
21
-126.839
0
LINE
8
BLACK
6
CONTINUOUS
10
172.288
20
-126.839
11
172.523
21
-126.548
0
LINE
8
BLACK
6
CONTINUOUS
10
172.523
20
-126.548
11
172.788
21
-126.283
0
LINE
8
BLACK
6
CONTINUOUS
10
172.788
20
-126.283
11
173.079
21
-126.048
0
LINE
8
BLACK
6
CONTINUOUS
10
173.079
20
-126.048
11
173.392
21
-125.844
0
LINE
8
BLACK
6
CONTINUOUS
10
173.392
20
-125.844
11
173.726
21
-125.674
0
LINE
8
BLACK
6
CONTINUOUS
10
173.726
20
-125.674
11
174.075
21
-125.54
0
LINE
8
BLACK
6
CONTINUOUS
10
174.075
20
-125.54
11
174.437
21
-125.443
0
LINE
8
BLACK
6
CONTINUOUS
10
174.437
20
-125.443
11
174.806
21
-125.385
0
LINE
8
BLACK
6
CONTINUOUS
10
174.806
20
-125.385
11
175.18
21
-125.365
0
LINE
8
BLACK
6
CONTINUOUS
10
175.18
20
-125.365
11
175.554
21
-125.385
0
LINE
8
BLACK
6
CONTINUOUS
10
175.554
20
-125.385
11
175.923
21
-125.443
0
LINE
8
BLACK
6
CONTINUOUS
10
175.923
20
-125.443
11
176.285
21
-125.54
0
LINE
8
BLACK
6
CONTINUOUS
10
176.285
20
-125.54
11
176.634
21
-125.674
0
LINE
8
BLACK
6
CONTINUOUS
10
176.634
20
-125.674
11
176.968
21
-125.844
0
LINE
8
BLACK
6
CONTINUOUS
10
176.968
20
-125.844
11
177.281
21
-126.048
0
LINE
8
BLACK
6
CONTINUOUS
10
177.281
20
-126.048
11
177.572
21
-126.283
0
LINE
8
BLACK
6
CONTINUOUS
10
177.572
20
-126.283
11
177.837
21
-126.548
0
LINE
8
BLACK
6
CONTINUOUS
10
177.837
20
-126.548
11
178.072
21
-126.839
0
LINE
8
BLACK
6
CONTINUOUS
10
178.072
20
-126.839
11
178.276
21
-127.152
0
LINE
8
BLACK
6
CONTINUOUS
10
178.276
20
-127.152
11
178.446
21
-127.486
0
LINE
8
BLACK
6
CONTINUOUS
10
178.446
20
-127.486
11
178.58
21
-127.835
0
LINE
8
BLACK
6
CONTINUOUS
10
178.58
20
-127.835
11
178.677
21
-128.197
0
LINE
8
BLACK
6
CONTINUOUS
10
178.677
20
-128.197
11
178.735
21
-128.566
0
LINE
8
BLACK
6
CONTINUOUS
10
178.735
20
-128.566
11
178.755
21
-128.94
0
LINE
8
BLACK
6
CONTINUOUS
10
178.755
20
-128.94
11
178.735
21
-129.314
0
LINE
8
BLACK
6
CONTINUOUS
10
178.735
20
-129.314
11
178.677
21
-129.683
0
LINE
8
BLACK
6
CONTINUOUS
10
178.677
20
-129.683
11
178.58
21
-130.045
0
LINE
8
BLACK
6
CONTINUOUS
10
178.58
20
-130.045
11
178.446
21
-130.394
0
LINE
8
BLACK
6
CONTINUOUS
10
178.446
20
-130.394
11
178.276
21
-130.728
0
LINE
8
BLACK
6
CONTINUOUS
10
178.276
20
-130.728
11
178.072
21
-131.041
0
LINE
8
BLACK
6
CONTINUOUS
10
178.072
20
-131.041
11
177.837
21
-131.332
0
LINE
8
BLACK
6
CONTINUOUS
10
177.837
20
-131.332
11
177.572
21
-131.597
0
LINE
8
BLACK
6
CONTINUOUS
10
177.572
20
-131.597
11
177.281
21
-131.832
0
LINE
8
BLACK
6
CONTINUOUS
10
177.281
20
-131.832
11
176.968
21
-132.036
0
LINE
8
BLACK
6
CONTINUOUS
10
176.968
20
-132.036
11
176.634
21
-132.206
0
LINE
8
BLACK
6
CONTINUOUS
10
176.634
20
-132.206
11
176.285
21
-132.34
0
LINE
8
BLACK
6
CONTINUOUS
10
176.285
20
-132.34
11
175.923
21
-132.437
0
LINE
8
BLACK
6
CONTINUOUS
10
175.923
20
-132.437
11
175.554
21
-132.495
0
LINE
8
BLACK
6
CONTINUOUS
10
175.554
20
-132.495
11
175.18
21
-132.515
0
LINE
8
BLACK
6
CONTINUOUS
10
175.18
20
-132.515
11
174.806
21
-132.495
0
LINE
8
BLACK
6
CONTINUOUS
10
174.806
20
-132.495
11
174.437
21
-132.437
0
LINE
8
BLACK
6
CONTINUOUS
10
174.437
20
-132.437
11
174.075
21
-132.34
0
LINE
8
BLACK
6
CONTINUOUS
10
174.075
20
-132.34
11
173.726
21
-132.206
0
LINE
8
BLACK
6
CONTINUOUS
10
173.726
20
-132.206
11
173.392
21
-132.036
0
LINE
8
BLACK
6
CONTINUOUS
10
173.392
20
-132.036
11
173.079
21
-131.832
0
LINE
8
BLACK
6
CONTINUOUS
10
173.079
20
-131.832
11
172.788
21
-131.597
0
LINE
8
BLACK
6
CONTINUOUS
10
172.788
20
-131.597
11
172.523
21
-131.332
0
LINE
8
BLACK
6
CONTINUOUS
10
172.523
20
-131.332
11
172.288
21
-131.041
0
LINE
8
BLACK
6
CONTINUOUS
10
172.288
20
-131.041
11
172.084
21
-130.728
0
LINE
8
BLACK
6
CONTINUOUS
10
172.084
20
-130.728
11
171.914
21
-130.394
0
LINE
8
BLACK
6
CONTINUOUS
10
171.914
20
-130.394
11
171.78
21
-130.045
0
LINE
8
BLACK
6
CONTINUOUS
10
171.78
20
-130.045
11
171.683
21
-129.683
0
LINE
8
BLACK
6
CONTINUOUS
10
171.683
20
-129.683
11
171.625
21
-129.314
0
LINE
8
BLACK
6
CONTINUOUS
10
171.625
20
-129.314
11
171.605
21
-128.94
0
LINE
8
BLACK
6
CONTINUOUS
10
171.75
20
-128.94
11
171.77
21
-129.311
0
LINE
8
BLACK
6
CONTINUOUS
10
171.77
20
-129.311
11
171.83
21
-129.677
0
LINE
8
BLACK
6
CONTINUOUS
10
171.83
20
-129.677
11
171.93
21
-130.035
0
LINE
8
BLACK
6
CONTINUOUS
10
171.93
20
-130.035
11
172.067
21
-130.38
0
LINE
8
BLACK
6
CONTINUOUS
10
172.067
20
-130.38
11
172.241
21
-130.708
0
LINE
8
BLACK
6
CONTINUOUS
10
172.241
20
-130.708
11
172.449
21
-131.016
0
LINE
8
BLACK
6
CONTINUOUS
10
172.449
20
-131.016
11
172.69
21
-131.299
0
LINE
8
BLACK
6
CONTINUOUS
10
172.69
20
-131.299
11
172.959
21
-131.554
0
LINE
8
BLACK
6
CONTINUOUS
10
172.959
20
-131.554
11
173.255
21
-131.779
0
LINE
8
BLACK
6
CONTINUOUS
10
173.255
20
-131.779
11
173.573
21
-131.97
0
LINE
8
BLACK
6
CONTINUOUS
10
173.573
20
-131.97
11
173.91
21
-132.126
0
LINE
8
BLACK
6
CONTINUOUS
10
173.91
20
-132.126
11
174.262
21
-132.245
0
LINE
8
BLACK
6
CONTINUOUS
10
174.262
20
-132.245
11
174.625
21
-132.325
0
LINE
8
BLACK
6
CONTINUOUS
10
174.625
20
-132.325
11
174.994
21
-132.365
0
LINE
8
BLACK
6
CONTINUOUS
10
174.994
20
-132.365
11
175.366
21
-132.365
0
LINE
8
BLACK
6
CONTINUOUS
10
175.366
20
-132.365
11
175.735
21
-132.325
0
LINE
8
BLACK
6
CONTINUOUS
10
175.735
20
-132.325
11
176.098
21
-132.245
0
LINE
8
BLACK
6
CONTINUOUS
10
176.098
20
-132.245
11
176.45
21
-132.126
0
LINE
8
BLACK
6
CONTINUOUS
10
176.45
20
-132.126
11
176.787
21
-131.97
0
LINE
8
BLACK
6
CONTINUOUS
10
176.787
20
-131.97
11
177.105
21
-131.779
0
LINE
8
BLACK
6
CONTINUOUS
10
177.105
20
-131.779
11
177.401
21
-131.554
0
LINE
8
BLACK
6
CONTINUOUS
10
177.401
20
-131.554
11
177.67
21
-131.299
0
LINE
8
BLACK
6
CONTINUOUS
10
177.67
20
-131.299
11
177.911
21
-131.016
0
LINE
8
BLACK
6
CONTINUOUS
10
177.911
20
-131.016
11
178.119
21
-130.708
0
LINE
8
BLACK
6
CONTINUOUS
10
178.119
20
-130.708
11
178.293
21
-130.38
0
LINE
8
BLACK
6
CONTINUOUS
10
178.293
20
-130.38
11
178.43
21
-130.035
0
LINE
8
BLACK
6
CONTINUOUS
10
178.43
20
-130.035
11
178.53
21
-129.677
0
LINE
8
BLACK
6
CONTINUOUS
10
178.53
20
-129.677
11
178.59
21
-129.311
0
LINE
8
BLACK
6
CONTINUOUS
10
178.59
20
-129.311
11
178.61
21
-128.94
0
LINE
8
BLACK
6
CONTINUOUS
10
178.61
20
-128.94
11
178.59
21
-128.569
0
LINE
8
BLACK
6
CONTINUOUS
10
178.59
20
-128.569
11
178.53
21
-128.203
0
LINE
8
BLACK
6
CONTINUOUS
10
178.53
20
-128.203
11
178.43
21
-127.845
0
LINE
8
BLACK
6
CONTINUOUS
10
178.43
20
-127.845
11
178.293
21
-127.5
0
LINE
8
BLACK
6
CONTINUOUS
10
178.293
20
-127.5
11
178.119
21
-127.172
0
LINE
8
BLACK
6
CONTINUOUS
10
178.119
20
-127.172
11
177.911
21
-126.864
0
LINE
8
BLACK
6
CONTINUOUS
10
177.911
20
-126.864
11
177.67
21
-126.581
0
LINE
8
BLACK
6
CONTINUOUS
10
177.67
20
-126.581
11
177.401
21
-126.326
0
LINE
8
BLACK
6
CONTINUOUS
10
177.401
20
-126.326
11
177.105
21
-126.101
0
LINE
8
BLACK
6
CONTINUOUS
10
177.105
20
-126.101
11
176.787
21
-125.91
0
LINE
8
BLACK
6
CONTINUOUS
10
176.787
20
-125.91
11
176.45
21
-125.754
0
LINE
8
BLACK
6
CONTINUOUS
10
176.45
20
-125.754
11
176.098
21
-125.635
0
LINE
8
BLACK
6
CONTINUOUS
10
176.098
20
-125.635
11
175.735
21
-125.555
0
LINE
8
BLACK
6
CONTINUOUS
10
175.735
20
-125.555
11
175.366
21
-125.515
0
LINE
8
BLACK
6
CONTINUOUS
10
175.366
20
-125.515
11
174.994
21
-125.515
0
LINE
8
BLACK
6
CONTINUOUS
10
174.994
20
-125.515
11
174.625
21
-125.555
0
LINE
8
BLACK
6
CONTINUOUS
10
174.625
20
-125.555
11
174.262
21
-125.635
0
LINE
8
BLACK
6
CONTINUOUS
10
174.262
20
-125.635
11
173.91
21
-125.754
0
LINE
8
BLACK
6
CONTINUOUS
10
173.91
20
-125.754
11
173.573
21
-125.91
0
LINE
8
BLACK
6
CONTINUOUS
10
173.573
20
-125.91
11
173.255
21
-126.101
0
LINE
8
BLACK
6
CONTINUOUS
10
173.255
20
-126.101
11
172.959
21
-126.326
0
LINE
8
BLACK
6
CONTINUOUS
10
172.959
20
-126.326
11
172.69
21
-126.581
0
LINE
8
BLACK
6
CONTINUOUS
10
172.69
20
-126.581
11
172.449
21
-126.864
0
LINE
8
BLACK
6
CONTINUOUS
10
172.449
20
-126.864
11
172.241
21
-127.172
0
LINE
8
BLACK
6
CONTINUOUS
10
172.241
20
-127.172
11
172.067
21
-127.5
0
LINE
8
BLACK
6
CONTINUOUS
10
172.067
20
-127.5
11
171.93
21
-127.845
0
LINE
8
BLACK
6
CONTINUOUS
10
171.93
20
-127.845
11
171.83
21
-128.203
0
LINE
8
BLACK
6
CONTINUOUS
10
171.83
20
-128.203
11
171.77
21
-128.569
0
LINE
8
BLACK
6
CONTINUOUS
10
171.77
20
-128.569
11
171.75
21
-128.94
0
LINE
8
BLACK
6
CONTINUOUS
10
217.075
20
-128.58
11
217.094
21
-128.206
0
LINE
8
BLACK
6
CONTINUOUS
10
217.094
20
-128.206
11
217.153
21
-127.837
0
LINE
8
BLACK
6
CONTINUOUS
10
217.153
20
-127.837
11
217.25
21
-127.475
0
LINE
8
BLACK
6
CONTINUOUS
10
217.25
20
-127.475
11
217.384
21
-127.126
0
LINE
8
BLACK
6
CONTINUOUS
10
217.384
20
-127.126
11
217.554
21
-126.792
0
LINE
8
BLACK
6
CONTINUOUS
10
217.554
20
-126.792
11
217.757
21
-126.478
0
LINE
8
BLACK
6
CONTINUOUS
10
217.757
20
-126.478
11
217.993
21
-126.188
0
LINE
8
BLACK
6
CONTINUOUS
10
217.993
20
-126.188
11
218.258
21
-125.923
0
LINE
8
BLACK
6
CONTINUOUS
10
218.258
20
-125.923
11
218.548
21
-125.687
0
LINE
8
BLACK
6
CONTINUOUS
10
218.548
20
-125.687
11
218.862
21
-125.484
0
LINE
8
BLACK
6
CONTINUOUS
10
218.862
20
-125.484
11
219.196
21
-125.314
0
LINE
8
BLACK
6
CONTINUOUS
10
219.196
20
-125.314
11
219.545
21
-125.18
0
LINE
8
BLACK
6
CONTINUOUS
10
219.545
20
-125.18
11
219.907
21
-125.083
0
LINE
8
BLACK
6
CONTINUOUS
10
219.907
20
-125.083
11
220.276
21
-125.024
0
LINE
8
BLACK
6
CONTINUOUS
10
220.276
20
-125.024
11
220.65
21
-125.005
0
LINE
8
BLACK
6
CONTINUOUS
10
220.65
20
-125.005
11
221.024
21
-125.024
0
LINE
8
BLACK
6
CONTINUOUS
10
221.024
20
-125.024
11
221.393
21
-125.083
0
LINE
8
BLACK
6
CONTINUOUS
10
221.393
20
-125.083
11
221.755
21
-125.18
0
LINE
8
BLACK
6
CONTINUOUS
10
221.755
20
-125.18
11
222.104
21
-125.314
0
LINE
8
BLACK
6
CONTINUOUS
10
222.104
20
-125.314
11
222.438
21
-125.484
0
LINE
8
BLACK
6
CONTINUOUS
10
222.438
20
-125.484
11
222.752
21
-125.687
0
LINE
8
BLACK
6
CONTINUOUS
10
222.752
20
-125.687
11
223.042
21
-125.923
0
LINE
8
BLACK
6
CONTINUOUS
10
223.042
20
-125.923
11
223.307
21
-126.188
0
LINE
8
BLACK
6
CONTINUOUS
10
223.307
20
-126.188
11
223.543
21
-126.478
0
LINE
8
BLACK
6
CONTINUOUS
10
223.543
20
-126.478
11
223.746
21
-126.792
0
LINE
8
BLACK
6
CONTINUOUS
10
223.746
20
-126.792
11
223.916
21
-127.126
0
LINE
8
BLACK
6
CONTINUOUS
10
223.916
20
-127.126
11
224.05
21
-127.475
0
LINE
8
BLACK
6
CONTINUOUS
10
224.05
20
-127.475
11
224.147
21
-127.837
0
LINE
8
BLACK
6
CONTINUOUS
10
224.147
20
-127.837
11
224.206
21
-128.206
0
LINE
8
BLACK
6
CONTINUOUS
10
224.206
20
-128.206
11
224.225
21
-128.58
0
LINE
8
BLACK
6
CONTINUOUS
10
224.225
20
-128.58
11
224.206
21
-128.954
0
LINE
8
BLACK
6
CONTINUOUS
10
224.206
20
-128.954
11
224.147
21
-129.323
0
LINE
8
BLACK
6
CONTINUOUS
10
224.147
20
-129.323
11
224.05
21
-129.685
0
LINE
8
BLACK
6
CONTINUOUS
10
224.05
20
-129.685
11
223.916
21
-130.034
0
LINE
8
BLACK
6
CONTINUOUS
10
223.916
20
-130.034
11
223.746
21
-130.368
0
LINE
8
BLACK
6
CONTINUOUS
10
223.746
20
-130.368
11
223.543
21
-130.682
0
LINE
8
BLACK
6
CONTINUOUS
10
223.543
20
-130.682
11
223.307
21
-130.972
0
LINE
8
BLACK
6
CONTINUOUS
10
223.307
20
-130.972
11
223.042
21
-131.237
0
LINE
8
BLACK
6
CONTINUOUS
10
223.042
20
-131.237
11
222.752
21
-131.473
0
LINE
8
BLACK
6
CONTINUOUS
10
222.752
20
-131.473
11
222.438
21
-131.676
0
LINE
8
BLACK
6
CONTINUOUS
10
222.438
20
-131.676
11
222.104
21
-131.846
0
LINE
8
BLACK
6
CONTINUOUS
10
222.104
20
-131.846
11
221.755
21
-131.98
0
LINE
8
BLACK
6
CONTINUOUS
10
221.755
20
-131.98
11
221.393
21
-132.077
0
LINE
8
BLACK
6
CONTINUOUS
10
221.393
20
-132.077
11
221.024
21
-132.136
0
LINE
8
BLACK
6
CONTINUOUS
10
221.024
20
-132.136
11
220.65
21
-132.155
0
LINE
8
BLACK
6
CONTINUOUS
10
220.65
20
-132.155
11
220.276
21
-132.136
0
LINE
8
BLACK
6
CONTINUOUS
10
220.276
20
-132.136
11
219.907
21
-132.077
0
LINE
8
BLACK
6
CONTINUOUS
10
219.907
20
-132.077
11
219.545
21
-131.98
0
LINE
8
BLACK
6
CONTINUOUS
10
219.545
20
-131.98
11
219.196
21
-131.846
0
LINE
8
BLACK
6
CONTINUOUS
10
219.196
20
-131.846
11
218.862
21
-131.676
0
LINE
8
BLACK
6
CONTINUOUS
10
218.862
20
-131.676
11
218.548
21
-131.473
0
LINE
8
BLACK
6
CONTINUOUS
10
218.548
20
-131.473
11
218.258
21
-131.237
0
LINE
8
BLACK
6
CONTINUOUS
10
218.258
20
-131.237
11
217.993
21
-130.972
0
LINE
8
BLACK
6
CONTINUOUS
10
217.993
20
-130.972
11
217.757
21
-130.682
0
LINE
8
BLACK
6
CONTINUOUS
10
217.757
20
-130.682
11
217.554
21
-130.368
0
LINE
8
BLACK
6
CONTINUOUS
10
217.554
20
-130.368
11
217.384
21
-130.034
0
LINE
8
BLACK
6
CONTINUOUS
10
217.384
20
-130.034
11
217.25
21
-129.685
0
LINE
8
BLACK
6
CONTINUOUS
10
217.25
20
-129.685
11
217.153
21
-129.323
0
LINE
8
BLACK
6
CONTINUOUS
10
217.153
20
-129.323
11
217.094
21
-128.954
0
LINE
8
BLACK
6
CONTINUOUS
10
217.094
20
-128.954
11
217.075
21
-128.58
0
LINE
8
BLACK
6
CONTINUOUS
10
217.22
20
-128.58
11
217.24
21
-128.951
0
LINE
8
BLACK
6
CONTINUOUS
10
217.24
20
-128.951
11
217.3
21
-129.317
0
LINE
8
BLACK
6
CONTINUOUS
10
217.3
20
-129.317
11
217.399
21
-129.675
0
LINE
8
BLACK
6
CONTINUOUS
10
217.399
20
-129.675
11
217.537
21
-130.02
0
LINE
8
BLACK
6
CONTINUOUS
10
217.537
20
-130.02
11
217.711
21
-130.349
0
LINE
8
BLACK
6
CONTINUOUS
10
217.711
20
-130.349
11
217.919
21
-130.656
0
LINE
8
BLACK
6
CONTINUOUS
10
217.919
20
-130.656
11
218.16
21
-130.939
0
LINE
8
BLACK
6
CONTINUOUS
10
218.16
20
-130.939
11
218.429
21
-131.195
0
LINE
8
BLACK
6
CONTINUOUS
10
218.429
20
-131.195
11
218.725
21
-131.419
0
LINE
8
BLACK
6
CONTINUOUS
10
218.725
20
-131.419
11
219.043
21
-131.611
0
LINE
8
BLACK
6
CONTINUOUS
10
219.043
20
-131.611
11
219.38
21
-131.767
0
LINE
8
BLACK
6
CONTINUOUS
10
219.38
20
-131.767
11
219.732
21
-131.885
0
LINE
8
BLACK
6
CONTINUOUS
10
219.732
20
-131.885
11
220.095
21
-131.965
0
LINE
8
BLACK
6
CONTINUOUS
10
220.095
20
-131.965
11
220.464
21
-132.005
0
LINE
8
BLACK
6
CONTINUOUS
10
220.464
20
-132.005
11
220.836
21
-132.005
0
LINE
8
BLACK
6
CONTINUOUS
10
220.836
20
-132.005
11
221.205
21
-131.965
0
LINE
8
BLACK
6
CONTINUOUS
10
221.205
20
-131.965
11
221.568
21
-131.885
0
LINE
8
BLACK
6
CONTINUOUS
10
221.568
20
-131.885
11
221.92
21
-131.767
0
LINE
8
BLACK
6
CONTINUOUS
10
221.92
20
-131.767
11
222.257
21
-131.611
0
LINE
8
BLACK
6
CONTINUOUS
10
222.257
20
-131.611
11
222.575
21
-131.419
0
LINE
8
BLACK
6
CONTINUOUS
10
222.575
20
-131.419
11
222.871
21
-131.195
0
LINE
8
BLACK
6
CONTINUOUS
10
222.871
20
-131.195
11
223.14
21
-130.939
0
LINE
8
BLACK
6
CONTINUOUS
10
223.14
20
-130.939
11
223.381
21
-130.656
0
LINE
8
BLACK
6
CONTINUOUS
10
223.381
20
-130.656
11
223.589
21
-130.349
0
LINE
8
BLACK
6
CONTINUOUS
10
223.589
20
-130.349
11
223.763
21
-130.02
0
LINE
8
BLACK
6
CONTINUOUS
10
223.763
20
-130.02
11
223.901
21
-129.675
0
LINE
8
BLACK
6
CONTINUOUS
10
223.901
20
-129.675
11
224
21
-129.317
0
LINE
8
BLACK
6
CONTINUOUS
10
224
20
-129.317
11
224.06
21
-128.951
0
LINE
8
BLACK
6
CONTINUOUS
10
224.06
20
-128.951
11
224.08
21
-128.58
0
LINE
8
BLACK
6
CONTINUOUS
10
224.08
20
-128.58
11
224.06
21
-128.209
0
LINE
8
BLACK
6
CONTINUOUS
10
224.06
20
-128.209
11
224
21
-127.843
0
LINE
8
BLACK
6
CONTINUOUS
10
224
20
-127.843
11
223.901
21
-127.485
0
LINE
8
BLACK
6
CONTINUOUS
10
223.901
20
-127.485
11
223.763
21
-127.14
0
LINE
8
BLACK
6
CONTINUOUS
10
223.763
20
-127.14
11
223.589
21
-126.811
0
LINE
8
BLACK
6
CONTINUOUS
10
223.589
20
-126.811
11
223.381
21
-126.504
0
LINE
8
BLACK
6
CONTINUOUS
10
223.381
20
-126.504
11
223.14
21
-126.221
0
LINE
8
BLACK
6
CONTINUOUS
10
223.14
20
-126.221
11
222.871
21
-125.965
0
LINE
8
BLACK
6
CONTINUOUS
10
222.871
20
-125.965
11
222.575
21
-125.741
0
LINE
8
BLACK
6
CONTINUOUS
10
222.575
20
-125.741
11
222.257
21
-125.549
0
LINE
8
BLACK
6
CONTINUOUS
10
222.257
20
-125.549
11
221.92
21
-125.393
0
LINE
8
BLACK
6
CONTINUOUS
10
221.92
20
-125.393
11
221.568
21
-125.275
0
LINE
8
BLACK
6
CONTINUOUS
10
221.568
20
-125.275
11
221.205
21
-125.195
0
LINE
8
BLACK
6
CONTINUOUS
10
221.205
20
-125.195
11
220.836
21
-125.155
0
LINE
8
BLACK
6
CONTINUOUS
10
220.836
20
-125.155
11
220.464
21
-125.155
0
LINE
8
BLACK
6
CONTINUOUS
10
220.464
20
-125.155
11
220.095
21
-125.195
0
LINE
8
BLACK
6
CONTINUOUS
10
220.095
20
-125.195
11
219.732
21
-125.275
0
LINE
8
BLACK
6
CONTINUOUS
10
219.732
20
-125.275
11
219.38
21
-125.393
0
LINE
8
BLACK
6
CONTINUOUS
10
219.38
20
-125.393
11
219.043
21
-125.549
0
LINE
8
BLACK
6
CONTINUOUS
10
219.043
20
-125.549
11
218.725
21
-125.741
0
LINE
8
BLACK
6
CONTINUOUS
10
218.725
20
-125.741
11
218.429
21
-125.965
0
LINE
8
BLACK
6
CONTINUOUS
10
218.429
20
-125.965
11
218.16
21
-126.221
0
LINE
8
BLACK
6
CONTINUOUS
10
218.16
20
-126.221
11
217.919
21
-126.504
0
LINE
8
BLACK
6
CONTINUOUS
10
217.919
20
-126.504
11
217.711
21
-126.811
0
LINE
8
BLACK
6
CONTINUOUS
10
217.711
20
-126.811
11
217.537
21
-127.14
0
LINE
8
BLACK
6
CONTINUOUS
10
217.537
20
-127.14
11
217.399
21
-127.485
0
LINE
8
BLACK
6
CONTINUOUS
10
217.399
20
-127.485
11
217.3
21
-127.843
0
LINE
8
BLACK
6
CONTINUOUS
10
217.3
20
-127.843
11
217.24
21
-128.209
0
LINE
8
BLACK
6
CONTINUOUS
10
217.24
20
-128.209
11
217.22
21
-128.58
0
LINE
8
BLACK
6
CONTINUOUS
10
218.775
20
-128.58
11
218.794
21
-128.313
0
LINE
8
BLACK
6
CONTINUOUS
10
218.794
20
-128.313
11
218.851
21
-128.052
0
LINE
8
BLACK
6
CONTINUOUS
10
218.851
20
-128.052
11
218.944
21
-127.801
0
LINE
8
BLACK
6
CONTINUOUS
10
218.944
20
-127.801
11
219.073
21
-127.566
0
LINE
8
BLACK
6
CONTINUOUS
10
219.073
20
-127.566
11
219.233
21
-127.352
0
LINE
8
BLACK
6
CONTINUOUS
10
219.233
20
-127.352
11
219.422
21
-127.163
0
LINE
8
BLACK
6
CONTINUOUS
10
219.422
20
-127.163
11
219.636
21
-127.003
0
LINE
8
BLACK
6
CONTINUOUS
10
219.636
20
-127.003
11
219.871
21
-126.874
0
LINE
8
BLACK
6
CONTINUOUS
10
219.871
20
-126.874
11
220.122
21
-126.781
0
LINE
8
BLACK
6
CONTINUOUS
10
220.122
20
-126.781
11
220.383
21
-126.724
0
LINE
8
BLACK
6
CONTINUOUS
10
220.383
20
-126.724
11
220.65
21
-126.705
0
LINE
8
BLACK
6
CONTINUOUS
10
220.65
20
-126.705
11
220.917
21
-126.724
0
LINE
8
BLACK
6
CONTINUOUS
10
220.917
20
-126.724
11
221.178
21
-126.781
0
LINE
8
BLACK
6
CONTINUOUS
10
221.178
20
-126.781
11
221.429
21
-126.874
0
LINE
8
BLACK
6
CONTINUOUS
10
221.429
20
-126.874
11
221.664
21
-127.003
0
LINE
8
BLACK
6
CONTINUOUS
10
221.664
20
-127.003
11
221.878
21
-127.163
0
LINE
8
BLACK
6
CONTINUOUS
10
221.878
20
-127.163
11
222.067
21
-127.352
0
LINE
8
BLACK
6
CONTINUOUS
10
222.067
20
-127.352
11
222.227
21
-127.566
0
LINE
8
BLACK
6
CONTINUOUS
10
222.227
20
-127.566
11
222.356
21
-127.801
0
LINE
8
BLACK
6
CONTINUOUS
10
222.356
20
-127.801
11
222.449
21
-128.052
0
LINE
8
BLACK
6
CONTINUOUS
10
222.449
20
-128.052
11
222.506
21
-128.313
0
LINE
8
BLACK
6
CONTINUOUS
10
222.506
20
-128.313
11
222.525
21
-128.58
0
LINE
8
BLACK
6
CONTINUOUS
10
222.525
20
-128.58
11
222.506
21
-128.847
0
LINE
8
BLACK
6
CONTINUOUS
10
222.506
20
-128.847
11
222.449
21
-129.108
0
LINE
8
BLACK
6
CONTINUOUS
10
222.449
20
-129.108
11
222.356
21
-129.359
0
LINE
8
BLACK
6
CONTINUOUS
10
222.356
20
-129.359
11
222.227
21
-129.594
0
LINE
8
BLACK
6
CONTINUOUS
10
222.227
20
-129.594
11
222.067
21
-129.808
0
LINE
8
BLACK
6
CONTINUOUS
10
222.067
20
-129.808
11
221.878
21
-129.997
0
LINE
8
BLACK
6
CONTINUOUS
10
221.878
20
-129.997
11
221.664
21
-130.157
0
LINE
8
BLACK
6
CONTINUOUS
10
221.664
20
-130.157
11
221.429
21
-130.286
0
LINE
8
BLACK
6
CONTINUOUS
10
221.429
20
-130.286
11
221.178
21
-130.379
0
LINE
8
BLACK
6
CONTINUOUS
10
221.178
20
-130.379
11
220.917
21
-130.436
0
LINE
8
BLACK
6
CONTINUOUS
10
220.917
20
-130.436
11
220.65
21
-130.455
0
LINE
8
BLACK
6
CONTINUOUS
10
220.65
20
-130.455
11
220.383
21
-130.436
0
LINE
8
BLACK
6
CONTINUOUS
10
220.383
20
-130.436
11
220.122
21
-130.379
0
LINE
8
BLACK
6
CONTINUOUS
10
220.122
20
-130.379
11
219.871
21
-130.286
0
LINE
8
BLACK
6
CONTINUOUS
10
219.871
20
-130.286
11
219.636
21
-130.157
0
LINE
8
BLACK
6
CONTINUOUS
10
219.636
20
-130.157
11
219.422
21
-129.997
0
LINE
8
BLACK
6
CONTINUOUS
10
219.422
20
-129.997
11
219.233
21
-129.808
0
LINE
8
BLACK
6
CONTINUOUS
10
219.233
20
-129.808
11
219.073
21
-129.594
0
LINE
8
BLACK
6
CONTINUOUS
10
219.073
20
-129.594
11
218.944
21
-129.359
0
LINE
8
BLACK
6
CONTINUOUS
10
218.944
20
-129.359
11
218.851
21
-129.108
0
LINE
8
BLACK
6
CONTINUOUS
10
218.851
20
-129.108
11
218.794
21
-128.847
0
LINE
8
BLACK
6
CONTINUOUS
10
218.794
20
-128.847
11
218.775
21
-128.58
0
LINE
8
BLACK
6
CONTINUOUS
10
218.92
20
-128.58
11
218.939
21
-128.838
0
LINE
8
BLACK
6
CONTINUOUS
10
218.939
20
-128.838
11
218.997
21
-129.09
0
LINE
8
BLACK
6
CONTINUOUS
10
218.997
20
-129.09
11
219.091
21
-129.331
0
LINE
8
BLACK
6
CONTINUOUS
10
219.091
20
-129.331
11
219.221
21
-129.554
0
LINE
8
BLACK
6
CONTINUOUS
10
219.221
20
-129.554
11
219.382
21
-129.757
0
LINE
8
BLACK
6
CONTINUOUS
10
219.382
20
-129.757
11
219.571
21
-129.932
0
LINE
8
BLACK
6
CONTINUOUS
10
219.571
20
-129.932
11
219.785
21
-130.078
0
LINE
8
BLACK
6
CONTINUOUS
10
219.785
20
-130.078
11
220.018
21
-130.19
0
LINE
8
BLACK
6
CONTINUOUS
10
220.018
20
-130.19
11
220.265
21
-130.266
0
LINE
8
BLACK
6
CONTINUOUS
10
220.265
20
-130.266
11
220.521
21
-130.305
0
LINE
8
BLACK
6
CONTINUOUS
10
220.521
20
-130.305
11
220.779
21
-130.305
0
LINE
8
BLACK
6
CONTINUOUS
10
220.779
20
-130.305
11
221.035
21
-130.266
0
LINE
8
BLACK
6
CONTINUOUS
10
221.035
20
-130.266
11
221.282
21
-130.19
0
LINE
8
BLACK
6
CONTINUOUS
10
221.282
20
-130.19
11
221.515
21
-130.078
0
LINE
8
BLACK
6
CONTINUOUS
10
221.515
20
-130.078
11
221.729
21
-129.932
0
LINE
8
BLACK
6
CONTINUOUS
10
221.729
20
-129.932
11
221.918
21
-129.757
0
LINE
8
BLACK
6
CONTINUOUS
10
221.918
20
-129.757
11
222.079
21
-129.554
0
LINE
8
BLACK
6
CONTINUOUS
10
222.079
20
-129.554
11
222.209
21
-129.331
0
LINE
8
BLACK
6
CONTINUOUS
10
222.209
20
-129.331
11
222.303
21
-129.09
0
LINE
8
BLACK
6
CONTINUOUS
10
222.303
20
-129.09
11
222.361
21
-128.838
0
LINE
8
BLACK
6
CONTINUOUS
10
222.361
20
-128.838
11
222.38
21
-128.58
0
LINE
8
BLACK
6
CONTINUOUS
10
222.38
20
-128.58
11
222.361
21
-128.322
0
LINE
8
BLACK
6
CONTINUOUS
10
222.361
20
-128.322
11
222.303
21
-128.07
0
LINE
8
BLACK
6
CONTINUOUS
10
222.303
20
-128.07
11
222.209
21
-127.829
0
LINE
8
BLACK
6
CONTINUOUS
10
222.209
20
-127.829
11
222.079
21
-127.606
0
LINE
8
BLACK
6
CONTINUOUS
10
222.079
20
-127.606
11
221.918
21
-127.403
0
LINE
8
BLACK
6
CONTINUOUS
10
221.918
20
-127.403
11
221.729
21
-127.228
0
LINE
8
BLACK
6
CONTINUOUS
10
221.729
20
-127.228
11
221.515
21
-127.082
0
LINE
8
BLACK
6
CONTINUOUS
10
221.515
20
-127.082
11
221.282
21
-126.97
0
LINE
8
BLACK
6
CONTINUOUS
10
221.282
20
-126.97
11
221.035
21
-126.894
0
LINE
8
BLACK
6
CONTINUOUS
10
221.035
20
-126.894
11
220.779
21
-126.855
0
LINE
8
BLACK
6
CONTINUOUS
10
220.779
20
-126.855
11
220.521
21
-126.855
0
LINE
8
BLACK
6
CONTINUOUS
10
220.521
20
-126.855
11
220.265
21
-126.894
0
LINE
8
BLACK
6
CONTINUOUS
10
220.265
20
-126.894
11
220.018
21
-126.97
0
LINE
8
BLACK
6
CONTINUOUS
10
220.018
20
-126.97
11
219.785
21
-127.082
0
LINE
8
BLACK
6
CONTINUOUS
10
219.785
20
-127.082
11
219.571
21
-127.228
0
LINE
8
BLACK
6
CONTINUOUS
10
219.571
20
-127.228
11
219.382
21
-127.403
0
LINE
8
BLACK
6
CONTINUOUS
10
219.382
20
-127.403
11
219.221
21
-127.606
0
LINE
8
BLACK
6
CONTINUOUS
10
219.221
20
-127.606
11
219.091
21
-127.829
0
LINE
8
BLACK
6
CONTINUOUS
10
219.091
20
-127.829
11
218.997
21
-128.07
0
LINE
8
BLACK
6
CONTINUOUS
10
218.997
20
-128.07
11
218.939
21
-128.322
0
LINE
8
BLACK
6
CONTINUOUS
10
218.939
20
-128.322
11
218.92
21
-128.58
0
LINE
8
BLACK
6
CONTINUOUS
10
219.325
20
-128.58
11
219.345
21
-128.35
0
LINE
8
BLACK
6
CONTINUOUS
10
219.345
20
-128.35
11
219.405
21
-128.127
0
LINE
8
BLACK
6
CONTINUOUS
10
219.405
20
-128.127
11
219.502
21
-127.917
0
LINE
8
BLACK
6
CONTINUOUS
10
219.502
20
-127.917
11
219.635
21
-127.728
0
LINE
8
BLACK
6
CONTINUOUS
10
219.635
20
-127.728
11
219.798
21
-127.565
0
LINE
8
BLACK
6
CONTINUOUS
10
219.798
20
-127.565
11
219.987
21
-127.432
0
LINE
8
BLACK
6
CONTINUOUS
10
219.987
20
-127.432
11
220.197
21
-127.335
0
LINE
8
BLACK
6
CONTINUOUS
10
220.197
20
-127.335
11
220.42
21
-127.275
0
LINE
8
BLACK
6
CONTINUOUS
10
220.42
20
-127.275
11
220.65
21
-127.255
0
LINE
8
BLACK
6
CONTINUOUS
10
220.65
20
-127.255
11
220.88
21
-127.275
0
LINE
8
BLACK
6
CONTINUOUS
10
220.88
20
-127.275
11
221.103
21
-127.335
0
LINE
8
BLACK
6
CONTINUOUS
10
221.103
20
-127.335
11
221.313
21
-127.432
0
LINE
8
BLACK
6
CONTINUOUS
10
221.313
20
-127.432
11
221.502
21
-127.565
0
LINE
8
BLACK
6
CONTINUOUS
10
221.502
20
-127.565
11
221.665
21
-127.728
0
LINE
8
BLACK
6
CONTINUOUS
10
221.665
20
-127.728
11
221.798
21
-127.917
0
LINE
8
BLACK
6
CONTINUOUS
10
221.798
20
-127.917
11
221.895
21
-128.127
0
LINE
8
BLACK
6
CONTINUOUS
10
221.895
20
-128.127
11
221.955
21
-128.35
0
LINE
8
BLACK
6
CONTINUOUS
10
221.955
20
-128.35
11
221.975
21
-128.58
0
LINE
8
BLACK
6
CONTINUOUS
10
221.975
20
-128.58
11
221.955
21
-128.81
0
LINE
8
BLACK
6
CONTINUOUS
10
221.955
20
-128.81
11
221.895
21
-129.033
0
LINE
8
BLACK
6
CONTINUOUS
10
221.895
20
-129.033
11
221.798
21
-129.243
0
LINE
8
BLACK
6
CONTINUOUS
10
221.798
20
-129.243
11
221.665
21
-129.432
0
LINE
8
BLACK
6
CONTINUOUS
10
221.665
20
-129.432
11
221.502
21
-129.595
0
LINE
8
BLACK
6
CONTINUOUS
10
221.502
20
-129.595
11
221.313
21
-129.728
0
LINE
8
BLACK
6
CONTINUOUS
10
221.313
20
-129.728
11
221.103
21
-129.825
0
LINE
8
BLACK
6
CONTINUOUS
10
221.103
20
-129.825
11
220.88
21
-129.885
0
LINE
8
BLACK
6
CONTINUOUS
10
220.88
20
-129.885
11
220.65
21
-129.905
0
LINE
8
BLACK
6
CONTINUOUS
10
220.65
20
-129.905
11
220.42
21
-129.885
0
LINE
8
BLACK
6
CONTINUOUS
10
220.42
20
-129.885
11
220.197
21
-129.825
0
LINE
8
BLACK
6
CONTINUOUS
10
220.197
20
-129.825
11
219.987
21
-129.728
0
LINE
8
BLACK
6
CONTINUOUS
10
219.987
20
-129.728
11
219.798
21
-129.595
0
LINE
8
BLACK
6
CONTINUOUS
10
219.798
20
-129.595
11
219.635
21
-129.432
0
LINE
8
BLACK
6
CONTINUOUS
10
219.635
20
-129.432
11
219.502
21
-129.243
0
LINE
8
BLACK
6
CONTINUOUS
10
219.502
20
-129.243
11
219.405
21
-129.033
0
LINE
8
BLACK
6
CONTINUOUS
10
219.405
20
-129.033
11
219.345
21
-128.81
0
LINE
8
BLACK
6
CONTINUOUS
10
219.345
20
-128.81
11
219.325
21
-128.58
0
LINE
8
BLACK
6
CONTINUOUS
10
219.47
20
-128.58
11
219.49
21
-128.797
0
LINE
8
BLACK
6
CONTINUOUS
10
219.49
20
-128.797
11
219.55
21
-129.006
0
LINE
8
BLACK
6
CONTINUOUS
10
219.55
20
-129.006
11
219.647
21
-129.201
0
LINE
8
BLACK
6
CONTINUOUS
10
219.647
20
-129.201
11
219.778
21
-129.375
0
LINE
8
BLACK
6
CONTINUOUS
10
219.778
20
-129.375
11
219.939
21
-129.522
0
LINE
8
BLACK
6
CONTINUOUS
10
219.939
20
-129.522
11
220.124
21
-129.636
0
LINE
8
BLACK
6
CONTINUOUS
10
220.124
20
-129.636
11
220.327
21
-129.715
0
LINE
8
BLACK
6
CONTINUOUS
10
220.327
20
-129.715
11
220.541
21
-129.755
0
LINE
8
BLACK
6
CONTINUOUS
10
220.541
20
-129.755
11
220.759
21
-129.755
0
LINE
8
BLACK
6
CONTINUOUS
10
220.759
20
-129.755
11
220.973
21
-129.715
0
LINE
8
BLACK
6
CONTINUOUS
10
220.973
20
-129.715
11
221.176
21
-129.636
0
LINE
8
BLACK
6
CONTINUOUS
10
221.176
20
-129.636
11
221.361
21
-129.522
0
LINE
8
BLACK
6
CONTINUOUS
10
221.361
20
-129.522
11
221.522
21
-129.375
0
LINE
8
BLACK
6
CONTINUOUS
10
221.522
20
-129.375
11
221.653
21
-129.201
0
LINE
8
BLACK
6
CONTINUOUS
10
221.653
20
-129.201
11
221.75
21
-129.006
0
LINE
8
BLACK
6
CONTINUOUS
10
221.75
20
-129.006
11
221.81
21
-128.797
0
LINE
8
BLACK
6
CONTINUOUS
10
221.81
20
-128.797
11
221.83
21
-128.58
0
LINE
8
BLACK
6
CONTINUOUS
10
221.83
20
-128.58
11
221.81
21
-128.363
0
LINE
8
BLACK
6
CONTINUOUS
10
221.81
20
-128.363
11
221.75
21
-128.154
0
LINE
8
BLACK
6
CONTINUOUS
10
221.75
20
-128.154
11
221.653
21
-127.959
0
LINE
8
BLACK
6
CONTINUOUS
10
221.653
20
-127.959
11
221.522
21
-127.785
0
LINE
8
BLACK
6
CONTINUOUS
10
221.522
20
-127.785
11
221.361
21
-127.638
0
LINE
8
BLACK
6
CONTINUOUS
10
221.361
20
-127.638
11
221.176
21
-127.524
0
LINE
8
BLACK
6
CONTINUOUS
10
221.176
20
-127.524
11
220.973
21
-127.445
0
LINE
8
BLACK
6
CONTINUOUS
10
220.973
20
-127.445
11
220.759
21
-127.405
0
LINE
8
BLACK
6
CONTINUOUS
10
220.759
20
-127.405
11
220.541
21
-127.405
0
LINE
8
BLACK
6
CONTINUOUS
10
220.541
20
-127.405
11
220.327
21
-127.445
0
LINE
8
BLACK
6
CONTINUOUS
10
220.327
20
-127.445
11
220.124
21
-127.524
0
LINE
8
BLACK
6
CONTINUOUS
10
220.124
20
-127.524
11
219.939
21
-127.638
0
LINE
8
BLACK
6
CONTINUOUS
10
219.939
20
-127.638
11
219.778
21
-127.785
0
LINE
8
BLACK
6
CONTINUOUS
10
219.778
20
-127.785
11
219.647
21
-127.959
0
LINE
8
BLACK
6
CONTINUOUS
10
219.647
20
-127.959
11
219.55
21
-128.154
0
LINE
8
BLACK
6
CONTINUOUS
10
219.55
20
-128.154
11
219.49
21
-128.363
0
LINE
8
BLACK
6
CONTINUOUS
10
219.49
20
-128.363
11
219.47
21
-128.58
0
LINE
8
BLACK
6
CONTINUOUS
10
151.795
20
-71.374
11
151.814
21
-71.1072
0
LINE
8
BLACK
6
CONTINUOUS
10
151.814
20
-71.1072
11
151.871
21
-70.8457
0
LINE
8
BLACK
6
CONTINUOUS
10
151.871
20
-70.8457
11
151.964
21
-70.5951
0
LINE
8
BLACK
6
CONTINUOUS
10
151.964
20
-70.5951
11
152.093
21
-70.3603
0
LINE
8
BLACK
6
CONTINUOUS
10
152.093
20
-70.3603
11
152.253
21
-70.1461
0
LINE
8
BLACK
6
CONTINUOUS
10
152.253
20
-70.1461
11
152.442
21
-69.9569
0
LINE
8
BLACK
6
CONTINUOUS
10
152.442
20
-69.9569
11
152.656
21
-69.7966
0
LINE
8
BLACK
6
CONTINUOUS
10
152.656
20
-69.7966
11
152.891
21
-69.6684
0
LINE
8
BLACK
6
CONTINUOUS
10
152.891
20
-69.6684
11
153.142
21
-69.5749
0
LINE
8
BLACK
6
CONTINUOUS
10
153.142
20
-69.5749
11
153.403
21
-69.518
0
LINE
8
BLACK
6
CONTINUOUS
10
153.403
20
-69.518
11
153.67
21
-69.4989
0
LINE
8
BLACK
6
CONTINUOUS
10
153.67
20
-69.4989
11
153.937
21
-69.518
0
LINE
8
BLACK
6
CONTINUOUS
10
153.937
20
-69.518
11
154.198
21
-69.5749
0
LINE
8
BLACK
6
CONTINUOUS
10
154.198
20
-69.5749
11
154.449
21
-69.6684
0
LINE
8
BLACK
6
CONTINUOUS
10
154.449
20
-69.6684
11
154.684
21
-69.7966
0
LINE
8
BLACK
6
CONTINUOUS
10
154.684
20
-69.7966
11
154.898
21
-69.9569
0
LINE
8
BLACK
6
CONTINUOUS
10
154.898
20
-69.9569
11
155.087
21
-70.1461
0
LINE
8
BLACK
6
CONTINUOUS
10
155.087
20
-70.1461
11
155.247
21
-70.3603
0
LINE
8
BLACK
6
CONTINUOUS
10
155.247
20
-70.3603
11
155.376
21
-70.5951
0
LINE
8
BLACK
6
CONTINUOUS
10
155.376
20
-70.5951
11
155.469
21
-70.8457
0
LINE
8
BLACK
6
CONTINUOUS
10
155.469
20
-70.8457
11
155.526
21
-71.1072
0
LINE
8
BLACK
6
CONTINUOUS
10
155.526
20
-71.1072
11
155.545
21
-71.374
0
LINE
8
BLACK
6
CONTINUOUS
10
155.545
20
-71.374
11
155.526
21
-71.6408
0
LINE
8
BLACK
6
CONTINUOUS
10
155.526
20
-71.6408
11
155.469
21
-71.9023
0
LINE
8
BLACK
6
CONTINUOUS
10
155.469
20
-71.9023
11
155.376
21
-72.1529
0
LINE
8
BLACK
6
CONTINUOUS
10
155.376
20
-72.1529
11
155.247
21
-72.3877
0
LINE
8
BLACK
6
CONTINUOUS
10
155.247
20
-72.3877
11
155.087
21
-72.6019
0
LINE
8
BLACK
6
CONTINUOUS
10
155.087
20
-72.6019
11
154.898
21
-72.7911
0
LINE
8
BLACK
6
CONTINUOUS
10
154.898
20
-72.7911
11
154.684
21
-72.9514
0
LINE
8
BLACK
6
CONTINUOUS
10
154.684
20
-72.9514
11
154.449
21
-73.0796
0
LINE
8
BLACK
6
CONTINUOUS
10
154.449
20
-73.0796
11
154.198
21
-73.1731
0
LINE
8
BLACK
6
CONTINUOUS
10
154.198
20
-73.1731
11
153.937
21
-73.23
0
LINE
8
BLACK
6
CONTINUOUS
10
153.937
20
-73.23
11
153.67
21
-73.2491
0
LINE
8
BLACK
6
CONTINUOUS
10
153.67
20
-73.2491
11
153.403
21
-73.23
0
LINE
8
BLACK
6
CONTINUOUS
10
153.403
20
-73.23
11
153.142
21
-73.1731
0
LINE
8
BLACK
6
CONTINUOUS
10
153.142
20
-73.1731
11
152.891
21
-73.0796
0
LINE
8
BLACK
6
CONTINUOUS
10
152.891
20
-73.0796
11
152.656
21
-72.9514
0
LINE
8
BLACK
6
CONTINUOUS
10
152.656
20
-72.9514
11
152.442
21
-72.7911
0
LINE
8
BLACK
6
CONTINUOUS
10
152.442
20
-72.7911
11
152.253
21
-72.6019
0
LINE
8
BLACK
6
CONTINUOUS
10
152.253
20
-72.6019
11
152.093
21
-72.3877
0
LINE
8
BLACK
6
CONTINUOUS
10
152.093
20
-72.3877
11
151.964
21
-72.1529
0
LINE
8
BLACK
6
CONTINUOUS
10
151.964
20
-72.1529
11
151.871
21
-71.9023
0
LINE
8
BLACK
6
CONTINUOUS
10
151.871
20
-71.9023
11
151.814
21
-71.6408
0
LINE
8
BLACK
6
CONTINUOUS
10
151.814
20
-71.6408
11
151.795
21
-71.374
0
LINE
8
BLACK
6
CONTINUOUS
10
151.94
20
-71.374
11
151.959
21
-71.6318
0
LINE
8
BLACK
6
CONTINUOUS
10
151.959
20
-71.6318
11
152.017
21
-71.8839
0
LINE
8
BLACK
6
CONTINUOUS
10
152.017
20
-71.8839
11
152.111
21
-72.1246
0
LINE
8
BLACK
6
CONTINUOUS
10
152.111
20
-72.1246
11
152.241
21
-72.3485
0
LINE
8
BLACK
6
CONTINUOUS
10
152.241
20
-72.3485
11
152.402
21
-72.5506
0
LINE
8
BLACK
6
CONTINUOUS
10
152.402
20
-72.5506
11
152.591
21
-72.7265
0
LINE
8
BLACK
6
CONTINUOUS
10
152.591
20
-72.7265
11
152.805
21
-72.8721
0
LINE
8
BLACK
6
CONTINUOUS
10
152.805
20
-72.8721
11
153.038
21
-72.9843
0
LINE
8
BLACK
6
CONTINUOUS
10
153.038
20
-72.9843
11
153.285
21
-73.0605
0
LINE
8
BLACK
6
CONTINUOUS
10
153.285
20
-73.0605
11
153.541
21
-73.0991
0
LINE
8
BLACK
6
CONTINUOUS
10
153.541
20
-73.0991
11
153.799
21
-73.0991
0
LINE
8
BLACK
6
CONTINUOUS
10
153.799
20
-73.0991
11
154.055
21
-73.0605
0
LINE
8
BLACK
6
CONTINUOUS
10
154.055
20
-73.0605
11
154.302
21
-72.9843
0
LINE
8
BLACK
6
CONTINUOUS
10
154.302
20
-72.9843
11
154.535
21
-72.8721
0
LINE
8
BLACK
6
CONTINUOUS
10
154.535
20
-72.8721
11
154.749
21
-72.7265
0
LINE
8
BLACK
6
CONTINUOUS
10
154.749
20
-72.7265
11
154.938
21
-72.5506
0
LINE
8
BLACK
6
CONTINUOUS
10
154.938
20
-72.5506
11
155.099
21
-72.3485
0
LINE
8
BLACK
6
CONTINUOUS
10
155.099
20
-72.3485
11
155.229
21
-72.1246
0
LINE
8
BLACK
6
CONTINUOUS
10
155.229
20
-72.1246
11
155.323
21
-71.8839
0
LINE
8
BLACK
6
CONTINUOUS
10
155.323
20
-71.8839
11
155.381
21
-71.6318
0
LINE
8
BLACK
6
CONTINUOUS
10
155.381
20
-71.6318
11
155.4
21
-71.374
0
LINE
8
BLACK
6
CONTINUOUS
10
155.4
20
-71.374
11
155.381
21
-71.1162
0
LINE
8
BLACK
6
CONTINUOUS
10
155.381
20
-71.1162
11
155.323
21
-70.8641
0
LINE
8
BLACK
6
CONTINUOUS
10
155.323
20
-70.8641
11
155.229
21
-70.6234
0
LINE
8
BLACK
6
CONTINUOUS
10
155.229
20
-70.6234
11
155.099
21
-70.3995
0
LINE
8
BLACK
6
CONTINUOUS
10
155.099
20
-70.3995
11
154.938
21
-70.1974
0
LINE
8
BLACK
6
CONTINUOUS
10
154.938
20
-70.1974
11
154.749
21
-70.0215
0
LINE
8
BLACK
6
CONTINUOUS
10
154.749
20
-70.0215
11
154.535
21
-69.8759
0
LINE
8
BLACK
6
CONTINUOUS
10
154.535
20
-69.8759
11
154.302
21
-69.7637
0
LINE
8
BLACK
6
CONTINUOUS
10
154.302
20
-69.7637
11
154.055
21
-69.6875
0
LINE
8
BLACK
6
CONTINUOUS
10
154.055
20
-69.6875
11
153.799
21
-69.6489
0
LINE
8
BLACK
6
CONTINUOUS
10
153.799
20
-69.6489
11
153.541
21
-69.6489
0
LINE
8
BLACK
6
CONTINUOUS
10
153.541
20
-69.6489
11
153.285
21
-69.6875
0
LINE
8
BLACK
6
CONTINUOUS
10
153.285
20
-69.6875
11
153.038
21
-69.7637
0
LINE
8
BLACK
6
CONTINUOUS
10
153.038
20
-69.7637
11
152.805
21
-69.8759
0
LINE
8
BLACK
6
CONTINUOUS
10
152.805
20
-69.8759
11
152.591
21
-70.0215
0
LINE
8
BLACK
6
CONTINUOUS
10
152.591
20
-70.0215
11
152.402
21
-70.1974
0
LINE
8
BLACK
6
CONTINUOUS
10
152.402
20
-70.1974
11
152.241
21
-70.3995
0
LINE
8
BLACK
6
CONTINUOUS
10
152.241
20
-70.3995
11
152.111
21
-70.6234
0
LINE
8
BLACK
6
CONTINUOUS
10
152.111
20
-70.6234
11
152.017
21
-70.8641
0
LINE
8
BLACK
6
CONTINUOUS
10
152.017
20
-70.8641
11
151.959
21
-71.1162
0
LINE
8
BLACK
6
CONTINUOUS
10
151.959
20
-71.1162
11
151.94
21
-71.374
0
LINE
8
BLACK
6
CONTINUOUS
10
150.666
20
-71.374
11
150.687
21
-71.0253
0
LINE
8
BLACK
6
CONTINUOUS
10
150.687
20
-71.0253
11
150.747
21
-70.6813
0
LINE
8
BLACK
6
CONTINUOUS
10
150.747
20
-70.6813
11
150.847
21
-70.3467
0
LINE
8
BLACK
6
CONTINUOUS
10
150.847
20
-70.3467
11
150.986
21
-70.0259
0
LINE
8
BLACK
6
CONTINUOUS
10
150.986
20
-70.0259
11
151.16
21
-69.7234
0
LINE
8
BLACK
6
CONTINUOUS
10
151.16
20
-69.7234
11
151.369
21
-69.4432
0
LINE
8
BLACK
6
CONTINUOUS
10
151.369
20
-69.4432
11
151.609
21
-69.1892
0
LINE
8
BLACK
6
CONTINUOUS
10
151.609
20
-69.1892
11
151.876
21
-68.9646
0
LINE
8
BLACK
6
CONTINUOUS
10
151.876
20
-68.9646
11
152.168
21
-68.7727
0
LINE
8
BLACK
6
CONTINUOUS
10
152.168
20
-68.7727
11
152.48
21
-68.6159
0
LINE
8
BLACK
6
CONTINUOUS
10
152.48
20
-68.6159
11
152.809
21
-68.4965
0
LINE
8
BLACK
6
CONTINUOUS
10
152.809
20
-68.4965
11
153.148
21
-68.4159
0
LINE
8
BLACK
6
CONTINUOUS
10
153.148
20
-68.4159
11
153.495
21
-68.3753
0
LINE
8
BLACK
6
CONTINUOUS
10
153.495
20
-68.3753
11
153.845
21
-68.3753
0
LINE
8
BLACK
6
CONTINUOUS
10
153.845
20
-68.3753
11
154.192
21
-68.4159
0
LINE
8
BLACK
6
CONTINUOUS
10
154.192
20
-68.4159
11
154.531
21
-68.4965
0
LINE
8
BLACK
6
CONTINUOUS
10
154.531
20
-68.4965
11
154.86
21
-68.6159
0
LINE
8
BLACK
6
CONTINUOUS
10
154.86
20
-68.6159
11
155.172
21
-68.7727
0
LINE
8
BLACK
6
CONTINUOUS
10
155.172
20
-68.7727
11
155.464
21
-68.9646
0
LINE
8
BLACK
6
CONTINUOUS
10
155.464
20
-68.9646
11
155.731
21
-69.1892
0
LINE
8
BLACK
6
CONTINUOUS
10
155.731
20
-69.1892
11
155.971
21
-69.4432
0
LINE
8
BLACK
6
CONTINUOUS
10
155.971
20
-69.4432
11
156.18
21
-69.7234
0
LINE
8
BLACK
6
CONTINUOUS
10
156.18
20
-69.7234
11
156.354
21
-70.0259
0
LINE
8
BLACK
6
CONTINUOUS
10
156.354
20
-70.0259
11
156.493
21
-70.3467
0
LINE
8
BLACK
6
CONTINUOUS
10
156.493
20
-70.3467
11
156.593
21
-70.6813
0
LINE
8
BLACK
6
CONTINUOUS
10
156.593
20
-70.6813
11
156.653
21
-71.0253
0
LINE
8
BLACK
6
CONTINUOUS
10
156.653
20
-71.0253
11
156.674
21
-71.374
0
LINE
8
BLACK
6
CONTINUOUS
10
156.674
20
-71.374
11
156.653
21
-71.7227
0
LINE
8
BLACK
6
CONTINUOUS
10
156.653
20
-71.7227
11
156.593
21
-72.0667
0
LINE
8
BLACK
6
CONTINUOUS
10
156.593
20
-72.0667
11
156.493
21
-72.4013
0
LINE
8
BLACK
6
CONTINUOUS
10
156.493
20
-72.4013
11
156.354
21
-72.7221
0
LINE
8
BLACK
6
CONTINUOUS
10
156.354
20
-72.7221
11
156.18
21
-73.0246
0
LINE
8
BLACK
6
CONTINUOUS
10
156.18
20
-73.0246
11
155.971
21
-73.3048
0
LINE
8
BLACK
6
CONTINUOUS
10
155.971
20
-73.3048
11
155.731
21
-73.5588
0
LINE
8
BLACK
6
CONTINUOUS
10
155.731
20
-73.5588
11
155.464
21
-73.7834
0
LINE
8
BLACK
6
CONTINUOUS
10
155.464
20
-73.7834
11
155.172
21
-73.9753
0
LINE
8
BLACK
6
CONTINUOUS
10
155.172
20
-73.9753
11
154.86
21
-74.1321
0
LINE
8
BLACK
6
CONTINUOUS
10
154.86
20
-74.1321
11
154.531
21
-74.2515
0
LINE
8
BLACK
6
CONTINUOUS
10
154.531
20
-74.2515
11
154.192
21
-74.3321
0
LINE
8
BLACK
6
CONTINUOUS
10
154.192
20
-74.3321
11
153.845
21
-74.3727
0
LINE
8
BLACK
6
CONTINUOUS
10
153.845
20
-74.3727
11
153.495
21
-74.3727
0
LINE
8
BLACK
6
CONTINUOUS
10
153.495
20
-74.3727
11
153.148
21
-74.3321
0
LINE
8
BLACK
6
CONTINUOUS
10
153.148
20
-74.3321
11
152.809
21
-74.2515
0
LINE
8
BLACK
6
CONTINUOUS
10
152.809
20
-74.2515
11
152.48
21
-74.1321
0
LINE
8
BLACK
6
CONTINUOUS
10
152.48
20
-74.1321
11
152.168
21
-73.9753
0
LINE
8
BLACK
6
CONTINUOUS
10
152.168
20
-73.9753
11
151.876
21
-73.7834
0
LINE
8
BLACK
6
CONTINUOUS
10
151.876
20
-73.7834
11
151.609
21
-73.5588
0
LINE
8
BLACK
6
CONTINUOUS
10
151.609
20
-73.5588
11
151.369
21
-73.3048
0
LINE
8
BLACK
6
CONTINUOUS
10
151.369
20
-73.3048
11
151.16
21
-73.0246
0
LINE
8
BLACK
6
CONTINUOUS
10
151.16
20
-73.0246
11
150.986
21
-72.7221
0
LINE
8
BLACK
6
CONTINUOUS
10
150.986
20
-72.7221
11
150.847
21
-72.4013
0
LINE
8
BLACK
6
CONTINUOUS
10
150.847
20
-72.4013
11
150.747
21
-72.0667
0
LINE
8
BLACK
6
CONTINUOUS
10
150.747
20
-72.0667
11
150.687
21
-71.7227
0
LINE
8
BLACK
6
CONTINUOUS
10
150.687
20
-71.7227
11
150.666
21
-71.374
0
LINE
8
BLACK
6
CONTINUOUS
10
150.811
20
-71.374
11
150.831
21
-71.7059
0
LINE
8
BLACK
6
CONTINUOUS
10
150.831
20
-71.7059
11
150.888
21
-72.0332
0
LINE
8
BLACK
6
CONTINUOUS
10
150.888
20
-72.0332
11
150.984
21
-72.3517
0
LINE
8
BLACK
6
CONTINUOUS
10
150.984
20
-72.3517
11
151.115
21
-72.6569
0
LINE
8
BLACK
6
CONTINUOUS
10
151.115
20
-72.6569
11
151.282
21
-72.9448
0
LINE
8
BLACK
6
CONTINUOUS
10
151.282
20
-72.9448
11
151.48
21
-73.2115
0
LINE
8
BLACK
6
CONTINUOUS
10
151.48
20
-73.2115
11
151.708
21
-73.4532
0
LINE
8
BLACK
6
CONTINUOUS
10
151.708
20
-73.4532
11
151.963
21
-73.6669
0
LINE
8
BLACK
6
CONTINUOUS
10
151.963
20
-73.6669
11
152.241
21
-73.8496
0
LINE
8
BLACK
6
CONTINUOUS
10
152.241
20
-73.8496
11
152.538
21
-73.9988
0
LINE
8
BLACK
6
CONTINUOUS
10
152.538
20
-73.9988
11
152.85
21
-74.1125
0
LINE
8
BLACK
6
CONTINUOUS
10
152.85
20
-74.1125
11
153.174
21
-74.1891
0
LINE
8
BLACK
6
CONTINUOUS
10
153.174
20
-74.1891
11
153.504
21
-74.2277
0
LINE
8
BLACK
6
CONTINUOUS
10
153.504
20
-74.2277
11
153.836
21
-74.2277
0
LINE
8
BLACK
6
CONTINUOUS
10
153.836
20
-74.2277
11
154.166
21
-74.1891
0
LINE
8
BLACK
6
CONTINUOUS
10
154.166
20
-74.1891
11
154.49
21
-74.1125
0
LINE
8
BLACK
6
CONTINUOUS
10
154.49
20
-74.1125
11
154.802
21
-73.9988
0
LINE
8
BLACK
6
CONTINUOUS
10
154.802
20
-73.9988
11
155.099
21
-73.8496
0
LINE
8
BLACK
6
CONTINUOUS
10
155.099
20
-73.8496
11
155.377
21
-73.6669
0
LINE
8
BLACK
6
CONTINUOUS
10
155.377
20
-73.6669
11
155.632
21
-73.4532
0
LINE
8
BLACK
6
CONTINUOUS
10
155.632
20
-73.4532
11
155.86
21
-73.2115
0
LINE
8
BLACK
6
CONTINUOUS
10
155.86
20
-73.2115
11
156.058
21
-72.9448
0
LINE
8
BLACK
6
CONTINUOUS
10
156.058
20
-72.9448
11
156.225
21
-72.6569
0
LINE
8
BLACK
6
CONTINUOUS
10
156.225
20
-72.6569
11
156.356
21
-72.3517
0
LINE
8
BLACK
6
CONTINUOUS
10
156.356
20
-72.3517
11
156.452
21
-72.0332
0
LINE
8
BLACK
6
CONTINUOUS
10
156.452
20
-72.0332
11
156.509
21
-71.7059
0
LINE
8
BLACK
6
CONTINUOUS
10
156.509
20
-71.7059
11
156.529
21
-71.374
0
LINE
8
BLACK
6
CONTINUOUS
10
156.529
20
-71.374
11
156.509
21
-71.0421
0
LINE
8
BLACK
6
CONTINUOUS
10
156.509
20
-71.0421
11
156.452
21
-70.7148
0
LINE
8
BLACK
6
CONTINUOUS
10
156.452
20
-70.7148
11
156.356
21
-70.3963
0
LINE
8
BLACK
6
CONTINUOUS
10
156.356
20
-70.3963
11
156.225
21
-70.0911
0
LINE
8
BLACK
6
CONTINUOUS
10
156.225
20
-70.0911
11
156.058
21
-69.8032
0
LINE
8
BLACK
6
CONTINUOUS
10
156.058
20
-69.8032
11
155.86
21
-69.5365
0
LINE
8
BLACK
6
CONTINUOUS
10
155.86
20
-69.5365
11
155.632
21
-69.2948
0
LINE
8
BLACK
6
CONTINUOUS
10
155.632
20
-69.2948
11
155.377
21
-69.0811
0
LINE
8
BLACK
6
CONTINUOUS
10
155.377
20
-69.0811
11
155.099
21
-68.8984
0
LINE
8
BLACK
6
CONTINUOUS
10
155.099
20
-68.8984
11
154.802
21
-68.7492
0
LINE
8
BLACK
6
CONTINUOUS
10
154.802
20
-68.7492
11
154.49
21
-68.6355
0
LINE
8
BLACK
6
CONTINUOUS
10
154.49
20
-68.6355
11
154.166
21
-68.5589
0
LINE
8
BLACK
6
CONTINUOUS
10
154.166
20
-68.5589
11
153.836
21
-68.5203
0
LINE
8
BLACK
6
CONTINUOUS
10
153.836
20
-68.5203
11
153.504
21
-68.5203
0
LINE
8
BLACK
6
CONTINUOUS
10
153.504
20
-68.5203
11
153.174
21
-68.5589
0
LINE
8
BLACK
6
CONTINUOUS
10
153.174
20
-68.5589
11
152.85
21
-68.6355
0
LINE
8
BLACK
6
CONTINUOUS
10
152.85
20
-68.6355
11
152.538
21
-68.7492
0
LINE
8
BLACK
6
CONTINUOUS
10
152.538
20
-68.7492
11
152.241
21
-68.8984
0
LINE
8
BLACK
6
CONTINUOUS
10
152.241
20
-68.8984
11
151.963
21
-69.0811
0
LINE
8
BLACK
6
CONTINUOUS
10
151.963
20
-69.0811
11
151.708
21
-69.2948
0
LINE
8
BLACK
6
CONTINUOUS
10
151.708
20
-69.2948
11
151.48
21
-69.5365
0
LINE
8
BLACK
6
CONTINUOUS
10
151.48
20
-69.5365
11
151.282
21
-69.8032
0
LINE
8
BLACK
6
CONTINUOUS
10
151.282
20
-69.8032
11
151.115
21
-70.0911
0
LINE
8
BLACK
6
CONTINUOUS
10
151.115
20
-70.0911
11
150.984
21
-70.3963
0
LINE
8
BLACK
6
CONTINUOUS
10
150.984
20
-70.3963
11
150.888
21
-70.7148
0
LINE
8
BLACK
6
CONTINUOUS
10
150.888
20
-70.7148
11
150.831
21
-71.0421
0
LINE
8
BLACK
6
CONTINUOUS
10
150.831
20
-71.0421
11
150.811
21
-71.374
0
LINE
8
BLACK
6
CONTINUOUS
10
218.341
20
-57.15
11
218.36
21
-56.8829
0
LINE
8
BLACK
6
CONTINUOUS
10
218.36
20
-56.8829
11
218.417
21
-56.6212
0
LINE
8
BLACK
6
CONTINUOUS
10
218.417
20
-56.6212
11
218.511
21
-56.3703
0
LINE
8
BLACK
6
CONTINUOUS
10
218.511
20
-56.3703
11
218.639
21
-56.1352
0
LINE
8
BLACK
6
CONTINUOUS
10
218.639
20
-56.1352
11
218.799
21
-55.9208
0
LINE
8
BLACK
6
CONTINUOUS
10
218.799
20
-55.9208
11
218.989
21
-55.7314
0
LINE
8
BLACK
6
CONTINUOUS
10
218.989
20
-55.7314
11
219.203
21
-55.5709
0
LINE
8
BLACK
6
CONTINUOUS
10
219.203
20
-55.5709
11
219.438
21
-55.4426
0
LINE
8
BLACK
6
CONTINUOUS
10
219.438
20
-55.4426
11
219.689
21
-55.349
0
LINE
8
BLACK
6
CONTINUOUS
10
219.689
20
-55.349
11
219.951
21
-55.2921
0
LINE
8
BLACK
6
CONTINUOUS
10
219.951
20
-55.2921
11
220.218
21
-55.273
0
LINE
8
BLACK
6
CONTINUOUS
10
220.218
20
-55.273
11
220.485
21
-55.2921
0
LINE
8
BLACK
6
CONTINUOUS
10
220.485
20
-55.2921
11
220.747
21
-55.349
0
LINE
8
BLACK
6
CONTINUOUS
10
220.747
20
-55.349
11
220.998
21
-55.4426
0
LINE
8
BLACK
6
CONTINUOUS
10
220.998
20
-55.4426
11
221.233
21
-55.5709
0
LINE
8
BLACK
6
CONTINUOUS
10
221.233
20
-55.5709
11
221.447
21
-55.7314
0
LINE
8
BLACK
6
CONTINUOUS
10
221.447
20
-55.7314
11
221.637
21
-55.9208
0
LINE
8
BLACK
6
CONTINUOUS
10
221.637
20
-55.9208
11
221.797
21
-56.1352
0
LINE
8
BLACK
6
CONTINUOUS
10
221.797
20
-56.1352
11
221.925
21
-56.3703
0
LINE
8
BLACK
6
CONTINUOUS
10
221.925
20
-56.3703
11
222.019
21
-56.6212
0
LINE
8
BLACK
6
CONTINUOUS
10
222.019
20
-56.6212
11
222.076
21
-56.8829
0
LINE
8
BLACK
6
CONTINUOUS
10
222.076
20
-56.8829
11
222.095
21
-57.15
0
LINE
8
BLACK
6
CONTINUOUS
10
222.095
20
-57.15
11
222.076
21
-57.4171
0
LINE
8
BLACK
6
CONTINUOUS
10
222.076
20
-57.4171
11
222.019
21
-57.6788
0
LINE
8
BLACK
6
CONTINUOUS
10
222.019
20
-57.6788
11
221.925
21
-57.9297
0
LINE
8
BLACK
6
CONTINUOUS
10
221.925
20
-57.9297
11
221.797
21
-58.1648
0
LINE
8
BLACK
6
CONTINUOUS
10
221.797
20
-58.1648
11
221.637
21
-58.3792
0
LINE
8
BLACK
6
CONTINUOUS
10
221.637
20
-58.3792
11
221.447
21
-58.5686
0
LINE
8
BLACK
6
CONTINUOUS
10
221.447
20
-58.5686
11
221.233
21
-58.7291
0
LINE
8
BLACK
6
CONTINUOUS
10
221.233
20
-58.7291
11
220.998
21
-58.8574
0
LINE
8
BLACK
6
CONTINUOUS
10
220.998
20
-58.8574
11
220.747
21
-58.951
0
LINE
8
BLACK
6
CONTINUOUS
10
220.747
20
-58.951
11
220.485
21
-59.0079
0
LINE
8
BLACK
6
CONTINUOUS
10
220.485
20
-59.0079
11
220.218
21
-59.027
0
LINE
8
BLACK
6
CONTINUOUS
10
220.218
20
-59.027
11
219.951
21
-59.0079
0
LINE
8
BLACK
6
CONTINUOUS
10
219.951
20
-59.0079
11
219.689
21
-58.951
0
LINE
8
BLACK
6
CONTINUOUS
10
219.689
20
-58.951
11
219.438
21
-58.8574
0
LINE
8
BLACK
6
CONTINUOUS
10
219.438
20
-58.8574
11
219.203
21
-58.7291
0
LINE
8
BLACK
6
CONTINUOUS
10
219.203
20
-58.7291
11
218.989
21
-58.5686
0
LINE
8
BLACK
6
CONTINUOUS
10
218.989
20
-58.5686
11
218.799
21
-58.3792
0
LINE
8
BLACK
6
CONTINUOUS
10
218.799
20
-58.3792
11
218.639
21
-58.1648
0
LINE
8
BLACK
6
CONTINUOUS
10
218.639
20
-58.1648
11
218.511
21
-57.9297
0
LINE
8
BLACK
6
CONTINUOUS
10
218.511
20
-57.9297
11
218.417
21
-57.6788
0
LINE
8
BLACK
6
CONTINUOUS
10
218.417
20
-57.6788
11
218.36
21
-57.4171
0
LINE
8
BLACK
6
CONTINUOUS
10
218.36
20
-57.4171
11
218.341
21
-57.15
0
LINE
8
BLACK
6
CONTINUOUS
10
218.486
20
-57.15
11
218.505
21
-57.4081
0
LINE
8
BLACK
6
CONTINUOUS
10
218.505
20
-57.4081
11
218.563
21
-57.6605
0
LINE
8
BLACK
6
CONTINUOUS
10
218.563
20
-57.6605
11
218.658
21
-57.9014
0
LINE
8
BLACK
6
CONTINUOUS
10
218.658
20
-57.9014
11
218.787
21
-58.1256
0
LINE
8
BLACK
6
CONTINUOUS
10
218.787
20
-58.1256
11
218.948
21
-58.328
0
LINE
8
BLACK
6
CONTINUOUS
10
218.948
20
-58.328
11
219.138
21
-58.504
0
LINE
8
BLACK
6
CONTINUOUS
10
219.138
20
-58.504
11
219.352
21
-58.6498
0
LINE
8
BLACK
6
CONTINUOUS
10
219.352
20
-58.6498
11
219.585
21
-58.7622
0
LINE
8
BLACK
6
CONTINUOUS
10
219.585
20
-58.7622
11
219.833
21
-58.8384
0
LINE
8
BLACK
6
CONTINUOUS
10
219.833
20
-58.8384
11
220.089
21
-58.877
0
LINE
8
BLACK
6
CONTINUOUS
10
220.089
20
-58.877
11
220.347
21
-58.877
0
LINE
8
BLACK
6
CONTINUOUS
10
220.347
20
-58.877
11
220.603
21
-58.8384
0
LINE
8
BLACK
6
CONTINUOUS
10
220.603
20
-58.8384
11
220.851
21
-58.7622
0
LINE
8
BLACK
6
CONTINUOUS
10
220.851
20
-58.7622
11
221.084
21
-58.6498
0
LINE
8
BLACK
6
CONTINUOUS
10
221.084
20
-58.6498
11
221.298
21
-58.504
0
LINE
8
BLACK
6
CONTINUOUS
10
221.298
20
-58.504
11
221.488
21
-58.328
0
LINE
8
BLACK
6
CONTINUOUS
10
221.488
20
-58.328
11
221.649
21
-58.1256
0
LINE
8
BLACK
6
CONTINUOUS
10
221.649
20
-58.1256
11
221.778
21
-57.9014
0
LINE
8
BLACK
6
CONTINUOUS
10
221.778
20
-57.9014
11
221.873
21
-57.6605
0
LINE
8
BLACK
6
CONTINUOUS
10
221.873
20
-57.6605
11
221.931
21
-57.4081
0
LINE
8
BLACK
6
CONTINUOUS
10
221.931
20
-57.4081
11
221.95
21
-57.15
0
LINE
8
BLACK
6
CONTINUOUS
10
221.95
20
-57.15
11
221.931
21
-56.8919
0
LINE
8
BLACK
6
CONTINUOUS
10
221.931
20
-56.8919
11
221.873
21
-56.6395
0
LINE
8
BLACK
6
CONTINUOUS
10
221.873
20
-56.6395
11
221.778
21
-56.3986
0
LINE
8
BLACK
6
CONTINUOUS
10
221.778
20
-56.3986
11
221.649
21
-56.1744
0
LINE
8
BLACK
6
CONTINUOUS
10
221.649
20
-56.1744
11
221.488
21
-55.972
0
LINE
8
BLACK
6
CONTINUOUS
10
221.488
20
-55.972
11
221.298
21
-55.796
0
LINE
8
BLACK
6
CONTINUOUS
10
221.298
20
-55.796
11
221.084
21
-55.6502
0
LINE
8
BLACK
6
CONTINUOUS
10
221.084
20
-55.6502
11
220.851
21
-55.5378
0
LINE
8
BLACK
6
CONTINUOUS
10
220.851
20
-55.5378
11
220.603
21
-55.4616
0
LINE
8
BLACK
6
CONTINUOUS
10
220.603
20
-55.4616
11
220.347
21
-55.423
0
LINE
8
BLACK
6
CONTINUOUS
10
220.347
20
-55.423
11
220.089
21
-55.423
0
LINE
8
BLACK
6
CONTINUOUS
10
220.089
20
-55.423
11
219.833
21
-55.4616
0
LINE
8
BLACK
6
CONTINUOUS
10
219.833
20
-55.4616
11
219.585
21
-55.5378
0
LINE
8
BLACK
6
CONTINUOUS
10
219.585
20
-55.5378
11
219.352
21
-55.6502
0
LINE
8
BLACK
6
CONTINUOUS
10
219.352
20
-55.6502
11
219.138
21
-55.796
0
LINE
8
BLACK
6
CONTINUOUS
10
219.138
20
-55.796
11
218.948
21
-55.972
0
LINE
8
BLACK
6
CONTINUOUS
10
218.948
20
-55.972
11
218.787
21
-56.1744
0
LINE
8
BLACK
6
CONTINUOUS
10
218.787
20
-56.1744
11
218.658
21
-56.3986
0
LINE
8
BLACK
6
CONTINUOUS
10
218.658
20
-56.3986
11
218.563
21
-56.6395
0
LINE
8
BLACK
6
CONTINUOUS
10
218.563
20
-56.6395
11
218.505
21
-56.8919
0
LINE
8
BLACK
6
CONTINUOUS
10
218.505
20
-56.8919
11
218.486
21
-57.15
0
LINE
8
BLACK
6
CONTINUOUS
10
216.641
20
-57.15
11
216.66
21
-56.7761
0
LINE
8
BLACK
6
CONTINUOUS
10
216.66
20
-56.7761
11
216.719
21
-56.4062
0
LINE
8
BLACK
6
CONTINUOUS
10
216.719
20
-56.4062
11
216.816
21
-56.0445
0
LINE
8
BLACK
6
CONTINUOUS
10
216.816
20
-56.0445
11
216.95
21
-55.695
0
LINE
8
BLACK
6
CONTINUOUS
10
216.95
20
-55.695
11
217.12
21
-55.3613
0
LINE
8
BLACK
6
CONTINUOUS
10
217.12
20
-55.3613
11
217.324
21
-55.0473
0
LINE
8
BLACK
6
CONTINUOUS
10
217.324
20
-55.0473
11
217.56
21
-54.7563
0
LINE
8
BLACK
6
CONTINUOUS
10
217.56
20
-54.7563
11
217.824
21
-54.4915
0
LINE
8
BLACK
6
CONTINUOUS
10
217.824
20
-54.4915
11
218.115
21
-54.2559
0
LINE
8
BLACK
6
CONTINUOUS
10
218.115
20
-54.2559
11
218.429
21
-54.0519
0
LINE
8
BLACK
6
CONTINUOUS
10
218.429
20
-54.0519
11
218.763
21
-53.8819
0
LINE
8
BLACK
6
CONTINUOUS
10
218.763
20
-53.8819
11
219.113
21
-53.7477
0
LINE
8
BLACK
6
CONTINUOUS
10
219.113
20
-53.7477
11
219.474
21
-53.6508
0
LINE
8
BLACK
6
CONTINUOUS
10
219.474
20
-53.6508
11
219.844
21
-53.5922
0
LINE
8
BLACK
6
CONTINUOUS
10
219.844
20
-53.5922
11
220.218
21
-53.5726
0
LINE
8
BLACK
6
CONTINUOUS
10
220.218
20
-53.5726
11
220.592
21
-53.5922
0
LINE
8
BLACK
6
CONTINUOUS
10
220.592
20
-53.5922
11
220.962
21
-53.6508
0
LINE
8
BLACK
6
CONTINUOUS
10
220.962
20
-53.6508
11
221.323
21
-53.7477
0
LINE
8
BLACK
6
CONTINUOUS
10
221.323
20
-53.7477
11
221.673
21
-53.8819
0
LINE
8
BLACK
6
CONTINUOUS
10
221.673
20
-53.8819
11
222.007
21
-54.0519
0
LINE
8
BLACK
6
CONTINUOUS
10
222.007
20
-54.0519
11
222.321
21
-54.2559
0
LINE
8
BLACK
6
CONTINUOUS
10
222.321
20
-54.2559
11
222.612
21
-54.4915
0
LINE
8
BLACK
6
CONTINUOUS
10
222.612
20
-54.4915
11
222.876
21
-54.7563
0
LINE
8
BLACK
6
CONTINUOUS
10
222.876
20
-54.7563
11
223.112
21
-55.0473
0
LINE
8
BLACK
6
CONTINUOUS
10
223.112
20
-55.0473
11
223.316
21
-55.3613
0
LINE
8
BLACK
6
CONTINUOUS
10
223.316
20
-55.3613
11
223.486
21
-55.695
0
LINE
8
BLACK
6
CONTINUOUS
10
223.486
20
-55.695
11
223.62
21
-56.0445
0
LINE
8
BLACK
6
CONTINUOUS
10
223.62
20
-56.0445
11
223.717
21
-56.4062
0
LINE
8
BLACK
6
CONTINUOUS
10
223.717
20
-56.4062
11
223.776
21
-56.7761
0
LINE
8
BLACK
6
CONTINUOUS
10
223.776
20
-56.7761
11
223.795
21
-57.15
0
LINE
8
BLACK
6
CONTINUOUS
10
223.795
20
-57.15
11
223.776
21
-57.5239
0
LINE
8
BLACK
6
CONTINUOUS
10
223.776
20
-57.5239
11
223.717
21
-57.8938
0
LINE
8
BLACK
6
CONTINUOUS
10
223.717
20
-57.8938
11
223.62
21
-58.2555
0
LINE
8
BLACK
6
CONTINUOUS
10
223.62
20
-58.2555
11
223.486
21
-58.605
0
LINE
8
BLACK
6
CONTINUOUS
10
223.486
20
-58.605
11
223.316
21
-58.9387
0
LINE
8
BLACK
6
CONTINUOUS
10
223.316
20
-58.9387
11
223.112
21
-59.2527
0
LINE
8
BLACK
6
CONTINUOUS
10
223.112
20
-59.2527
11
222.876
21
-59.5437
0
LINE
8
BLACK
6
CONTINUOUS
10
222.876
20
-59.5437
11
222.612
21
-59.8085
0
LINE
8
BLACK
6
CONTINUOUS
10
222.612
20
-59.8085
11
222.321
21
-60.0441
0
LINE
8
BLACK
6
CONTINUOUS
10
222.321
20
-60.0441
11
222.007
21
-60.2481
0
LINE
8
BLACK
6
CONTINUOUS
10
222.007
20
-60.2481
11
221.673
21
-60.4181
0
LINE
8
BLACK
6
CONTINUOUS
10
221.673
20
-60.4181
11
221.323
21
-60.5523
0
LINE
8
BLACK
6
CONTINUOUS
10
221.323
20
-60.5523
11
220.962
21
-60.6492
0
LINE
8
BLACK
6
CONTINUOUS
10
220.962
20
-60.6492
11
220.592
21
-60.7078
0
LINE
8
BLACK
6
CONTINUOUS
10
220.592
20
-60.7078
11
220.218
21
-60.7274
0
LINE
8
BLACK
6
CONTINUOUS
10
220.218
20
-60.7274
11
219.844
21
-60.7078
0
LINE
8
BLACK
6
CONTINUOUS
10
219.844
20
-60.7078
11
219.474
21
-60.6492
0
LINE
8
BLACK
6
CONTINUOUS
10
219.474
20
-60.6492
11
219.113
21
-60.5523
0
LINE
8
BLACK
6
CONTINUOUS
10
219.113
20
-60.5523
11
218.763
21
-60.4181
0
LINE
8
BLACK
6
CONTINUOUS
10
218.763
20
-60.4181
11
218.429
21
-60.2481
0
LINE
8
BLACK
6
CONTINUOUS
10
218.429
20
-60.2481
11
218.115
21
-60.0441
0
LINE
8
BLACK
6
CONTINUOUS
10
218.115
20
-60.0441
11
217.824
21
-59.8085
0
LINE
8
BLACK
6
CONTINUOUS
10
217.824
20
-59.8085
11
217.56
21
-59.5437
0
LINE
8
BLACK
6
CONTINUOUS
10
217.56
20
-59.5437
11
217.324
21
-59.2527
0
LINE
8
BLACK
6
CONTINUOUS
10
217.324
20
-59.2527
11
217.12
21
-58.9387
0
LINE
8
BLACK
6
CONTINUOUS
10
217.12
20
-58.9387
11
216.95
21
-58.605
0
LINE
8
BLACK
6
CONTINUOUS
10
216.95
20
-58.605
11
216.816
21
-58.2555
0
LINE
8
BLACK
6
CONTINUOUS
10
216.816
20
-58.2555
11
216.719
21
-57.8938
0
LINE
8
BLACK
6
CONTINUOUS
10
216.719
20
-57.8938
11
216.66
21
-57.5239
0
LINE
8
BLACK
6
CONTINUOUS
10
216.66
20
-57.5239
11
216.641
21
-57.15
0
LINE
8
BLACK
6
CONTINUOUS
10
216.786
20
-57.15
11
216.806
21
-57.5211
0
LINE
8
BLACK
6
CONTINUOUS
10
216.806
20
-57.5211
11
216.866
21
-57.8879
0
LINE
8
BLACK
6
CONTINUOUS
10
216.866
20
-57.8879
11
216.965
21
-58.246
0
LINE
8
BLACK
6
CONTINUOUS
10
216.965
20
-58.246
11
217.103
21
-58.5912
0
LINE
8
BLACK
6
CONTINUOUS
10
217.103
20
-58.5912
11
217.277
21
-58.9196
0
LINE
8
BLACK
6
CONTINUOUS
10
217.277
20
-58.9196
11
217.485
21
-59.2272
0
LINE
8
BLACK
6
CONTINUOUS
10
217.485
20
-59.2272
11
217.726
21
-59.5105
0
LINE
8
BLACK
6
CONTINUOUS
10
217.726
20
-59.5105
11
217.996
21
-59.766
0
LINE
8
BLACK
6
CONTINUOUS
10
217.996
20
-59.766
11
218.292
21
-59.991
0
LINE
8
BLACK
6
CONTINUOUS
10
218.292
20
-59.991
11
218.61
21
-60.1826
0
LINE
8
BLACK
6
CONTINUOUS
10
218.61
20
-60.1826
11
218.948
21
-60.3386
0
LINE
8
BLACK
6
CONTINUOUS
10
218.948
20
-60.3386
11
219.3
21
-60.4573
0
LINE
8
BLACK
6
CONTINUOUS
10
219.3
20
-60.4573
11
219.663
21
-60.5372
0
LINE
8
BLACK
6
CONTINUOUS
10
219.663
20
-60.5372
11
220.032
21
-60.5774
0
LINE
8
BLACK
6
CONTINUOUS
10
220.032
20
-60.5774
11
220.404
21
-60.5774
0
LINE
8
BLACK
6
CONTINUOUS
10
220.404
20
-60.5774
11
220.773
21
-60.5372
0
LINE
8
BLACK
6
CONTINUOUS
10
220.773
20
-60.5372
11
221.136
21
-60.4573
0
LINE
8
BLACK
6
CONTINUOUS
10
221.136
20
-60.4573
11
221.488
21
-60.3386
0
LINE
8
BLACK
6
CONTINUOUS
10
221.488
20
-60.3386
11
221.826
21
-60.1826
0
LINE
8
BLACK
6
CONTINUOUS
10
221.826
20
-60.1826
11
222.144
21
-59.991
0
LINE
8
BLACK
6
CONTINUOUS
10
222.144
20
-59.991
11
222.44
21
-59.766
0
LINE
8
BLACK
6
CONTINUOUS
10
222.44
20
-59.766
11
222.71
21
-59.5105
0
LINE
8
BLACK
6
CONTINUOUS
10
222.71
20
-59.5105
11
222.951
21
-59.2272
0
LINE
8
BLACK
6
CONTINUOUS
10
222.951
20
-59.2272
11
223.159
21
-58.9196
0
LINE
8
BLACK
6
CONTINUOUS
10
223.159
20
-58.9196
11
223.333
21
-58.5912
0
LINE
8
BLACK
6
CONTINUOUS
10
223.333
20
-58.5912
11
223.471
21
-58.246
0
LINE
8
BLACK
6
CONTINUOUS
10
223.471
20
-58.246
11
223.57
21
-57.8879
0
LINE
8
BLACK
6
CONTINUOUS
10
223.57
20
-57.8879
11
223.63
21
-57.5211
0
LINE
8
BLACK
6
CONTINUOUS
10
223.63
20
-57.5211
11
223.65
21
-57.15
0
LINE
8
BLACK
6
CONTINUOUS
10
223.65
20
-57.15
11
223.63
21
-56.7789
0
LINE
8
BLACK
6
CONTINUOUS
10
223.63
20
-56.7789
11
223.57
21
-56.4121
0
LINE
8
BLACK
6
CONTINUOUS
10
223.57
20
-56.4121
11
223.471
21
-56.054
0
LINE
8
BLACK
6
CONTINUOUS
10
223.471
20
-56.054
11
223.333
21
-55.7088
0
LINE
8
BLACK
6
CONTINUOUS
10
223.333
20
-55.7088
11
223.159
21
-55.3804
0
LINE
8
BLACK
6
CONTINUOUS
10
223.159
20
-55.3804
11
222.951
21
-55.0728
0
LINE
8
BLACK
6
CONTINUOUS
10
222.951
20
-55.0728
11
222.71
21
-54.7895
0
LINE
8
BLACK
6
CONTINUOUS
10
222.71
20
-54.7895
11
222.44
21
-54.534
0
LINE
8
BLACK
6
CONTINUOUS
10
222.44
20
-54.534
11
222.144
21
-54.309
0
LINE
8
BLACK
6
CONTINUOUS
10
222.144
20
-54.309
11
221.826
21
-54.1174
0
LINE
8
BLACK
6
CONTINUOUS
10
221.826
20
-54.1174
11
221.488
21
-53.9614
0
LINE
8
BLACK
6
CONTINUOUS
10
221.488
20
-53.9614
11
221.136
21
-53.8427
0
LINE
8
BLACK
6
CONTINUOUS
10
221.136
20
-53.8427
11
220.773
21
-53.7628
0
LINE
8
BLACK
6
CONTINUOUS
10
220.773
20
-53.7628
11
220.404
21
-53.7226
0
LINE
8
BLACK
6
CONTINUOUS
10
220.404
20
-53.7226
11
220.032
21
-53.7226
0
LINE
8
BLACK
6
CONTINUOUS
10
220.032
20
-53.7226
11
219.663
21
-53.7628
0
LINE
8
BLACK
6
CONTINUOUS
10
219.663
20
-53.7628
11
219.3
21
-53.8427
0
LINE
8
BLACK
6
CONTINUOUS
10
219.3
20
-53.8427
11
218.948
21
-53.9614
0
LINE
8
BLACK
6
CONTINUOUS
10
218.948
20
-53.9614
11
218.61
21
-54.1174
0
LINE
8
BLACK
6
CONTINUOUS
10
218.61
20
-54.1174
11
218.292
21
-54.309
0
LINE
8
BLACK
6
CONTINUOUS
10
218.292
20
-54.309
11
217.996
21
-54.534
0
LINE
8
BLACK
6
CONTINUOUS
10
217.996
20
-54.534
11
217.726
21
-54.7895
0
LINE
8
BLACK
6
CONTINUOUS
10
217.726
20
-54.7895
11
217.485
21
-55.0728
0
LINE
8
BLACK
6
CONTINUOUS
10
217.485
20
-55.0728
11
217.277
21
-55.3804
0
LINE
8
BLACK
6
CONTINUOUS
10
217.277
20
-55.3804
11
217.103
21
-55.7088
0
LINE
8
BLACK
6
CONTINUOUS
10
217.103
20
-55.7088
11
216.965
21
-56.054
0
LINE
8
BLACK
6
CONTINUOUS
10
216.965
20
-56.054
11
216.866
21
-56.4121
0
LINE
8
BLACK
6
CONTINUOUS
10
216.866
20
-56.4121
11
216.806
21
-56.7789
0
LINE
8
BLACK
6
CONTINUOUS
10
216.806
20
-56.7789
11
216.786
21
-57.15
0
LINE
8
BLACK
6
CONTINUOUS
10
173.855
20
-128.94
11
173.875
21
-128.71
0
LINE
8
BLACK
6
CONTINUOUS
10
173.875
20
-128.71
11
173.935
21
-128.487
0
LINE
8
BLACK
6
CONTINUOUS
10
173.935
20
-128.487
11
174.032
21
-128.277
0
LINE
8
BLACK
6
CONTINUOUS
10
174.032
20
-128.277
11
174.165
21
-128.088
0
LINE
8
BLACK
6
CONTINUOUS
10
174.165
20
-128.088
11
174.328
21
-127.925
0
LINE
8
BLACK
6
CONTINUOUS
10
174.328
20
-127.925
11
174.517
21
-127.792
0
LINE
8
BLACK
6
CONTINUOUS
10
174.517
20
-127.792
11
174.727
21
-127.695
0
LINE
8
BLACK
6
CONTINUOUS
10
174.727
20
-127.695
11
174.95
21
-127.635
0
LINE
8
BLACK
6
CONTINUOUS
10
174.95
20
-127.635
11
175.18
21
-127.615
0
LINE
8
BLACK
6
CONTINUOUS
10
175.18
20
-127.615
11
175.41
21
-127.635
0
LINE
8
BLACK
6
CONTINUOUS
10
175.41
20
-127.635
11
175.633
21
-127.695
0
LINE
8
BLACK
6
CONTINUOUS
10
175.633
20
-127.695
11
175.843
21
-127.792
0
LINE
8
BLACK
6
CONTINUOUS
10
175.843
20
-127.792
11
176.032
21
-127.925
0
LINE
8
BLACK
6
CONTINUOUS
10
176.032
20
-127.925
11
176.195
21
-128.088
0
LINE
8
BLACK
6
CONTINUOUS
10
176.195
20
-128.088
11
176.328
21
-128.277
0
LINE
8
BLACK
6
CONTINUOUS
10
176.328
20
-128.277
11
176.425
21
-128.487
0
LINE
8
BLACK
6
CONTINUOUS
10
176.425
20
-128.487
11
176.485
21
-128.71
0
LINE
8
BLACK
6
CONTINUOUS
10
176.485
20
-128.71
11
176.505
21
-128.94
0
LINE
8
BLACK
6
CONTINUOUS
10
176.505
20
-128.94
11
176.485
21
-129.17
0
LINE
8
BLACK
6
CONTINUOUS
10
176.485
20
-129.17
11
176.425
21
-129.393
0
LINE
8
BLACK
6
CONTINUOUS
10
176.425
20
-129.393
11
176.328
21
-129.603
0
LINE
8
BLACK
6
CONTINUOUS
10
176.328
20
-129.603
11
176.195
21
-129.792
0
LINE
8
BLACK
6
CONTINUOUS
10
176.195
20
-129.792
11
176.032
21
-129.955
0
LINE
8
BLACK
6
CONTINUOUS
10
176.032
20
-129.955
11
175.843
21
-130.088
0
LINE
8
BLACK
6
CONTINUOUS
10
175.843
20
-130.088
11
175.633
21
-130.185
0
LINE
8
BLACK
6
CONTINUOUS
10
175.633
20
-130.185
11
175.41
21
-130.245
0
LINE
8
BLACK
6
CONTINUOUS
10
175.41
20
-130.245
11
175.18
21
-130.265
0
LINE
8
BLACK
6
CONTINUOUS
10
175.18
20
-130.265
11
174.95
21
-130.245
0
LINE
8
BLACK
6
CONTINUOUS
10
174.95
20
-130.245
11
174.727
21
-130.185
0
LINE
8
BLACK
6
CONTINUOUS
10
174.727
20
-130.185
11
174.517
21
-130.088
0
LINE
8
BLACK
6
CONTINUOUS
10
174.517
20
-130.088
11
174.328
21
-129.955
0
LINE
8
BLACK
6
CONTINUOUS
10
174.328
20
-129.955
11
174.165
21
-129.792
0
LINE
8
BLACK
6
CONTINUOUS
10
174.165
20
-129.792
11
174.032
21
-129.603
0
LINE
8
BLACK
6
CONTINUOUS
10
174.032
20
-129.603
11
173.935
21
-129.393
0
LINE
8
BLACK
6
CONTINUOUS
10
173.935
20
-129.393
11
173.875
21
-129.17
0
LINE
8
BLACK
6
CONTINUOUS
10
173.875
20
-129.17
11
173.855
21
-128.94
0
LINE
8
BLACK
6
CONTINUOUS
10
174
20
-128.94
11
174.02
21
-129.157
0
LINE
8
BLACK
6
CONTINUOUS
10
174.02
20
-129.157
11
174.08
21
-129.366
0
LINE
8
BLACK
6
CONTINUOUS
10
174.08
20
-129.366
11
174.177
21
-129.561
0
LINE
8
BLACK
6
CONTINUOUS
10
174.177
20
-129.561
11
174.308
21
-129.735
0
LINE
8
BLACK
6
CONTINUOUS
10
174.308
20
-129.735
11
174.469
21
-129.882
0
LINE
8
BLACK
6
CONTINUOUS
10
174.469
20
-129.882
11
174.654
21
-129.996
0
LINE
8
BLACK
6
CONTINUOUS
10
174.654
20
-129.996
11
174.857
21
-130.075
0
LINE
8
BLACK
6
CONTINUOUS
10
174.857
20
-130.075
11
175.071
21
-130.115
0
LINE
8
BLACK
6
CONTINUOUS
10
175.071
20
-130.115
11
175.289
21
-130.115
0
LINE
8
BLACK
6
CONTINUOUS
10
175.289
20
-130.115
11
175.503
21
-130.075
0
LINE
8
BLACK
6
CONTINUOUS
10
175.503
20
-130.075
11
175.706
21
-129.996
0
LINE
8
BLACK
6
CONTINUOUS
10
175.706
20
-129.996
11
175.891
21
-129.882
0
LINE
8
BLACK
6
CONTINUOUS
10
175.891
20
-129.882
11
176.052
21
-129.735
0
LINE
8
BLACK
6
CONTINUOUS
10
176.052
20
-129.735
11
176.183
21
-129.561
0
LINE
8
BLACK
6
CONTINUOUS
10
176.183
20
-129.561
11
176.28
21
-129.366
0
LINE
8
BLACK
6
CONTINUOUS
10
176.28
20
-129.366
11
176.34
21
-129.157
0
LINE
8
BLACK
6
CONTINUOUS
10
176.34
20
-129.157
11
176.36
21
-128.94
0
LINE
8
BLACK
6
CONTINUOUS
10
176.36
20
-128.94
11
176.34
21
-128.723
0
LINE
8
BLACK
6
CONTINUOUS
10
176.34
20
-128.723
11
176.28
21
-128.514
0
LINE
8
BLACK
6
CONTINUOUS
10
176.28
20
-128.514
11
176.183
21
-128.319
0
LINE
8
BLACK
6
CONTINUOUS
10
176.183
20
-128.319
11
176.052
21
-128.145
0
LINE
8
BLACK
6
CONTINUOUS
10
176.052
20
-128.145
11
175.891
21
-127.998
0
LINE
8
BLACK
6
CONTINUOUS
10
175.891
20
-127.998
11
175.706
21
-127.884
0
LINE
8
BLACK
6
CONTINUOUS
10
175.706
20
-127.884
11
175.503
21
-127.805
0
LINE
8
BLACK
6
CONTINUOUS
10
175.503
20
-127.805
11
175.289
21
-127.765
0
LINE
8
BLACK
6
CONTINUOUS
10
175.289
20
-127.765
11
175.071
21
-127.765
0
LINE
8
BLACK
6
CONTINUOUS
10
175.071
20
-127.765
11
174.857
21
-127.805
0
LINE
8
BLACK
6
CONTINUOUS
10
174.857
20
-127.805
11
174.654
21
-127.884
0
LINE
8
BLACK
6
CONTINUOUS
10
174.654
20
-127.884
11
174.469
21
-127.998
0
LINE
8
BLACK
6
CONTINUOUS
10
174.469
20
-127.998
11
174.308
21
-128.145
0
LINE
8
BLACK
6
CONTINUOUS
10
174.308
20
-128.145
11
174.177
21
-128.319
0
LINE
8
BLACK
6
CONTINUOUS
10
174.177
20
-128.319
11
174.08
21
-128.514
0
LINE
8
BLACK
6
CONTINUOUS
10
174.08
20
-128.514
11
174.02
21
-128.723
0
LINE
8
BLACK
6
CONTINUOUS
10
174.02
20
-128.723
11
174
21
-128.94
0
LINE
8
BLACK
6
CONTINUOUS
10
152.345
20
-71.374
11
152.365
21
-71.1439
0
LINE
8
BLACK
6
CONTINUOUS
10
152.365
20
-71.1439
11
152.425
21
-70.9207
0
LINE
8
BLACK
6
CONTINUOUS
10
152.425
20
-70.9207
11
152.522
21
-70.7114
0
LINE
8
BLACK
6
CONTINUOUS
10
152.522
20
-70.7114
11
152.655
21
-70.5222
0
LINE
8
BLACK
6
CONTINUOUS
10
152.655
20
-70.5222
11
152.818
21
-70.3588
0
LINE
8
BLACK
6
CONTINUOUS
10
152.818
20
-70.3588
11
153.007
21
-70.2263
0
LINE
8
BLACK
6
CONTINUOUS
10
153.007
20
-70.2263
11
153.217
21
-70.1287
0
LINE
8
BLACK
6
CONTINUOUS
10
153.217
20
-70.1287
11
153.44
21
-70.0689
0
LINE
8
BLACK
6
CONTINUOUS
10
153.44
20
-70.0689
11
153.67
21
-70.0488
0
LINE
8
BLACK
6
CONTINUOUS
10
153.67
20
-70.0488
11
153.9
21
-70.0689
0
LINE
8
BLACK
6
CONTINUOUS
10
153.9
20
-70.0689
11
154.123
21
-70.1287
0
LINE
8
BLACK
6
CONTINUOUS
10
154.123
20
-70.1287
11
154.333
21
-70.2263
0
LINE
8
BLACK
6
CONTINUOUS
10
154.333
20
-70.2263
11
154.522
21
-70.3588
0
LINE
8
BLACK
6
CONTINUOUS
10
154.522
20
-70.3588
11
154.685
21
-70.5222
0
LINE
8
BLACK
6
CONTINUOUS
10
154.685
20
-70.5222
11
154.818
21
-70.7114
0
LINE
8
BLACK
6
CONTINUOUS
10
154.818
20
-70.7114
11
154.915
21
-70.9207
0
LINE
8
BLACK
6
CONTINUOUS
10
154.915
20
-70.9207
11
154.975
21
-71.1439
0
LINE
8
BLACK
6
CONTINUOUS
10
154.975
20
-71.1439
11
154.995
21
-71.374
0
LINE
8
BLACK
6
CONTINUOUS
10
154.995
20
-71.374
11
154.975
21
-71.6041
0
LINE
8
BLACK
6
CONTINUOUS
10
154.975
20
-71.6041
11
154.915
21
-71.8273
0
LINE
8
BLACK
6
CONTINUOUS
10
154.915
20
-71.8273
11
154.818
21
-72.0366
0
LINE
8
BLACK
6
CONTINUOUS
10
154.818
20
-72.0366
11
154.685
21
-72.2258
0
LINE
8
BLACK
6
CONTINUOUS
10
154.685
20
-72.2258
11
154.522
21
-72.3892
0
LINE
8
BLACK
6
CONTINUOUS
10
154.522
20
-72.3892
11
154.333
21
-72.5217
0
LINE
8
BLACK
6
CONTINUOUS
10
154.333
20
-72.5217
11
154.123
21
-72.6193
0
LINE
8
BLACK
6
CONTINUOUS
10
154.123
20
-72.6193
11
153.9
21
-72.6791
0
LINE
8
BLACK
6
CONTINUOUS
10
153.9
20
-72.6791
11
153.67
21
-72.6992
0
LINE
8
BLACK
6
CONTINUOUS
10
153.67
20
-72.6992
11
153.44
21
-72.6791
0
LINE
8
BLACK
6
CONTINUOUS
10
153.44
20
-72.6791
11
153.217
21
-72.6193
0
LINE
8
BLACK
6
CONTINUOUS
10
153.217
20
-72.6193
11
153.007
21
-72.5217
0
LINE
8
BLACK
6
CONTINUOUS
10
153.007
20
-72.5217
11
152.818
21
-72.3892
0
LINE
8
BLACK
6
CONTINUOUS
10
152.818
20
-72.3892
11
152.655
21
-72.2258
0
LINE
8
BLACK
6
CONTINUOUS
10
152.655
20
-72.2258
11
152.522
21
-72.0366
0
LINE
8
BLACK
6
CONTINUOUS
10
152.522
20
-72.0366
11
152.425
21
-71.8273
0
LINE
8
BLACK
6
CONTINUOUS
10
152.425
20
-71.8273
11
152.365
21
-71.6041
0
LINE
8
BLACK
6
CONTINUOUS
10
152.365
20
-71.6041
11
152.345
21
-71.374
0
LINE
8
BLACK
6
CONTINUOUS
10
152.49
20
-71.374
11
152.51
21
-71.5909
0
LINE
8
BLACK
6
CONTINUOUS
10
152.51
20
-71.5909
11
152.569
21
-71.8004
0
LINE
8
BLACK
6
CONTINUOUS
10
152.569
20
-71.8004
11
152.667
21
-71.9953
0
LINE
8
BLACK
6
CONTINUOUS
10
152.667
20
-71.9953
11
152.798
21
-72.1691
0
LINE
8
BLACK
6
CONTINUOUS
10
152.798
20
-72.1691
11
152.959
21
-72.3159
0
LINE
8
BLACK
6
CONTINUOUS
10
152.959
20
-72.3159
11
153.144
21
-72.4305
0
LINE
8
BLACK
6
CONTINUOUS
10
153.144
20
-72.4305
11
153.347
21
-72.5092
0
LINE
8
BLACK
6
CONTINUOUS
10
153.347
20
-72.5092
11
153.561
21
-72.5492
0
LINE
8
BLACK
6
CONTINUOUS
10
153.561
20
-72.5492
11
153.779
21
-72.5492
0
LINE
8
BLACK
6
CONTINUOUS
10
153.779
20
-72.5492
11
153.993
21
-72.5092
0
LINE
8
BLACK
6
CONTINUOUS
10
153.993
20
-72.5092
11
154.196
21
-72.4305
0
LINE
8
BLACK
6
CONTINUOUS
10
154.196
20
-72.4305
11
154.381
21
-72.3159
0
LINE
8
BLACK
6
CONTINUOUS
10
154.381
20
-72.3159
11
154.542
21
-72.1691
0
LINE
8
BLACK
6
CONTINUOUS
10
154.542
20
-72.1691
11
154.673
21
-71.9953
0
LINE
8
BLACK
6
CONTINUOUS
10
154.673
20
-71.9953
11
154.771
21
-71.8004
0
LINE
8
BLACK
6
CONTINUOUS
10
154.771
20
-71.8004
11
154.83
21
-71.5909
0
LINE
8
BLACK
6
CONTINUOUS
10
154.83
20
-71.5909
11
154.85
21
-71.374
0
LINE
8
BLACK
6
CONTINUOUS
10
154.85
20
-71.374
11
154.83
21
-71.1571
0
LINE
8
BLACK
6
CONTINUOUS
10
154.83
20
-71.1571
11
154.771
21
-70.9476
0
LINE
8
BLACK
6
CONTINUOUS
10
154.771
20
-70.9476
11
154.673
21
-70.7527
0
LINE
8
BLACK
6
CONTINUOUS
10
154.673
20
-70.7527
11
154.542
21
-70.5789
0
LINE
8
BLACK
6
CONTINUOUS
10
154.542
20
-70.5789
11
154.381
21
-70.4321
0
LINE
8
BLACK
6
CONTINUOUS
10
154.381
20
-70.4321
11
154.196
21
-70.3175
0
LINE
8
BLACK
6
CONTINUOUS
10
154.196
20
-70.3175
11
153.993
21
-70.2388
0
LINE
8
BLACK
6
CONTINUOUS
10
153.993
20
-70.2388
11
153.779
21
-70.1988
0
LINE
8
BLACK
6
CONTINUOUS
10
153.779
20
-70.1988
11
153.561
21
-70.1988
0
LINE
8
BLACK
6
CONTINUOUS
10
153.561
20
-70.1988
11
153.347
21
-70.2388
0
LINE
8
BLACK
6
CONTINUOUS
10
153.347
20
-70.2388
11
153.144
21
-70.3175
0
LINE
8
BLACK
6
CONTINUOUS
10
153.144
20
-70.3175
11
152.959
21
-70.4321
0
LINE
8
BLACK
6
CONTINUOUS
10
152.959
20
-70.4321
11
152.798
21
-70.5789
0
LINE
8
BLACK
6
CONTINUOUS
10
152.798
20
-70.5789
11
152.667
21
-70.7527
0
LINE
8
BLACK
6
CONTINUOUS
10
152.667
20
-70.7527
11
152.569
21
-70.9476
0
LINE
8
BLACK
6
CONTINUOUS
10
152.569
20
-70.9476
11
152.51
21
-71.1571
0
LINE
8
BLACK
6
CONTINUOUS
10
152.51
20
-71.1571
11
152.49
21
-71.374
0
LINE
8
BLACK
6
CONTINUOUS
10
218.891
20
-57.15
11
218.911
21
-56.9196
0
LINE
8
BLACK
6
CONTINUOUS
10
218.911
20
-56.9196
11
218.971
21
-56.6961
0
LINE
8
BLACK
6
CONTINUOUS
10
218.971
20
-56.6961
11
219.069
21
-56.4865
0
LINE
8
BLACK
6
CONTINUOUS
10
219.069
20
-56.4865
11
219.201
21
-56.297
0
LINE
8
BLACK
6
CONTINUOUS
10
219.201
20
-56.297
11
219.365
21
-56.1335
0
LINE
8
BLACK
6
CONTINUOUS
10
219.365
20
-56.1335
11
219.554
21
-56.0008
0
LINE
8
BLACK
6
CONTINUOUS
10
219.554
20
-56.0008
11
219.764
21
-55.903
0
LINE
8
BLACK
6
CONTINUOUS
10
219.764
20
-55.903
11
219.988
21
-55.8432
0
LINE
8
BLACK
6
CONTINUOUS
10
219.988
20
-55.8432
11
220.218
21
-55.823
0
LINE
8
BLACK
6
CONTINUOUS
10
220.218
20
-55.823
11
220.448
21
-55.8432
0
LINE
8
BLACK
6
CONTINUOUS
10
220.448
20
-55.8432
11
220.672
21
-55.903
0
LINE
8
BLACK
6
CONTINUOUS
10
220.672
20
-55.903
11
220.881
21
-56.0008
0
LINE
8
BLACK
6
CONTINUOUS
10
220.881
20
-56.0008
11
221.071
21
-56.1335
0
LINE
8
BLACK
6
CONTINUOUS
10
221.071
20
-56.1335
11
221.235
21
-56.297
0
LINE
8
BLACK
6
CONTINUOUS
10
221.235
20
-56.297
11
221.367
21
-56.4865
0
LINE
8
BLACK
6
CONTINUOUS
10
221.367
20
-56.4865
11
221.465
21
-56.6961
0
LINE
8
BLACK
6
CONTINUOUS
10
221.465
20
-56.6961
11
221.525
21
-56.9196
0
LINE
8
BLACK
6
CONTINUOUS
10
221.525
20
-56.9196
11
221.545
21
-57.15
0
LINE
8
BLACK
6
CONTINUOUS
10
221.545
20
-57.15
11
221.525
21
-57.3804
0
LINE
8
BLACK
6
CONTINUOUS
10
221.525
20
-57.3804
11
221.465
21
-57.6039
0
LINE
8
BLACK
6
CONTINUOUS
10
221.465
20
-57.6039
11
221.367
21
-57.8135
0
LINE
8
BLACK
6
CONTINUOUS
10
221.367
20
-57.8135
11
221.235
21
-58.003
0
LINE
8
BLACK
6
CONTINUOUS
10
221.235
20
-58.003
11
221.071
21
-58.1665
0
LINE
8
BLACK
6
CONTINUOUS
10
221.071
20
-58.1665
11
220.881
21
-58.2992
0
LINE
8
BLACK
6
CONTINUOUS
10
220.881
20
-58.2992
11
220.672
21
-58.397
0
LINE
8
BLACK
6
CONTINUOUS
10
220.672
20
-58.397
11
220.448
21
-58.4568
0
LINE
8
BLACK
6
CONTINUOUS
10
220.448
20
-58.4568
11
220.218
21
-58.477
0
LINE
8
BLACK
6
CONTINUOUS
10
220.218
20
-58.477
11
219.988
21
-58.4568
0
LINE
8
BLACK
6
CONTINUOUS
10
219.988
20
-58.4568
11
219.764
21
-58.397
0
LINE
8
BLACK
6
CONTINUOUS
10
219.764
20
-58.397
11
219.554
21
-58.2992
0
LINE
8
BLACK
6
CONTINUOUS
10
219.554
20
-58.2992
11
219.365
21
-58.1665
0
LINE
8
BLACK
6
CONTINUOUS
10
219.365
20
-58.1665
11
219.201
21
-58.003
0
LINE
8
BLACK
6
CONTINUOUS
10
219.201
20
-58.003
11
219.069
21
-57.8135
0
LINE
8
BLACK
6
CONTINUOUS
10
219.069
20
-57.8135
11
218.971
21
-57.6039
0
LINE
8
BLACK
6
CONTINUOUS
10
218.971
20
-57.6039
11
218.911
21
-57.3804
0
LINE
8
BLACK
6
CONTINUOUS
10
218.911
20
-57.3804
11
218.891
21
-57.15
0
LINE
8
BLACK
6
CONTINUOUS
10
219.036
20
-57.15
11
219.056
21
-57.3672
0
LINE
8
BLACK
6
CONTINUOUS
10
219.056
20
-57.3672
11
219.116
21
-57.577
0
LINE
8
BLACK
6
CONTINUOUS
10
219.116
20
-57.577
11
219.213
21
-57.7723
0
LINE
8
BLACK
6
CONTINUOUS
10
219.213
20
-57.7723
11
219.344
21
-57.9463
0
LINE
8
BLACK
6
CONTINUOUS
10
219.344
20
-57.9463
11
219.506
21
-58.0933
0
LINE
8
BLACK
6
CONTINUOUS
10
219.506
20
-58.0933
11
219.691
21
-58.2081
0
LINE
8
BLACK
6
CONTINUOUS
10
219.691
20
-58.2081
11
219.895
21
-58.2869
0
LINE
8
BLACK
6
CONTINUOUS
10
219.895
20
-58.2869
11
220.109
21
-58.327
0
LINE
8
BLACK
6
CONTINUOUS
10
220.109
20
-58.327
11
220.327
21
-58.327
0
LINE
8
BLACK
6
CONTINUOUS
10
220.327
20
-58.327
11
220.541
21
-58.2869
0
LINE
8
BLACK
6
CONTINUOUS
10
220.541
20
-58.2869
11
220.745
21
-58.2081
0
LINE
8
BLACK
6
CONTINUOUS
10
220.745
20
-58.2081
11
220.93
21
-58.0933
0
LINE
8
BLACK
6
CONTINUOUS
10
220.93
20
-58.0933
11
221.092
21
-57.9463
0
LINE
8
BLACK
6
CONTINUOUS
10
221.092
20
-57.9463
11
221.223
21
-57.7723
0
LINE
8
BLACK
6
CONTINUOUS
10
221.223
20
-57.7723
11
221.32
21
-57.577
0
LINE
8
BLACK
6
CONTINUOUS
10
221.32
20
-57.577
11
221.38
21
-57.3672
0
LINE
8
BLACK
6
CONTINUOUS
10
221.38
20
-57.3672
11
221.4
21
-57.15
0
LINE
8
BLACK
6
CONTINUOUS
10
221.4
20
-57.15
11
221.38
21
-56.9328
0
LINE
8
BLACK
6
CONTINUOUS
10
221.38
20
-56.9328
11
221.32
21
-56.723
0
LINE
8
BLACK
6
CONTINUOUS
10
221.32
20
-56.723
11
221.223
21
-56.5277
0
LINE
8
BLACK
6
CONTINUOUS
10
221.223
20
-56.5277
11
221.092
21
-56.3537
0
LINE
8
BLACK
6
CONTINUOUS
10
221.092
20
-56.3537
11
220.93
21
-56.2067
0
LINE
8
BLACK
6
CONTINUOUS
10
220.93
20
-56.2067
11
220.745
21
-56.0919
0
LINE
8
BLACK
6
CONTINUOUS
10
220.745
20
-56.0919
11
220.541
21
-56.0131
0
LINE
8
BLACK
6
CONTINUOUS
10
220.541
20
-56.0131
11
220.327
21
-55.973
0
LINE
8
BLACK
6
CONTINUOUS
10
220.327
20
-55.973
11
220.109
21
-55.973
0
LINE
8
BLACK
6
CONTINUOUS
10
220.109
20
-55.973
11
219.895
21
-56.0131
0
LINE
8
BLACK
6
CONTINUOUS
10
219.895
20
-56.0131
11
219.691
21
-56.0919
0
LINE
8
BLACK
6
CONTINUOUS
10
219.691
20
-56.0919
11
219.506
21
-56.2067
0
LINE
8
BLACK
6
CONTINUOUS
10
219.506
20
-56.2067
11
219.344
21
-56.3537
0
LINE
8
BLACK
6
CONTINUOUS
10
219.344
20
-56.3537
11
219.213
21
-56.5277
0
LINE
8
BLACK
6
CONTINUOUS
10
219.213
20
-56.5277
11
219.116
21
-56.723
0
LINE
8
BLACK
6
CONTINUOUS
10
219.116
20
-56.723
11
219.056
21
-56.9328
0
LINE
8
BLACK
6
CONTINUOUS
10
219.056
20
-56.9328
11
219.036
21
-57.15
  0
ENDSEC
  0
EOF
