  0
SECTION
  2
HEADER
  9
$ANGBASE
  50
0.0
  9
$ANGDIR
  70
1
  9
$MEASUREMENT
  70
1
  0
ENDSEC
  0
SECTION
  2
TABLES
  0
TABLE
  2
LTYPE
  70
4
  0
LTYPE
  5
40F
  2
CONTINUOUS
  70
0
  3
Solid line
  72
65
  73
0
  40
0.0
  0
LTYPE
  5
410
  2
DASHDOT
 70
0
  3
Dash Dot ____ _ ____ _
 72
65
 73
4
 40
2.0
 49
1.25
 49
-0.25
 49
0.25
 49
-0.25
  0
LTYPE
  5
411
  2
DASHED
 70
0
  3
Dashed __ __ __ __ __
 72
65
 73
2
 40
0.75
 49
0.5
 49
-0.25
  0
LTYPE
  5
43B
  2
DOTTED
 70
0
  3
Dotted .  .  .  .
 72
65
 73
2
 40
0.2
 49
0.0
 49
-0.2
  0
ENDTAB
  0
TABLE
  2
STYLE
  70
4
  0
STYLE
  2
KICAD
  70
0
  40
0
  41
1
  42
1
  50
0
  71
0
  3
isocp.shx
  0
STYLE
  2
KICADB
  70
0
  40
0
  41
1
  42
1
  50
0
  71
0
  3
isocp.shx
  0
STYLE
  2
KICADI
  70
0
  40
0
  41
1
  42
1
  50
15
  71
0
  3
isocp.shx
  0
STYLE
  2
KICADBI
  70
0
  40
0
  41
1
  42
1
  50
15
  71
0
  3
isocp.shx
  0
ENDTAB
  0
TABLE
  2
LAYER
  70
1
  0
LAYER
  2
BLACK
  70
0
  62
7
  6
CONTINUOUS
  0
ENDTAB
  0
ENDSEC
  0
SECTION
  2
ENTITIES
0
LINE
8
BLACK
6
CONTINUOUS
10
237.01
20
-116.107
11
237.013
21
-116.106
0
LINE
8
BLACK
6
CONTINUOUS
10
237.013
20
-116.106
11
237.016
21
-116.108
0
LINE
8
BLACK
6
CONTINUOUS
10
237.016
20
-116.108
11
237.026
21
-116.11
0
LINE
8
BLACK
6
CONTINUOUS
10
237.026
20
-116.11
11
237.041
21
-116.122
0
LINE
8
BLACK
6
CONTINUOUS
10
237.041
20
-116.122
11
237.057
21
-116.132
0
LINE
8
BLACK
6
CONTINUOUS
10
237.057
20
-116.132
11
237.06
21
-116.138
0
LINE
8
BLACK
6
CONTINUOUS
10
237.06
20
-116.138
11
237.065
21
-116.142
0
LINE
8
BLACK
6
CONTINUOUS
10
237.065
20
-116.142
11
237.068
21
-116.162
0
LINE
8
BLACK
6
CONTINUOUS
10
237.068
20
-116.162
11
237.075
21
-116.18
0
LINE
8
BLACK
6
CONTINUOUS
10
237.075
20
-116.18
11
237.075
21
-130.19
0
LINE
8
BLACK
6
CONTINUOUS
10
237.075
20
-130.19
11
237.073
21
-130.2
0
LINE
8
BLACK
6
CONTINUOUS
10
237.073
20
-130.2
11
237.074
21
-130.203
0
LINE
8
BLACK
6
CONTINUOUS
10
237.074
20
-130.203
11
237.072
21
-130.206
0
LINE
8
BLACK
6
CONTINUOUS
10
237.072
20
-130.206
11
237.07
21
-130.216
0
LINE
8
BLACK
6
CONTINUOUS
10
237.07
20
-130.216
11
237.058
21
-130.231
0
LINE
8
BLACK
6
CONTINUOUS
10
237.058
20
-130.231
11
237.048
21
-130.247
0
LINE
8
BLACK
6
CONTINUOUS
10
237.048
20
-130.247
11
237.042
21
-130.25
0
LINE
8
BLACK
6
CONTINUOUS
10
237.042
20
-130.25
11
237.037
21
-130.255
0
LINE
8
BLACK
6
CONTINUOUS
10
237.037
20
-130.255
11
237.018
21
-130.258
0
LINE
8
BLACK
6
CONTINUOUS
10
237.018
20
-130.258
11
237
21
-130.265
0
LINE
8
BLACK
6
CONTINUOUS
10
237
20
-130.265
11
222.98
21
-130.265
0
LINE
8
BLACK
6
CONTINUOUS
10
222.98
20
-130.265
11
222.97
21
-130.263
0
LINE
8
BLACK
6
CONTINUOUS
10
222.97
20
-130.263
11
222.967
21
-130.264
0
LINE
8
BLACK
6
CONTINUOUS
10
222.967
20
-130.264
11
222.964
21
-130.262
0
LINE
8
BLACK
6
CONTINUOUS
10
222.964
20
-130.262
11
222.954
21
-130.26
0
LINE
8
BLACK
6
CONTINUOUS
10
222.954
20
-130.26
11
222.939
21
-130.248
0
LINE
8
BLACK
6
CONTINUOUS
10
222.939
20
-130.248
11
222.923
21
-130.238
0
LINE
8
BLACK
6
CONTINUOUS
10
222.923
20
-130.238
11
222.92
21
-130.232
0
LINE
8
BLACK
6
CONTINUOUS
10
222.92
20
-130.232
11
222.915
21
-130.227
0
LINE
8
BLACK
6
CONTINUOUS
10
222.915
20
-130.227
11
222.912
21
-130.208
0
LINE
8
BLACK
6
CONTINUOUS
10
222.912
20
-130.208
11
222.905
21
-130.19
0
LINE
8
BLACK
6
CONTINUOUS
10
222.905
20
-130.19
11
222.905
21
-116.18
0
LINE
8
BLACK
6
CONTINUOUS
10
222.905
20
-116.18
11
222.907
21
-116.17
0
LINE
8
BLACK
6
CONTINUOUS
10
222.907
20
-116.17
11
222.906
21
-116.167
0
LINE
8
BLACK
6
CONTINUOUS
10
222.906
20
-116.167
11
222.908
21
-116.164
0
LINE
8
BLACK
6
CONTINUOUS
10
222.908
20
-116.164
11
222.91
21
-116.154
0
LINE
8
BLACK
6
CONTINUOUS
10
222.91
20
-116.154
11
222.922
21
-116.139
0
LINE
8
BLACK
6
CONTINUOUS
10
222.922
20
-116.139
11
222.932
21
-116.123
0
LINE
8
BLACK
6
CONTINUOUS
10
222.932
20
-116.123
11
222.938
21
-116.12
0
LINE
8
BLACK
6
CONTINUOUS
10
222.938
20
-116.12
11
222.942
21
-116.115
0
LINE
8
BLACK
6
CONTINUOUS
10
222.942
20
-116.115
11
222.962
21
-116.112
0
LINE
8
BLACK
6
CONTINUOUS
10
222.962
20
-116.112
11
222.98
21
-116.105
0
LINE
8
BLACK
6
CONTINUOUS
10
222.98
20
-116.105
11
237
21
-116.105
0
LINE
8
BLACK
6
CONTINUOUS
10
237
20
-116.105
11
237.01
21
-116.107
0
LINE
8
BLACK
6
CONTINUOUS
10
223.055
20
-116.255
11
223.055
21
-130.115
0
LINE
8
BLACK
6
CONTINUOUS
10
223.055
20
-130.115
11
236.925
21
-130.115
0
LINE
8
BLACK
6
CONTINUOUS
10
236.925
20
-130.115
11
236.925
21
-116.255
0
LINE
8
BLACK
6
CONTINUOUS
10
236.925
20
-116.255
11
223.055
21
-116.255
0
LINE
8
BLACK
6
CONTINUOUS
10
217.95
20
-111.347
11
217.953
21
-111.346
0
LINE
8
BLACK
6
CONTINUOUS
10
217.953
20
-111.346
11
217.956
21
-111.348
0
LINE
8
BLACK
6
CONTINUOUS
10
217.956
20
-111.348
11
217.966
21
-111.35
0
LINE
8
BLACK
6
CONTINUOUS
10
217.966
20
-111.35
11
217.981
21
-111.362
0
LINE
8
BLACK
6
CONTINUOUS
10
217.981
20
-111.362
11
217.997
21
-111.372
0
LINE
8
BLACK
6
CONTINUOUS
10
217.997
20
-111.372
11
218
21
-111.378
0
LINE
8
BLACK
6
CONTINUOUS
10
218
20
-111.378
11
218.005
21
-111.382
0
LINE
8
BLACK
6
CONTINUOUS
10
218.005
20
-111.382
11
218.008
21
-111.402
0
LINE
8
BLACK
6
CONTINUOUS
10
218.008
20
-111.402
11
218.015
21
-111.42
0
LINE
8
BLACK
6
CONTINUOUS
10
218.015
20
-111.42
11
218.015
21
-125.43
0
LINE
8
BLACK
6
CONTINUOUS
10
218.015
20
-125.43
11
218.013
21
-125.44
0
LINE
8
BLACK
6
CONTINUOUS
10
218.013
20
-125.44
11
218.014
21
-125.443
0
LINE
8
BLACK
6
CONTINUOUS
10
218.014
20
-125.443
11
218.012
21
-125.446
0
LINE
8
BLACK
6
CONTINUOUS
10
218.012
20
-125.446
11
218.01
21
-125.456
0
LINE
8
BLACK
6
CONTINUOUS
10
218.01
20
-125.456
11
217.998
21
-125.471
0
LINE
8
BLACK
6
CONTINUOUS
10
217.998
20
-125.471
11
217.988
21
-125.487
0
LINE
8
BLACK
6
CONTINUOUS
10
217.988
20
-125.487
11
217.982
21
-125.49
0
LINE
8
BLACK
6
CONTINUOUS
10
217.982
20
-125.49
11
217.977
21
-125.495
0
LINE
8
BLACK
6
CONTINUOUS
10
217.977
20
-125.495
11
217.958
21
-125.498
0
LINE
8
BLACK
6
CONTINUOUS
10
217.958
20
-125.498
11
217.94
21
-125.505
0
LINE
8
BLACK
6
CONTINUOUS
10
217.94
20
-125.505
11
203.92
21
-125.505
0
LINE
8
BLACK
6
CONTINUOUS
10
203.92
20
-125.505
11
203.91
21
-125.503
0
LINE
8
BLACK
6
CONTINUOUS
10
203.91
20
-125.503
11
203.907
21
-125.504
0
LINE
8
BLACK
6
CONTINUOUS
10
203.907
20
-125.504
11
203.904
21
-125.502
0
LINE
8
BLACK
6
CONTINUOUS
10
203.904
20
-125.502
11
203.894
21
-125.5
0
LINE
8
BLACK
6
CONTINUOUS
10
203.894
20
-125.5
11
203.879
21
-125.488
0
LINE
8
BLACK
6
CONTINUOUS
10
203.879
20
-125.488
11
203.863
21
-125.478
0
LINE
8
BLACK
6
CONTINUOUS
10
203.863
20
-125.478
11
203.86
21
-125.472
0
LINE
8
BLACK
6
CONTINUOUS
10
203.86
20
-125.472
11
203.855
21
-125.468
0
LINE
8
BLACK
6
CONTINUOUS
10
203.855
20
-125.468
11
203.852
21
-125.448
0
LINE
8
BLACK
6
CONTINUOUS
10
203.852
20
-125.448
11
203.845
21
-125.43
0
LINE
8
BLACK
6
CONTINUOUS
10
203.845
20
-125.43
11
203.845
21
-111.42
0
LINE
8
BLACK
6
CONTINUOUS
10
203.845
20
-111.42
11
203.847
21
-111.41
0
LINE
8
BLACK
6
CONTINUOUS
10
203.847
20
-111.41
11
203.846
21
-111.407
0
LINE
8
BLACK
6
CONTINUOUS
10
203.846
20
-111.407
11
203.848
21
-111.404
0
LINE
8
BLACK
6
CONTINUOUS
10
203.848
20
-111.404
11
203.85
21
-111.394
0
LINE
8
BLACK
6
CONTINUOUS
10
203.85
20
-111.394
11
203.862
21
-111.379
0
LINE
8
BLACK
6
CONTINUOUS
10
203.862
20
-111.379
11
203.872
21
-111.363
0
LINE
8
BLACK
6
CONTINUOUS
10
203.872
20
-111.363
11
203.878
21
-111.36
0
LINE
8
BLACK
6
CONTINUOUS
10
203.878
20
-111.36
11
203.882
21
-111.355
0
LINE
8
BLACK
6
CONTINUOUS
10
203.882
20
-111.355
11
203.902
21
-111.352
0
LINE
8
BLACK
6
CONTINUOUS
10
203.902
20
-111.352
11
203.92
21
-111.345
0
LINE
8
BLACK
6
CONTINUOUS
10
203.92
20
-111.345
11
217.94
21
-111.345
0
LINE
8
BLACK
6
CONTINUOUS
10
217.94
20
-111.345
11
217.95
21
-111.347
0
LINE
8
BLACK
6
CONTINUOUS
10
203.995
20
-111.495
11
203.995
21
-125.355
0
LINE
8
BLACK
6
CONTINUOUS
10
203.995
20
-125.355
11
217.865
21
-125.355
0
LINE
8
BLACK
6
CONTINUOUS
10
217.865
20
-125.355
11
217.865
21
-111.495
0
LINE
8
BLACK
6
CONTINUOUS
10
217.865
20
-111.495
11
203.995
21
-111.495
0
LINE
8
BLACK
6
CONTINUOUS
10
160.8
20
-93.0567
11
160.803
21
-93.0561
0
LINE
8
BLACK
6
CONTINUOUS
10
160.803
20
-93.0561
11
160.806
21
-93.0578
0
LINE
8
BLACK
6
CONTINUOUS
10
160.806
20
-93.0578
11
160.816
21
-93.0595
0
LINE
8
BLACK
6
CONTINUOUS
10
160.816
20
-93.0595
11
160.831
21
-93.072
0
LINE
8
BLACK
6
CONTINUOUS
10
160.831
20
-93.072
11
160.847
21
-93.0818
0
LINE
8
BLACK
6
CONTINUOUS
10
160.847
20
-93.0818
11
160.85
21
-93.0881
0
LINE
8
BLACK
6
CONTINUOUS
10
160.85
20
-93.0881
11
160.855
21
-93.0925
0
LINE
8
BLACK
6
CONTINUOUS
10
160.855
20
-93.0925
11
160.858
21
-93.1117
0
LINE
8
BLACK
6
CONTINUOUS
10
160.858
20
-93.1117
11
160.865
21
-93.13
0
LINE
8
BLACK
6
CONTINUOUS
10
160.865
20
-93.13
11
160.865
21
-107.13
0
LINE
8
BLACK
6
CONTINUOUS
10
160.865
20
-107.13
11
160.863
21
-107.14
0
LINE
8
BLACK
6
CONTINUOUS
10
160.863
20
-107.14
11
160.864
21
-107.143
0
LINE
8
BLACK
6
CONTINUOUS
10
160.864
20
-107.143
11
160.862
21
-107.146
0
LINE
8
BLACK
6
CONTINUOUS
10
160.862
20
-107.146
11
160.86
21
-107.156
0
LINE
8
BLACK
6
CONTINUOUS
10
160.86
20
-107.156
11
160.848
21
-107.171
0
LINE
8
BLACK
6
CONTINUOUS
10
160.848
20
-107.171
11
160.838
21
-107.187
0
LINE
8
BLACK
6
CONTINUOUS
10
160.838
20
-107.187
11
160.832
21
-107.19
0
LINE
8
BLACK
6
CONTINUOUS
10
160.832
20
-107.19
11
160.827
21
-107.195
0
LINE
8
BLACK
6
CONTINUOUS
10
160.827
20
-107.195
11
160.808
21
-107.198
0
LINE
8
BLACK
6
CONTINUOUS
10
160.808
20
-107.198
11
160.79
21
-107.205
0
LINE
8
BLACK
6
CONTINUOUS
10
160.79
20
-107.205
11
146.79
21
-107.205
0
LINE
8
BLACK
6
CONTINUOUS
10
146.79
20
-107.205
11
146.78
21
-107.203
0
LINE
8
BLACK
6
CONTINUOUS
10
146.78
20
-107.203
11
146.777
21
-107.204
0
LINE
8
BLACK
6
CONTINUOUS
10
146.777
20
-107.204
11
146.774
21
-107.202
0
LINE
8
BLACK
6
CONTINUOUS
10
146.774
20
-107.202
11
146.764
21
-107.2
0
LINE
8
BLACK
6
CONTINUOUS
10
146.764
20
-107.2
11
146.749
21
-107.188
0
LINE
8
BLACK
6
CONTINUOUS
10
146.749
20
-107.188
11
146.733
21
-107.178
0
LINE
8
BLACK
6
CONTINUOUS
10
146.733
20
-107.178
11
146.73
21
-107.172
0
LINE
8
BLACK
6
CONTINUOUS
10
146.73
20
-107.172
11
146.725
21
-107.167
0
LINE
8
BLACK
6
CONTINUOUS
10
146.725
20
-107.167
11
146.722
21
-107.148
0
LINE
8
BLACK
6
CONTINUOUS
10
146.722
20
-107.148
11
146.715
21
-107.13
0
LINE
8
BLACK
6
CONTINUOUS
10
146.715
20
-107.13
11
146.715
21
-93.13
0
LINE
8
BLACK
6
CONTINUOUS
10
146.715
20
-93.13
11
146.717
21
-93.1203
0
LINE
8
BLACK
6
CONTINUOUS
10
146.717
20
-93.1203
11
146.716
21
-93.117
0
LINE
8
BLACK
6
CONTINUOUS
10
146.716
20
-93.117
11
146.718
21
-93.1141
0
LINE
8
BLACK
6
CONTINUOUS
10
146.718
20
-93.1141
11
146.72
21
-93.1043
0
LINE
8
BLACK
6
CONTINUOUS
10
146.72
20
-93.1043
11
146.732
21
-93.0894
0
LINE
8
BLACK
6
CONTINUOUS
10
146.732
20
-93.0894
11
146.742
21
-93.0725
0
LINE
8
BLACK
6
CONTINUOUS
10
146.742
20
-93.0725
11
146.748
21
-93.0702
0
LINE
8
BLACK
6
CONTINUOUS
10
146.748
20
-93.0702
11
146.752
21
-93.065
0
LINE
8
BLACK
6
CONTINUOUS
10
146.752
20
-93.065
11
146.772
21
-93.0617
0
LINE
8
BLACK
6
CONTINUOUS
10
146.772
20
-93.0617
11
146.79
21
-93.055
0
LINE
8
BLACK
6
CONTINUOUS
10
146.79
20
-93.055
11
160.79
21
-93.055
0
LINE
8
BLACK
6
CONTINUOUS
10
160.79
20
-93.055
11
160.8
21
-93.0567
0
LINE
8
BLACK
6
CONTINUOUS
10
146.865
20
-93.205
11
146.865
21
-107.055
0
LINE
8
BLACK
6
CONTINUOUS
10
146.865
20
-107.055
11
160.715
21
-107.055
0
LINE
8
BLACK
6
CONTINUOUS
10
160.715
20
-107.055
11
160.715
21
-93.205
0
LINE
8
BLACK
6
CONTINUOUS
10
160.715
20
-93.205
11
146.865
21
-93.205
0
LINE
8
BLACK
6
CONTINUOUS
10
237
20
-83.5067
11
237.003
21
-83.5061
0
LINE
8
BLACK
6
CONTINUOUS
10
237.003
20
-83.5061
11
237.006
21
-83.5078
0
LINE
8
BLACK
6
CONTINUOUS
10
237.006
20
-83.5078
11
237.016
21
-83.5095
0
LINE
8
BLACK
6
CONTINUOUS
10
237.016
20
-83.5095
11
237.031
21
-83.522
0
LINE
8
BLACK
6
CONTINUOUS
10
237.031
20
-83.522
11
237.047
21
-83.5318
0
LINE
8
BLACK
6
CONTINUOUS
10
237.047
20
-83.5318
11
237.05
21
-83.5381
0
LINE
8
BLACK
6
CONTINUOUS
10
237.05
20
-83.5381
11
237.055
21
-83.5425
0
LINE
8
BLACK
6
CONTINUOUS
10
237.055
20
-83.5425
11
237.058
21
-83.5617
0
LINE
8
BLACK
6
CONTINUOUS
10
237.058
20
-83.5617
11
237.065
21
-83.58
0
LINE
8
BLACK
6
CONTINUOUS
10
237.065
20
-83.58
11
237.065
21
-97.6
0
LINE
8
BLACK
6
CONTINUOUS
10
237.065
20
-97.6
11
237.063
21
-97.6097
0
LINE
8
BLACK
6
CONTINUOUS
10
237.063
20
-97.6097
11
237.064
21
-97.613
0
LINE
8
BLACK
6
CONTINUOUS
10
237.064
20
-97.613
11
237.062
21
-97.6159
0
LINE
8
BLACK
6
CONTINUOUS
10
237.062
20
-97.6159
11
237.06
21
-97.6257
0
LINE
8
BLACK
6
CONTINUOUS
10
237.06
20
-97.6257
11
237.048
21
-97.6406
0
LINE
8
BLACK
6
CONTINUOUS
10
237.048
20
-97.6406
11
237.038
21
-97.6575
0
LINE
8
BLACK
6
CONTINUOUS
10
237.038
20
-97.6575
11
237.032
21
-97.6598
0
LINE
8
BLACK
6
CONTINUOUS
10
237.032
20
-97.6598
11
237.028
21
-97.665
0
LINE
8
BLACK
6
CONTINUOUS
10
237.028
20
-97.665
11
237.008
21
-97.6683
0
LINE
8
BLACK
6
CONTINUOUS
10
237.008
20
-97.6683
11
236.99
21
-97.675
0
LINE
8
BLACK
6
CONTINUOUS
10
236.99
20
-97.675
11
222.98
21
-97.675
0
LINE
8
BLACK
6
CONTINUOUS
10
222.98
20
-97.675
11
222.97
21
-97.6733
0
LINE
8
BLACK
6
CONTINUOUS
10
222.97
20
-97.6733
11
222.967
21
-97.6739
0
LINE
8
BLACK
6
CONTINUOUS
10
222.967
20
-97.6739
11
222.964
21
-97.6722
0
LINE
8
BLACK
6
CONTINUOUS
10
222.964
20
-97.6722
11
222.954
21
-97.6705
0
LINE
8
BLACK
6
CONTINUOUS
10
222.954
20
-97.6705
11
222.939
21
-97.658
0
LINE
8
BLACK
6
CONTINUOUS
10
222.939
20
-97.658
11
222.923
21
-97.6482
0
LINE
8
BLACK
6
CONTINUOUS
10
222.923
20
-97.6482
11
222.92
21
-97.6418
0
LINE
8
BLACK
6
CONTINUOUS
10
222.92
20
-97.6418
11
222.915
21
-97.6375
0
LINE
8
BLACK
6
CONTINUOUS
10
222.915
20
-97.6375
11
222.912
21
-97.6183
0
LINE
8
BLACK
6
CONTINUOUS
10
222.912
20
-97.6183
11
222.905
21
-97.6
0
LINE
8
BLACK
6
CONTINUOUS
10
222.905
20
-97.6
11
222.905
21
-83.58
0
LINE
8
BLACK
6
CONTINUOUS
10
222.905
20
-83.58
11
222.907
21
-83.5703
0
LINE
8
BLACK
6
CONTINUOUS
10
222.907
20
-83.5703
11
222.906
21
-83.567
0
LINE
8
BLACK
6
CONTINUOUS
10
222.906
20
-83.567
11
222.908
21
-83.5641
0
LINE
8
BLACK
6
CONTINUOUS
10
222.908
20
-83.5641
11
222.91
21
-83.5543
0
LINE
8
BLACK
6
CONTINUOUS
10
222.91
20
-83.5543
11
222.922
21
-83.5394
0
LINE
8
BLACK
6
CONTINUOUS
10
222.922
20
-83.5394
11
222.932
21
-83.5225
0
LINE
8
BLACK
6
CONTINUOUS
10
222.932
20
-83.5225
11
222.938
21
-83.5202
0
LINE
8
BLACK
6
CONTINUOUS
10
222.938
20
-83.5202
11
222.942
21
-83.515
0
LINE
8
BLACK
6
CONTINUOUS
10
222.942
20
-83.515
11
222.962
21
-83.5117
0
LINE
8
BLACK
6
CONTINUOUS
10
222.962
20
-83.5117
11
222.98
21
-83.505
0
LINE
8
BLACK
6
CONTINUOUS
10
222.98
20
-83.505
11
236.99
21
-83.505
0
LINE
8
BLACK
6
CONTINUOUS
10
236.99
20
-83.505
11
237
21
-83.5067
0
LINE
8
BLACK
6
CONTINUOUS
10
223.055
20
-83.655
11
223.055
21
-97.525
0
LINE
8
BLACK
6
CONTINUOUS
10
223.055
20
-97.525
11
236.915
21
-97.525
0
LINE
8
BLACK
6
CONTINUOUS
10
236.915
20
-97.525
11
236.915
21
-83.655
0
LINE
8
BLACK
6
CONTINUOUS
10
236.915
20
-83.655
11
223.055
21
-83.655
0
LINE
8
BLACK
6
CONTINUOUS
10
179.85
20
-78.7467
11
179.853
21
-78.7461
0
LINE
8
BLACK
6
CONTINUOUS
10
179.853
20
-78.7461
11
179.856
21
-78.7478
0
LINE
8
BLACK
6
CONTINUOUS
10
179.856
20
-78.7478
11
179.866
21
-78.7495
0
LINE
8
BLACK
6
CONTINUOUS
10
179.866
20
-78.7495
11
179.881
21
-78.762
0
LINE
8
BLACK
6
CONTINUOUS
10
179.881
20
-78.762
11
179.897
21
-78.7718
0
LINE
8
BLACK
6
CONTINUOUS
10
179.897
20
-78.7718
11
179.9
21
-78.7781
0
LINE
8
BLACK
6
CONTINUOUS
10
179.9
20
-78.7781
11
179.905
21
-78.7825
0
LINE
8
BLACK
6
CONTINUOUS
10
179.905
20
-78.7825
11
179.908
21
-78.8017
0
LINE
8
BLACK
6
CONTINUOUS
10
179.908
20
-78.8017
11
179.915
21
-78.82
0
LINE
8
BLACK
6
CONTINUOUS
10
179.915
20
-78.82
11
179.915
21
-92.84
0
LINE
8
BLACK
6
CONTINUOUS
10
179.915
20
-92.84
11
179.913
21
-92.8497
0
LINE
8
BLACK
6
CONTINUOUS
10
179.913
20
-92.8497
11
179.914
21
-92.853
0
LINE
8
BLACK
6
CONTINUOUS
10
179.914
20
-92.853
11
179.912
21
-92.8559
0
LINE
8
BLACK
6
CONTINUOUS
10
179.912
20
-92.8559
11
179.91
21
-92.8657
0
LINE
8
BLACK
6
CONTINUOUS
10
179.91
20
-92.8657
11
179.898
21
-92.8806
0
LINE
8
BLACK
6
CONTINUOUS
10
179.898
20
-92.8806
11
179.888
21
-92.8975
0
LINE
8
BLACK
6
CONTINUOUS
10
179.888
20
-92.8975
11
179.882
21
-92.8998
0
LINE
8
BLACK
6
CONTINUOUS
10
179.882
20
-92.8998
11
179.877
21
-92.905
0
LINE
8
BLACK
6
CONTINUOUS
10
179.877
20
-92.905
11
179.858
21
-92.9083
0
LINE
8
BLACK
6
CONTINUOUS
10
179.858
20
-92.9083
11
179.84
21
-92.915
0
LINE
8
BLACK
6
CONTINUOUS
10
179.84
20
-92.915
11
165.82
21
-92.915
0
LINE
8
BLACK
6
CONTINUOUS
10
165.82
20
-92.915
11
165.81
21
-92.9133
0
LINE
8
BLACK
6
CONTINUOUS
10
165.81
20
-92.9133
11
165.807
21
-92.9139
0
LINE
8
BLACK
6
CONTINUOUS
10
165.807
20
-92.9139
11
165.804
21
-92.9122
0
LINE
8
BLACK
6
CONTINUOUS
10
165.804
20
-92.9122
11
165.794
21
-92.9105
0
LINE
8
BLACK
6
CONTINUOUS
10
165.794
20
-92.9105
11
165.779
21
-92.898
0
LINE
8
BLACK
6
CONTINUOUS
10
165.779
20
-92.898
11
165.763
21
-92.8882
0
LINE
8
BLACK
6
CONTINUOUS
10
165.763
20
-92.8882
11
165.76
21
-92.8819
0
LINE
8
BLACK
6
CONTINUOUS
10
165.76
20
-92.8819
11
165.755
21
-92.8775
0
LINE
8
BLACK
6
CONTINUOUS
10
165.755
20
-92.8775
11
165.752
21
-92.8583
0
LINE
8
BLACK
6
CONTINUOUS
10
165.752
20
-92.8583
11
165.745
21
-92.84
0
LINE
8
BLACK
6
CONTINUOUS
10
165.745
20
-92.84
11
165.745
21
-78.82
0
LINE
8
BLACK
6
CONTINUOUS
10
165.745
20
-78.82
11
165.747
21
-78.8103
0
LINE
8
BLACK
6
CONTINUOUS
10
165.747
20
-78.8103
11
165.746
21
-78.807
0
LINE
8
BLACK
6
CONTINUOUS
10
165.746
20
-78.807
11
165.748
21
-78.8041
0
LINE
8
BLACK
6
CONTINUOUS
10
165.748
20
-78.8041
11
165.75
21
-78.7943
0
LINE
8
BLACK
6
CONTINUOUS
10
165.75
20
-78.7943
11
165.762
21
-78.7794
0
LINE
8
BLACK
6
CONTINUOUS
10
165.762
20
-78.7794
11
165.772
21
-78.7625
0
LINE
8
BLACK
6
CONTINUOUS
10
165.772
20
-78.7625
11
165.778
21
-78.7602
0
LINE
8
BLACK
6
CONTINUOUS
10
165.778
20
-78.7602
11
165.782
21
-78.755
0
LINE
8
BLACK
6
CONTINUOUS
10
165.782
20
-78.755
11
165.802
21
-78.7517
0
LINE
8
BLACK
6
CONTINUOUS
10
165.802
20
-78.7517
11
165.82
21
-78.745
0
LINE
8
BLACK
6
CONTINUOUS
10
165.82
20
-78.745
11
179.84
21
-78.745
0
LINE
8
BLACK
6
CONTINUOUS
10
179.84
20
-78.745
11
179.85
21
-78.7467
0
LINE
8
BLACK
6
CONTINUOUS
10
165.895
20
-78.895
11
165.895
21
-92.765
0
LINE
8
BLACK
6
CONTINUOUS
10
165.895
20
-92.765
11
179.765
21
-92.765
0
LINE
8
BLACK
6
CONTINUOUS
10
179.765
20
-92.765
11
179.765
21
-78.895
0
LINE
8
BLACK
6
CONTINUOUS
10
179.765
20
-78.895
11
165.895
21
-78.895
0
LINE
8
BLACK
6
CONTINUOUS
10
217.95
20
-78.7467
11
217.953
21
-78.7461
0
LINE
8
BLACK
6
CONTINUOUS
10
217.953
20
-78.7461
11
217.956
21
-78.7478
0
LINE
8
BLACK
6
CONTINUOUS
10
217.956
20
-78.7478
11
217.966
21
-78.7495
0
LINE
8
BLACK
6
CONTINUOUS
10
217.966
20
-78.7495
11
217.981
21
-78.762
0
LINE
8
BLACK
6
CONTINUOUS
10
217.981
20
-78.762
11
217.997
21
-78.7718
0
LINE
8
BLACK
6
CONTINUOUS
10
217.997
20
-78.7718
11
218
21
-78.7781
0
LINE
8
BLACK
6
CONTINUOUS
10
218
20
-78.7781
11
218.005
21
-78.7825
0
LINE
8
BLACK
6
CONTINUOUS
10
218.005
20
-78.7825
11
218.008
21
-78.8017
0
LINE
8
BLACK
6
CONTINUOUS
10
218.008
20
-78.8017
11
218.015
21
-78.82
0
LINE
8
BLACK
6
CONTINUOUS
10
218.015
20
-78.82
11
218.015
21
-92.83
0
LINE
8
BLACK
6
CONTINUOUS
10
218.015
20
-92.83
11
218.013
21
-92.8397
0
LINE
8
BLACK
6
CONTINUOUS
10
218.013
20
-92.8397
11
218.014
21
-92.843
0
LINE
8
BLACK
6
CONTINUOUS
10
218.014
20
-92.843
11
218.012
21
-92.8459
0
LINE
8
BLACK
6
CONTINUOUS
10
218.012
20
-92.8459
11
218.01
21
-92.8557
0
LINE
8
BLACK
6
CONTINUOUS
10
218.01
20
-92.8557
11
217.998
21
-92.8706
0
LINE
8
BLACK
6
CONTINUOUS
10
217.998
20
-92.8706
11
217.988
21
-92.8875
0
LINE
8
BLACK
6
CONTINUOUS
10
217.988
20
-92.8875
11
217.982
21
-92.8898
0
LINE
8
BLACK
6
CONTINUOUS
10
217.982
20
-92.8898
11
217.977
21
-92.895
0
LINE
8
BLACK
6
CONTINUOUS
10
217.977
20
-92.895
11
217.958
21
-92.8983
0
LINE
8
BLACK
6
CONTINUOUS
10
217.958
20
-92.8983
11
217.94
21
-92.905
0
LINE
8
BLACK
6
CONTINUOUS
10
217.94
20
-92.905
11
203.93
21
-92.905
0
LINE
8
BLACK
6
CONTINUOUS
10
203.93
20
-92.905
11
203.92
21
-92.9033
0
LINE
8
BLACK
6
CONTINUOUS
10
203.92
20
-92.9033
11
203.917
21
-92.9039
0
LINE
8
BLACK
6
CONTINUOUS
10
203.917
20
-92.9039
11
203.914
21
-92.9022
0
LINE
8
BLACK
6
CONTINUOUS
10
203.914
20
-92.9022
11
203.904
21
-92.9005
0
LINE
8
BLACK
6
CONTINUOUS
10
203.904
20
-92.9005
11
203.889
21
-92.888
0
LINE
8
BLACK
6
CONTINUOUS
10
203.889
20
-92.888
11
203.873
21
-92.8782
0
LINE
8
BLACK
6
CONTINUOUS
10
203.873
20
-92.8782
11
203.87
21
-92.8718
0
LINE
8
BLACK
6
CONTINUOUS
10
203.87
20
-92.8718
11
203.865
21
-92.8675
0
LINE
8
BLACK
6
CONTINUOUS
10
203.865
20
-92.8675
11
203.862
21
-92.8483
0
LINE
8
BLACK
6
CONTINUOUS
10
203.862
20
-92.8483
11
203.855
21
-92.83
0
LINE
8
BLACK
6
CONTINUOUS
10
203.855
20
-92.83
11
203.855
21
-78.82
0
LINE
8
BLACK
6
CONTINUOUS
10
203.855
20
-78.82
11
203.857
21
-78.8103
0
LINE
8
BLACK
6
CONTINUOUS
10
203.857
20
-78.8103
11
203.856
21
-78.807
0
LINE
8
BLACK
6
CONTINUOUS
10
203.856
20
-78.807
11
203.858
21
-78.8041
0
LINE
8
BLACK
6
CONTINUOUS
10
203.858
20
-78.8041
11
203.86
21
-78.7943
0
LINE
8
BLACK
6
CONTINUOUS
10
203.86
20
-78.7943
11
203.872
21
-78.7794
0
LINE
8
BLACK
6
CONTINUOUS
10
203.872
20
-78.7794
11
203.882
21
-78.7625
0
LINE
8
BLACK
6
CONTINUOUS
10
203.882
20
-78.7625
11
203.888
21
-78.7602
0
LINE
8
BLACK
6
CONTINUOUS
10
203.888
20
-78.7602
11
203.892
21
-78.755
0
LINE
8
BLACK
6
CONTINUOUS
10
203.892
20
-78.755
11
203.912
21
-78.7517
0
LINE
8
BLACK
6
CONTINUOUS
10
203.912
20
-78.7517
11
203.93
21
-78.745
0
LINE
8
BLACK
6
CONTINUOUS
10
203.93
20
-78.745
11
217.94
21
-78.745
0
LINE
8
BLACK
6
CONTINUOUS
10
217.94
20
-78.745
11
217.95
21
-78.7467
0
LINE
8
BLACK
6
CONTINUOUS
10
204.005
20
-78.895
11
204.005
21
-92.755
0
LINE
8
BLACK
6
CONTINUOUS
10
204.005
20
-92.755
11
217.865
21
-92.755
0
LINE
8
BLACK
6
CONTINUOUS
10
217.865
20
-92.755
11
217.865
21
-78.895
0
LINE
8
BLACK
6
CONTINUOUS
10
217.865
20
-78.895
11
204.005
21
-78.895
0
LINE
8
BLACK
6
CONTINUOUS
10
198.89
20
-73.9867
11
198.893
21
-73.9861
0
LINE
8
BLACK
6
CONTINUOUS
10
198.893
20
-73.9861
11
198.896
21
-73.9878
0
LINE
8
BLACK
6
CONTINUOUS
10
198.896
20
-73.9878
11
198.906
21
-73.9895
0
LINE
8
BLACK
6
CONTINUOUS
10
198.906
20
-73.9895
11
198.921
21
-74.002
0
LINE
8
BLACK
6
CONTINUOUS
10
198.921
20
-74.002
11
198.937
21
-74.0118
0
LINE
8
BLACK
6
CONTINUOUS
10
198.937
20
-74.0118
11
198.94
21
-74.0181
0
LINE
8
BLACK
6
CONTINUOUS
10
198.94
20
-74.0181
11
198.945
21
-74.0225
0
LINE
8
BLACK
6
CONTINUOUS
10
198.945
20
-74.0225
11
198.948
21
-74.0417
0
LINE
8
BLACK
6
CONTINUOUS
10
198.948
20
-74.0417
11
198.955
21
-74.06
0
LINE
8
BLACK
6
CONTINUOUS
10
198.955
20
-74.06
11
198.955
21
-88.07
0
LINE
8
BLACK
6
CONTINUOUS
10
198.955
20
-88.07
11
198.953
21
-88.0797
0
LINE
8
BLACK
6
CONTINUOUS
10
198.953
20
-88.0797
11
198.954
21
-88.083
0
LINE
8
BLACK
6
CONTINUOUS
10
198.954
20
-88.083
11
198.952
21
-88.0859
0
LINE
8
BLACK
6
CONTINUOUS
10
198.952
20
-88.0859
11
198.95
21
-88.0957
0
LINE
8
BLACK
6
CONTINUOUS
10
198.95
20
-88.0957
11
198.938
21
-88.1106
0
LINE
8
BLACK
6
CONTINUOUS
10
198.938
20
-88.1106
11
198.928
21
-88.1275
0
LINE
8
BLACK
6
CONTINUOUS
10
198.928
20
-88.1275
11
198.922
21
-88.1298
0
LINE
8
BLACK
6
CONTINUOUS
10
198.922
20
-88.1298
11
198.917
21
-88.135
0
LINE
8
BLACK
6
CONTINUOUS
10
198.917
20
-88.135
11
198.898
21
-88.1383
0
LINE
8
BLACK
6
CONTINUOUS
10
198.898
20
-88.1383
11
198.88
21
-88.145
0
LINE
8
BLACK
6
CONTINUOUS
10
198.88
20
-88.145
11
184.87
21
-88.145
0
LINE
8
BLACK
6
CONTINUOUS
10
184.87
20
-88.145
11
184.86
21
-88.1433
0
LINE
8
BLACK
6
CONTINUOUS
10
184.86
20
-88.1433
11
184.857
21
-88.1439
0
LINE
8
BLACK
6
CONTINUOUS
10
184.857
20
-88.1439
11
184.854
21
-88.1422
0
LINE
8
BLACK
6
CONTINUOUS
10
184.854
20
-88.1422
11
184.844
21
-88.1405
0
LINE
8
BLACK
6
CONTINUOUS
10
184.844
20
-88.1405
11
184.829
21
-88.128
0
LINE
8
BLACK
6
CONTINUOUS
10
184.829
20
-88.128
11
184.813
21
-88.1182
0
LINE
8
BLACK
6
CONTINUOUS
10
184.813
20
-88.1182
11
184.81
21
-88.1118
0
LINE
8
BLACK
6
CONTINUOUS
10
184.81
20
-88.1118
11
184.805
21
-88.1075
0
LINE
8
BLACK
6
CONTINUOUS
10
184.805
20
-88.1075
11
184.802
21
-88.0883
0
LINE
8
BLACK
6
CONTINUOUS
10
184.802
20
-88.0883
11
184.795
21
-88.07
0
LINE
8
BLACK
6
CONTINUOUS
10
184.795
20
-88.07
11
184.795
21
-74.06
0
LINE
8
BLACK
6
CONTINUOUS
10
184.795
20
-74.06
11
184.797
21
-74.0503
0
LINE
8
BLACK
6
CONTINUOUS
10
184.797
20
-74.0503
11
184.796
21
-74.047
0
LINE
8
BLACK
6
CONTINUOUS
10
184.796
20
-74.047
11
184.798
21
-74.0441
0
LINE
8
BLACK
6
CONTINUOUS
10
184.798
20
-74.0441
11
184.8
21
-74.0343
0
LINE
8
BLACK
6
CONTINUOUS
10
184.8
20
-74.0343
11
184.812
21
-74.0194
0
LINE
8
BLACK
6
CONTINUOUS
10
184.812
20
-74.0194
11
184.822
21
-74.0025
0
LINE
8
BLACK
6
CONTINUOUS
10
184.822
20
-74.0025
11
184.828
21
-74.0002
0
LINE
8
BLACK
6
CONTINUOUS
10
184.828
20
-74.0002
11
184.832
21
-73.995
0
LINE
8
BLACK
6
CONTINUOUS
10
184.832
20
-73.995
11
184.852
21
-73.9917
0
LINE
8
BLACK
6
CONTINUOUS
10
184.852
20
-73.9917
11
184.87
21
-73.985
0
LINE
8
BLACK
6
CONTINUOUS
10
184.87
20
-73.985
11
198.88
21
-73.985
0
LINE
8
BLACK
6
CONTINUOUS
10
198.88
20
-73.985
11
198.89
21
-73.9867
0
LINE
8
BLACK
6
CONTINUOUS
10
184.945
20
-74.135
11
184.945
21
-87.995
0
LINE
8
BLACK
6
CONTINUOUS
10
184.945
20
-87.995
11
198.805
21
-87.995
0
LINE
8
BLACK
6
CONTINUOUS
10
198.805
20
-87.995
11
198.805
21
-74.135
0
LINE
8
BLACK
6
CONTINUOUS
10
198.805
20
-74.135
11
184.945
21
-74.135
0
LINE
8
BLACK
6
CONTINUOUS
10
160.81
20
-73.9967
11
160.813
21
-73.9961
0
LINE
8
BLACK
6
CONTINUOUS
10
160.813
20
-73.9961
11
160.816
21
-73.9978
0
LINE
8
BLACK
6
CONTINUOUS
10
160.816
20
-73.9978
11
160.826
21
-73.9995
0
LINE
8
BLACK
6
CONTINUOUS
10
160.826
20
-73.9995
11
160.841
21
-74.012
0
LINE
8
BLACK
6
CONTINUOUS
10
160.841
20
-74.012
11
160.857
21
-74.0218
0
LINE
8
BLACK
6
CONTINUOUS
10
160.857
20
-74.0218
11
160.86
21
-74.0281
0
LINE
8
BLACK
6
CONTINUOUS
10
160.86
20
-74.0281
11
160.865
21
-74.0325
0
LINE
8
BLACK
6
CONTINUOUS
10
160.865
20
-74.0325
11
160.868
21
-74.0517
0
LINE
8
BLACK
6
CONTINUOUS
10
160.868
20
-74.0517
11
160.875
21
-74.07
0
LINE
8
BLACK
6
CONTINUOUS
10
160.875
20
-74.07
11
160.875
21
-88.07
0
LINE
8
BLACK
6
CONTINUOUS
10
160.875
20
-88.07
11
160.873
21
-88.0797
0
LINE
8
BLACK
6
CONTINUOUS
10
160.873
20
-88.0797
11
160.874
21
-88.083
0
LINE
8
BLACK
6
CONTINUOUS
10
160.874
20
-88.083
11
160.872
21
-88.0859
0
LINE
8
BLACK
6
CONTINUOUS
10
160.872
20
-88.0859
11
160.87
21
-88.0957
0
LINE
8
BLACK
6
CONTINUOUS
10
160.87
20
-88.0957
11
160.858
21
-88.1106
0
LINE
8
BLACK
6
CONTINUOUS
10
160.858
20
-88.1106
11
160.848
21
-88.1275
0
LINE
8
BLACK
6
CONTINUOUS
10
160.848
20
-88.1275
11
160.842
21
-88.1298
0
LINE
8
BLACK
6
CONTINUOUS
10
160.842
20
-88.1298
11
160.838
21
-88.135
0
LINE
8
BLACK
6
CONTINUOUS
10
160.838
20
-88.135
11
160.818
21
-88.1383
0
LINE
8
BLACK
6
CONTINUOUS
10
160.818
20
-88.1383
11
160.8
21
-88.145
0
LINE
8
BLACK
6
CONTINUOUS
10
160.8
20
-88.145
11
146.76
21
-88.145
0
LINE
8
BLACK
6
CONTINUOUS
10
146.76
20
-88.145
11
146.75
21
-88.1433
0
LINE
8
BLACK
6
CONTINUOUS
10
146.75
20
-88.1433
11
146.747
21
-88.1439
0
LINE
8
BLACK
6
CONTINUOUS
10
146.747
20
-88.1439
11
146.744
21
-88.1422
0
LINE
8
BLACK
6
CONTINUOUS
10
146.744
20
-88.1422
11
146.734
21
-88.1405
0
LINE
8
BLACK
6
CONTINUOUS
10
146.734
20
-88.1405
11
146.719
21
-88.128
0
LINE
8
BLACK
6
CONTINUOUS
10
146.719
20
-88.128
11
146.703
21
-88.1182
0
LINE
8
BLACK
6
CONTINUOUS
10
146.703
20
-88.1182
11
146.7
21
-88.1118
0
LINE
8
BLACK
6
CONTINUOUS
10
146.7
20
-88.1118
11
146.695
21
-88.1075
0
LINE
8
BLACK
6
CONTINUOUS
10
146.695
20
-88.1075
11
146.692
21
-88.0883
0
LINE
8
BLACK
6
CONTINUOUS
10
146.692
20
-88.0883
11
146.685
21
-88.07
0
LINE
8
BLACK
6
CONTINUOUS
10
146.685
20
-88.07
11
146.685
21
-74.07
0
LINE
8
BLACK
6
CONTINUOUS
10
146.685
20
-74.07
11
146.687
21
-74.0603
0
LINE
8
BLACK
6
CONTINUOUS
10
146.687
20
-74.0603
11
146.686
21
-74.057
0
LINE
8
BLACK
6
CONTINUOUS
10
146.686
20
-74.057
11
146.688
21
-74.0541
0
LINE
8
BLACK
6
CONTINUOUS
10
146.688
20
-74.0541
11
146.69
21
-74.0443
0
LINE
8
BLACK
6
CONTINUOUS
10
146.69
20
-74.0443
11
146.702
21
-74.0294
0
LINE
8
BLACK
6
CONTINUOUS
10
146.702
20
-74.0294
11
146.712
21
-74.0125
0
LINE
8
BLACK
6
CONTINUOUS
10
146.712
20
-74.0125
11
146.718
21
-74.0102
0
LINE
8
BLACK
6
CONTINUOUS
10
146.718
20
-74.0102
11
146.722
21
-74.005
0
LINE
8
BLACK
6
CONTINUOUS
10
146.722
20
-74.005
11
146.742
21
-74.0017
0
LINE
8
BLACK
6
CONTINUOUS
10
146.742
20
-74.0017
11
146.76
21
-73.995
0
LINE
8
BLACK
6
CONTINUOUS
10
146.76
20
-73.995
11
160.8
21
-73.995
0
LINE
8
BLACK
6
CONTINUOUS
10
160.8
20
-73.995
11
160.81
21
-73.9967
0
LINE
8
BLACK
6
CONTINUOUS
10
146.835
20
-74.145
11
146.835
21
-87.995
0
LINE
8
BLACK
6
CONTINUOUS
10
146.835
20
-87.995
11
160.725
21
-87.995
0
LINE
8
BLACK
6
CONTINUOUS
10
160.725
20
-87.995
11
160.725
21
-74.145
0
LINE
8
BLACK
6
CONTINUOUS
10
160.725
20
-74.145
11
146.835
21
-74.145
0
LINE
8
BLACK
6
CONTINUOUS
10
236.99
20
-64.4767
11
236.993
21
-64.4761
0
LINE
8
BLACK
6
CONTINUOUS
10
236.993
20
-64.4761
11
236.996
21
-64.4778
0
LINE
8
BLACK
6
CONTINUOUS
10
236.996
20
-64.4778
11
237.006
21
-64.4795
0
LINE
8
BLACK
6
CONTINUOUS
10
237.006
20
-64.4795
11
237.021
21
-64.492
0
LINE
8
BLACK
6
CONTINUOUS
10
237.021
20
-64.492
11
237.037
21
-64.5018
0
LINE
8
BLACK
6
CONTINUOUS
10
237.037
20
-64.5018
11
237.04
21
-64.5081
0
LINE
8
BLACK
6
CONTINUOUS
10
237.04
20
-64.5081
11
237.045
21
-64.5125
0
LINE
8
BLACK
6
CONTINUOUS
10
237.045
20
-64.5125
11
237.048
21
-64.5317
0
LINE
8
BLACK
6
CONTINUOUS
10
237.048
20
-64.5317
11
237.055
21
-64.55
0
LINE
8
BLACK
6
CONTINUOUS
10
237.055
20
-64.55
11
237.055
21
-78.54
0
LINE
8
BLACK
6
CONTINUOUS
10
237.055
20
-78.54
11
237.053
21
-78.5497
0
LINE
8
BLACK
6
CONTINUOUS
10
237.053
20
-78.5497
11
237.054
21
-78.553
0
LINE
8
BLACK
6
CONTINUOUS
10
237.054
20
-78.553
11
237.052
21
-78.5559
0
LINE
8
BLACK
6
CONTINUOUS
10
237.052
20
-78.5559
11
237.05
21
-78.5657
0
LINE
8
BLACK
6
CONTINUOUS
10
237.05
20
-78.5657
11
237.038
21
-78.5806
0
LINE
8
BLACK
6
CONTINUOUS
10
237.038
20
-78.5806
11
237.028
21
-78.5975
0
LINE
8
BLACK
6
CONTINUOUS
10
237.028
20
-78.5975
11
237.022
21
-78.5998
0
LINE
8
BLACK
6
CONTINUOUS
10
237.022
20
-78.5998
11
237.017
21
-78.605
0
LINE
8
BLACK
6
CONTINUOUS
10
237.017
20
-78.605
11
236.998
21
-78.6083
0
LINE
8
BLACK
6
CONTINUOUS
10
236.998
20
-78.6083
11
236.98
21
-78.615
0
LINE
8
BLACK
6
CONTINUOUS
10
236.98
20
-78.615
11
222.99
21
-78.615
0
LINE
8
BLACK
6
CONTINUOUS
10
222.99
20
-78.615
11
222.98
21
-78.6133
0
LINE
8
BLACK
6
CONTINUOUS
10
222.98
20
-78.6133
11
222.977
21
-78.6139
0
LINE
8
BLACK
6
CONTINUOUS
10
222.977
20
-78.6139
11
222.974
21
-78.6122
0
LINE
8
BLACK
6
CONTINUOUS
10
222.974
20
-78.6122
11
222.964
21
-78.6105
0
LINE
8
BLACK
6
CONTINUOUS
10
222.964
20
-78.6105
11
222.949
21
-78.598
0
LINE
8
BLACK
6
CONTINUOUS
10
222.949
20
-78.598
11
222.933
21
-78.5882
0
LINE
8
BLACK
6
CONTINUOUS
10
222.933
20
-78.5882
11
222.93
21
-78.5819
0
LINE
8
BLACK
6
CONTINUOUS
10
222.93
20
-78.5819
11
222.925
21
-78.5775
0
LINE
8
BLACK
6
CONTINUOUS
10
222.925
20
-78.5775
11
222.922
21
-78.5583
0
LINE
8
BLACK
6
CONTINUOUS
10
222.922
20
-78.5583
11
222.915
21
-78.54
0
LINE
8
BLACK
6
CONTINUOUS
10
222.915
20
-78.54
11
222.915
21
-64.55
0
LINE
8
BLACK
6
CONTINUOUS
10
222.915
20
-64.55
11
222.917
21
-64.5403
0
LINE
8
BLACK
6
CONTINUOUS
10
222.917
20
-64.5403
11
222.916
21
-64.537
0
LINE
8
BLACK
6
CONTINUOUS
10
222.916
20
-64.537
11
222.918
21
-64.5341
0
LINE
8
BLACK
6
CONTINUOUS
10
222.918
20
-64.5341
11
222.92
21
-64.5243
0
LINE
8
BLACK
6
CONTINUOUS
10
222.92
20
-64.5243
11
222.932
21
-64.5094
0
LINE
8
BLACK
6
CONTINUOUS
10
222.932
20
-64.5094
11
222.942
21
-64.4925
0
LINE
8
BLACK
6
CONTINUOUS
10
222.942
20
-64.4925
11
222.948
21
-64.4902
0
LINE
8
BLACK
6
CONTINUOUS
10
222.948
20
-64.4902
11
222.952
21
-64.485
0
LINE
8
BLACK
6
CONTINUOUS
10
222.952
20
-64.485
11
222.972
21
-64.4817
0
LINE
8
BLACK
6
CONTINUOUS
10
222.972
20
-64.4817
11
222.99
21
-64.475
0
LINE
8
BLACK
6
CONTINUOUS
10
222.99
20
-64.475
11
236.98
21
-64.475
0
LINE
8
BLACK
6
CONTINUOUS
10
236.98
20
-64.475
11
236.99
21
-64.4767
0
LINE
8
BLACK
6
CONTINUOUS
10
223.065
20
-64.625
11
223.065
21
-78.465
0
LINE
8
BLACK
6
CONTINUOUS
10
223.065
20
-78.465
11
236.905
21
-78.465
0
LINE
8
BLACK
6
CONTINUOUS
10
236.905
20
-78.465
11
236.905
21
-64.625
0
LINE
8
BLACK
6
CONTINUOUS
10
236.905
20
-64.625
11
223.065
21
-64.625
0
LINE
8
BLACK
6
CONTINUOUS
10
217.96
20
-59.6867
11
217.963
21
-59.6861
0
LINE
8
BLACK
6
CONTINUOUS
10
217.963
20
-59.6861
11
217.966
21
-59.6878
0
LINE
8
BLACK
6
CONTINUOUS
10
217.966
20
-59.6878
11
217.976
21
-59.6895
0
LINE
8
BLACK
6
CONTINUOUS
10
217.976
20
-59.6895
11
217.991
21
-59.702
0
LINE
8
BLACK
6
CONTINUOUS
10
217.991
20
-59.702
11
218.007
21
-59.7118
0
LINE
8
BLACK
6
CONTINUOUS
10
218.007
20
-59.7118
11
218.01
21
-59.7181
0
LINE
8
BLACK
6
CONTINUOUS
10
218.01
20
-59.7181
11
218.015
21
-59.7225
0
LINE
8
BLACK
6
CONTINUOUS
10
218.015
20
-59.7225
11
218.018
21
-59.7417
0
LINE
8
BLACK
6
CONTINUOUS
10
218.018
20
-59.7417
11
218.025
21
-59.76
0
LINE
8
BLACK
6
CONTINUOUS
10
218.025
20
-59.76
11
218.025
21
-73.78
0
LINE
8
BLACK
6
CONTINUOUS
10
218.025
20
-73.78
11
218.023
21
-73.7897
0
LINE
8
BLACK
6
CONTINUOUS
10
218.023
20
-73.7897
11
218.024
21
-73.793
0
LINE
8
BLACK
6
CONTINUOUS
10
218.024
20
-73.793
11
218.022
21
-73.7959
0
LINE
8
BLACK
6
CONTINUOUS
10
218.022
20
-73.7959
11
218.02
21
-73.8057
0
LINE
8
BLACK
6
CONTINUOUS
10
218.02
20
-73.8057
11
218.008
21
-73.8206
0
LINE
8
BLACK
6
CONTINUOUS
10
218.008
20
-73.8206
11
217.998
21
-73.8375
0
LINE
8
BLACK
6
CONTINUOUS
10
217.998
20
-73.8375
11
217.992
21
-73.8398
0
LINE
8
BLACK
6
CONTINUOUS
10
217.992
20
-73.8398
11
217.987
21
-73.845
0
LINE
8
BLACK
6
CONTINUOUS
10
217.987
20
-73.845
11
217.968
21
-73.8483
0
LINE
8
BLACK
6
CONTINUOUS
10
217.968
20
-73.8483
11
217.95
21
-73.855
0
LINE
8
BLACK
6
CONTINUOUS
10
217.95
20
-73.855
11
203.92
21
-73.855
0
LINE
8
BLACK
6
CONTINUOUS
10
203.92
20
-73.855
11
203.91
21
-73.8533
0
LINE
8
BLACK
6
CONTINUOUS
10
203.91
20
-73.8533
11
203.907
21
-73.8539
0
LINE
8
BLACK
6
CONTINUOUS
10
203.907
20
-73.8539
11
203.904
21
-73.8522
0
LINE
8
BLACK
6
CONTINUOUS
10
203.904
20
-73.8522
11
203.894
21
-73.8505
0
LINE
8
BLACK
6
CONTINUOUS
10
203.894
20
-73.8505
11
203.879
21
-73.838
0
LINE
8
BLACK
6
CONTINUOUS
10
203.879
20
-73.838
11
203.863
21
-73.8282
0
LINE
8
BLACK
6
CONTINUOUS
10
203.863
20
-73.8282
11
203.86
21
-73.8218
0
LINE
8
BLACK
6
CONTINUOUS
10
203.86
20
-73.8218
11
203.855
21
-73.8175
0
LINE
8
BLACK
6
CONTINUOUS
10
203.855
20
-73.8175
11
203.852
21
-73.7983
0
LINE
8
BLACK
6
CONTINUOUS
10
203.852
20
-73.7983
11
203.845
21
-73.78
0
LINE
8
BLACK
6
CONTINUOUS
10
203.845
20
-73.78
11
203.845
21
-59.76
0
LINE
8
BLACK
6
CONTINUOUS
10
203.845
20
-59.76
11
203.847
21
-59.7503
0
LINE
8
BLACK
6
CONTINUOUS
10
203.847
20
-59.7503
11
203.846
21
-59.747
0
LINE
8
BLACK
6
CONTINUOUS
10
203.846
20
-59.747
11
203.848
21
-59.7441
0
LINE
8
BLACK
6
CONTINUOUS
10
203.848
20
-59.7441
11
203.85
21
-59.7343
0
LINE
8
BLACK
6
CONTINUOUS
10
203.85
20
-59.7343
11
203.862
21
-59.7194
0
LINE
8
BLACK
6
CONTINUOUS
10
203.862
20
-59.7194
11
203.872
21
-59.7025
0
LINE
8
BLACK
6
CONTINUOUS
10
203.872
20
-59.7025
11
203.878
21
-59.7002
0
LINE
8
BLACK
6
CONTINUOUS
10
203.878
20
-59.7002
11
203.882
21
-59.695
0
LINE
8
BLACK
6
CONTINUOUS
10
203.882
20
-59.695
11
203.902
21
-59.6917
0
LINE
8
BLACK
6
CONTINUOUS
10
203.902
20
-59.6917
11
203.92
21
-59.685
0
LINE
8
BLACK
6
CONTINUOUS
10
203.92
20
-59.685
11
217.95
21
-59.685
0
LINE
8
BLACK
6
CONTINUOUS
10
217.95
20
-59.685
11
217.96
21
-59.6867
0
LINE
8
BLACK
6
CONTINUOUS
10
203.995
20
-59.835
11
203.995
21
-73.705
0
LINE
8
BLACK
6
CONTINUOUS
10
203.995
20
-73.705
11
217.875
21
-73.705
0
LINE
8
BLACK
6
CONTINUOUS
10
217.875
20
-73.705
11
217.875
21
-59.835
0
LINE
8
BLACK
6
CONTINUOUS
10
217.875
20
-59.835
11
203.995
21
-59.835
0
LINE
8
BLACK
6
CONTINUOUS
10
179.85
20
-59.7067
11
179.853
21
-59.7061
0
LINE
8
BLACK
6
CONTINUOUS
10
179.853
20
-59.7061
11
179.856
21
-59.7078
0
LINE
8
BLACK
6
CONTINUOUS
10
179.856
20
-59.7078
11
179.866
21
-59.7095
0
LINE
8
BLACK
6
CONTINUOUS
10
179.866
20
-59.7095
11
179.881
21
-59.722
0
LINE
8
BLACK
6
CONTINUOUS
10
179.881
20
-59.722
11
179.897
21
-59.7318
0
LINE
8
BLACK
6
CONTINUOUS
10
179.897
20
-59.7318
11
179.9
21
-59.7381
0
LINE
8
BLACK
6
CONTINUOUS
10
179.9
20
-59.7381
11
179.905
21
-59.7425
0
LINE
8
BLACK
6
CONTINUOUS
10
179.905
20
-59.7425
11
179.908
21
-59.7617
0
LINE
8
BLACK
6
CONTINUOUS
10
179.908
20
-59.7617
11
179.915
21
-59.78
0
LINE
8
BLACK
6
CONTINUOUS
10
179.915
20
-59.78
11
179.915
21
-73.78
0
LINE
8
BLACK
6
CONTINUOUS
10
179.915
20
-73.78
11
179.913
21
-73.7897
0
LINE
8
BLACK
6
CONTINUOUS
10
179.913
20
-73.7897
11
179.914
21
-73.793
0
LINE
8
BLACK
6
CONTINUOUS
10
179.914
20
-73.793
11
179.912
21
-73.7959
0
LINE
8
BLACK
6
CONTINUOUS
10
179.912
20
-73.7959
11
179.91
21
-73.8057
0
LINE
8
BLACK
6
CONTINUOUS
10
179.91
20
-73.8057
11
179.898
21
-73.8206
0
LINE
8
BLACK
6
CONTINUOUS
10
179.898
20
-73.8206
11
179.888
21
-73.8375
0
LINE
8
BLACK
6
CONTINUOUS
10
179.888
20
-73.8375
11
179.882
21
-73.8398
0
LINE
8
BLACK
6
CONTINUOUS
10
179.882
20
-73.8398
11
179.877
21
-73.845
0
LINE
8
BLACK
6
CONTINUOUS
10
179.877
20
-73.845
11
179.858
21
-73.8483
0
LINE
8
BLACK
6
CONTINUOUS
10
179.858
20
-73.8483
11
179.84
21
-73.855
0
LINE
8
BLACK
6
CONTINUOUS
10
179.84
20
-73.855
11
165.84
21
-73.855
0
LINE
8
BLACK
6
CONTINUOUS
10
165.84
20
-73.855
11
165.83
21
-73.8533
0
LINE
8
BLACK
6
CONTINUOUS
10
165.83
20
-73.8533
11
165.827
21
-73.8539
0
LINE
8
BLACK
6
CONTINUOUS
10
165.827
20
-73.8539
11
165.824
21
-73.8522
0
LINE
8
BLACK
6
CONTINUOUS
10
165.824
20
-73.8522
11
165.814
21
-73.8505
0
LINE
8
BLACK
6
CONTINUOUS
10
165.814
20
-73.8505
11
165.799
21
-73.838
0
LINE
8
BLACK
6
CONTINUOUS
10
165.799
20
-73.838
11
165.783
21
-73.8282
0
LINE
8
BLACK
6
CONTINUOUS
10
165.783
20
-73.8282
11
165.78
21
-73.8218
0
LINE
8
BLACK
6
CONTINUOUS
10
165.78
20
-73.8218
11
165.775
21
-73.8175
0
LINE
8
BLACK
6
CONTINUOUS
10
165.775
20
-73.8175
11
165.772
21
-73.7983
0
LINE
8
BLACK
6
CONTINUOUS
10
165.772
20
-73.7983
11
165.765
21
-73.78
0
LINE
8
BLACK
6
CONTINUOUS
10
165.765
20
-73.78
11
165.765
21
-59.78
0
LINE
8
BLACK
6
CONTINUOUS
10
165.765
20
-59.78
11
165.767
21
-59.7703
0
LINE
8
BLACK
6
CONTINUOUS
10
165.767
20
-59.7703
11
165.766
21
-59.767
0
LINE
8
BLACK
6
CONTINUOUS
10
165.766
20
-59.767
11
165.768
21
-59.7641
0
LINE
8
BLACK
6
CONTINUOUS
10
165.768
20
-59.7641
11
165.77
21
-59.7543
0
LINE
8
BLACK
6
CONTINUOUS
10
165.77
20
-59.7543
11
165.782
21
-59.7394
0
LINE
8
BLACK
6
CONTINUOUS
10
165.782
20
-59.7394
11
165.792
21
-59.7225
0
LINE
8
BLACK
6
CONTINUOUS
10
165.792
20
-59.7225
11
165.798
21
-59.7202
0
LINE
8
BLACK
6
CONTINUOUS
10
165.798
20
-59.7202
11
165.802
21
-59.715
0
LINE
8
BLACK
6
CONTINUOUS
10
165.802
20
-59.715
11
165.822
21
-59.7117
0
LINE
8
BLACK
6
CONTINUOUS
10
165.822
20
-59.7117
11
165.84
21
-59.705
0
LINE
8
BLACK
6
CONTINUOUS
10
165.84
20
-59.705
11
179.84
21
-59.705
0
LINE
8
BLACK
6
CONTINUOUS
10
179.84
20
-59.705
11
179.85
21
-59.7067
0
LINE
8
BLACK
6
CONTINUOUS
10
165.915
20
-59.855
11
165.915
21
-73.705
0
LINE
8
BLACK
6
CONTINUOUS
10
165.915
20
-73.705
11
179.765
21
-73.705
0
LINE
8
BLACK
6
CONTINUOUS
10
179.765
20
-73.705
11
179.765
21
-59.855
0
LINE
8
BLACK
6
CONTINUOUS
10
179.765
20
-59.855
11
165.915
21
-59.855
0
LINE
8
BLACK
6
CONTINUOUS
10
160.81
20
-54.9667
11
160.813
21
-54.9661
0
LINE
8
BLACK
6
CONTINUOUS
10
160.813
20
-54.9661
11
160.816
21
-54.9678
0
LINE
8
BLACK
6
CONTINUOUS
10
160.816
20
-54.9678
11
160.826
21
-54.9695
0
LINE
8
BLACK
6
CONTINUOUS
10
160.826
20
-54.9695
11
160.841
21
-54.982
0
LINE
8
BLACK
6
CONTINUOUS
10
160.841
20
-54.982
11
160.857
21
-54.9918
0
LINE
8
BLACK
6
CONTINUOUS
10
160.857
20
-54.9918
11
160.86
21
-54.9981
0
LINE
8
BLACK
6
CONTINUOUS
10
160.86
20
-54.9981
11
160.865
21
-55.0025
0
LINE
8
BLACK
6
CONTINUOUS
10
160.865
20
-55.0025
11
160.868
21
-55.0217
0
LINE
8
BLACK
6
CONTINUOUS
10
160.868
20
-55.0217
11
160.875
21
-55.04
0
LINE
8
BLACK
6
CONTINUOUS
10
160.875
20
-55.04
11
160.875
21
-69.06
0
LINE
8
BLACK
6
CONTINUOUS
10
160.875
20
-69.06
11
160.873
21
-69.0697
0
LINE
8
BLACK
6
CONTINUOUS
10
160.873
20
-69.0697
11
160.874
21
-69.073
0
LINE
8
BLACK
6
CONTINUOUS
10
160.874
20
-69.073
11
160.872
21
-69.0759
0
LINE
8
BLACK
6
CONTINUOUS
10
160.872
20
-69.0759
11
160.87
21
-69.0857
0
LINE
8
BLACK
6
CONTINUOUS
10
160.87
20
-69.0857
11
160.858
21
-69.1006
0
LINE
8
BLACK
6
CONTINUOUS
10
160.858
20
-69.1006
11
160.848
21
-69.1175
0
LINE
8
BLACK
6
CONTINUOUS
10
160.848
20
-69.1175
11
160.842
21
-69.1198
0
LINE
8
BLACK
6
CONTINUOUS
10
160.842
20
-69.1198
11
160.838
21
-69.125
0
LINE
8
BLACK
6
CONTINUOUS
10
160.838
20
-69.125
11
160.818
21
-69.1283
0
LINE
8
BLACK
6
CONTINUOUS
10
160.818
20
-69.1283
11
160.8
21
-69.135
0
LINE
8
BLACK
6
CONTINUOUS
10
160.8
20
-69.135
11
146.78
21
-69.135
0
LINE
8
BLACK
6
CONTINUOUS
10
146.78
20
-69.135
11
146.77
21
-69.1333
0
LINE
8
BLACK
6
CONTINUOUS
10
146.77
20
-69.1333
11
146.767
21
-69.1339
0
LINE
8
BLACK
6
CONTINUOUS
10
146.767
20
-69.1339
11
146.764
21
-69.1322
0
LINE
8
BLACK
6
CONTINUOUS
10
146.764
20
-69.1322
11
146.754
21
-69.1305
0
LINE
8
BLACK
6
CONTINUOUS
10
146.754
20
-69.1305
11
146.739
21
-69.118
0
LINE
8
BLACK
6
CONTINUOUS
10
146.739
20
-69.118
11
146.723
21
-69.1082
0
LINE
8
BLACK
6
CONTINUOUS
10
146.723
20
-69.1082
11
146.72
21
-69.1018
0
LINE
8
BLACK
6
CONTINUOUS
10
146.72
20
-69.1018
11
146.715
21
-69.0975
0
LINE
8
BLACK
6
CONTINUOUS
10
146.715
20
-69.0975
11
146.712
21
-69.0783
0
LINE
8
BLACK
6
CONTINUOUS
10
146.712
20
-69.0783
11
146.705
21
-69.06
0
LINE
8
BLACK
6
CONTINUOUS
10
146.705
20
-69.06
11
146.705
21
-55.04
0
LINE
8
BLACK
6
CONTINUOUS
10
146.705
20
-55.04
11
146.707
21
-55.0303
0
LINE
8
BLACK
6
CONTINUOUS
10
146.707
20
-55.0303
11
146.706
21
-55.027
0
LINE
8
BLACK
6
CONTINUOUS
10
146.706
20
-55.027
11
146.708
21
-55.0241
0
LINE
8
BLACK
6
CONTINUOUS
10
146.708
20
-55.0241
11
146.71
21
-55.0143
0
LINE
8
BLACK
6
CONTINUOUS
10
146.71
20
-55.0143
11
146.722
21
-54.9994
0
LINE
8
BLACK
6
CONTINUOUS
10
146.722
20
-54.9994
11
146.732
21
-54.9825
0
LINE
8
BLACK
6
CONTINUOUS
10
146.732
20
-54.9825
11
146.738
21
-54.9802
0
LINE
8
BLACK
6
CONTINUOUS
10
146.738
20
-54.9802
11
146.743
21
-54.975
0
LINE
8
BLACK
6
CONTINUOUS
10
146.743
20
-54.975
11
146.762
21
-54.9717
0
LINE
8
BLACK
6
CONTINUOUS
10
146.762
20
-54.9717
11
146.78
21
-54.965
0
LINE
8
BLACK
6
CONTINUOUS
10
146.78
20
-54.965
11
160.8
21
-54.965
0
LINE
8
BLACK
6
CONTINUOUS
10
160.8
20
-54.965
11
160.81
21
-54.9667
0
LINE
8
BLACK
6
CONTINUOUS
10
146.855
20
-55.115
11
146.855
21
-68.985
0
LINE
8
BLACK
6
CONTINUOUS
10
146.855
20
-68.985
11
160.725
21
-68.985
0
LINE
8
BLACK
6
CONTINUOUS
10
160.725
20
-68.985
11
160.725
21
-55.115
0
LINE
8
BLACK
6
CONTINUOUS
10
160.725
20
-55.115
11
146.855
21
-55.115
0
LINE
8
BLACK
6
CONTINUOUS
10
198.89
20
-54.9367
11
198.893
21
-54.9361
0
LINE
8
BLACK
6
CONTINUOUS
10
198.893
20
-54.9361
11
198.896
21
-54.9378
0
LINE
8
BLACK
6
CONTINUOUS
10
198.896
20
-54.9378
11
198.906
21
-54.9395
0
LINE
8
BLACK
6
CONTINUOUS
10
198.906
20
-54.9395
11
198.921
21
-54.952
0
LINE
8
BLACK
6
CONTINUOUS
10
198.921
20
-54.952
11
198.937
21
-54.9618
0
LINE
8
BLACK
6
CONTINUOUS
10
198.937
20
-54.9618
11
198.94
21
-54.9681
0
LINE
8
BLACK
6
CONTINUOUS
10
198.94
20
-54.9681
11
198.945
21
-54.9725
0
LINE
8
BLACK
6
CONTINUOUS
10
198.945
20
-54.9725
11
198.948
21
-54.9917
0
LINE
8
BLACK
6
CONTINUOUS
10
198.948
20
-54.9917
11
198.955
21
-55.01
0
LINE
8
BLACK
6
CONTINUOUS
10
198.955
20
-55.01
11
198.955
21
-69.02
0
LINE
8
BLACK
6
CONTINUOUS
10
198.955
20
-69.02
11
198.953
21
-69.0297
0
LINE
8
BLACK
6
CONTINUOUS
10
198.953
20
-69.0297
11
198.954
21
-69.033
0
LINE
8
BLACK
6
CONTINUOUS
10
198.954
20
-69.033
11
198.952
21
-69.0359
0
LINE
8
BLACK
6
CONTINUOUS
10
198.952
20
-69.0359
11
198.95
21
-69.0457
0
LINE
8
BLACK
6
CONTINUOUS
10
198.95
20
-69.0457
11
198.938
21
-69.0606
0
LINE
8
BLACK
6
CONTINUOUS
10
198.938
20
-69.0606
11
198.928
21
-69.0775
0
LINE
8
BLACK
6
CONTINUOUS
10
198.928
20
-69.0775
11
198.922
21
-69.0798
0
LINE
8
BLACK
6
CONTINUOUS
10
198.922
20
-69.0798
11
198.917
21
-69.085
0
LINE
8
BLACK
6
CONTINUOUS
10
198.917
20
-69.085
11
198.898
21
-69.0883
0
LINE
8
BLACK
6
CONTINUOUS
10
198.898
20
-69.0883
11
198.88
21
-69.095
0
LINE
8
BLACK
6
CONTINUOUS
10
198.88
20
-69.095
11
184.87
21
-69.095
0
LINE
8
BLACK
6
CONTINUOUS
10
184.87
20
-69.095
11
184.86
21
-69.0933
0
LINE
8
BLACK
6
CONTINUOUS
10
184.86
20
-69.0933
11
184.857
21
-69.0939
0
LINE
8
BLACK
6
CONTINUOUS
10
184.857
20
-69.0939
11
184.854
21
-69.0922
0
LINE
8
BLACK
6
CONTINUOUS
10
184.854
20
-69.0922
11
184.844
21
-69.0905
0
LINE
8
BLACK
6
CONTINUOUS
10
184.844
20
-69.0905
11
184.829
21
-69.078
0
LINE
8
BLACK
6
CONTINUOUS
10
184.829
20
-69.078
11
184.813
21
-69.0682
0
LINE
8
BLACK
6
CONTINUOUS
10
184.813
20
-69.0682
11
184.81
21
-69.0618
0
LINE
8
BLACK
6
CONTINUOUS
10
184.81
20
-69.0618
11
184.805
21
-69.0575
0
LINE
8
BLACK
6
CONTINUOUS
10
184.805
20
-69.0575
11
184.802
21
-69.0383
0
LINE
8
BLACK
6
CONTINUOUS
10
184.802
20
-69.0383
11
184.795
21
-69.02
0
LINE
8
BLACK
6
CONTINUOUS
10
184.795
20
-69.02
11
184.795
21
-55.01
0
LINE
8
BLACK
6
CONTINUOUS
10
184.795
20
-55.01
11
184.797
21
-55.0003
0
LINE
8
BLACK
6
CONTINUOUS
10
184.797
20
-55.0003
11
184.796
21
-54.997
0
LINE
8
BLACK
6
CONTINUOUS
10
184.796
20
-54.997
11
184.798
21
-54.9941
0
LINE
8
BLACK
6
CONTINUOUS
10
184.798
20
-54.9941
11
184.8
21
-54.9843
0
LINE
8
BLACK
6
CONTINUOUS
10
184.8
20
-54.9843
11
184.812
21
-54.9694
0
LINE
8
BLACK
6
CONTINUOUS
10
184.812
20
-54.9694
11
184.822
21
-54.9525
0
LINE
8
BLACK
6
CONTINUOUS
10
184.822
20
-54.9525
11
184.828
21
-54.9502
0
LINE
8
BLACK
6
CONTINUOUS
10
184.828
20
-54.9502
11
184.832
21
-54.945
0
LINE
8
BLACK
6
CONTINUOUS
10
184.832
20
-54.945
11
184.852
21
-54.9417
0
LINE
8
BLACK
6
CONTINUOUS
10
184.852
20
-54.9417
11
184.87
21
-54.935
0
LINE
8
BLACK
6
CONTINUOUS
10
184.87
20
-54.935
11
198.88
21
-54.935
0
LINE
8
BLACK
6
CONTINUOUS
10
198.88
20
-54.935
11
198.89
21
-54.9367
0
LINE
8
BLACK
6
CONTINUOUS
10
184.945
20
-55.085
11
184.945
21
-68.945
0
LINE
8
BLACK
6
CONTINUOUS
10
184.945
20
-68.945
11
198.805
21
-68.945
0
LINE
8
BLACK
6
CONTINUOUS
10
198.805
20
-68.945
11
198.805
21
-55.085
0
LINE
8
BLACK
6
CONTINUOUS
10
198.805
20
-55.085
11
184.945
21
-55.085
0
LINE
8
BLACK
6
CONTINUOUS
10
237.01
20
-45.4067
11
237.013
21
-45.4061
0
LINE
8
BLACK
6
CONTINUOUS
10
237.013
20
-45.4061
11
237.016
21
-45.4078
0
LINE
8
BLACK
6
CONTINUOUS
10
237.016
20
-45.4078
11
237.026
21
-45.4095
0
LINE
8
BLACK
6
CONTINUOUS
10
237.026
20
-45.4095
11
237.041
21
-45.422
0
LINE
8
BLACK
6
CONTINUOUS
10
237.041
20
-45.422
11
237.057
21
-45.4318
0
LINE
8
BLACK
6
CONTINUOUS
10
237.057
20
-45.4318
11
237.06
21
-45.4381
0
LINE
8
BLACK
6
CONTINUOUS
10
237.06
20
-45.4381
11
237.065
21
-45.4425
0
LINE
8
BLACK
6
CONTINUOUS
10
237.065
20
-45.4425
11
237.068
21
-45.4617
0
LINE
8
BLACK
6
CONTINUOUS
10
237.068
20
-45.4617
11
237.075
21
-45.48
0
LINE
8
BLACK
6
CONTINUOUS
10
237.075
20
-45.48
11
237.075
21
-59.49
0
LINE
8
BLACK
6
CONTINUOUS
10
237.075
20
-59.49
11
237.073
21
-59.4997
0
LINE
8
BLACK
6
CONTINUOUS
10
237.073
20
-59.4997
11
237.074
21
-59.503
0
LINE
8
BLACK
6
CONTINUOUS
10
237.074
20
-59.503
11
237.072
21
-59.5059
0
LINE
8
BLACK
6
CONTINUOUS
10
237.072
20
-59.5059
11
237.07
21
-59.5157
0
LINE
8
BLACK
6
CONTINUOUS
10
237.07
20
-59.5157
11
237.058
21
-59.5306
0
LINE
8
BLACK
6
CONTINUOUS
10
237.058
20
-59.5306
11
237.048
21
-59.5475
0
LINE
8
BLACK
6
CONTINUOUS
10
237.048
20
-59.5475
11
237.042
21
-59.5498
0
LINE
8
BLACK
6
CONTINUOUS
10
237.042
20
-59.5498
11
237.037
21
-59.555
0
LINE
8
BLACK
6
CONTINUOUS
10
237.037
20
-59.555
11
237.018
21
-59.5583
0
LINE
8
BLACK
6
CONTINUOUS
10
237.018
20
-59.5583
11
237
21
-59.565
0
LINE
8
BLACK
6
CONTINUOUS
10
237
20
-59.565
11
223
21
-59.565
0
LINE
8
BLACK
6
CONTINUOUS
10
223
20
-59.565
11
222.99
21
-59.5633
0
LINE
8
BLACK
6
CONTINUOUS
10
222.99
20
-59.5633
11
222.987
21
-59.5639
0
LINE
8
BLACK
6
CONTINUOUS
10
222.987
20
-59.5639
11
222.984
21
-59.5622
0
LINE
8
BLACK
6
CONTINUOUS
10
222.984
20
-59.5622
11
222.974
21
-59.5605
0
LINE
8
BLACK
6
CONTINUOUS
10
222.974
20
-59.5605
11
222.959
21
-59.548
0
LINE
8
BLACK
6
CONTINUOUS
10
222.959
20
-59.548
11
222.943
21
-59.5382
0
LINE
8
BLACK
6
CONTINUOUS
10
222.943
20
-59.5382
11
222.94
21
-59.5318
0
LINE
8
BLACK
6
CONTINUOUS
10
222.94
20
-59.5318
11
222.935
21
-59.5275
0
LINE
8
BLACK
6
CONTINUOUS
10
222.935
20
-59.5275
11
222.932
21
-59.5083
0
LINE
8
BLACK
6
CONTINUOUS
10
222.932
20
-59.5083
11
222.925
21
-59.49
0
LINE
8
BLACK
6
CONTINUOUS
10
222.925
20
-59.49
11
222.925
21
-45.48
0
LINE
8
BLACK
6
CONTINUOUS
10
222.925
20
-45.48
11
222.927
21
-45.4703
0
LINE
8
BLACK
6
CONTINUOUS
10
222.927
20
-45.4703
11
222.926
21
-45.467
0
LINE
8
BLACK
6
CONTINUOUS
10
222.926
20
-45.467
11
222.928
21
-45.4641
0
LINE
8
BLACK
6
CONTINUOUS
10
222.928
20
-45.4641
11
222.93
21
-45.4543
0
LINE
8
BLACK
6
CONTINUOUS
10
222.93
20
-45.4543
11
222.942
21
-45.4394
0
LINE
8
BLACK
6
CONTINUOUS
10
222.942
20
-45.4394
11
222.952
21
-45.4225
0
LINE
8
BLACK
6
CONTINUOUS
10
222.952
20
-45.4225
11
222.958
21
-45.4202
0
LINE
8
BLACK
6
CONTINUOUS
10
222.958
20
-45.4202
11
222.962
21
-45.415
0
LINE
8
BLACK
6
CONTINUOUS
10
222.962
20
-45.415
11
222.982
21
-45.4117
0
LINE
8
BLACK
6
CONTINUOUS
10
222.982
20
-45.4117
11
223
21
-45.405
0
LINE
8
BLACK
6
CONTINUOUS
10
223
20
-45.405
11
237
21
-45.405
0
LINE
8
BLACK
6
CONTINUOUS
10
237
20
-45.405
11
237.01
21
-45.4067
0
LINE
8
BLACK
6
CONTINUOUS
10
223.075
20
-45.555
11
223.075
21
-59.415
0
LINE
8
BLACK
6
CONTINUOUS
10
223.075
20
-59.415
11
236.925
21
-59.415
0
LINE
8
BLACK
6
CONTINUOUS
10
236.925
20
-59.415
11
236.925
21
-45.555
0
LINE
8
BLACK
6
CONTINUOUS
10
236.925
20
-45.555
11
223.075
21
-45.555
0
LINE
8
BLACK
6
CONTINUOUS
10
179.92
20
-40.6667
11
179.923
21
-40.6661
0
LINE
8
BLACK
6
CONTINUOUS
10
179.923
20
-40.6661
11
179.926
21
-40.6678
0
LINE
8
BLACK
6
CONTINUOUS
10
179.926
20
-40.6678
11
179.936
21
-40.6695
0
LINE
8
BLACK
6
CONTINUOUS
10
179.936
20
-40.6695
11
179.951
21
-40.682
0
LINE
8
BLACK
6
CONTINUOUS
10
179.951
20
-40.682
11
179.967
21
-40.6918
0
LINE
8
BLACK
6
CONTINUOUS
10
179.967
20
-40.6918
11
179.97
21
-40.6981
0
LINE
8
BLACK
6
CONTINUOUS
10
179.97
20
-40.6981
11
179.975
21
-40.7025
0
LINE
8
BLACK
6
CONTINUOUS
10
179.975
20
-40.7025
11
179.978
21
-40.7217
0
LINE
8
BLACK
6
CONTINUOUS
10
179.978
20
-40.7217
11
179.985
21
-40.74
0
LINE
8
BLACK
6
CONTINUOUS
10
179.985
20
-40.74
11
179.985
21
-54.74
0
LINE
8
BLACK
6
CONTINUOUS
10
179.985
20
-54.74
11
179.983
21
-54.7497
0
LINE
8
BLACK
6
CONTINUOUS
10
179.983
20
-54.7497
11
179.984
21
-54.753
0
LINE
8
BLACK
6
CONTINUOUS
10
179.984
20
-54.753
11
179.982
21
-54.7559
0
LINE
8
BLACK
6
CONTINUOUS
10
179.982
20
-54.7559
11
179.98
21
-54.7657
0
LINE
8
BLACK
6
CONTINUOUS
10
179.98
20
-54.7657
11
179.968
21
-54.7806
0
LINE
8
BLACK
6
CONTINUOUS
10
179.968
20
-54.7806
11
179.958
21
-54.7975
0
LINE
8
BLACK
6
CONTINUOUS
10
179.958
20
-54.7975
11
179.952
21
-54.7998
0
LINE
8
BLACK
6
CONTINUOUS
10
179.952
20
-54.7998
11
179.947
21
-54.805
0
LINE
8
BLACK
6
CONTINUOUS
10
179.947
20
-54.805
11
179.928
21
-54.8083
0
LINE
8
BLACK
6
CONTINUOUS
10
179.928
20
-54.8083
11
179.91
21
-54.815
0
LINE
8
BLACK
6
CONTINUOUS
10
179.91
20
-54.815
11
165.85
21
-54.815
0
LINE
8
BLACK
6
CONTINUOUS
10
165.85
20
-54.815
11
165.84
21
-54.8133
0
LINE
8
BLACK
6
CONTINUOUS
10
165.84
20
-54.8133
11
165.837
21
-54.8139
0
LINE
8
BLACK
6
CONTINUOUS
10
165.837
20
-54.8139
11
165.834
21
-54.8122
0
LINE
8
BLACK
6
CONTINUOUS
10
165.834
20
-54.8122
11
165.824
21
-54.8105
0
LINE
8
BLACK
6
CONTINUOUS
10
165.824
20
-54.8105
11
165.809
21
-54.798
0
LINE
8
BLACK
6
CONTINUOUS
10
165.809
20
-54.798
11
165.793
21
-54.7882
0
LINE
8
BLACK
6
CONTINUOUS
10
165.793
20
-54.7882
11
165.79
21
-54.7818
0
LINE
8
BLACK
6
CONTINUOUS
10
165.79
20
-54.7818
11
165.785
21
-54.7775
0
LINE
8
BLACK
6
CONTINUOUS
10
165.785
20
-54.7775
11
165.782
21
-54.7583
0
LINE
8
BLACK
6
CONTINUOUS
10
165.782
20
-54.7583
11
165.775
21
-54.74
0
LINE
8
BLACK
6
CONTINUOUS
10
165.775
20
-54.74
11
165.775
21
-40.74
0
LINE
8
BLACK
6
CONTINUOUS
10
165.775
20
-40.74
11
165.777
21
-40.7303
0
LINE
8
BLACK
6
CONTINUOUS
10
165.777
20
-40.7303
11
165.776
21
-40.727
0
LINE
8
BLACK
6
CONTINUOUS
10
165.776
20
-40.727
11
165.778
21
-40.7241
0
LINE
8
BLACK
6
CONTINUOUS
10
165.778
20
-40.7241
11
165.78
21
-40.7143
0
LINE
8
BLACK
6
CONTINUOUS
10
165.78
20
-40.7143
11
165.792
21
-40.6994
0
LINE
8
BLACK
6
CONTINUOUS
10
165.792
20
-40.6994
11
165.802
21
-40.6825
0
LINE
8
BLACK
6
CONTINUOUS
10
165.802
20
-40.6825
11
165.808
21
-40.6802
0
LINE
8
BLACK
6
CONTINUOUS
10
165.808
20
-40.6802
11
165.812
21
-40.675
0
LINE
8
BLACK
6
CONTINUOUS
10
165.812
20
-40.675
11
165.832
21
-40.6717
0
LINE
8
BLACK
6
CONTINUOUS
10
165.832
20
-40.6717
11
165.85
21
-40.665
0
LINE
8
BLACK
6
CONTINUOUS
10
165.85
20
-40.665
11
179.91
21
-40.665
0
LINE
8
BLACK
6
CONTINUOUS
10
179.91
20
-40.665
11
179.92
21
-40.6667
0
LINE
8
BLACK
6
CONTINUOUS
10
165.925
20
-40.815
11
165.925
21
-54.665
0
LINE
8
BLACK
6
CONTINUOUS
10
165.925
20
-54.665
11
179.835
21
-54.665
0
LINE
8
BLACK
6
CONTINUOUS
10
179.835
20
-54.665
11
179.835
21
-40.815
0
LINE
8
BLACK
6
CONTINUOUS
10
179.835
20
-40.815
11
165.925
21
-40.815
0
LINE
8
BLACK
6
CONTINUOUS
10
217.95
20
-40.6567
11
217.953
21
-40.6561
0
LINE
8
BLACK
6
CONTINUOUS
10
217.953
20
-40.6561
11
217.956
21
-40.6578
0
LINE
8
BLACK
6
CONTINUOUS
10
217.956
20
-40.6578
11
217.966
21
-40.6595
0
LINE
8
BLACK
6
CONTINUOUS
10
217.966
20
-40.6595
11
217.981
21
-40.672
0
LINE
8
BLACK
6
CONTINUOUS
10
217.981
20
-40.672
11
217.997
21
-40.6818
0
LINE
8
BLACK
6
CONTINUOUS
10
217.997
20
-40.6818
11
218
21
-40.6881
0
LINE
8
BLACK
6
CONTINUOUS
10
218
20
-40.6881
11
218.005
21
-40.6925
0
LINE
8
BLACK
6
CONTINUOUS
10
218.005
20
-40.6925
11
218.008
21
-40.7117
0
LINE
8
BLACK
6
CONTINUOUS
10
218.008
20
-40.7117
11
218.015
21
-40.73
0
LINE
8
BLACK
6
CONTINUOUS
10
218.015
20
-40.73
11
218.015
21
-54.73
0
LINE
8
BLACK
6
CONTINUOUS
10
218.015
20
-54.73
11
218.013
21
-54.7397
0
LINE
8
BLACK
6
CONTINUOUS
10
218.013
20
-54.7397
11
218.014
21
-54.743
0
LINE
8
BLACK
6
CONTINUOUS
10
218.014
20
-54.743
11
218.012
21
-54.7459
0
LINE
8
BLACK
6
CONTINUOUS
10
218.012
20
-54.7459
11
218.01
21
-54.7557
0
LINE
8
BLACK
6
CONTINUOUS
10
218.01
20
-54.7557
11
217.998
21
-54.7706
0
LINE
8
BLACK
6
CONTINUOUS
10
217.998
20
-54.7706
11
217.988
21
-54.7875
0
LINE
8
BLACK
6
CONTINUOUS
10
217.988
20
-54.7875
11
217.982
21
-54.7898
0
LINE
8
BLACK
6
CONTINUOUS
10
217.982
20
-54.7898
11
217.977
21
-54.795
0
LINE
8
BLACK
6
CONTINUOUS
10
217.977
20
-54.795
11
217.958
21
-54.7983
0
LINE
8
BLACK
6
CONTINUOUS
10
217.958
20
-54.7983
11
217.94
21
-54.805
0
LINE
8
BLACK
6
CONTINUOUS
10
217.94
20
-54.805
11
203.93
21
-54.805
0
LINE
8
BLACK
6
CONTINUOUS
10
203.93
20
-54.805
11
203.92
21
-54.8033
0
LINE
8
BLACK
6
CONTINUOUS
10
203.92
20
-54.8033
11
203.917
21
-54.8039
0
LINE
8
BLACK
6
CONTINUOUS
10
203.917
20
-54.8039
11
203.914
21
-54.8022
0
LINE
8
BLACK
6
CONTINUOUS
10
203.914
20
-54.8022
11
203.904
21
-54.8005
0
LINE
8
BLACK
6
CONTINUOUS
10
203.904
20
-54.8005
11
203.889
21
-54.788
0
LINE
8
BLACK
6
CONTINUOUS
10
203.889
20
-54.788
11
203.873
21
-54.7782
0
LINE
8
BLACK
6
CONTINUOUS
10
203.873
20
-54.7782
11
203.87
21
-54.7719
0
LINE
8
BLACK
6
CONTINUOUS
10
203.87
20
-54.7719
11
203.865
21
-54.7675
0
LINE
8
BLACK
6
CONTINUOUS
10
203.865
20
-54.7675
11
203.862
21
-54.7483
0
LINE
8
BLACK
6
CONTINUOUS
10
203.862
20
-54.7483
11
203.855
21
-54.73
0
LINE
8
BLACK
6
CONTINUOUS
10
203.855
20
-54.73
11
203.855
21
-40.73
0
LINE
8
BLACK
6
CONTINUOUS
10
203.855
20
-40.73
11
203.857
21
-40.7203
0
LINE
8
BLACK
6
CONTINUOUS
10
203.857
20
-40.7203
11
203.856
21
-40.717
0
LINE
8
BLACK
6
CONTINUOUS
10
203.856
20
-40.717
11
203.858
21
-40.7141
0
LINE
8
BLACK
6
CONTINUOUS
10
203.858
20
-40.7141
11
203.86
21
-40.7043
0
LINE
8
BLACK
6
CONTINUOUS
10
203.86
20
-40.7043
11
203.872
21
-40.6894
0
LINE
8
BLACK
6
CONTINUOUS
10
203.872
20
-40.6894
11
203.882
21
-40.6725
0
LINE
8
BLACK
6
CONTINUOUS
10
203.882
20
-40.6725
11
203.888
21
-40.6702
0
LINE
8
BLACK
6
CONTINUOUS
10
203.888
20
-40.6702
11
203.892
21
-40.665
0
LINE
8
BLACK
6
CONTINUOUS
10
203.892
20
-40.665
11
203.912
21
-40.6617
0
LINE
8
BLACK
6
CONTINUOUS
10
203.912
20
-40.6617
11
203.93
21
-40.655
0
LINE
8
BLACK
6
CONTINUOUS
10
203.93
20
-40.655
11
217.94
21
-40.655
0
LINE
8
BLACK
6
CONTINUOUS
10
217.94
20
-40.655
11
217.95
21
-40.6567
0
LINE
8
BLACK
6
CONTINUOUS
10
204.005
20
-40.805
11
204.005
21
-54.655
0
LINE
8
BLACK
6
CONTINUOUS
10
204.005
20
-54.655
11
217.865
21
-54.655
0
LINE
8
BLACK
6
CONTINUOUS
10
217.865
20
-54.655
11
217.865
21
-40.805
0
LINE
8
BLACK
6
CONTINUOUS
10
217.865
20
-40.805
11
204.005
21
-40.805
0
LINE
8
BLACK
6
CONTINUOUS
10
198.89
20
-35.8867
11
198.893
21
-35.8861
0
LINE
8
BLACK
6
CONTINUOUS
10
198.893
20
-35.8861
11
198.896
21
-35.8878
0
LINE
8
BLACK
6
CONTINUOUS
10
198.896
20
-35.8878
11
198.906
21
-35.8895
0
LINE
8
BLACK
6
CONTINUOUS
10
198.906
20
-35.8895
11
198.921
21
-35.902
0
LINE
8
BLACK
6
CONTINUOUS
10
198.921
20
-35.902
11
198.937
21
-35.9118
0
LINE
8
BLACK
6
CONTINUOUS
10
198.937
20
-35.9118
11
198.94
21
-35.9181
0
LINE
8
BLACK
6
CONTINUOUS
10
198.94
20
-35.9181
11
198.945
21
-35.9225
0
LINE
8
BLACK
6
CONTINUOUS
10
198.945
20
-35.9225
11
198.948
21
-35.9417
0
LINE
8
BLACK
6
CONTINUOUS
10
198.948
20
-35.9417
11
198.955
21
-35.96
0
LINE
8
BLACK
6
CONTINUOUS
10
198.955
20
-35.96
11
198.955
21
-49.97
0
LINE
8
BLACK
6
CONTINUOUS
10
198.955
20
-49.97
11
198.953
21
-49.9797
0
LINE
8
BLACK
6
CONTINUOUS
10
198.953
20
-49.9797
11
198.954
21
-49.983
0
LINE
8
BLACK
6
CONTINUOUS
10
198.954
20
-49.983
11
198.952
21
-49.9859
0
LINE
8
BLACK
6
CONTINUOUS
10
198.952
20
-49.9859
11
198.95
21
-49.9957
0
LINE
8
BLACK
6
CONTINUOUS
10
198.95
20
-49.9957
11
198.938
21
-50.0106
0
LINE
8
BLACK
6
CONTINUOUS
10
198.938
20
-50.0106
11
198.928
21
-50.0275
0
LINE
8
BLACK
6
CONTINUOUS
10
198.928
20
-50.0275
11
198.922
21
-50.0298
0
LINE
8
BLACK
6
CONTINUOUS
10
198.922
20
-50.0298
11
198.917
21
-50.035
0
LINE
8
BLACK
6
CONTINUOUS
10
198.917
20
-50.035
11
198.898
21
-50.0383
0
LINE
8
BLACK
6
CONTINUOUS
10
198.898
20
-50.0383
11
198.88
21
-50.045
0
LINE
8
BLACK
6
CONTINUOUS
10
198.88
20
-50.045
11
184.87
21
-50.045
0
LINE
8
BLACK
6
CONTINUOUS
10
184.87
20
-50.045
11
184.86
21
-50.0433
0
LINE
8
BLACK
6
CONTINUOUS
10
184.86
20
-50.0433
11
184.857
21
-50.0439
0
LINE
8
BLACK
6
CONTINUOUS
10
184.857
20
-50.0439
11
184.854
21
-50.0422
0
LINE
8
BLACK
6
CONTINUOUS
10
184.854
20
-50.0422
11
184.844
21
-50.0405
0
LINE
8
BLACK
6
CONTINUOUS
10
184.844
20
-50.0405
11
184.829
21
-50.028
0
LINE
8
BLACK
6
CONTINUOUS
10
184.829
20
-50.028
11
184.813
21
-50.0182
0
LINE
8
BLACK
6
CONTINUOUS
10
184.813
20
-50.0182
11
184.81
21
-50.0118
0
LINE
8
BLACK
6
CONTINUOUS
10
184.81
20
-50.0118
11
184.805
21
-50.0075
0
LINE
8
BLACK
6
CONTINUOUS
10
184.805
20
-50.0075
11
184.802
21
-49.9883
0
LINE
8
BLACK
6
CONTINUOUS
10
184.802
20
-49.9883
11
184.795
21
-49.97
0
LINE
8
BLACK
6
CONTINUOUS
10
184.795
20
-49.97
11
184.795
21
-35.96
0
LINE
8
BLACK
6
CONTINUOUS
10
184.795
20
-35.96
11
184.797
21
-35.9503
0
LINE
8
BLACK
6
CONTINUOUS
10
184.797
20
-35.9503
11
184.796
21
-35.947
0
LINE
8
BLACK
6
CONTINUOUS
10
184.796
20
-35.947
11
184.798
21
-35.9441
0
LINE
8
BLACK
6
CONTINUOUS
10
184.798
20
-35.9441
11
184.8
21
-35.9343
0
LINE
8
BLACK
6
CONTINUOUS
10
184.8
20
-35.9343
11
184.812
21
-35.9194
0
LINE
8
BLACK
6
CONTINUOUS
10
184.812
20
-35.9194
11
184.822
21
-35.9025
0
LINE
8
BLACK
6
CONTINUOUS
10
184.822
20
-35.9025
11
184.828
21
-35.9002
0
LINE
8
BLACK
6
CONTINUOUS
10
184.828
20
-35.9002
11
184.832
21
-35.895
0
LINE
8
BLACK
6
CONTINUOUS
10
184.832
20
-35.895
11
184.852
21
-35.8917
0
LINE
8
BLACK
6
CONTINUOUS
10
184.852
20
-35.8917
11
184.87
21
-35.885
0
LINE
8
BLACK
6
CONTINUOUS
10
184.87
20
-35.885
11
198.88
21
-35.885
0
LINE
8
BLACK
6
CONTINUOUS
10
198.88
20
-35.885
11
198.89
21
-35.8867
0
LINE
8
BLACK
6
CONTINUOUS
10
184.945
20
-36.035
11
184.945
21
-49.895
0
LINE
8
BLACK
6
CONTINUOUS
10
184.945
20
-49.895
11
198.805
21
-49.895
0
LINE
8
BLACK
6
CONTINUOUS
10
198.805
20
-49.895
11
198.805
21
-36.035
0
LINE
8
BLACK
6
CONTINUOUS
10
198.805
20
-36.035
11
184.945
21
-36.035
  0
ENDSEC
  0
EOF
