  0
SECTION
  2
HEADER
  9
$ANGBASE
  50
0.0
  9
$ANGDIR
  70
1
  9
$MEASUREMENT
  70
1
  0
ENDSEC
  0
SECTION
  2
TABLES
  0
TABLE
  2
LTYPE
  70
4
  0
LTYPE
  5
40F
  2
CONTINUOUS
  70
0
  3
Solid line
  72
65
  73
0
  40
0.0
  0
LTYPE
  5
410
  2
DASHDOT
 70
0
  3
Dash Dot ____ _ ____ _
 72
65
 73
4
 40
2.0
 49
1.25
 49
-0.25
 49
0.25
 49
-0.25
  0
LTYPE
  5
411
  2
DASHED
 70
0
  3
Dashed __ __ __ __ __
 72
65
 73
2
 40
0.75
 49
0.5
 49
-0.25
  0
LTYPE
  5
43B
  2
DOTTED
 70
0
  3
Dotted .  .  .  .
 72
65
 73
2
 40
0.2
 49
0.0
 49
-0.2
  0
ENDTAB
  0
TABLE
  2
STYLE
  70
4
  0
STYLE
  2
KICAD
  70
0
  40
0
  41
1
  42
1
  50
0
  71
0
  3
isocp.shx
  0
STYLE
  2
KICADB
  70
0
  40
0
  41
1
  42
1
  50
0
  71
0
  3
isocp.shx
  0
STYLE
  2
KICADI
  70
0
  40
0
  41
1
  42
1
  50
15
  71
0
  3
isocp.shx
  0
STYLE
  2
KICADBI
  70
0
  40
0
  41
1
  42
1
  50
15
  71
0
  3
isocp.shx
  0
ENDTAB
  0
TABLE
  2
LAYER
  70
1
  0
LAYER
  2
BLACK
  70
0
  62
7
  6
CONTINUOUS
  0
ENDTAB
  0
ENDSEC
  0
SECTION
  2
ENTITIES
0
LINE
8
BLACK
6
CONTINUOUS
10
201.42
20
-33.38
11
201.455
21
-33.3946
0
LINE
8
BLACK
6
CONTINUOUS
10
201.455
20
-33.3946
11
201.47
21
-33.43
0
LINE
8
BLACK
6
CONTINUOUS
10
201.47
20
-33.43
11
201.47
21
-38.13
0
LINE
8
BLACK
6
CONTINUOUS
10
201.47
20
-38.13
11
220.47
21
-38.14
0
LINE
8
BLACK
6
CONTINUOUS
10
220.47
20
-38.14
11
220.488
21
-38.1473
0
LINE
8
BLACK
6
CONTINUOUS
10
220.488
20
-38.1473
11
220.505
21
-38.1546
0
LINE
8
BLACK
6
CONTINUOUS
10
220.505
20
-38.1546
11
220.505
21
-38.1547
0
LINE
8
BLACK
6
CONTINUOUS
10
220.505
20
-38.1547
11
220.505
21
-38.1547
0
LINE
8
BLACK
6
CONTINUOUS
10
220.505
20
-38.1547
11
220.513
21
-38.1726
0
LINE
8
BLACK
6
CONTINUOUS
10
220.513
20
-38.1726
11
220.52
21
-38.19
0
LINE
8
BLACK
6
CONTINUOUS
10
220.52
20
-38.19
11
220.52
21
-42.9
0
LINE
8
BLACK
6
CONTINUOUS
10
220.52
20
-42.9
11
239.52
21
-42.9
0
LINE
8
BLACK
6
CONTINUOUS
10
239.52
20
-42.9
11
239.52
21
-42.9
0
LINE
8
BLACK
6
CONTINUOUS
10
239.52
20
-42.9
11
239.52
21
-42.9
0
LINE
8
BLACK
6
CONTINUOUS
10
239.52
20
-42.9
11
239.543
21
-42.9095
0
LINE
8
BLACK
6
CONTINUOUS
10
239.543
20
-42.9095
11
239.555
21
-42.9146
0
LINE
8
BLACK
6
CONTINUOUS
10
239.555
20
-42.9146
11
239.555
21
-42.9146
0
LINE
8
BLACK
6
CONTINUOUS
10
239.555
20
-42.9146
11
239.555
21
-42.9146
0
LINE
8
BLACK
6
CONTINUOUS
10
239.555
20
-42.9146
11
239.564
21
-42.9348
0
LINE
8
BLACK
6
CONTINUOUS
10
239.564
20
-42.9348
11
239.57
21
-42.95
0
LINE
8
BLACK
6
CONTINUOUS
10
239.57
20
-42.95
11
239.57
21
-42.95
0
LINE
8
BLACK
6
CONTINUOUS
10
239.57
20
-42.95
11
239.57
21
-42.95
0
LINE
8
BLACK
6
CONTINUOUS
10
239.57
20
-42.95
11
239.56
21
-132.72
0
LINE
8
BLACK
6
CONTINUOUS
10
239.56
20
-132.72
11
239.56
21
-132.72
0
LINE
8
BLACK
6
CONTINUOUS
10
239.56
20
-132.72
11
239.56
21
-132.72
0
LINE
8
BLACK
6
CONTINUOUS
10
239.56
20
-132.72
11
239.552
21
-132.738
0
LINE
8
BLACK
6
CONTINUOUS
10
239.552
20
-132.738
11
239.545
21
-132.755
0
LINE
8
BLACK
6
CONTINUOUS
10
239.545
20
-132.755
11
239.545
21
-132.755
0
LINE
8
BLACK
6
CONTINUOUS
10
239.545
20
-132.755
11
239.545
21
-132.755
0
LINE
8
BLACK
6
CONTINUOUS
10
239.545
20
-132.755
11
239.527
21
-132.763
0
LINE
8
BLACK
6
CONTINUOUS
10
239.527
20
-132.763
11
239.51
21
-132.77
0
LINE
8
BLACK
6
CONTINUOUS
10
239.51
20
-132.77
11
239.51
21
-132.77
0
LINE
8
BLACK
6
CONTINUOUS
10
239.51
20
-132.77
11
239.51
21
-132.77
0
LINE
8
BLACK
6
CONTINUOUS
10
239.51
20
-132.77
11
220.46
21
-132.76
0
LINE
8
BLACK
6
CONTINUOUS
10
220.46
20
-132.76
11
144.25
21
-132.79
0
LINE
8
BLACK
6
CONTINUOUS
10
144.25
20
-132.79
11
144.25
21
-132.79
0
LINE
8
BLACK
6
CONTINUOUS
10
144.25
20
-132.79
11
144.25
21
-132.79
0
LINE
8
BLACK
6
CONTINUOUS
10
144.25
20
-132.79
11
144.232
21
-132.783
0
LINE
8
BLACK
6
CONTINUOUS
10
144.232
20
-132.783
11
144.215
21
-132.775
0
LINE
8
BLACK
6
CONTINUOUS
10
144.215
20
-132.775
11
144.215
21
-132.775
0
LINE
8
BLACK
6
CONTINUOUS
10
144.215
20
-132.775
11
144.215
21
-132.775
0
LINE
8
BLACK
6
CONTINUOUS
10
144.215
20
-132.775
11
144.207
21
-132.758
0
LINE
8
BLACK
6
CONTINUOUS
10
144.207
20
-132.758
11
144.2
21
-132.74
0
LINE
8
BLACK
6
CONTINUOUS
10
144.2
20
-132.74
11
144.2
21
-132.74
0
LINE
8
BLACK
6
CONTINUOUS
10
144.2
20
-132.74
11
144.2
21
-132.74
0
LINE
8
BLACK
6
CONTINUOUS
10
144.2
20
-132.74
11
144.2
21
-125.52
0
LINE
8
BLACK
6
CONTINUOUS
10
144.2
20
-125.52
11
144.207
21
-125.502
0
LINE
8
BLACK
6
CONTINUOUS
10
144.207
20
-125.502
11
144.215
21
-125.485
0
LINE
8
BLACK
6
CONTINUOUS
10
144.215
20
-125.485
11
144.215
21
-125.485
0
LINE
8
BLACK
6
CONTINUOUS
10
144.215
20
-125.485
11
144.215
21
-125.485
0
LINE
8
BLACK
6
CONTINUOUS
10
144.215
20
-125.485
11
144.232
21
-125.477
0
LINE
8
BLACK
6
CONTINUOUS
10
144.232
20
-125.477
11
144.25
21
-125.47
0
LINE
8
BLACK
6
CONTINUOUS
10
144.25
20
-125.47
11
165.09
21
-125.46
0
LINE
8
BLACK
6
CONTINUOUS
10
165.09
20
-125.46
11
165.08
21
-112.27
0
LINE
8
BLACK
6
CONTINUOUS
10
165.08
20
-112.27
11
144.2
21
-112.28
0
LINE
8
BLACK
6
CONTINUOUS
10
144.2
20
-112.28
11
144.2
21
-112.28
0
LINE
8
BLACK
6
CONTINUOUS
10
144.2
20
-112.28
11
144.2
21
-112.28
0
LINE
8
BLACK
6
CONTINUOUS
10
144.2
20
-112.28
11
144.182
21
-112.273
0
LINE
8
BLACK
6
CONTINUOUS
10
144.182
20
-112.273
11
144.165
21
-112.265
0
LINE
8
BLACK
6
CONTINUOUS
10
144.165
20
-112.265
11
144.165
21
-112.265
0
LINE
8
BLACK
6
CONTINUOUS
10
144.165
20
-112.265
11
144.165
21
-112.265
0
LINE
8
BLACK
6
CONTINUOUS
10
144.165
20
-112.265
11
144.157
21
-112.248
0
LINE
8
BLACK
6
CONTINUOUS
10
144.157
20
-112.248
11
144.15
21
-112.23
0
LINE
8
BLACK
6
CONTINUOUS
10
144.15
20
-112.23
11
144.15
21
-112.23
0
LINE
8
BLACK
6
CONTINUOUS
10
144.15
20
-112.23
11
144.15
21
-112.23
0
LINE
8
BLACK
6
CONTINUOUS
10
144.15
20
-112.23
11
144.19
21
-52.49
0
LINE
8
BLACK
6
CONTINUOUS
10
144.19
20
-52.49
11
144.197
21
-52.4727
0
LINE
8
BLACK
6
CONTINUOUS
10
144.197
20
-52.4727
11
144.205
21
-52.4547
0
LINE
8
BLACK
6
CONTINUOUS
10
144.205
20
-52.4547
11
144.205
21
-52.4547
0
LINE
8
BLACK
6
CONTINUOUS
10
144.205
20
-52.4547
11
144.205
21
-52.4546
0
LINE
8
BLACK
6
CONTINUOUS
10
144.205
20
-52.4546
11
144.222
21
-52.4474
0
LINE
8
BLACK
6
CONTINUOUS
10
144.222
20
-52.4474
11
144.24
21
-52.44
0
LINE
8
BLACK
6
CONTINUOUS
10
144.24
20
-52.44
11
163.23
21
-52.43
0
LINE
8
BLACK
6
CONTINUOUS
10
163.23
20
-52.43
11
163.24
21
-38.19
0
LINE
8
BLACK
6
CONTINUOUS
10
163.24
20
-38.19
11
163.247
21
-38.1728
0
LINE
8
BLACK
6
CONTINUOUS
10
163.247
20
-38.1728
11
163.255
21
-38.1547
0
LINE
8
BLACK
6
CONTINUOUS
10
163.255
20
-38.1547
11
163.255
21
-38.1546
0
LINE
8
BLACK
6
CONTINUOUS
10
163.255
20
-38.1546
11
163.255
21
-38.1546
0
LINE
8
BLACK
6
CONTINUOUS
10
163.255
20
-38.1546
11
163.272
21
-38.1475
0
LINE
8
BLACK
6
CONTINUOUS
10
163.272
20
-38.1475
11
163.29
21
-38.14
0
LINE
8
BLACK
6
CONTINUOUS
10
163.29
20
-38.14
11
182.3
21
-38.13
0
LINE
8
BLACK
6
CONTINUOUS
10
182.3
20
-38.13
11
182.3
21
-33.43
0
LINE
8
BLACK
6
CONTINUOUS
10
182.3
20
-33.43
11
182.315
21
-33.3946
0
LINE
8
BLACK
6
CONTINUOUS
10
182.315
20
-33.3946
11
182.35
21
-33.38
0
LINE
8
BLACK
6
CONTINUOUS
10
182.35
20
-33.38
11
201.42
21
-33.38
0
LINE
8
BLACK
6
CONTINUOUS
10
182.4
20
-33.48
11
182.4
21
-38.18
0
LINE
8
BLACK
6
CONTINUOUS
10
182.4
20
-38.18
11
182.393
21
-38.1974
0
LINE
8
BLACK
6
CONTINUOUS
10
182.393
20
-38.1974
11
182.385
21
-38.2153
0
LINE
8
BLACK
6
CONTINUOUS
10
182.385
20
-38.2153
11
182.385
21
-38.2153
0
LINE
8
BLACK
6
CONTINUOUS
10
182.385
20
-38.2153
11
182.385
21
-38.2154
0
LINE
8
BLACK
6
CONTINUOUS
10
182.385
20
-38.2154
11
182.368
21
-38.2227
0
LINE
8
BLACK
6
CONTINUOUS
10
182.368
20
-38.2227
11
182.35
21
-38.23
0
LINE
8
BLACK
6
CONTINUOUS
10
182.35
20
-38.23
11
163.34
21
-38.24
0
LINE
8
BLACK
6
CONTINUOUS
10
163.34
20
-38.24
11
163.33
21
-52.48
0
LINE
8
BLACK
6
CONTINUOUS
10
163.33
20
-52.48
11
163.323
21
-52.4975
0
LINE
8
BLACK
6
CONTINUOUS
10
163.323
20
-52.4975
11
163.315
21
-52.5153
0
LINE
8
BLACK
6
CONTINUOUS
10
163.315
20
-52.5153
11
163.315
21
-52.5153
0
LINE
8
BLACK
6
CONTINUOUS
10
163.315
20
-52.5153
11
163.315
21
-52.5154
0
LINE
8
BLACK
6
CONTINUOUS
10
163.315
20
-52.5154
11
163.298
21
-52.5227
0
LINE
8
BLACK
6
CONTINUOUS
10
163.298
20
-52.5227
11
163.28
21
-52.53
0
LINE
8
BLACK
6
CONTINUOUS
10
163.28
20
-52.53
11
144.29
21
-52.54
0
LINE
8
BLACK
6
CONTINUOUS
10
144.29
20
-52.54
11
144.25
21
-112.18
0
LINE
8
BLACK
6
CONTINUOUS
10
144.25
20
-112.18
11
165.13
21
-112.17
0
LINE
8
BLACK
6
CONTINUOUS
10
165.13
20
-112.17
11
165.13
21
-112.17
0
LINE
8
BLACK
6
CONTINUOUS
10
165.13
20
-112.17
11
165.13
21
-112.17
0
LINE
8
BLACK
6
CONTINUOUS
10
165.13
20
-112.17
11
165.148
21
-112.177
0
LINE
8
BLACK
6
CONTINUOUS
10
165.148
20
-112.177
11
165.165
21
-112.185
0
LINE
8
BLACK
6
CONTINUOUS
10
165.165
20
-112.185
11
165.165
21
-112.185
0
LINE
8
BLACK
6
CONTINUOUS
10
165.165
20
-112.185
11
165.165
21
-112.185
0
LINE
8
BLACK
6
CONTINUOUS
10
165.165
20
-112.185
11
165.173
21
-112.202
0
LINE
8
BLACK
6
CONTINUOUS
10
165.173
20
-112.202
11
165.18
21
-112.22
0
LINE
8
BLACK
6
CONTINUOUS
10
165.18
20
-112.22
11
165.19
21
-125.51
0
LINE
8
BLACK
6
CONTINUOUS
10
165.19
20
-125.51
11
165.19
21
-125.51
0
LINE
8
BLACK
6
CONTINUOUS
10
165.19
20
-125.51
11
165.19
21
-125.51
0
LINE
8
BLACK
6
CONTINUOUS
10
165.19
20
-125.51
11
165.183
21
-125.526
0
LINE
8
BLACK
6
CONTINUOUS
10
165.183
20
-125.526
11
165.175
21
-125.545
0
LINE
8
BLACK
6
CONTINUOUS
10
165.175
20
-125.545
11
165.175
21
-125.545
0
LINE
8
BLACK
6
CONTINUOUS
10
165.175
20
-125.545
11
165.175
21
-125.545
0
LINE
8
BLACK
6
CONTINUOUS
10
165.175
20
-125.545
11
165.159
21
-125.552
0
LINE
8
BLACK
6
CONTINUOUS
10
165.159
20
-125.552
11
165.14
21
-125.56
0
LINE
8
BLACK
6
CONTINUOUS
10
165.14
20
-125.56
11
165.14
21
-125.56
0
LINE
8
BLACK
6
CONTINUOUS
10
165.14
20
-125.56
11
165.14
21
-125.56
0
LINE
8
BLACK
6
CONTINUOUS
10
165.14
20
-125.56
11
144.3
21
-125.57
0
LINE
8
BLACK
6
CONTINUOUS
10
144.3
20
-125.57
11
144.3
21
-132.69
0
LINE
8
BLACK
6
CONTINUOUS
10
144.3
20
-132.69
11
220.46
21
-132.66
0
LINE
8
BLACK
6
CONTINUOUS
10
220.46
20
-132.66
11
220.46
21
-132.66
0
LINE
8
BLACK
6
CONTINUOUS
10
220.46
20
-132.66
11
220.46
21
-132.66
0
LINE
8
BLACK
6
CONTINUOUS
10
220.46
20
-132.66
11
239.46
21
-132.67
0
LINE
8
BLACK
6
CONTINUOUS
10
239.46
20
-132.67
11
239.47
21
-43
0
LINE
8
BLACK
6
CONTINUOUS
10
239.47
20
-43
11
220.47
21
-43
0
LINE
8
BLACK
6
CONTINUOUS
10
220.47
20
-43
11
220.435
21
-42.9854
0
LINE
8
BLACK
6
CONTINUOUS
10
220.435
20
-42.9854
11
220.42
21
-42.95
0
LINE
8
BLACK
6
CONTINUOUS
10
220.42
20
-42.95
11
220.42
21
-38.24
0
LINE
8
BLACK
6
CONTINUOUS
10
220.42
20
-38.24
11
201.42
21
-38.23
0
LINE
8
BLACK
6
CONTINUOUS
10
201.42
20
-38.23
11
201.403
21
-38.2228
0
LINE
8
BLACK
6
CONTINUOUS
10
201.403
20
-38.2228
11
201.385
21
-38.2154
0
LINE
8
BLACK
6
CONTINUOUS
10
201.385
20
-38.2154
11
201.385
21
-38.2153
0
LINE
8
BLACK
6
CONTINUOUS
10
201.385
20
-38.2153
11
201.385
21
-38.2153
0
LINE
8
BLACK
6
CONTINUOUS
10
201.385
20
-38.2153
11
201.377
21
-38.1974
0
LINE
8
BLACK
6
CONTINUOUS
10
201.377
20
-38.1974
11
201.37
21
-38.18
0
LINE
8
BLACK
6
CONTINUOUS
10
201.37
20
-38.18
11
201.37
21
-33.48
0
LINE
8
BLACK
6
CONTINUOUS
10
201.37
20
-33.48
11
182.4
21
-33.48
  0
ENDSEC
  0
EOF
