%TF.GenerationSoftware,KiCad,Pcbnew,7.0.1*%
%TF.CreationDate,2023-09-26T17:53:04-04:00*%
%TF.ProjectId,under1hundo,756e6465-7231-4687-956e-646f2e6b6963,rev?*%
%TF.SameCoordinates,Original*%
%TF.FileFunction,Legend,Bot*%
%TF.FilePolarity,Positive*%
%FSLAX46Y46*%
G04 Gerber Fmt 4.6, Leading zero omitted, Abs format (unit mm)*
G04 Created by KiCad (PCBNEW 7.0.1) date 2023-09-26 17:53:04*
%MOMM*%
%LPD*%
G01*
G04 APERTURE LIST*
%ADD10C,0.150000*%
%ADD11C,0.300000*%
%ADD12C,0.500000*%
%ADD13C,0.800000*%
%ADD14C,3.000000*%
%ADD15C,3.500000*%
%ADD16C,1.000000*%
%ADD17C,0.400000*%
G04 APERTURE END LIST*
D10*
X237123333Y-131270952D02*
X237123333Y-131937619D01*
X237551904Y-131270952D02*
X237551904Y-131794761D01*
X237551904Y-131794761D02*
X237504285Y-131890000D01*
X237504285Y-131890000D02*
X237409047Y-131937619D01*
X237409047Y-131937619D02*
X237266190Y-131937619D01*
X237266190Y-131937619D02*
X237170952Y-131890000D01*
X237170952Y-131890000D02*
X237123333Y-131842380D01*
X236647142Y-131270952D02*
X236647142Y-131937619D01*
X236647142Y-131366190D02*
X236599523Y-131318571D01*
X236599523Y-131318571D02*
X236504285Y-131270952D01*
X236504285Y-131270952D02*
X236361428Y-131270952D01*
X236361428Y-131270952D02*
X236266190Y-131318571D01*
X236266190Y-131318571D02*
X236218571Y-131413809D01*
X236218571Y-131413809D02*
X236218571Y-131937619D01*
X235313809Y-131937619D02*
X235313809Y-130937619D01*
X235313809Y-131890000D02*
X235409047Y-131937619D01*
X235409047Y-131937619D02*
X235599523Y-131937619D01*
X235599523Y-131937619D02*
X235694761Y-131890000D01*
X235694761Y-131890000D02*
X235742380Y-131842380D01*
X235742380Y-131842380D02*
X235789999Y-131747142D01*
X235789999Y-131747142D02*
X235789999Y-131461428D01*
X235789999Y-131461428D02*
X235742380Y-131366190D01*
X235742380Y-131366190D02*
X235694761Y-131318571D01*
X235694761Y-131318571D02*
X235599523Y-131270952D01*
X235599523Y-131270952D02*
X235409047Y-131270952D01*
X235409047Y-131270952D02*
X235313809Y-131318571D01*
X234456666Y-131890000D02*
X234551904Y-131937619D01*
X234551904Y-131937619D02*
X234742380Y-131937619D01*
X234742380Y-131937619D02*
X234837618Y-131890000D01*
X234837618Y-131890000D02*
X234885237Y-131794761D01*
X234885237Y-131794761D02*
X234885237Y-131413809D01*
X234885237Y-131413809D02*
X234837618Y-131318571D01*
X234837618Y-131318571D02*
X234742380Y-131270952D01*
X234742380Y-131270952D02*
X234551904Y-131270952D01*
X234551904Y-131270952D02*
X234456666Y-131318571D01*
X234456666Y-131318571D02*
X234409047Y-131413809D01*
X234409047Y-131413809D02*
X234409047Y-131509047D01*
X234409047Y-131509047D02*
X234885237Y-131604285D01*
X233980475Y-131937619D02*
X233980475Y-131270952D01*
X233980475Y-131461428D02*
X233932856Y-131366190D01*
X233932856Y-131366190D02*
X233885237Y-131318571D01*
X233885237Y-131318571D02*
X233789999Y-131270952D01*
X233789999Y-131270952D02*
X233694761Y-131270952D01*
X232837618Y-131937619D02*
X233409046Y-131937619D01*
X233123332Y-131937619D02*
X233123332Y-130937619D01*
X233123332Y-130937619D02*
X233218570Y-131080476D01*
X233218570Y-131080476D02*
X233313808Y-131175714D01*
X233313808Y-131175714D02*
X233409046Y-131223333D01*
X232409046Y-131937619D02*
X232409046Y-130937619D01*
X231980475Y-131937619D02*
X231980475Y-131413809D01*
X231980475Y-131413809D02*
X232028094Y-131318571D01*
X232028094Y-131318571D02*
X232123332Y-131270952D01*
X232123332Y-131270952D02*
X232266189Y-131270952D01*
X232266189Y-131270952D02*
X232361427Y-131318571D01*
X232361427Y-131318571D02*
X232409046Y-131366190D01*
X231075713Y-131270952D02*
X231075713Y-131937619D01*
X231504284Y-131270952D02*
X231504284Y-131794761D01*
X231504284Y-131794761D02*
X231456665Y-131890000D01*
X231456665Y-131890000D02*
X231361427Y-131937619D01*
X231361427Y-131937619D02*
X231218570Y-131937619D01*
X231218570Y-131937619D02*
X231123332Y-131890000D01*
X231123332Y-131890000D02*
X231075713Y-131842380D01*
X230599522Y-131270952D02*
X230599522Y-131937619D01*
X230599522Y-131366190D02*
X230551903Y-131318571D01*
X230551903Y-131318571D02*
X230456665Y-131270952D01*
X230456665Y-131270952D02*
X230313808Y-131270952D01*
X230313808Y-131270952D02*
X230218570Y-131318571D01*
X230218570Y-131318571D02*
X230170951Y-131413809D01*
X230170951Y-131413809D02*
X230170951Y-131937619D01*
X229266189Y-131937619D02*
X229266189Y-130937619D01*
X229266189Y-131890000D02*
X229361427Y-131937619D01*
X229361427Y-131937619D02*
X229551903Y-131937619D01*
X229551903Y-131937619D02*
X229647141Y-131890000D01*
X229647141Y-131890000D02*
X229694760Y-131842380D01*
X229694760Y-131842380D02*
X229742379Y-131747142D01*
X229742379Y-131747142D02*
X229742379Y-131461428D01*
X229742379Y-131461428D02*
X229694760Y-131366190D01*
X229694760Y-131366190D02*
X229647141Y-131318571D01*
X229647141Y-131318571D02*
X229551903Y-131270952D01*
X229551903Y-131270952D02*
X229361427Y-131270952D01*
X229361427Y-131270952D02*
X229266189Y-131318571D01*
X228647141Y-131937619D02*
X228742379Y-131890000D01*
X228742379Y-131890000D02*
X228789998Y-131842380D01*
X228789998Y-131842380D02*
X228837617Y-131747142D01*
X228837617Y-131747142D02*
X228837617Y-131461428D01*
X228837617Y-131461428D02*
X228789998Y-131366190D01*
X228789998Y-131366190D02*
X228742379Y-131318571D01*
X228742379Y-131318571D02*
X228647141Y-131270952D01*
X228647141Y-131270952D02*
X228504284Y-131270952D01*
X228504284Y-131270952D02*
X228409046Y-131318571D01*
X228409046Y-131318571D02*
X228361427Y-131366190D01*
X228361427Y-131366190D02*
X228313808Y-131461428D01*
X228313808Y-131461428D02*
X228313808Y-131747142D01*
X228313808Y-131747142D02*
X228361427Y-131842380D01*
X228361427Y-131842380D02*
X228409046Y-131890000D01*
X228409046Y-131890000D02*
X228504284Y-131937619D01*
X228504284Y-131937619D02*
X228647141Y-131937619D01*
X212983333Y-130670952D02*
X212983333Y-131480476D01*
X212983333Y-131480476D02*
X213030952Y-131575714D01*
X213030952Y-131575714D02*
X213078571Y-131623333D01*
X213078571Y-131623333D02*
X213173809Y-131670952D01*
X213173809Y-131670952D02*
X213316666Y-131670952D01*
X213316666Y-131670952D02*
X213411904Y-131623333D01*
X212983333Y-131290000D02*
X213078571Y-131337619D01*
X213078571Y-131337619D02*
X213269047Y-131337619D01*
X213269047Y-131337619D02*
X213364285Y-131290000D01*
X213364285Y-131290000D02*
X213411904Y-131242380D01*
X213411904Y-131242380D02*
X213459523Y-131147142D01*
X213459523Y-131147142D02*
X213459523Y-130861428D01*
X213459523Y-130861428D02*
X213411904Y-130766190D01*
X213411904Y-130766190D02*
X213364285Y-130718571D01*
X213364285Y-130718571D02*
X213269047Y-130670952D01*
X213269047Y-130670952D02*
X213078571Y-130670952D01*
X213078571Y-130670952D02*
X212983333Y-130718571D01*
X212507142Y-131337619D02*
X212507142Y-130670952D01*
X212507142Y-130337619D02*
X212554761Y-130385238D01*
X212554761Y-130385238D02*
X212507142Y-130432857D01*
X212507142Y-130432857D02*
X212459523Y-130385238D01*
X212459523Y-130385238D02*
X212507142Y-130337619D01*
X212507142Y-130337619D02*
X212507142Y-130432857D01*
X212173809Y-130670952D02*
X211792857Y-130670952D01*
X212030952Y-130337619D02*
X212030952Y-131194761D01*
X212030952Y-131194761D02*
X211983333Y-131290000D01*
X211983333Y-131290000D02*
X211888095Y-131337619D01*
X211888095Y-131337619D02*
X211792857Y-131337619D01*
X211459523Y-131337619D02*
X211459523Y-130337619D01*
X211030952Y-131337619D02*
X211030952Y-130813809D01*
X211030952Y-130813809D02*
X211078571Y-130718571D01*
X211078571Y-130718571D02*
X211173809Y-130670952D01*
X211173809Y-130670952D02*
X211316666Y-130670952D01*
X211316666Y-130670952D02*
X211411904Y-130718571D01*
X211411904Y-130718571D02*
X211459523Y-130766190D01*
X210126190Y-130670952D02*
X210126190Y-131337619D01*
X210554761Y-130670952D02*
X210554761Y-131194761D01*
X210554761Y-131194761D02*
X210507142Y-131290000D01*
X210507142Y-131290000D02*
X210411904Y-131337619D01*
X210411904Y-131337619D02*
X210269047Y-131337619D01*
X210269047Y-131337619D02*
X210173809Y-131290000D01*
X210173809Y-131290000D02*
X210126190Y-131242380D01*
X209649999Y-131337619D02*
X209649999Y-130337619D01*
X209649999Y-130718571D02*
X209554761Y-130670952D01*
X209554761Y-130670952D02*
X209364285Y-130670952D01*
X209364285Y-130670952D02*
X209269047Y-130718571D01*
X209269047Y-130718571D02*
X209221428Y-130766190D01*
X209221428Y-130766190D02*
X209173809Y-130861428D01*
X209173809Y-130861428D02*
X209173809Y-131147142D01*
X209173809Y-131147142D02*
X209221428Y-131242380D01*
X209221428Y-131242380D02*
X209269047Y-131290000D01*
X209269047Y-131290000D02*
X209364285Y-131337619D01*
X209364285Y-131337619D02*
X209554761Y-131337619D01*
X209554761Y-131337619D02*
X209649999Y-131290000D01*
X208745237Y-131242380D02*
X208697618Y-131290000D01*
X208697618Y-131290000D02*
X208745237Y-131337619D01*
X208745237Y-131337619D02*
X208792856Y-131290000D01*
X208792856Y-131290000D02*
X208745237Y-131242380D01*
X208745237Y-131242380D02*
X208745237Y-131337619D01*
X207840476Y-131290000D02*
X207935714Y-131337619D01*
X207935714Y-131337619D02*
X208126190Y-131337619D01*
X208126190Y-131337619D02*
X208221428Y-131290000D01*
X208221428Y-131290000D02*
X208269047Y-131242380D01*
X208269047Y-131242380D02*
X208316666Y-131147142D01*
X208316666Y-131147142D02*
X208316666Y-130861428D01*
X208316666Y-130861428D02*
X208269047Y-130766190D01*
X208269047Y-130766190D02*
X208221428Y-130718571D01*
X208221428Y-130718571D02*
X208126190Y-130670952D01*
X208126190Y-130670952D02*
X207935714Y-130670952D01*
X207935714Y-130670952D02*
X207840476Y-130718571D01*
X207269047Y-131337619D02*
X207364285Y-131290000D01*
X207364285Y-131290000D02*
X207411904Y-131242380D01*
X207411904Y-131242380D02*
X207459523Y-131147142D01*
X207459523Y-131147142D02*
X207459523Y-130861428D01*
X207459523Y-130861428D02*
X207411904Y-130766190D01*
X207411904Y-130766190D02*
X207364285Y-130718571D01*
X207364285Y-130718571D02*
X207269047Y-130670952D01*
X207269047Y-130670952D02*
X207126190Y-130670952D01*
X207126190Y-130670952D02*
X207030952Y-130718571D01*
X207030952Y-130718571D02*
X206983333Y-130766190D01*
X206983333Y-130766190D02*
X206935714Y-130861428D01*
X206935714Y-130861428D02*
X206935714Y-131147142D01*
X206935714Y-131147142D02*
X206983333Y-131242380D01*
X206983333Y-131242380D02*
X207030952Y-131290000D01*
X207030952Y-131290000D02*
X207126190Y-131337619D01*
X207126190Y-131337619D02*
X207269047Y-131337619D01*
X206507142Y-131337619D02*
X206507142Y-130670952D01*
X206507142Y-130766190D02*
X206459523Y-130718571D01*
X206459523Y-130718571D02*
X206364285Y-130670952D01*
X206364285Y-130670952D02*
X206221428Y-130670952D01*
X206221428Y-130670952D02*
X206126190Y-130718571D01*
X206126190Y-130718571D02*
X206078571Y-130813809D01*
X206078571Y-130813809D02*
X206078571Y-131337619D01*
X206078571Y-130813809D02*
X206030952Y-130718571D01*
X206030952Y-130718571D02*
X205935714Y-130670952D01*
X205935714Y-130670952D02*
X205792857Y-130670952D01*
X205792857Y-130670952D02*
X205697618Y-130718571D01*
X205697618Y-130718571D02*
X205649999Y-130813809D01*
X205649999Y-130813809D02*
X205649999Y-131337619D01*
X204459524Y-130290000D02*
X205316666Y-131575714D01*
X203697619Y-131337619D02*
X203697619Y-130337619D01*
X203697619Y-131290000D02*
X203792857Y-131337619D01*
X203792857Y-131337619D02*
X203983333Y-131337619D01*
X203983333Y-131337619D02*
X204078571Y-131290000D01*
X204078571Y-131290000D02*
X204126190Y-131242380D01*
X204126190Y-131242380D02*
X204173809Y-131147142D01*
X204173809Y-131147142D02*
X204173809Y-130861428D01*
X204173809Y-130861428D02*
X204126190Y-130766190D01*
X204126190Y-130766190D02*
X204078571Y-130718571D01*
X204078571Y-130718571D02*
X203983333Y-130670952D01*
X203983333Y-130670952D02*
X203792857Y-130670952D01*
X203792857Y-130670952D02*
X203697619Y-130718571D01*
X203078571Y-131337619D02*
X203173809Y-131290000D01*
X203173809Y-131290000D02*
X203221428Y-131242380D01*
X203221428Y-131242380D02*
X203269047Y-131147142D01*
X203269047Y-131147142D02*
X203269047Y-130861428D01*
X203269047Y-130861428D02*
X203221428Y-130766190D01*
X203221428Y-130766190D02*
X203173809Y-130718571D01*
X203173809Y-130718571D02*
X203078571Y-130670952D01*
X203078571Y-130670952D02*
X202935714Y-130670952D01*
X202935714Y-130670952D02*
X202840476Y-130718571D01*
X202840476Y-130718571D02*
X202792857Y-130766190D01*
X202792857Y-130766190D02*
X202745238Y-130861428D01*
X202745238Y-130861428D02*
X202745238Y-131147142D01*
X202745238Y-131147142D02*
X202792857Y-131242380D01*
X202792857Y-131242380D02*
X202840476Y-131290000D01*
X202840476Y-131290000D02*
X202935714Y-131337619D01*
X202935714Y-131337619D02*
X203078571Y-131337619D01*
X201935714Y-131290000D02*
X202030952Y-131337619D01*
X202030952Y-131337619D02*
X202221428Y-131337619D01*
X202221428Y-131337619D02*
X202316666Y-131290000D01*
X202316666Y-131290000D02*
X202364285Y-131194761D01*
X202364285Y-131194761D02*
X202364285Y-130813809D01*
X202364285Y-130813809D02*
X202316666Y-130718571D01*
X202316666Y-130718571D02*
X202221428Y-130670952D01*
X202221428Y-130670952D02*
X202030952Y-130670952D01*
X202030952Y-130670952D02*
X201935714Y-130718571D01*
X201935714Y-130718571D02*
X201888095Y-130813809D01*
X201888095Y-130813809D02*
X201888095Y-130909047D01*
X201888095Y-130909047D02*
X202364285Y-131004285D01*
X201507142Y-131290000D02*
X201411904Y-131337619D01*
X201411904Y-131337619D02*
X201221428Y-131337619D01*
X201221428Y-131337619D02*
X201126190Y-131290000D01*
X201126190Y-131290000D02*
X201078571Y-131194761D01*
X201078571Y-131194761D02*
X201078571Y-131147142D01*
X201078571Y-131147142D02*
X201126190Y-131051904D01*
X201126190Y-131051904D02*
X201221428Y-131004285D01*
X201221428Y-131004285D02*
X201364285Y-131004285D01*
X201364285Y-131004285D02*
X201459523Y-130956666D01*
X201459523Y-130956666D02*
X201507142Y-130861428D01*
X201507142Y-130861428D02*
X201507142Y-130813809D01*
X201507142Y-130813809D02*
X201459523Y-130718571D01*
X201459523Y-130718571D02*
X201364285Y-130670952D01*
X201364285Y-130670952D02*
X201221428Y-130670952D01*
X201221428Y-130670952D02*
X201126190Y-130718571D01*
X200649999Y-130670952D02*
X200649999Y-131337619D01*
X200649999Y-130766190D02*
X200602380Y-130718571D01*
X200602380Y-130718571D02*
X200507142Y-130670952D01*
X200507142Y-130670952D02*
X200364285Y-130670952D01*
X200364285Y-130670952D02*
X200269047Y-130718571D01*
X200269047Y-130718571D02*
X200221428Y-130813809D01*
X200221428Y-130813809D02*
X200221428Y-131337619D01*
X199888094Y-130670952D02*
X199507142Y-130670952D01*
X199745237Y-130337619D02*
X199745237Y-131194761D01*
X199745237Y-131194761D02*
X199697618Y-131290000D01*
X199697618Y-131290000D02*
X199602380Y-131337619D01*
X199602380Y-131337619D02*
X199507142Y-131337619D01*
X199316665Y-130670952D02*
X198935713Y-130670952D01*
X199173808Y-131337619D02*
X199173808Y-130480476D01*
X199173808Y-130480476D02*
X199126189Y-130385238D01*
X199126189Y-130385238D02*
X199030951Y-130337619D01*
X199030951Y-130337619D02*
X198935713Y-130337619D01*
X198173808Y-131337619D02*
X198173808Y-130813809D01*
X198173808Y-130813809D02*
X198221427Y-130718571D01*
X198221427Y-130718571D02*
X198316665Y-130670952D01*
X198316665Y-130670952D02*
X198507141Y-130670952D01*
X198507141Y-130670952D02*
X198602379Y-130718571D01*
X198173808Y-131290000D02*
X198269046Y-131337619D01*
X198269046Y-131337619D02*
X198507141Y-131337619D01*
X198507141Y-131337619D02*
X198602379Y-131290000D01*
X198602379Y-131290000D02*
X198649998Y-131194761D01*
X198649998Y-131194761D02*
X198649998Y-131099523D01*
X198649998Y-131099523D02*
X198602379Y-131004285D01*
X198602379Y-131004285D02*
X198507141Y-130956666D01*
X198507141Y-130956666D02*
X198269046Y-130956666D01*
X198269046Y-130956666D02*
X198173808Y-130909047D01*
X197792855Y-130670952D02*
X197269046Y-130670952D01*
X197269046Y-130670952D02*
X197792855Y-131337619D01*
X197792855Y-131337619D02*
X197269046Y-131337619D01*
X196507141Y-131290000D02*
X196602379Y-131337619D01*
X196602379Y-131337619D02*
X196792855Y-131337619D01*
X196792855Y-131337619D02*
X196888093Y-131290000D01*
X196888093Y-131290000D02*
X196935712Y-131194761D01*
X196935712Y-131194761D02*
X196935712Y-130813809D01*
X196935712Y-130813809D02*
X196888093Y-130718571D01*
X196888093Y-130718571D02*
X196792855Y-130670952D01*
X196792855Y-130670952D02*
X196602379Y-130670952D01*
X196602379Y-130670952D02*
X196507141Y-130718571D01*
X196507141Y-130718571D02*
X196459522Y-130813809D01*
X196459522Y-130813809D02*
X196459522Y-130909047D01*
X196459522Y-130909047D02*
X196935712Y-131004285D01*
X196030950Y-131337619D02*
X196030950Y-130670952D01*
X196030950Y-130861428D02*
X195983331Y-130766190D01*
X195983331Y-130766190D02*
X195935712Y-130718571D01*
X195935712Y-130718571D02*
X195840474Y-130670952D01*
X195840474Y-130670952D02*
X195745236Y-130670952D01*
%TO.C,SW17*%
X224082000Y-118490000D02*
X224082000Y-119490000D01*
X224082000Y-119490000D02*
X224282000Y-119490000D01*
X224082000Y-122090000D02*
X224082000Y-121730000D01*
X224082000Y-122090000D02*
X227362000Y-122090000D01*
D11*
X224182000Y-119389999D02*
X224182000Y-118490000D01*
D10*
X224282000Y-121730000D02*
X224082000Y-121730000D01*
D12*
X224282000Y-121890000D02*
X226982000Y-121890000D01*
D10*
X224312000Y-119490000D02*
X224312000Y-121730000D01*
D13*
X224682000Y-121590000D02*
X224682000Y-119790001D01*
D14*
X225812000Y-118090000D02*
X225812000Y-120330000D01*
D10*
X229582000Y-120190000D02*
X234582000Y-120190000D01*
D15*
X232582000Y-118390000D02*
X225882000Y-118390000D01*
D16*
X233882000Y-117190000D02*
X233882000Y-119690000D01*
D12*
X234282000Y-119890000D02*
X232882000Y-119890000D01*
D10*
X234362000Y-119190000D02*
X234362000Y-116940000D01*
D17*
X234382000Y-116790000D02*
X232982000Y-116790000D01*
D10*
X234382000Y-116940000D02*
X234582000Y-116940000D01*
D17*
X234382000Y-119290000D02*
X234382000Y-119990000D01*
D10*
X234582000Y-116590000D02*
X226181999Y-116590000D01*
X234582000Y-116940000D02*
X234582000Y-116590000D01*
X234582000Y-119190000D02*
X234382000Y-119190000D01*
X234582000Y-120190000D02*
X234582000Y-119190000D01*
X226181999Y-116589999D02*
G75*
G03*
X224082000Y-118490001I-100000J-1999999D01*
G01*
D16*
X229182000Y-119790000D02*
G75*
G03*
X226965682Y-121668529I-65001J-2169999D01*
G01*
D10*
X229582000Y-120190000D02*
G75*
G03*
X227365682Y-122068529I-65001J-2169999D01*
G01*
%TO.C,SW16*%
X205032000Y-113727500D02*
X205032000Y-114727500D01*
X205032000Y-114727500D02*
X205232000Y-114727500D01*
X205032000Y-117327500D02*
X205032000Y-116967500D01*
X205032000Y-117327500D02*
X208312000Y-117327500D01*
D11*
X205132000Y-114627499D02*
X205132000Y-113727500D01*
D10*
X205232000Y-116967500D02*
X205032000Y-116967500D01*
D12*
X205232000Y-117127500D02*
X207932000Y-117127500D01*
D10*
X205262000Y-114727500D02*
X205262000Y-116967500D01*
D13*
X205632000Y-116827500D02*
X205632000Y-115027501D01*
D14*
X206762000Y-113327500D02*
X206762000Y-115567500D01*
D10*
X210532000Y-115427500D02*
X215532000Y-115427500D01*
D15*
X213532000Y-113627500D02*
X206832000Y-113627500D01*
D16*
X214832000Y-112427500D02*
X214832000Y-114927500D01*
D12*
X215232000Y-115127500D02*
X213832000Y-115127500D01*
D10*
X215312000Y-114427500D02*
X215312000Y-112177500D01*
D17*
X215332000Y-112027500D02*
X213932000Y-112027500D01*
D10*
X215332000Y-112177500D02*
X215532000Y-112177500D01*
D17*
X215332000Y-114527500D02*
X215332000Y-115227500D01*
D10*
X215532000Y-111827500D02*
X207131999Y-111827500D01*
X215532000Y-112177500D02*
X215532000Y-111827500D01*
X215532000Y-114427500D02*
X215332000Y-114427500D01*
X215532000Y-115427500D02*
X215532000Y-114427500D01*
X207131999Y-111827499D02*
G75*
G03*
X205032000Y-113727501I-100000J-1999999D01*
G01*
D16*
X210132000Y-115027500D02*
G75*
G03*
X207915682Y-116906029I-65001J-2169999D01*
G01*
D10*
X210532000Y-115427500D02*
G75*
G03*
X208315682Y-117306029I-65001J-2169999D01*
G01*
%TO.C,SW15*%
X224082000Y-85891000D02*
X224082000Y-86891000D01*
X224082000Y-86891000D02*
X224282000Y-86891000D01*
X224082000Y-89491000D02*
X224082000Y-89131000D01*
X224082000Y-89491000D02*
X227362000Y-89491000D01*
D11*
X224182000Y-86790999D02*
X224182000Y-85891000D01*
D10*
X224282000Y-89131000D02*
X224082000Y-89131000D01*
D12*
X224282000Y-89291000D02*
X226982000Y-89291000D01*
D10*
X224312000Y-86891000D02*
X224312000Y-89131000D01*
D13*
X224682000Y-88991000D02*
X224682000Y-87191001D01*
D14*
X225812000Y-85491000D02*
X225812000Y-87731000D01*
D10*
X229582000Y-87591000D02*
X234582000Y-87591000D01*
D15*
X232582000Y-85791000D02*
X225882000Y-85791000D01*
D16*
X233882000Y-84591000D02*
X233882000Y-87091000D01*
D12*
X234282000Y-87291000D02*
X232882000Y-87291000D01*
D10*
X234362000Y-86591000D02*
X234362000Y-84341000D01*
D17*
X234382000Y-84191000D02*
X232982000Y-84191000D01*
D10*
X234382000Y-84341000D02*
X234582000Y-84341000D01*
D17*
X234382000Y-86691000D02*
X234382000Y-87391000D01*
D10*
X234582000Y-83991000D02*
X226181999Y-83991000D01*
X234582000Y-84341000D02*
X234582000Y-83991000D01*
X234582000Y-86591000D02*
X234382000Y-86591000D01*
X234582000Y-87591000D02*
X234582000Y-86591000D01*
X226181999Y-83990999D02*
G75*
G03*
X224082000Y-85891001I-100000J-1999999D01*
G01*
D16*
X229182000Y-87191000D02*
G75*
G03*
X226965682Y-89069529I-65001J-2169999D01*
G01*
D10*
X229582000Y-87591000D02*
G75*
G03*
X227365682Y-89469529I-65001J-2169999D01*
G01*
%TO.C,SW14*%
X205032000Y-81128500D02*
X205032000Y-82128500D01*
X205032000Y-82128500D02*
X205232000Y-82128500D01*
X205032000Y-84728500D02*
X205032000Y-84368500D01*
X205032000Y-84728500D02*
X208312000Y-84728500D01*
D11*
X205132000Y-82028499D02*
X205132000Y-81128500D01*
D10*
X205232000Y-84368500D02*
X205032000Y-84368500D01*
D12*
X205232000Y-84528500D02*
X207932000Y-84528500D01*
D10*
X205262000Y-82128500D02*
X205262000Y-84368500D01*
D13*
X205632000Y-84228500D02*
X205632000Y-82428501D01*
D14*
X206762000Y-80728500D02*
X206762000Y-82968500D01*
D10*
X210532000Y-82828500D02*
X215532000Y-82828500D01*
D15*
X213532000Y-81028500D02*
X206832000Y-81028500D01*
D16*
X214832000Y-79828500D02*
X214832000Y-82328500D01*
D12*
X215232000Y-82528500D02*
X213832000Y-82528500D01*
D10*
X215312000Y-81828500D02*
X215312000Y-79578500D01*
D17*
X215332000Y-79428500D02*
X213932000Y-79428500D01*
D10*
X215332000Y-79578500D02*
X215532000Y-79578500D01*
D17*
X215332000Y-81928500D02*
X215332000Y-82628500D01*
D10*
X215532000Y-79228500D02*
X207131999Y-79228500D01*
X215532000Y-79578500D02*
X215532000Y-79228500D01*
X215532000Y-81828500D02*
X215332000Y-81828500D01*
X215532000Y-82828500D02*
X215532000Y-81828500D01*
X207131999Y-79228499D02*
G75*
G03*
X205032000Y-81128501I-100000J-1999999D01*
G01*
D16*
X210132000Y-82428500D02*
G75*
G03*
X207915682Y-84307029I-65001J-2169999D01*
G01*
D10*
X210532000Y-82828500D02*
G75*
G03*
X208315682Y-84707029I-65001J-2169999D01*
G01*
%TO.C,SW13*%
X185982000Y-76366000D02*
X185982000Y-77366000D01*
X185982000Y-77366000D02*
X186182000Y-77366000D01*
X185982000Y-79966000D02*
X185982000Y-79606000D01*
X185982000Y-79966000D02*
X189262000Y-79966000D01*
D11*
X186082000Y-77265999D02*
X186082000Y-76366000D01*
D10*
X186182000Y-79606000D02*
X185982000Y-79606000D01*
D12*
X186182000Y-79766000D02*
X188882000Y-79766000D01*
D10*
X186212000Y-77366000D02*
X186212000Y-79606000D01*
D13*
X186582000Y-79466000D02*
X186582000Y-77666001D01*
D14*
X187712000Y-75966000D02*
X187712000Y-78206000D01*
D10*
X191482000Y-78066000D02*
X196482000Y-78066000D01*
D15*
X194482000Y-76266000D02*
X187782000Y-76266000D01*
D16*
X195782000Y-75066000D02*
X195782000Y-77566000D01*
D12*
X196182000Y-77766000D02*
X194782000Y-77766000D01*
D10*
X196262000Y-77066000D02*
X196262000Y-74816000D01*
D17*
X196282000Y-74666000D02*
X194882000Y-74666000D01*
D10*
X196282000Y-74816000D02*
X196482000Y-74816000D01*
D17*
X196282000Y-77166000D02*
X196282000Y-77866000D01*
D10*
X196482000Y-74466000D02*
X188081999Y-74466000D01*
X196482000Y-74816000D02*
X196482000Y-74466000D01*
X196482000Y-77066000D02*
X196282000Y-77066000D01*
X196482000Y-78066000D02*
X196482000Y-77066000D01*
X188081999Y-74465999D02*
G75*
G03*
X185982000Y-76366001I-100000J-1999999D01*
G01*
D16*
X191082000Y-77666000D02*
G75*
G03*
X188865682Y-79544529I-65001J-2169999D01*
G01*
D10*
X191482000Y-78066000D02*
G75*
G03*
X189265682Y-79944529I-65001J-2169999D01*
G01*
%TO.C,SW12*%
X166932000Y-81128500D02*
X166932000Y-82128500D01*
X166932000Y-82128500D02*
X167132000Y-82128500D01*
X166932000Y-84728500D02*
X166932000Y-84368500D01*
X166932000Y-84728500D02*
X170212000Y-84728500D01*
D11*
X167032000Y-82028499D02*
X167032000Y-81128500D01*
D10*
X167132000Y-84368500D02*
X166932000Y-84368500D01*
D12*
X167132000Y-84528500D02*
X169832000Y-84528500D01*
D10*
X167162000Y-82128500D02*
X167162000Y-84368500D01*
D13*
X167532000Y-84228500D02*
X167532000Y-82428501D01*
D14*
X168662000Y-80728500D02*
X168662000Y-82968500D01*
D10*
X172432000Y-82828500D02*
X177432000Y-82828500D01*
D15*
X175432000Y-81028500D02*
X168732000Y-81028500D01*
D16*
X176732000Y-79828500D02*
X176732000Y-82328500D01*
D12*
X177132000Y-82528500D02*
X175732000Y-82528500D01*
D10*
X177212000Y-81828500D02*
X177212000Y-79578500D01*
D17*
X177232000Y-79428500D02*
X175832000Y-79428500D01*
D10*
X177232000Y-79578500D02*
X177432000Y-79578500D01*
D17*
X177232000Y-81928500D02*
X177232000Y-82628500D01*
D10*
X177432000Y-79228500D02*
X169031999Y-79228500D01*
X177432000Y-79578500D02*
X177432000Y-79228500D01*
X177432000Y-81828500D02*
X177232000Y-81828500D01*
X177432000Y-82828500D02*
X177432000Y-81828500D01*
X169031999Y-79228499D02*
G75*
G03*
X166932000Y-81128501I-100000J-1999999D01*
G01*
D16*
X172032000Y-82428500D02*
G75*
G03*
X169815682Y-84307029I-65001J-2169999D01*
G01*
D10*
X172432000Y-82828500D02*
G75*
G03*
X170215682Y-84707029I-65001J-2169999D01*
G01*
%TO.C,SW11*%
X147882000Y-95416000D02*
X147882000Y-96416000D01*
X147882000Y-96416000D02*
X148082000Y-96416000D01*
X147882000Y-99016000D02*
X147882000Y-98656000D01*
X147882000Y-99016000D02*
X151162000Y-99016000D01*
D11*
X147982000Y-96315999D02*
X147982000Y-95416000D01*
D10*
X148082000Y-98656000D02*
X147882000Y-98656000D01*
D12*
X148082000Y-98816000D02*
X150782000Y-98816000D01*
D10*
X148112000Y-96416000D02*
X148112000Y-98656000D01*
D13*
X148482000Y-98516000D02*
X148482000Y-96716001D01*
D14*
X149612000Y-95016000D02*
X149612000Y-97256000D01*
D10*
X153382000Y-97116000D02*
X158382000Y-97116000D01*
D15*
X156382000Y-95316000D02*
X149682000Y-95316000D01*
D16*
X157682000Y-94116000D02*
X157682000Y-96616000D01*
D12*
X158082000Y-96816000D02*
X156682000Y-96816000D01*
D10*
X158162000Y-96116000D02*
X158162000Y-93866000D01*
D17*
X158182000Y-93716000D02*
X156782000Y-93716000D01*
D10*
X158182000Y-93866000D02*
X158382000Y-93866000D01*
D17*
X158182000Y-96216000D02*
X158182000Y-96916000D01*
D10*
X158382000Y-93516000D02*
X149981999Y-93516000D01*
X158382000Y-93866000D02*
X158382000Y-93516000D01*
X158382000Y-96116000D02*
X158182000Y-96116000D01*
X158382000Y-97116000D02*
X158382000Y-96116000D01*
X149981999Y-93515999D02*
G75*
G03*
X147882000Y-95416001I-100000J-1999999D01*
G01*
D16*
X152982000Y-96716000D02*
G75*
G03*
X150765682Y-98594529I-65001J-2169999D01*
G01*
D10*
X153382000Y-97116000D02*
G75*
G03*
X151165682Y-98994529I-65001J-2169999D01*
G01*
%TO.C,SW10*%
X224082000Y-66841000D02*
X224082000Y-67841000D01*
X224082000Y-67841000D02*
X224282000Y-67841000D01*
X224082000Y-70441000D02*
X224082000Y-70081000D01*
X224082000Y-70441000D02*
X227362000Y-70441000D01*
D11*
X224182000Y-67740999D02*
X224182000Y-66841000D01*
D10*
X224282000Y-70081000D02*
X224082000Y-70081000D01*
D12*
X224282000Y-70241000D02*
X226982000Y-70241000D01*
D10*
X224312000Y-67841000D02*
X224312000Y-70081000D01*
D13*
X224682000Y-69941000D02*
X224682000Y-68141001D01*
D14*
X225812000Y-66441000D02*
X225812000Y-68681000D01*
D10*
X229582000Y-68541000D02*
X234582000Y-68541000D01*
D15*
X232582000Y-66741000D02*
X225882000Y-66741000D01*
D16*
X233882000Y-65541000D02*
X233882000Y-68041000D01*
D12*
X234282000Y-68241000D02*
X232882000Y-68241000D01*
D10*
X234362000Y-67541000D02*
X234362000Y-65291000D01*
D17*
X234382000Y-65141000D02*
X232982000Y-65141000D01*
D10*
X234382000Y-65291000D02*
X234582000Y-65291000D01*
D17*
X234382000Y-67641000D02*
X234382000Y-68341000D01*
D10*
X234582000Y-64941000D02*
X226181999Y-64941000D01*
X234582000Y-65291000D02*
X234582000Y-64941000D01*
X234582000Y-67541000D02*
X234382000Y-67541000D01*
X234582000Y-68541000D02*
X234582000Y-67541000D01*
X226181999Y-64940999D02*
G75*
G03*
X224082000Y-66841001I-100000J-1999999D01*
G01*
D16*
X229182000Y-68141000D02*
G75*
G03*
X226965682Y-70019529I-65001J-2169999D01*
G01*
D10*
X229582000Y-68541000D02*
G75*
G03*
X227365682Y-70419529I-65001J-2169999D01*
G01*
%TO.C,SW9*%
X205032000Y-62078500D02*
X205032000Y-63078500D01*
X205032000Y-63078500D02*
X205232000Y-63078500D01*
X205032000Y-65678500D02*
X205032000Y-65318500D01*
X205032000Y-65678500D02*
X208312000Y-65678500D01*
D11*
X205132000Y-62978499D02*
X205132000Y-62078500D01*
D10*
X205232000Y-65318500D02*
X205032000Y-65318500D01*
D12*
X205232000Y-65478500D02*
X207932000Y-65478500D01*
D10*
X205262000Y-63078500D02*
X205262000Y-65318500D01*
D13*
X205632000Y-65178500D02*
X205632000Y-63378501D01*
D14*
X206762000Y-61678500D02*
X206762000Y-63918500D01*
D10*
X210532000Y-63778500D02*
X215532000Y-63778500D01*
D15*
X213532000Y-61978500D02*
X206832000Y-61978500D01*
D16*
X214832000Y-60778500D02*
X214832000Y-63278500D01*
D12*
X215232000Y-63478500D02*
X213832000Y-63478500D01*
D10*
X215312000Y-62778500D02*
X215312000Y-60528500D01*
D17*
X215332000Y-60378500D02*
X213932000Y-60378500D01*
D10*
X215332000Y-60528500D02*
X215532000Y-60528500D01*
D17*
X215332000Y-62878500D02*
X215332000Y-63578500D01*
D10*
X215532000Y-60178500D02*
X207131999Y-60178500D01*
X215532000Y-60528500D02*
X215532000Y-60178500D01*
X215532000Y-62778500D02*
X215332000Y-62778500D01*
X215532000Y-63778500D02*
X215532000Y-62778500D01*
X207131999Y-60178499D02*
G75*
G03*
X205032000Y-62078501I-100000J-1999999D01*
G01*
D16*
X210132000Y-63378500D02*
G75*
G03*
X207915682Y-65257029I-65001J-2169999D01*
G01*
D10*
X210532000Y-63778500D02*
G75*
G03*
X208315682Y-65657029I-65001J-2169999D01*
G01*
%TO.C,SW8*%
X185982000Y-57316000D02*
X185982000Y-58316000D01*
X185982000Y-58316000D02*
X186182000Y-58316000D01*
X185982000Y-60916000D02*
X185982000Y-60556000D01*
X185982000Y-60916000D02*
X189262000Y-60916000D01*
D11*
X186082000Y-58215999D02*
X186082000Y-57316000D01*
D10*
X186182000Y-60556000D02*
X185982000Y-60556000D01*
D12*
X186182000Y-60716000D02*
X188882000Y-60716000D01*
D10*
X186212000Y-58316000D02*
X186212000Y-60556000D01*
D13*
X186582000Y-60416000D02*
X186582000Y-58616001D01*
D14*
X187712000Y-56916000D02*
X187712000Y-59156000D01*
D10*
X191482000Y-59016000D02*
X196482000Y-59016000D01*
D15*
X194482000Y-57216000D02*
X187782000Y-57216000D01*
D16*
X195782000Y-56016000D02*
X195782000Y-58516000D01*
D12*
X196182000Y-58716000D02*
X194782000Y-58716000D01*
D10*
X196262000Y-58016000D02*
X196262000Y-55766000D01*
D17*
X196282000Y-55616000D02*
X194882000Y-55616000D01*
D10*
X196282000Y-55766000D02*
X196482000Y-55766000D01*
D17*
X196282000Y-58116000D02*
X196282000Y-58816000D01*
D10*
X196482000Y-55416000D02*
X188081999Y-55416000D01*
X196482000Y-55766000D02*
X196482000Y-55416000D01*
X196482000Y-58016000D02*
X196282000Y-58016000D01*
X196482000Y-59016000D02*
X196482000Y-58016000D01*
X188081999Y-55415999D02*
G75*
G03*
X185982000Y-57316001I-100000J-1999999D01*
G01*
D16*
X191082000Y-58616000D02*
G75*
G03*
X188865682Y-60494529I-65001J-2169999D01*
G01*
D10*
X191482000Y-59016000D02*
G75*
G03*
X189265682Y-60894529I-65001J-2169999D01*
G01*
%TO.C,SW7*%
X166932000Y-62078500D02*
X166932000Y-63078500D01*
X166932000Y-63078500D02*
X167132000Y-63078500D01*
X166932000Y-65678500D02*
X166932000Y-65318500D01*
X166932000Y-65678500D02*
X170212000Y-65678500D01*
D11*
X167032000Y-62978499D02*
X167032000Y-62078500D01*
D10*
X167132000Y-65318500D02*
X166932000Y-65318500D01*
D12*
X167132000Y-65478500D02*
X169832000Y-65478500D01*
D10*
X167162000Y-63078500D02*
X167162000Y-65318500D01*
D13*
X167532000Y-65178500D02*
X167532000Y-63378501D01*
D14*
X168662000Y-61678500D02*
X168662000Y-63918500D01*
D10*
X172432000Y-63778500D02*
X177432000Y-63778500D01*
D15*
X175432000Y-61978500D02*
X168732000Y-61978500D01*
D16*
X176732000Y-60778500D02*
X176732000Y-63278500D01*
D12*
X177132000Y-63478500D02*
X175732000Y-63478500D01*
D10*
X177212000Y-62778500D02*
X177212000Y-60528500D01*
D17*
X177232000Y-60378500D02*
X175832000Y-60378500D01*
D10*
X177232000Y-60528500D02*
X177432000Y-60528500D01*
D17*
X177232000Y-62878500D02*
X177232000Y-63578500D01*
D10*
X177432000Y-60178500D02*
X169031999Y-60178500D01*
X177432000Y-60528500D02*
X177432000Y-60178500D01*
X177432000Y-62778500D02*
X177232000Y-62778500D01*
X177432000Y-63778500D02*
X177432000Y-62778500D01*
X169031999Y-60178499D02*
G75*
G03*
X166932000Y-62078501I-100000J-1999999D01*
G01*
D16*
X172032000Y-63378500D02*
G75*
G03*
X169815682Y-65257029I-65001J-2169999D01*
G01*
D10*
X172432000Y-63778500D02*
G75*
G03*
X170215682Y-65657029I-65001J-2169999D01*
G01*
%TO.C,SW6*%
X147882000Y-76366000D02*
X147882000Y-77366000D01*
X147882000Y-77366000D02*
X148082000Y-77366000D01*
X147882000Y-79966000D02*
X147882000Y-79606000D01*
X147882000Y-79966000D02*
X151162000Y-79966000D01*
D11*
X147982000Y-77265999D02*
X147982000Y-76366000D01*
D10*
X148082000Y-79606000D02*
X147882000Y-79606000D01*
D12*
X148082000Y-79766000D02*
X150782000Y-79766000D01*
D10*
X148112000Y-77366000D02*
X148112000Y-79606000D01*
D13*
X148482000Y-79466000D02*
X148482000Y-77666001D01*
D14*
X149612000Y-75966000D02*
X149612000Y-78206000D01*
D10*
X153382000Y-78066000D02*
X158382000Y-78066000D01*
D15*
X156382000Y-76266000D02*
X149682000Y-76266000D01*
D16*
X157682000Y-75066000D02*
X157682000Y-77566000D01*
D12*
X158082000Y-77766000D02*
X156682000Y-77766000D01*
D10*
X158162000Y-77066000D02*
X158162000Y-74816000D01*
D17*
X158182000Y-74666000D02*
X156782000Y-74666000D01*
D10*
X158182000Y-74816000D02*
X158382000Y-74816000D01*
D17*
X158182000Y-77166000D02*
X158182000Y-77866000D01*
D10*
X158382000Y-74466000D02*
X149981999Y-74466000D01*
X158382000Y-74816000D02*
X158382000Y-74466000D01*
X158382000Y-77066000D02*
X158182000Y-77066000D01*
X158382000Y-78066000D02*
X158382000Y-77066000D01*
X149981999Y-74465999D02*
G75*
G03*
X147882000Y-76366001I-100000J-1999999D01*
G01*
D16*
X152982000Y-77666000D02*
G75*
G03*
X150765682Y-79544529I-65001J-2169999D01*
G01*
D10*
X153382000Y-78066000D02*
G75*
G03*
X151165682Y-79944529I-65001J-2169999D01*
G01*
%TO.C,SW5*%
X229582000Y-49491000D02*
G75*
G03*
X227365682Y-51369529I-65001J-2169999D01*
G01*
D16*
X229182000Y-49091000D02*
G75*
G03*
X226965682Y-50969529I-65001J-2169999D01*
G01*
D10*
X226181999Y-45890999D02*
G75*
G03*
X224082000Y-47791001I-100000J-1999999D01*
G01*
X234582000Y-49491000D02*
X234582000Y-48491000D01*
X234582000Y-48491000D02*
X234382000Y-48491000D01*
X234582000Y-46241000D02*
X234582000Y-45891000D01*
X234582000Y-45891000D02*
X226181999Y-45891000D01*
D17*
X234382000Y-48591000D02*
X234382000Y-49291000D01*
D10*
X234382000Y-46241000D02*
X234582000Y-46241000D01*
D17*
X234382000Y-46091000D02*
X232982000Y-46091000D01*
D10*
X234362000Y-48491000D02*
X234362000Y-46241000D01*
D12*
X234282000Y-49191000D02*
X232882000Y-49191000D01*
D16*
X233882000Y-46491000D02*
X233882000Y-48991000D01*
D15*
X232582000Y-47691000D02*
X225882000Y-47691000D01*
D10*
X229582000Y-49491000D02*
X234582000Y-49491000D01*
D14*
X225812000Y-47391000D02*
X225812000Y-49631000D01*
D13*
X224682000Y-50891000D02*
X224682000Y-49091001D01*
D10*
X224312000Y-48791000D02*
X224312000Y-51031000D01*
D12*
X224282000Y-51191000D02*
X226982000Y-51191000D01*
D10*
X224282000Y-51031000D02*
X224082000Y-51031000D01*
D11*
X224182000Y-48690999D02*
X224182000Y-47791000D01*
D10*
X224082000Y-51391000D02*
X227362000Y-51391000D01*
X224082000Y-51391000D02*
X224082000Y-51031000D01*
X224082000Y-48791000D02*
X224282000Y-48791000D01*
X224082000Y-47791000D02*
X224082000Y-48791000D01*
%TO.C,SW4*%
X205032000Y-43028500D02*
X205032000Y-44028500D01*
X205032000Y-44028500D02*
X205232000Y-44028500D01*
X205032000Y-46628500D02*
X205032000Y-46268500D01*
X205032000Y-46628500D02*
X208312000Y-46628500D01*
D11*
X205132000Y-43928499D02*
X205132000Y-43028500D01*
D10*
X205232000Y-46268500D02*
X205032000Y-46268500D01*
D12*
X205232000Y-46428500D02*
X207932000Y-46428500D01*
D10*
X205262000Y-44028500D02*
X205262000Y-46268500D01*
D13*
X205632000Y-46128500D02*
X205632000Y-44328501D01*
D14*
X206762000Y-42628500D02*
X206762000Y-44868500D01*
D10*
X210532000Y-44728500D02*
X215532000Y-44728500D01*
D15*
X213532000Y-42928500D02*
X206832000Y-42928500D01*
D16*
X214832000Y-41728500D02*
X214832000Y-44228500D01*
D12*
X215232000Y-44428500D02*
X213832000Y-44428500D01*
D10*
X215312000Y-43728500D02*
X215312000Y-41478500D01*
D17*
X215332000Y-41328500D02*
X213932000Y-41328500D01*
D10*
X215332000Y-41478500D02*
X215532000Y-41478500D01*
D17*
X215332000Y-43828500D02*
X215332000Y-44528500D01*
D10*
X215532000Y-41128500D02*
X207131999Y-41128500D01*
X215532000Y-41478500D02*
X215532000Y-41128500D01*
X215532000Y-43728500D02*
X215332000Y-43728500D01*
X215532000Y-44728500D02*
X215532000Y-43728500D01*
X207131999Y-41128499D02*
G75*
G03*
X205032000Y-43028501I-100000J-1999999D01*
G01*
D16*
X210132000Y-44328500D02*
G75*
G03*
X207915682Y-46207029I-65001J-2169999D01*
G01*
D10*
X210532000Y-44728500D02*
G75*
G03*
X208315682Y-46607029I-65001J-2169999D01*
G01*
%TO.C,SW3*%
X185982000Y-38266000D02*
X185982000Y-39266000D01*
X185982000Y-39266000D02*
X186182000Y-39266000D01*
X185982000Y-41866000D02*
X185982000Y-41506000D01*
X185982000Y-41866000D02*
X189262000Y-41866000D01*
D11*
X186082000Y-39165999D02*
X186082000Y-38266000D01*
D10*
X186182000Y-41506000D02*
X185982000Y-41506000D01*
D12*
X186182000Y-41666000D02*
X188882000Y-41666000D01*
D10*
X186212000Y-39266000D02*
X186212000Y-41506000D01*
D13*
X186582000Y-41366000D02*
X186582000Y-39566001D01*
D14*
X187712000Y-37866000D02*
X187712000Y-40106000D01*
D10*
X191482000Y-39966000D02*
X196482000Y-39966000D01*
D15*
X194482000Y-38166000D02*
X187782000Y-38166000D01*
D16*
X195782000Y-36966000D02*
X195782000Y-39466000D01*
D12*
X196182000Y-39666000D02*
X194782000Y-39666000D01*
D10*
X196262000Y-38966000D02*
X196262000Y-36716000D01*
D17*
X196282000Y-36566000D02*
X194882000Y-36566000D01*
D10*
X196282000Y-36716000D02*
X196482000Y-36716000D01*
D17*
X196282000Y-39066000D02*
X196282000Y-39766000D01*
D10*
X196482000Y-36366000D02*
X188081999Y-36366000D01*
X196482000Y-36716000D02*
X196482000Y-36366000D01*
X196482000Y-38966000D02*
X196282000Y-38966000D01*
X196482000Y-39966000D02*
X196482000Y-38966000D01*
X188081999Y-36365999D02*
G75*
G03*
X185982000Y-38266001I-100000J-1999999D01*
G01*
D16*
X191082000Y-39566000D02*
G75*
G03*
X188865682Y-41444529I-65001J-2169999D01*
G01*
D10*
X191482000Y-39966000D02*
G75*
G03*
X189265682Y-41844529I-65001J-2169999D01*
G01*
%TO.C,SW2*%
X166932000Y-43028500D02*
X166932000Y-44028500D01*
X166932000Y-44028500D02*
X167132000Y-44028500D01*
X166932000Y-46628500D02*
X166932000Y-46268500D01*
X166932000Y-46628500D02*
X170212000Y-46628500D01*
D11*
X167032000Y-43928499D02*
X167032000Y-43028500D01*
D10*
X167132000Y-46268500D02*
X166932000Y-46268500D01*
D12*
X167132000Y-46428500D02*
X169832000Y-46428500D01*
D10*
X167162000Y-44028500D02*
X167162000Y-46268500D01*
D13*
X167532000Y-46128500D02*
X167532000Y-44328501D01*
D14*
X168662000Y-42628500D02*
X168662000Y-44868500D01*
D10*
X172432000Y-44728500D02*
X177432000Y-44728500D01*
D15*
X175432000Y-42928500D02*
X168732000Y-42928500D01*
D16*
X176732000Y-41728500D02*
X176732000Y-44228500D01*
D12*
X177132000Y-44428500D02*
X175732000Y-44428500D01*
D10*
X177212000Y-43728500D02*
X177212000Y-41478500D01*
D17*
X177232000Y-41328500D02*
X175832000Y-41328500D01*
D10*
X177232000Y-41478500D02*
X177432000Y-41478500D01*
D17*
X177232000Y-43828500D02*
X177232000Y-44528500D01*
D10*
X177432000Y-41128500D02*
X169031999Y-41128500D01*
X177432000Y-41478500D02*
X177432000Y-41128500D01*
X177432000Y-43728500D02*
X177232000Y-43728500D01*
X177432000Y-44728500D02*
X177432000Y-43728500D01*
X169031999Y-41128499D02*
G75*
G03*
X166932000Y-43028501I-100000J-1999999D01*
G01*
D16*
X172032000Y-44328500D02*
G75*
G03*
X169815682Y-46207029I-65001J-2169999D01*
G01*
D10*
X172432000Y-44728500D02*
G75*
G03*
X170215682Y-46607029I-65001J-2169999D01*
G01*
%TO.C,SW1*%
X147882000Y-57316000D02*
X147882000Y-58316000D01*
X147882000Y-58316000D02*
X148082000Y-58316000D01*
X147882000Y-60916000D02*
X147882000Y-60556000D01*
X147882000Y-60916000D02*
X151162000Y-60916000D01*
D11*
X147982000Y-58215999D02*
X147982000Y-57316000D01*
D10*
X148082000Y-60556000D02*
X147882000Y-60556000D01*
D12*
X148082000Y-60716000D02*
X150782000Y-60716000D01*
D10*
X148112000Y-58316000D02*
X148112000Y-60556000D01*
D13*
X148482000Y-60416000D02*
X148482000Y-58616001D01*
D14*
X149612000Y-56916000D02*
X149612000Y-59156000D01*
D10*
X153382000Y-59016000D02*
X158382000Y-59016000D01*
D15*
X156382000Y-57216000D02*
X149682000Y-57216000D01*
D16*
X157682000Y-56016000D02*
X157682000Y-58516000D01*
D12*
X158082000Y-58716000D02*
X156682000Y-58716000D01*
D10*
X158162000Y-58016000D02*
X158162000Y-55766000D01*
D17*
X158182000Y-55616000D02*
X156782000Y-55616000D01*
D10*
X158182000Y-55766000D02*
X158382000Y-55766000D01*
D17*
X158182000Y-58116000D02*
X158182000Y-58816000D01*
D10*
X158382000Y-55416000D02*
X149981999Y-55416000D01*
X158382000Y-55766000D02*
X158382000Y-55416000D01*
X158382000Y-58016000D02*
X158182000Y-58016000D01*
X158382000Y-59016000D02*
X158382000Y-58016000D01*
X149981999Y-55415999D02*
G75*
G03*
X147882000Y-57316001I-100000J-1999999D01*
G01*
D16*
X152982000Y-58616000D02*
G75*
G03*
X150765682Y-60494529I-65001J-2169999D01*
G01*
D10*
X153382000Y-59016000D02*
G75*
G03*
X151165682Y-60894529I-65001J-2169999D01*
G01*
%TO.C,U2*%
X239500000Y-101870000D02*
X227400000Y-101870000D01*
X239500000Y-101870000D02*
X239500000Y-107970000D01*
X227400000Y-101870000D02*
X227400000Y-107970000D01*
X241500000Y-102120000D02*
X241500000Y-107720000D01*
X239500000Y-102120000D02*
X241500000Y-102120000D01*
X239500000Y-107720000D02*
X241500000Y-107720000D01*
X239500000Y-107970000D02*
X227400000Y-107970000D01*
%TD*%
M02*
