M48
; DRILL file {KiCad 7.0.1} date Tue Sep 26 17:53:06 2023
; FORMAT={-:-/ absolute / metric / decimal}
; #@! TF.CreationDate,2023-09-26T17:53:06-04:00
; #@! TF.GenerationSoftware,Kicad,Pcbnew,7.0.1
; #@! TF.FileFunction,NonPlated,1,2,NPTH
FMAT,2
METRIC
; #@! TA.AperFunction,NonPlated,NPTH,ComponentDrill
T1C0.800
; #@! TA.AperFunction,NonPlated,NPTH,ComponentDrill
T2C1.700
; #@! TA.AperFunction,NonPlated,NPTH,ComponentDrill
T3C1.900
; #@! TA.AperFunction,NonPlated,NPTH,ComponentDrill
T4C3.000
; #@! TA.AperFunction,NonPlated,NPTH,ComponentDrill
T5C4.100
%
G90
G05
T1
X230.9Y-104.92
X230.9Y-107.02
X237.9Y-104.92
X237.9Y-107.02
T2
X149.282Y-62.016
X149.282Y-81.066
X149.282Y-100.116
X158.282Y-62.016
X158.282Y-81.066
X158.282Y-100.116
X168.332Y-47.728
X168.332Y-66.778
X168.332Y-85.828
X177.332Y-47.728
X177.332Y-66.778
X177.332Y-85.828
X187.382Y-42.966
X187.382Y-62.016
X187.382Y-81.066
X196.382Y-42.966
X196.382Y-62.016
X196.382Y-81.066
X206.432Y-47.728
X206.432Y-66.778
X206.432Y-85.828
X206.432Y-118.427
X215.432Y-47.728
X215.432Y-66.778
X215.432Y-85.828
X215.432Y-118.427
X225.482Y-52.491
X225.482Y-71.541
X225.482Y-90.591
X225.482Y-123.19
X234.482Y-52.491
X234.482Y-71.541
X234.482Y-90.591
X234.482Y-123.19
T3
X148.702Y-62.016
X148.702Y-81.066
X148.702Y-100.116
X158.862Y-62.016
X158.862Y-81.066
X158.862Y-100.116
X167.752Y-47.728
X167.752Y-66.778
X167.752Y-85.828
X177.912Y-47.728
X177.912Y-66.778
X177.912Y-85.828
X186.802Y-42.966
X186.802Y-62.016
X186.802Y-81.066
X196.962Y-42.966
X196.962Y-62.016
X196.962Y-81.066
X205.852Y-47.728
X205.852Y-66.778
X205.852Y-85.828
X205.852Y-118.427
X216.012Y-47.728
X216.012Y-66.778
X216.012Y-85.828
X216.012Y-118.427
X224.902Y-52.491
X224.902Y-71.541
X224.902Y-90.591
X224.902Y-123.19
X235.062Y-52.491
X235.062Y-71.541
X235.062Y-90.591
X235.062Y-123.19
T4
X149.972Y-59.476
X149.972Y-78.526
X149.972Y-97.576
X151.242Y-56.936
X151.242Y-75.986
X151.242Y-95.036
X156.322Y-56.936
X156.322Y-75.986
X156.322Y-95.036
X157.592Y-59.476
X157.592Y-78.526
X157.592Y-97.576
X169.022Y-45.188
X169.022Y-64.239
X169.022Y-83.288
X170.292Y-42.648
X170.292Y-61.698
X170.292Y-80.748
X175.372Y-42.648
X175.372Y-61.698
X175.372Y-80.748
X176.642Y-45.188
X176.642Y-64.238
X176.642Y-83.288
X188.072Y-40.426
X188.072Y-59.476
X188.072Y-78.526
X189.342Y-37.886
X189.342Y-56.936
X189.342Y-75.986
X194.422Y-37.886
X194.422Y-56.936
X194.422Y-75.986
X195.692Y-40.426
X195.692Y-59.476
X195.692Y-78.526
X207.122Y-45.188
X207.122Y-64.239
X207.122Y-83.288
X207.122Y-115.887
X208.392Y-42.648
X208.392Y-61.698
X208.392Y-80.748
X208.392Y-113.347
X213.472Y-42.648
X213.472Y-61.698
X213.472Y-80.748
X213.472Y-113.347
X214.742Y-45.188
X214.742Y-64.238
X214.742Y-83.288
X214.742Y-115.887
X226.172Y-49.951
X226.172Y-69.001
X226.172Y-88.051
X226.172Y-120.65
X227.442Y-47.411
X227.442Y-66.461
X227.442Y-85.511
X227.442Y-118.11
X232.522Y-47.411
X232.522Y-66.461
X232.522Y-85.511
X232.522Y-118.11
X233.792Y-49.951
X233.792Y-69.001
X233.792Y-88.051
X233.792Y-120.65
T5
X153.782Y-62.016
X153.782Y-81.066
X153.782Y-100.116
X172.832Y-47.728
X172.832Y-66.778
X172.832Y-85.828
X191.882Y-42.966
X191.882Y-62.016
X191.882Y-81.066
X210.932Y-47.728
X210.932Y-66.778
X210.932Y-85.828
X210.932Y-118.427
X229.982Y-52.491
X229.982Y-71.541
X229.982Y-90.591
X229.982Y-123.19
T0
M30
