%TF.GenerationSoftware,KiCad,Pcbnew,7.0.1*%
%TF.CreationDate,2023-09-26T17:53:04-04:00*%
%TF.ProjectId,under1hundo,756e6465-7231-4687-956e-646f2e6b6963,rev?*%
%TF.SameCoordinates,Original*%
%TF.FileFunction,Legend,Top*%
%TF.FilePolarity,Positive*%
%FSLAX46Y46*%
G04 Gerber Fmt 4.6, Leading zero omitted, Abs format (unit mm)*
G04 Created by KiCad (PCBNEW 7.0.1) date 2023-09-26 17:53:04*
%MOMM*%
%LPD*%
G01*
G04 APERTURE LIST*
%ADD10C,0.150000*%
%ADD11C,0.400000*%
%ADD12C,0.500000*%
%ADD13C,1.000000*%
%ADD14C,3.500000*%
%ADD15C,3.000000*%
%ADD16C,0.800000*%
%ADD17C,0.300000*%
G04 APERTURE END LIST*
D10*
X228846666Y-131270952D02*
X228846666Y-131937619D01*
X228418095Y-131270952D02*
X228418095Y-131794761D01*
X228418095Y-131794761D02*
X228465714Y-131890000D01*
X228465714Y-131890000D02*
X228560952Y-131937619D01*
X228560952Y-131937619D02*
X228703809Y-131937619D01*
X228703809Y-131937619D02*
X228799047Y-131890000D01*
X228799047Y-131890000D02*
X228846666Y-131842380D01*
X229322857Y-131270952D02*
X229322857Y-131937619D01*
X229322857Y-131366190D02*
X229370476Y-131318571D01*
X229370476Y-131318571D02*
X229465714Y-131270952D01*
X229465714Y-131270952D02*
X229608571Y-131270952D01*
X229608571Y-131270952D02*
X229703809Y-131318571D01*
X229703809Y-131318571D02*
X229751428Y-131413809D01*
X229751428Y-131413809D02*
X229751428Y-131937619D01*
X230656190Y-131937619D02*
X230656190Y-130937619D01*
X230656190Y-131890000D02*
X230560952Y-131937619D01*
X230560952Y-131937619D02*
X230370476Y-131937619D01*
X230370476Y-131937619D02*
X230275238Y-131890000D01*
X230275238Y-131890000D02*
X230227619Y-131842380D01*
X230227619Y-131842380D02*
X230180000Y-131747142D01*
X230180000Y-131747142D02*
X230180000Y-131461428D01*
X230180000Y-131461428D02*
X230227619Y-131366190D01*
X230227619Y-131366190D02*
X230275238Y-131318571D01*
X230275238Y-131318571D02*
X230370476Y-131270952D01*
X230370476Y-131270952D02*
X230560952Y-131270952D01*
X230560952Y-131270952D02*
X230656190Y-131318571D01*
X231513333Y-131890000D02*
X231418095Y-131937619D01*
X231418095Y-131937619D02*
X231227619Y-131937619D01*
X231227619Y-131937619D02*
X231132381Y-131890000D01*
X231132381Y-131890000D02*
X231084762Y-131794761D01*
X231084762Y-131794761D02*
X231084762Y-131413809D01*
X231084762Y-131413809D02*
X231132381Y-131318571D01*
X231132381Y-131318571D02*
X231227619Y-131270952D01*
X231227619Y-131270952D02*
X231418095Y-131270952D01*
X231418095Y-131270952D02*
X231513333Y-131318571D01*
X231513333Y-131318571D02*
X231560952Y-131413809D01*
X231560952Y-131413809D02*
X231560952Y-131509047D01*
X231560952Y-131509047D02*
X231084762Y-131604285D01*
X231989524Y-131937619D02*
X231989524Y-131270952D01*
X231989524Y-131461428D02*
X232037143Y-131366190D01*
X232037143Y-131366190D02*
X232084762Y-131318571D01*
X232084762Y-131318571D02*
X232180000Y-131270952D01*
X232180000Y-131270952D02*
X232275238Y-131270952D01*
X233132381Y-131937619D02*
X232560953Y-131937619D01*
X232846667Y-131937619D02*
X232846667Y-130937619D01*
X232846667Y-130937619D02*
X232751429Y-131080476D01*
X232751429Y-131080476D02*
X232656191Y-131175714D01*
X232656191Y-131175714D02*
X232560953Y-131223333D01*
X233560953Y-131937619D02*
X233560953Y-130937619D01*
X233989524Y-131937619D02*
X233989524Y-131413809D01*
X233989524Y-131413809D02*
X233941905Y-131318571D01*
X233941905Y-131318571D02*
X233846667Y-131270952D01*
X233846667Y-131270952D02*
X233703810Y-131270952D01*
X233703810Y-131270952D02*
X233608572Y-131318571D01*
X233608572Y-131318571D02*
X233560953Y-131366190D01*
X234894286Y-131270952D02*
X234894286Y-131937619D01*
X234465715Y-131270952D02*
X234465715Y-131794761D01*
X234465715Y-131794761D02*
X234513334Y-131890000D01*
X234513334Y-131890000D02*
X234608572Y-131937619D01*
X234608572Y-131937619D02*
X234751429Y-131937619D01*
X234751429Y-131937619D02*
X234846667Y-131890000D01*
X234846667Y-131890000D02*
X234894286Y-131842380D01*
X235370477Y-131270952D02*
X235370477Y-131937619D01*
X235370477Y-131366190D02*
X235418096Y-131318571D01*
X235418096Y-131318571D02*
X235513334Y-131270952D01*
X235513334Y-131270952D02*
X235656191Y-131270952D01*
X235656191Y-131270952D02*
X235751429Y-131318571D01*
X235751429Y-131318571D02*
X235799048Y-131413809D01*
X235799048Y-131413809D02*
X235799048Y-131937619D01*
X236703810Y-131937619D02*
X236703810Y-130937619D01*
X236703810Y-131890000D02*
X236608572Y-131937619D01*
X236608572Y-131937619D02*
X236418096Y-131937619D01*
X236418096Y-131937619D02*
X236322858Y-131890000D01*
X236322858Y-131890000D02*
X236275239Y-131842380D01*
X236275239Y-131842380D02*
X236227620Y-131747142D01*
X236227620Y-131747142D02*
X236227620Y-131461428D01*
X236227620Y-131461428D02*
X236275239Y-131366190D01*
X236275239Y-131366190D02*
X236322858Y-131318571D01*
X236322858Y-131318571D02*
X236418096Y-131270952D01*
X236418096Y-131270952D02*
X236608572Y-131270952D01*
X236608572Y-131270952D02*
X236703810Y-131318571D01*
X237322858Y-131937619D02*
X237227620Y-131890000D01*
X237227620Y-131890000D02*
X237180001Y-131842380D01*
X237180001Y-131842380D02*
X237132382Y-131747142D01*
X237132382Y-131747142D02*
X237132382Y-131461428D01*
X237132382Y-131461428D02*
X237180001Y-131366190D01*
X237180001Y-131366190D02*
X237227620Y-131318571D01*
X237227620Y-131318571D02*
X237322858Y-131270952D01*
X237322858Y-131270952D02*
X237465715Y-131270952D01*
X237465715Y-131270952D02*
X237560953Y-131318571D01*
X237560953Y-131318571D02*
X237608572Y-131366190D01*
X237608572Y-131366190D02*
X237656191Y-131461428D01*
X237656191Y-131461428D02*
X237656191Y-131747142D01*
X237656191Y-131747142D02*
X237608572Y-131842380D01*
X237608572Y-131842380D02*
X237560953Y-131890000D01*
X237560953Y-131890000D02*
X237465715Y-131937619D01*
X237465715Y-131937619D02*
X237322858Y-131937619D01*
X196536666Y-130740952D02*
X196536666Y-131550476D01*
X196536666Y-131550476D02*
X196489047Y-131645714D01*
X196489047Y-131645714D02*
X196441428Y-131693333D01*
X196441428Y-131693333D02*
X196346190Y-131740952D01*
X196346190Y-131740952D02*
X196203333Y-131740952D01*
X196203333Y-131740952D02*
X196108095Y-131693333D01*
X196536666Y-131360000D02*
X196441428Y-131407619D01*
X196441428Y-131407619D02*
X196250952Y-131407619D01*
X196250952Y-131407619D02*
X196155714Y-131360000D01*
X196155714Y-131360000D02*
X196108095Y-131312380D01*
X196108095Y-131312380D02*
X196060476Y-131217142D01*
X196060476Y-131217142D02*
X196060476Y-130931428D01*
X196060476Y-130931428D02*
X196108095Y-130836190D01*
X196108095Y-130836190D02*
X196155714Y-130788571D01*
X196155714Y-130788571D02*
X196250952Y-130740952D01*
X196250952Y-130740952D02*
X196441428Y-130740952D01*
X196441428Y-130740952D02*
X196536666Y-130788571D01*
X197012857Y-131407619D02*
X197012857Y-130740952D01*
X197012857Y-130407619D02*
X196965238Y-130455238D01*
X196965238Y-130455238D02*
X197012857Y-130502857D01*
X197012857Y-130502857D02*
X197060476Y-130455238D01*
X197060476Y-130455238D02*
X197012857Y-130407619D01*
X197012857Y-130407619D02*
X197012857Y-130502857D01*
X197346190Y-130740952D02*
X197727142Y-130740952D01*
X197489047Y-130407619D02*
X197489047Y-131264761D01*
X197489047Y-131264761D02*
X197536666Y-131360000D01*
X197536666Y-131360000D02*
X197631904Y-131407619D01*
X197631904Y-131407619D02*
X197727142Y-131407619D01*
X198060476Y-131407619D02*
X198060476Y-130407619D01*
X198489047Y-131407619D02*
X198489047Y-130883809D01*
X198489047Y-130883809D02*
X198441428Y-130788571D01*
X198441428Y-130788571D02*
X198346190Y-130740952D01*
X198346190Y-130740952D02*
X198203333Y-130740952D01*
X198203333Y-130740952D02*
X198108095Y-130788571D01*
X198108095Y-130788571D02*
X198060476Y-130836190D01*
X199393809Y-130740952D02*
X199393809Y-131407619D01*
X198965238Y-130740952D02*
X198965238Y-131264761D01*
X198965238Y-131264761D02*
X199012857Y-131360000D01*
X199012857Y-131360000D02*
X199108095Y-131407619D01*
X199108095Y-131407619D02*
X199250952Y-131407619D01*
X199250952Y-131407619D02*
X199346190Y-131360000D01*
X199346190Y-131360000D02*
X199393809Y-131312380D01*
X199870000Y-131407619D02*
X199870000Y-130407619D01*
X199870000Y-130788571D02*
X199965238Y-130740952D01*
X199965238Y-130740952D02*
X200155714Y-130740952D01*
X200155714Y-130740952D02*
X200250952Y-130788571D01*
X200250952Y-130788571D02*
X200298571Y-130836190D01*
X200298571Y-130836190D02*
X200346190Y-130931428D01*
X200346190Y-130931428D02*
X200346190Y-131217142D01*
X200346190Y-131217142D02*
X200298571Y-131312380D01*
X200298571Y-131312380D02*
X200250952Y-131360000D01*
X200250952Y-131360000D02*
X200155714Y-131407619D01*
X200155714Y-131407619D02*
X199965238Y-131407619D01*
X199965238Y-131407619D02*
X199870000Y-131360000D01*
X200774762Y-131312380D02*
X200822381Y-131360000D01*
X200822381Y-131360000D02*
X200774762Y-131407619D01*
X200774762Y-131407619D02*
X200727143Y-131360000D01*
X200727143Y-131360000D02*
X200774762Y-131312380D01*
X200774762Y-131312380D02*
X200774762Y-131407619D01*
X201679523Y-131360000D02*
X201584285Y-131407619D01*
X201584285Y-131407619D02*
X201393809Y-131407619D01*
X201393809Y-131407619D02*
X201298571Y-131360000D01*
X201298571Y-131360000D02*
X201250952Y-131312380D01*
X201250952Y-131312380D02*
X201203333Y-131217142D01*
X201203333Y-131217142D02*
X201203333Y-130931428D01*
X201203333Y-130931428D02*
X201250952Y-130836190D01*
X201250952Y-130836190D02*
X201298571Y-130788571D01*
X201298571Y-130788571D02*
X201393809Y-130740952D01*
X201393809Y-130740952D02*
X201584285Y-130740952D01*
X201584285Y-130740952D02*
X201679523Y-130788571D01*
X202250952Y-131407619D02*
X202155714Y-131360000D01*
X202155714Y-131360000D02*
X202108095Y-131312380D01*
X202108095Y-131312380D02*
X202060476Y-131217142D01*
X202060476Y-131217142D02*
X202060476Y-130931428D01*
X202060476Y-130931428D02*
X202108095Y-130836190D01*
X202108095Y-130836190D02*
X202155714Y-130788571D01*
X202155714Y-130788571D02*
X202250952Y-130740952D01*
X202250952Y-130740952D02*
X202393809Y-130740952D01*
X202393809Y-130740952D02*
X202489047Y-130788571D01*
X202489047Y-130788571D02*
X202536666Y-130836190D01*
X202536666Y-130836190D02*
X202584285Y-130931428D01*
X202584285Y-130931428D02*
X202584285Y-131217142D01*
X202584285Y-131217142D02*
X202536666Y-131312380D01*
X202536666Y-131312380D02*
X202489047Y-131360000D01*
X202489047Y-131360000D02*
X202393809Y-131407619D01*
X202393809Y-131407619D02*
X202250952Y-131407619D01*
X203012857Y-131407619D02*
X203012857Y-130740952D01*
X203012857Y-130836190D02*
X203060476Y-130788571D01*
X203060476Y-130788571D02*
X203155714Y-130740952D01*
X203155714Y-130740952D02*
X203298571Y-130740952D01*
X203298571Y-130740952D02*
X203393809Y-130788571D01*
X203393809Y-130788571D02*
X203441428Y-130883809D01*
X203441428Y-130883809D02*
X203441428Y-131407619D01*
X203441428Y-130883809D02*
X203489047Y-130788571D01*
X203489047Y-130788571D02*
X203584285Y-130740952D01*
X203584285Y-130740952D02*
X203727142Y-130740952D01*
X203727142Y-130740952D02*
X203822381Y-130788571D01*
X203822381Y-130788571D02*
X203870000Y-130883809D01*
X203870000Y-130883809D02*
X203870000Y-131407619D01*
X205060475Y-130360000D02*
X204203333Y-131645714D01*
X205822380Y-131407619D02*
X205822380Y-130407619D01*
X205822380Y-131360000D02*
X205727142Y-131407619D01*
X205727142Y-131407619D02*
X205536666Y-131407619D01*
X205536666Y-131407619D02*
X205441428Y-131360000D01*
X205441428Y-131360000D02*
X205393809Y-131312380D01*
X205393809Y-131312380D02*
X205346190Y-131217142D01*
X205346190Y-131217142D02*
X205346190Y-130931428D01*
X205346190Y-130931428D02*
X205393809Y-130836190D01*
X205393809Y-130836190D02*
X205441428Y-130788571D01*
X205441428Y-130788571D02*
X205536666Y-130740952D01*
X205536666Y-130740952D02*
X205727142Y-130740952D01*
X205727142Y-130740952D02*
X205822380Y-130788571D01*
X206441428Y-131407619D02*
X206346190Y-131360000D01*
X206346190Y-131360000D02*
X206298571Y-131312380D01*
X206298571Y-131312380D02*
X206250952Y-131217142D01*
X206250952Y-131217142D02*
X206250952Y-130931428D01*
X206250952Y-130931428D02*
X206298571Y-130836190D01*
X206298571Y-130836190D02*
X206346190Y-130788571D01*
X206346190Y-130788571D02*
X206441428Y-130740952D01*
X206441428Y-130740952D02*
X206584285Y-130740952D01*
X206584285Y-130740952D02*
X206679523Y-130788571D01*
X206679523Y-130788571D02*
X206727142Y-130836190D01*
X206727142Y-130836190D02*
X206774761Y-130931428D01*
X206774761Y-130931428D02*
X206774761Y-131217142D01*
X206774761Y-131217142D02*
X206727142Y-131312380D01*
X206727142Y-131312380D02*
X206679523Y-131360000D01*
X206679523Y-131360000D02*
X206584285Y-131407619D01*
X206584285Y-131407619D02*
X206441428Y-131407619D01*
X207584285Y-131360000D02*
X207489047Y-131407619D01*
X207489047Y-131407619D02*
X207298571Y-131407619D01*
X207298571Y-131407619D02*
X207203333Y-131360000D01*
X207203333Y-131360000D02*
X207155714Y-131264761D01*
X207155714Y-131264761D02*
X207155714Y-130883809D01*
X207155714Y-130883809D02*
X207203333Y-130788571D01*
X207203333Y-130788571D02*
X207298571Y-130740952D01*
X207298571Y-130740952D02*
X207489047Y-130740952D01*
X207489047Y-130740952D02*
X207584285Y-130788571D01*
X207584285Y-130788571D02*
X207631904Y-130883809D01*
X207631904Y-130883809D02*
X207631904Y-130979047D01*
X207631904Y-130979047D02*
X207155714Y-131074285D01*
X208012857Y-131360000D02*
X208108095Y-131407619D01*
X208108095Y-131407619D02*
X208298571Y-131407619D01*
X208298571Y-131407619D02*
X208393809Y-131360000D01*
X208393809Y-131360000D02*
X208441428Y-131264761D01*
X208441428Y-131264761D02*
X208441428Y-131217142D01*
X208441428Y-131217142D02*
X208393809Y-131121904D01*
X208393809Y-131121904D02*
X208298571Y-131074285D01*
X208298571Y-131074285D02*
X208155714Y-131074285D01*
X208155714Y-131074285D02*
X208060476Y-131026666D01*
X208060476Y-131026666D02*
X208012857Y-130931428D01*
X208012857Y-130931428D02*
X208012857Y-130883809D01*
X208012857Y-130883809D02*
X208060476Y-130788571D01*
X208060476Y-130788571D02*
X208155714Y-130740952D01*
X208155714Y-130740952D02*
X208298571Y-130740952D01*
X208298571Y-130740952D02*
X208393809Y-130788571D01*
X208870000Y-130740952D02*
X208870000Y-131407619D01*
X208870000Y-130836190D02*
X208917619Y-130788571D01*
X208917619Y-130788571D02*
X209012857Y-130740952D01*
X209012857Y-130740952D02*
X209155714Y-130740952D01*
X209155714Y-130740952D02*
X209250952Y-130788571D01*
X209250952Y-130788571D02*
X209298571Y-130883809D01*
X209298571Y-130883809D02*
X209298571Y-131407619D01*
X209631905Y-130740952D02*
X210012857Y-130740952D01*
X209774762Y-130407619D02*
X209774762Y-131264761D01*
X209774762Y-131264761D02*
X209822381Y-131360000D01*
X209822381Y-131360000D02*
X209917619Y-131407619D01*
X209917619Y-131407619D02*
X210012857Y-131407619D01*
X210203334Y-130740952D02*
X210584286Y-130740952D01*
X210346191Y-131407619D02*
X210346191Y-130550476D01*
X210346191Y-130550476D02*
X210393810Y-130455238D01*
X210393810Y-130455238D02*
X210489048Y-130407619D01*
X210489048Y-130407619D02*
X210584286Y-130407619D01*
X211346191Y-131407619D02*
X211346191Y-130883809D01*
X211346191Y-130883809D02*
X211298572Y-130788571D01*
X211298572Y-130788571D02*
X211203334Y-130740952D01*
X211203334Y-130740952D02*
X211012858Y-130740952D01*
X211012858Y-130740952D02*
X210917620Y-130788571D01*
X211346191Y-131360000D02*
X211250953Y-131407619D01*
X211250953Y-131407619D02*
X211012858Y-131407619D01*
X211012858Y-131407619D02*
X210917620Y-131360000D01*
X210917620Y-131360000D02*
X210870001Y-131264761D01*
X210870001Y-131264761D02*
X210870001Y-131169523D01*
X210870001Y-131169523D02*
X210917620Y-131074285D01*
X210917620Y-131074285D02*
X211012858Y-131026666D01*
X211012858Y-131026666D02*
X211250953Y-131026666D01*
X211250953Y-131026666D02*
X211346191Y-130979047D01*
X211727144Y-130740952D02*
X212250953Y-130740952D01*
X212250953Y-130740952D02*
X211727144Y-131407619D01*
X211727144Y-131407619D02*
X212250953Y-131407619D01*
X213012858Y-131360000D02*
X212917620Y-131407619D01*
X212917620Y-131407619D02*
X212727144Y-131407619D01*
X212727144Y-131407619D02*
X212631906Y-131360000D01*
X212631906Y-131360000D02*
X212584287Y-131264761D01*
X212584287Y-131264761D02*
X212584287Y-130883809D01*
X212584287Y-130883809D02*
X212631906Y-130788571D01*
X212631906Y-130788571D02*
X212727144Y-130740952D01*
X212727144Y-130740952D02*
X212917620Y-130740952D01*
X212917620Y-130740952D02*
X213012858Y-130788571D01*
X213012858Y-130788571D02*
X213060477Y-130883809D01*
X213060477Y-130883809D02*
X213060477Y-130979047D01*
X213060477Y-130979047D02*
X212584287Y-131074285D01*
X213489049Y-131407619D02*
X213489049Y-130740952D01*
X213489049Y-130931428D02*
X213536668Y-130836190D01*
X213536668Y-130836190D02*
X213584287Y-130788571D01*
X213584287Y-130788571D02*
X213679525Y-130740952D01*
X213679525Y-130740952D02*
X213774763Y-130740952D01*
%TO.C,M2*%
X174370476Y-126354619D02*
X174370476Y-125354619D01*
X174370476Y-125354619D02*
X174703809Y-126068904D01*
X174703809Y-126068904D02*
X175037142Y-125354619D01*
X175037142Y-125354619D02*
X175037142Y-126354619D01*
X175465714Y-125449857D02*
X175513333Y-125402238D01*
X175513333Y-125402238D02*
X175608571Y-125354619D01*
X175608571Y-125354619D02*
X175846666Y-125354619D01*
X175846666Y-125354619D02*
X175941904Y-125402238D01*
X175941904Y-125402238D02*
X175989523Y-125449857D01*
X175989523Y-125449857D02*
X176037142Y-125545095D01*
X176037142Y-125545095D02*
X176037142Y-125640333D01*
X176037142Y-125640333D02*
X175989523Y-125783190D01*
X175989523Y-125783190D02*
X175418095Y-126354619D01*
X175418095Y-126354619D02*
X176037142Y-126354619D01*
X152860476Y-68788619D02*
X152860476Y-67788619D01*
X152860476Y-67788619D02*
X153193809Y-68502904D01*
X153193809Y-68502904D02*
X153527142Y-67788619D01*
X153527142Y-67788619D02*
X153527142Y-68788619D01*
X153955714Y-67883857D02*
X154003333Y-67836238D01*
X154003333Y-67836238D02*
X154098571Y-67788619D01*
X154098571Y-67788619D02*
X154336666Y-67788619D01*
X154336666Y-67788619D02*
X154431904Y-67836238D01*
X154431904Y-67836238D02*
X154479523Y-67883857D01*
X154479523Y-67883857D02*
X154527142Y-67979095D01*
X154527142Y-67979095D02*
X154527142Y-68074333D01*
X154527142Y-68074333D02*
X154479523Y-68217190D01*
X154479523Y-68217190D02*
X153908095Y-68788619D01*
X153908095Y-68788619D02*
X154527142Y-68788619D01*
X219408476Y-54564619D02*
X219408476Y-53564619D01*
X219408476Y-53564619D02*
X219741809Y-54278904D01*
X219741809Y-54278904D02*
X220075142Y-53564619D01*
X220075142Y-53564619D02*
X220075142Y-54564619D01*
X220503714Y-53659857D02*
X220551333Y-53612238D01*
X220551333Y-53612238D02*
X220646571Y-53564619D01*
X220646571Y-53564619D02*
X220884666Y-53564619D01*
X220884666Y-53564619D02*
X220979904Y-53612238D01*
X220979904Y-53612238D02*
X221027523Y-53659857D01*
X221027523Y-53659857D02*
X221075142Y-53755095D01*
X221075142Y-53755095D02*
X221075142Y-53850333D01*
X221075142Y-53850333D02*
X221027523Y-53993190D01*
X221027523Y-53993190D02*
X220456095Y-54564619D01*
X220456095Y-54564619D02*
X221075142Y-54564619D01*
X219840476Y-125994619D02*
X219840476Y-124994619D01*
X219840476Y-124994619D02*
X220173809Y-125708904D01*
X220173809Y-125708904D02*
X220507142Y-124994619D01*
X220507142Y-124994619D02*
X220507142Y-125994619D01*
X220935714Y-125089857D02*
X220983333Y-125042238D01*
X220983333Y-125042238D02*
X221078571Y-124994619D01*
X221078571Y-124994619D02*
X221316666Y-124994619D01*
X221316666Y-124994619D02*
X221411904Y-125042238D01*
X221411904Y-125042238D02*
X221459523Y-125089857D01*
X221459523Y-125089857D02*
X221507142Y-125185095D01*
X221507142Y-125185095D02*
X221507142Y-125280333D01*
X221507142Y-125280333D02*
X221459523Y-125423190D01*
X221459523Y-125423190D02*
X220888095Y-125994619D01*
X220888095Y-125994619D02*
X221507142Y-125994619D01*
%TO.C,SW17*%
X225382000Y-116590000D02*
X233782000Y-116589999D01*
X225382000Y-116940000D02*
X225382000Y-116590000D01*
X225382000Y-119190000D02*
X225582000Y-119190000D01*
X225382000Y-120190000D02*
X225382000Y-119190000D01*
D11*
X225582000Y-116790000D02*
X226982000Y-116790000D01*
D10*
X225582000Y-116940000D02*
X225382000Y-116940000D01*
D11*
X225582000Y-119290000D02*
X225582000Y-119990000D01*
D10*
X225602000Y-119190000D02*
X225602000Y-116940000D01*
D12*
X225682000Y-119890000D02*
X227082000Y-119890000D01*
D13*
X226082000Y-117190000D02*
X226082000Y-119690000D01*
D14*
X227382000Y-118390000D02*
X234082000Y-118390000D01*
D10*
X230382000Y-120190000D02*
X225382000Y-120190000D01*
D15*
X234152000Y-118090000D02*
X234152000Y-120330000D01*
D16*
X235282000Y-121590000D02*
X235282000Y-119790000D01*
D10*
X235652000Y-119490000D02*
X235652000Y-121730000D01*
X235682000Y-121730000D02*
X235882000Y-121730000D01*
D12*
X235682000Y-121890000D02*
X232982000Y-121890000D01*
D17*
X235781999Y-119390000D02*
X235782000Y-118490001D01*
D10*
X235882000Y-118490000D02*
X235882000Y-119490000D01*
X235882000Y-119490000D02*
X235682000Y-119490000D01*
X235882000Y-122090000D02*
X232602000Y-122090000D01*
X235882000Y-122090000D02*
X235882000Y-121730000D01*
X232598318Y-122068529D02*
G75*
G03*
X230382000Y-120190000I-2151318J-291471D01*
G01*
D13*
X232998318Y-121668529D02*
G75*
G03*
X230782000Y-119790000I-2151318J-291471D01*
G01*
D10*
X235882001Y-118490000D02*
G75*
G03*
X233782000Y-116589999I-2000001J-100000D01*
G01*
%TO.C,SW16*%
X206332000Y-111827500D02*
X214732000Y-111827499D01*
X206332000Y-112177500D02*
X206332000Y-111827500D01*
X206332000Y-114427500D02*
X206532000Y-114427500D01*
X206332000Y-115427500D02*
X206332000Y-114427500D01*
D11*
X206532000Y-112027500D02*
X207932000Y-112027500D01*
D10*
X206532000Y-112177500D02*
X206332000Y-112177500D01*
D11*
X206532000Y-114527500D02*
X206532000Y-115227500D01*
D10*
X206552000Y-114427500D02*
X206552000Y-112177500D01*
D12*
X206632000Y-115127500D02*
X208032000Y-115127500D01*
D13*
X207032000Y-112427500D02*
X207032000Y-114927500D01*
D14*
X208332000Y-113627500D02*
X215032000Y-113627500D01*
D10*
X211332000Y-115427500D02*
X206332000Y-115427500D01*
D15*
X215102000Y-113327500D02*
X215102000Y-115567500D01*
D16*
X216232000Y-116827500D02*
X216232000Y-115027500D01*
D10*
X216602000Y-114727500D02*
X216602000Y-116967500D01*
X216632000Y-116967500D02*
X216832000Y-116967500D01*
D12*
X216632000Y-117127500D02*
X213932000Y-117127500D01*
D17*
X216731999Y-114627500D02*
X216732000Y-113727501D01*
D10*
X216832000Y-113727500D02*
X216832000Y-114727500D01*
X216832000Y-114727500D02*
X216632000Y-114727500D01*
X216832000Y-117327500D02*
X213552000Y-117327500D01*
X216832000Y-117327500D02*
X216832000Y-116967500D01*
X213548318Y-117306029D02*
G75*
G03*
X211332000Y-115427500I-2151318J-291471D01*
G01*
D13*
X213948318Y-116906029D02*
G75*
G03*
X211732000Y-115027500I-2151318J-291471D01*
G01*
D10*
X216832001Y-113727500D02*
G75*
G03*
X214732000Y-111827499I-2000001J-100000D01*
G01*
%TO.C,SW15*%
X225382000Y-83991000D02*
X233782000Y-83990999D01*
X225382000Y-84341000D02*
X225382000Y-83991000D01*
X225382000Y-86591000D02*
X225582000Y-86591000D01*
X225382000Y-87591000D02*
X225382000Y-86591000D01*
D11*
X225582000Y-84191000D02*
X226982000Y-84191000D01*
D10*
X225582000Y-84341000D02*
X225382000Y-84341000D01*
D11*
X225582000Y-86691000D02*
X225582000Y-87391000D01*
D10*
X225602000Y-86591000D02*
X225602000Y-84341000D01*
D12*
X225682000Y-87291000D02*
X227082000Y-87291000D01*
D13*
X226082000Y-84591000D02*
X226082000Y-87091000D01*
D14*
X227382000Y-85791000D02*
X234082000Y-85791000D01*
D10*
X230382000Y-87591000D02*
X225382000Y-87591000D01*
D15*
X234152000Y-85491000D02*
X234152000Y-87731000D01*
D16*
X235282000Y-88991000D02*
X235282000Y-87191000D01*
D10*
X235652000Y-86891000D02*
X235652000Y-89131000D01*
X235682000Y-89131000D02*
X235882000Y-89131000D01*
D12*
X235682000Y-89291000D02*
X232982000Y-89291000D01*
D17*
X235781999Y-86791000D02*
X235782000Y-85891001D01*
D10*
X235882000Y-85891000D02*
X235882000Y-86891000D01*
X235882000Y-86891000D02*
X235682000Y-86891000D01*
X235882000Y-89491000D02*
X232602000Y-89491000D01*
X235882000Y-89491000D02*
X235882000Y-89131000D01*
X232598318Y-89469529D02*
G75*
G03*
X230382000Y-87591000I-2151318J-291471D01*
G01*
D13*
X232998318Y-89069529D02*
G75*
G03*
X230782000Y-87191000I-2151318J-291471D01*
G01*
D10*
X235882001Y-85891000D02*
G75*
G03*
X233782000Y-83990999I-2000001J-100000D01*
G01*
%TO.C,SW14*%
X206332000Y-79228500D02*
X214732000Y-79228499D01*
X206332000Y-79578500D02*
X206332000Y-79228500D01*
X206332000Y-81828500D02*
X206532000Y-81828500D01*
X206332000Y-82828500D02*
X206332000Y-81828500D01*
D11*
X206532000Y-79428500D02*
X207932000Y-79428500D01*
D10*
X206532000Y-79578500D02*
X206332000Y-79578500D01*
D11*
X206532000Y-81928500D02*
X206532000Y-82628500D01*
D10*
X206552000Y-81828500D02*
X206552000Y-79578500D01*
D12*
X206632000Y-82528500D02*
X208032000Y-82528500D01*
D13*
X207032000Y-79828500D02*
X207032000Y-82328500D01*
D14*
X208332000Y-81028500D02*
X215032000Y-81028500D01*
D10*
X211332000Y-82828500D02*
X206332000Y-82828500D01*
D15*
X215102000Y-80728500D02*
X215102000Y-82968500D01*
D16*
X216232000Y-84228500D02*
X216232000Y-82428500D01*
D10*
X216602000Y-82128500D02*
X216602000Y-84368500D01*
X216632000Y-84368500D02*
X216832000Y-84368500D01*
D12*
X216632000Y-84528500D02*
X213932000Y-84528500D01*
D17*
X216731999Y-82028500D02*
X216732000Y-81128501D01*
D10*
X216832000Y-81128500D02*
X216832000Y-82128500D01*
X216832000Y-82128500D02*
X216632000Y-82128500D01*
X216832000Y-84728500D02*
X213552000Y-84728500D01*
X216832000Y-84728500D02*
X216832000Y-84368500D01*
X213548318Y-84707029D02*
G75*
G03*
X211332000Y-82828500I-2151318J-291471D01*
G01*
D13*
X213948318Y-84307029D02*
G75*
G03*
X211732000Y-82428500I-2151318J-291471D01*
G01*
D10*
X216832001Y-81128500D02*
G75*
G03*
X214732000Y-79228499I-2000001J-100000D01*
G01*
%TO.C,SW13*%
X187282000Y-74466000D02*
X195682000Y-74465999D01*
X187282000Y-74816000D02*
X187282000Y-74466000D01*
X187282000Y-77066000D02*
X187482000Y-77066000D01*
X187282000Y-78066000D02*
X187282000Y-77066000D01*
D11*
X187482000Y-74666000D02*
X188882000Y-74666000D01*
D10*
X187482000Y-74816000D02*
X187282000Y-74816000D01*
D11*
X187482000Y-77166000D02*
X187482000Y-77866000D01*
D10*
X187502000Y-77066000D02*
X187502000Y-74816000D01*
D12*
X187582000Y-77766000D02*
X188982000Y-77766000D01*
D13*
X187982000Y-75066000D02*
X187982000Y-77566000D01*
D14*
X189282000Y-76266000D02*
X195982000Y-76266000D01*
D10*
X192282000Y-78066000D02*
X187282000Y-78066000D01*
D15*
X196052000Y-75966000D02*
X196052000Y-78206000D01*
D16*
X197182000Y-79466000D02*
X197182000Y-77666000D01*
D10*
X197552000Y-77366000D02*
X197552000Y-79606000D01*
X197582000Y-79606000D02*
X197782000Y-79606000D01*
D12*
X197582000Y-79766000D02*
X194882000Y-79766000D01*
D17*
X197681999Y-77266000D02*
X197682000Y-76366001D01*
D10*
X197782000Y-76366000D02*
X197782000Y-77366000D01*
X197782000Y-77366000D02*
X197582000Y-77366000D01*
X197782000Y-79966000D02*
X194502000Y-79966000D01*
X197782000Y-79966000D02*
X197782000Y-79606000D01*
X194498318Y-79944529D02*
G75*
G03*
X192282000Y-78066000I-2151318J-291471D01*
G01*
D13*
X194898318Y-79544529D02*
G75*
G03*
X192682000Y-77666000I-2151318J-291471D01*
G01*
D10*
X197782001Y-76366000D02*
G75*
G03*
X195682000Y-74465999I-2000001J-100000D01*
G01*
%TO.C,SW12*%
X168232000Y-79228500D02*
X176632000Y-79228499D01*
X168232000Y-79578500D02*
X168232000Y-79228500D01*
X168232000Y-81828500D02*
X168432000Y-81828500D01*
X168232000Y-82828500D02*
X168232000Y-81828500D01*
D11*
X168432000Y-79428500D02*
X169832000Y-79428500D01*
D10*
X168432000Y-79578500D02*
X168232000Y-79578500D01*
D11*
X168432000Y-81928500D02*
X168432000Y-82628500D01*
D10*
X168452000Y-81828500D02*
X168452000Y-79578500D01*
D12*
X168532000Y-82528500D02*
X169932000Y-82528500D01*
D13*
X168932000Y-79828500D02*
X168932000Y-82328500D01*
D14*
X170232000Y-81028500D02*
X176932000Y-81028500D01*
D10*
X173232000Y-82828500D02*
X168232000Y-82828500D01*
D15*
X177002000Y-80728500D02*
X177002000Y-82968500D01*
D16*
X178132000Y-84228500D02*
X178132000Y-82428500D01*
D10*
X178502000Y-82128500D02*
X178502000Y-84368500D01*
X178532000Y-84368500D02*
X178732000Y-84368500D01*
D12*
X178532000Y-84528500D02*
X175832000Y-84528500D01*
D17*
X178631999Y-82028500D02*
X178632000Y-81128501D01*
D10*
X178732000Y-81128500D02*
X178732000Y-82128500D01*
X178732000Y-82128500D02*
X178532000Y-82128500D01*
X178732000Y-84728500D02*
X175452000Y-84728500D01*
X178732000Y-84728500D02*
X178732000Y-84368500D01*
X175448318Y-84707029D02*
G75*
G03*
X173232000Y-82828500I-2151318J-291471D01*
G01*
D13*
X175848318Y-84307029D02*
G75*
G03*
X173632000Y-82428500I-2151318J-291471D01*
G01*
D10*
X178732001Y-81128500D02*
G75*
G03*
X176632000Y-79228499I-2000001J-100000D01*
G01*
%TO.C,SW11*%
X149182000Y-93516000D02*
X157582000Y-93515999D01*
X149182000Y-93866000D02*
X149182000Y-93516000D01*
X149182000Y-96116000D02*
X149382000Y-96116000D01*
X149182000Y-97116000D02*
X149182000Y-96116000D01*
D11*
X149382000Y-93716000D02*
X150782000Y-93716000D01*
D10*
X149382000Y-93866000D02*
X149182000Y-93866000D01*
D11*
X149382000Y-96216000D02*
X149382000Y-96916000D01*
D10*
X149402000Y-96116000D02*
X149402000Y-93866000D01*
D12*
X149482000Y-96816000D02*
X150882000Y-96816000D01*
D13*
X149882000Y-94116000D02*
X149882000Y-96616000D01*
D14*
X151182000Y-95316000D02*
X157882000Y-95316000D01*
D10*
X154182000Y-97116000D02*
X149182000Y-97116000D01*
D15*
X157952000Y-95016000D02*
X157952000Y-97256000D01*
D16*
X159082000Y-98516000D02*
X159082000Y-96716000D01*
D10*
X159452000Y-96416000D02*
X159452000Y-98656000D01*
X159482000Y-98656000D02*
X159682000Y-98656000D01*
D12*
X159482000Y-98816000D02*
X156782000Y-98816000D01*
D17*
X159581999Y-96316000D02*
X159582000Y-95416001D01*
D10*
X159682000Y-95416000D02*
X159682000Y-96416000D01*
X159682000Y-96416000D02*
X159482000Y-96416000D01*
X159682000Y-99016000D02*
X156402000Y-99016000D01*
X159682000Y-99016000D02*
X159682000Y-98656000D01*
X156398318Y-98994529D02*
G75*
G03*
X154182000Y-97116000I-2151318J-291471D01*
G01*
D13*
X156798318Y-98594529D02*
G75*
G03*
X154582000Y-96716000I-2151318J-291471D01*
G01*
D10*
X159682001Y-95416000D02*
G75*
G03*
X157582000Y-93515999I-2000001J-100000D01*
G01*
%TO.C,SW10*%
X225382000Y-64941000D02*
X233782000Y-64940999D01*
X225382000Y-65291000D02*
X225382000Y-64941000D01*
X225382000Y-67541000D02*
X225582000Y-67541000D01*
X225382000Y-68541000D02*
X225382000Y-67541000D01*
D11*
X225582000Y-65141000D02*
X226982000Y-65141000D01*
D10*
X225582000Y-65291000D02*
X225382000Y-65291000D01*
D11*
X225582000Y-67641000D02*
X225582000Y-68341000D01*
D10*
X225602000Y-67541000D02*
X225602000Y-65291000D01*
D12*
X225682000Y-68241000D02*
X227082000Y-68241000D01*
D13*
X226082000Y-65541000D02*
X226082000Y-68041000D01*
D14*
X227382000Y-66741000D02*
X234082000Y-66741000D01*
D10*
X230382000Y-68541000D02*
X225382000Y-68541000D01*
D15*
X234152000Y-66441000D02*
X234152000Y-68681000D01*
D16*
X235282000Y-69941000D02*
X235282000Y-68141000D01*
D10*
X235652000Y-67841000D02*
X235652000Y-70081000D01*
X235682000Y-70081000D02*
X235882000Y-70081000D01*
D12*
X235682000Y-70241000D02*
X232982000Y-70241000D01*
D17*
X235781999Y-67741000D02*
X235782000Y-66841001D01*
D10*
X235882000Y-66841000D02*
X235882000Y-67841000D01*
X235882000Y-67841000D02*
X235682000Y-67841000D01*
X235882000Y-70441000D02*
X232602000Y-70441000D01*
X235882000Y-70441000D02*
X235882000Y-70081000D01*
X232598318Y-70419529D02*
G75*
G03*
X230382000Y-68541000I-2151318J-291471D01*
G01*
D13*
X232998318Y-70019529D02*
G75*
G03*
X230782000Y-68141000I-2151318J-291471D01*
G01*
D10*
X235882001Y-66841000D02*
G75*
G03*
X233782000Y-64940999I-2000001J-100000D01*
G01*
%TO.C,SW9*%
X206332000Y-60178500D02*
X214732000Y-60178499D01*
X206332000Y-60528500D02*
X206332000Y-60178500D01*
X206332000Y-62778500D02*
X206532000Y-62778500D01*
X206332000Y-63778500D02*
X206332000Y-62778500D01*
D11*
X206532000Y-60378500D02*
X207932000Y-60378500D01*
D10*
X206532000Y-60528500D02*
X206332000Y-60528500D01*
D11*
X206532000Y-62878500D02*
X206532000Y-63578500D01*
D10*
X206552000Y-62778500D02*
X206552000Y-60528500D01*
D12*
X206632000Y-63478500D02*
X208032000Y-63478500D01*
D13*
X207032000Y-60778500D02*
X207032000Y-63278500D01*
D14*
X208332000Y-61978500D02*
X215032000Y-61978500D01*
D10*
X211332000Y-63778500D02*
X206332000Y-63778500D01*
D15*
X215102000Y-61678500D02*
X215102000Y-63918500D01*
D16*
X216232000Y-65178500D02*
X216232000Y-63378500D01*
D10*
X216602000Y-63078500D02*
X216602000Y-65318500D01*
X216632000Y-65318500D02*
X216832000Y-65318500D01*
D12*
X216632000Y-65478500D02*
X213932000Y-65478500D01*
D17*
X216731999Y-62978500D02*
X216732000Y-62078501D01*
D10*
X216832000Y-62078500D02*
X216832000Y-63078500D01*
X216832000Y-63078500D02*
X216632000Y-63078500D01*
X216832000Y-65678500D02*
X213552000Y-65678500D01*
X216832000Y-65678500D02*
X216832000Y-65318500D01*
X213548318Y-65657029D02*
G75*
G03*
X211332000Y-63778500I-2151318J-291471D01*
G01*
D13*
X213948318Y-65257029D02*
G75*
G03*
X211732000Y-63378500I-2151318J-291471D01*
G01*
D10*
X216832001Y-62078500D02*
G75*
G03*
X214732000Y-60178499I-2000001J-100000D01*
G01*
%TO.C,SW8*%
X187282000Y-55416000D02*
X195682000Y-55415999D01*
X187282000Y-55766000D02*
X187282000Y-55416000D01*
X187282000Y-58016000D02*
X187482000Y-58016000D01*
X187282000Y-59016000D02*
X187282000Y-58016000D01*
D11*
X187482000Y-55616000D02*
X188882000Y-55616000D01*
D10*
X187482000Y-55766000D02*
X187282000Y-55766000D01*
D11*
X187482000Y-58116000D02*
X187482000Y-58816000D01*
D10*
X187502000Y-58016000D02*
X187502000Y-55766000D01*
D12*
X187582000Y-58716000D02*
X188982000Y-58716000D01*
D13*
X187982000Y-56016000D02*
X187982000Y-58516000D01*
D14*
X189282000Y-57216000D02*
X195982000Y-57216000D01*
D10*
X192282000Y-59016000D02*
X187282000Y-59016000D01*
D15*
X196052000Y-56916000D02*
X196052000Y-59156000D01*
D16*
X197182000Y-60416000D02*
X197182000Y-58616000D01*
D10*
X197552000Y-58316000D02*
X197552000Y-60556000D01*
X197582000Y-60556000D02*
X197782000Y-60556000D01*
D12*
X197582000Y-60716000D02*
X194882000Y-60716000D01*
D17*
X197681999Y-58216000D02*
X197682000Y-57316001D01*
D10*
X197782000Y-57316000D02*
X197782000Y-58316000D01*
X197782000Y-58316000D02*
X197582000Y-58316000D01*
X197782000Y-60916000D02*
X194502000Y-60916000D01*
X197782000Y-60916000D02*
X197782000Y-60556000D01*
X194498318Y-60894529D02*
G75*
G03*
X192282000Y-59016000I-2151318J-291471D01*
G01*
D13*
X194898318Y-60494529D02*
G75*
G03*
X192682000Y-58616000I-2151318J-291471D01*
G01*
D10*
X197782001Y-57316000D02*
G75*
G03*
X195682000Y-55415999I-2000001J-100000D01*
G01*
%TO.C,SW7*%
X168232000Y-60178500D02*
X176632000Y-60178499D01*
X168232000Y-60528500D02*
X168232000Y-60178500D01*
X168232000Y-62778500D02*
X168432000Y-62778500D01*
X168232000Y-63778500D02*
X168232000Y-62778500D01*
D11*
X168432000Y-60378500D02*
X169832000Y-60378500D01*
D10*
X168432000Y-60528500D02*
X168232000Y-60528500D01*
D11*
X168432000Y-62878500D02*
X168432000Y-63578500D01*
D10*
X168452000Y-62778500D02*
X168452000Y-60528500D01*
D12*
X168532000Y-63478500D02*
X169932000Y-63478500D01*
D13*
X168932000Y-60778500D02*
X168932000Y-63278500D01*
D14*
X170232000Y-61978500D02*
X176932000Y-61978500D01*
D10*
X173232000Y-63778500D02*
X168232000Y-63778500D01*
D15*
X177002000Y-61678500D02*
X177002000Y-63918500D01*
D16*
X178132000Y-65178500D02*
X178132000Y-63378500D01*
D10*
X178502000Y-63078500D02*
X178502000Y-65318500D01*
X178532000Y-65318500D02*
X178732000Y-65318500D01*
D12*
X178532000Y-65478500D02*
X175832000Y-65478500D01*
D17*
X178631999Y-62978500D02*
X178632000Y-62078501D01*
D10*
X178732000Y-62078500D02*
X178732000Y-63078500D01*
X178732000Y-63078500D02*
X178532000Y-63078500D01*
X178732000Y-65678500D02*
X175452000Y-65678500D01*
X178732000Y-65678500D02*
X178732000Y-65318500D01*
X175448318Y-65657029D02*
G75*
G03*
X173232000Y-63778500I-2151318J-291471D01*
G01*
D13*
X175848318Y-65257029D02*
G75*
G03*
X173632000Y-63378500I-2151318J-291471D01*
G01*
D10*
X178732001Y-62078500D02*
G75*
G03*
X176632000Y-60178499I-2000001J-100000D01*
G01*
%TO.C,SW6*%
X149182000Y-74466000D02*
X157582000Y-74465999D01*
X149182000Y-74816000D02*
X149182000Y-74466000D01*
X149182000Y-77066000D02*
X149382000Y-77066000D01*
X149182000Y-78066000D02*
X149182000Y-77066000D01*
D11*
X149382000Y-74666000D02*
X150782000Y-74666000D01*
D10*
X149382000Y-74816000D02*
X149182000Y-74816000D01*
D11*
X149382000Y-77166000D02*
X149382000Y-77866000D01*
D10*
X149402000Y-77066000D02*
X149402000Y-74816000D01*
D12*
X149482000Y-77766000D02*
X150882000Y-77766000D01*
D13*
X149882000Y-75066000D02*
X149882000Y-77566000D01*
D14*
X151182000Y-76266000D02*
X157882000Y-76266000D01*
D10*
X154182000Y-78066000D02*
X149182000Y-78066000D01*
D15*
X157952000Y-75966000D02*
X157952000Y-78206000D01*
D16*
X159082000Y-79466000D02*
X159082000Y-77666000D01*
D10*
X159452000Y-77366000D02*
X159452000Y-79606000D01*
X159482000Y-79606000D02*
X159682000Y-79606000D01*
D12*
X159482000Y-79766000D02*
X156782000Y-79766000D01*
D17*
X159581999Y-77266000D02*
X159582000Y-76366001D01*
D10*
X159682000Y-76366000D02*
X159682000Y-77366000D01*
X159682000Y-77366000D02*
X159482000Y-77366000D01*
X159682000Y-79966000D02*
X156402000Y-79966000D01*
X159682000Y-79966000D02*
X159682000Y-79606000D01*
X156398318Y-79944529D02*
G75*
G03*
X154182000Y-78066000I-2151318J-291471D01*
G01*
D13*
X156798318Y-79544529D02*
G75*
G03*
X154582000Y-77666000I-2151318J-291471D01*
G01*
D10*
X159682001Y-76366000D02*
G75*
G03*
X157582000Y-74465999I-2000001J-100000D01*
G01*
%TO.C,SW5*%
X235882001Y-47791000D02*
G75*
G03*
X233782000Y-45890999I-2000001J-100000D01*
G01*
D13*
X232998318Y-50969529D02*
G75*
G03*
X230782000Y-49091000I-2151318J-291471D01*
G01*
D10*
X232598318Y-51369529D02*
G75*
G03*
X230382000Y-49491000I-2151318J-291471D01*
G01*
X235882000Y-51391000D02*
X235882000Y-51031000D01*
X235882000Y-51391000D02*
X232602000Y-51391000D01*
X235882000Y-48791000D02*
X235682000Y-48791000D01*
X235882000Y-47791000D02*
X235882000Y-48791000D01*
D17*
X235781999Y-48691000D02*
X235782000Y-47791001D01*
D12*
X235682000Y-51191000D02*
X232982000Y-51191000D01*
D10*
X235682000Y-51031000D02*
X235882000Y-51031000D01*
X235652000Y-48791000D02*
X235652000Y-51031000D01*
D16*
X235282000Y-50891000D02*
X235282000Y-49091000D01*
D15*
X234152000Y-47391000D02*
X234152000Y-49631000D01*
D10*
X230382000Y-49491000D02*
X225382000Y-49491000D01*
D14*
X227382000Y-47691000D02*
X234082000Y-47691000D01*
D13*
X226082000Y-46491000D02*
X226082000Y-48991000D01*
D12*
X225682000Y-49191000D02*
X227082000Y-49191000D01*
D10*
X225602000Y-48491000D02*
X225602000Y-46241000D01*
D11*
X225582000Y-48591000D02*
X225582000Y-49291000D01*
D10*
X225582000Y-46241000D02*
X225382000Y-46241000D01*
D11*
X225582000Y-46091000D02*
X226982000Y-46091000D01*
D10*
X225382000Y-49491000D02*
X225382000Y-48491000D01*
X225382000Y-48491000D02*
X225582000Y-48491000D01*
X225382000Y-46241000D02*
X225382000Y-45891000D01*
X225382000Y-45891000D02*
X233782000Y-45890999D01*
%TO.C,SW4*%
X206332000Y-41128500D02*
X214732000Y-41128499D01*
X206332000Y-41478500D02*
X206332000Y-41128500D01*
X206332000Y-43728500D02*
X206532000Y-43728500D01*
X206332000Y-44728500D02*
X206332000Y-43728500D01*
D11*
X206532000Y-41328500D02*
X207932000Y-41328500D01*
D10*
X206532000Y-41478500D02*
X206332000Y-41478500D01*
D11*
X206532000Y-43828500D02*
X206532000Y-44528500D01*
D10*
X206552000Y-43728500D02*
X206552000Y-41478500D01*
D12*
X206632000Y-44428500D02*
X208032000Y-44428500D01*
D13*
X207032000Y-41728500D02*
X207032000Y-44228500D01*
D14*
X208332000Y-42928500D02*
X215032000Y-42928500D01*
D10*
X211332000Y-44728500D02*
X206332000Y-44728500D01*
D15*
X215102000Y-42628500D02*
X215102000Y-44868500D01*
D16*
X216232000Y-46128500D02*
X216232000Y-44328500D01*
D10*
X216602000Y-44028500D02*
X216602000Y-46268500D01*
X216632000Y-46268500D02*
X216832000Y-46268500D01*
D12*
X216632000Y-46428500D02*
X213932000Y-46428500D01*
D17*
X216731999Y-43928500D02*
X216732000Y-43028501D01*
D10*
X216832000Y-43028500D02*
X216832000Y-44028500D01*
X216832000Y-44028500D02*
X216632000Y-44028500D01*
X216832000Y-46628500D02*
X213552000Y-46628500D01*
X216832000Y-46628500D02*
X216832000Y-46268500D01*
X213548318Y-46607029D02*
G75*
G03*
X211332000Y-44728500I-2151318J-291471D01*
G01*
D13*
X213948318Y-46207029D02*
G75*
G03*
X211732000Y-44328500I-2151318J-291471D01*
G01*
D10*
X216832001Y-43028500D02*
G75*
G03*
X214732000Y-41128499I-2000001J-100000D01*
G01*
%TO.C,SW3*%
X187282000Y-36366000D02*
X195682000Y-36365999D01*
X187282000Y-36716000D02*
X187282000Y-36366000D01*
X187282000Y-38966000D02*
X187482000Y-38966000D01*
X187282000Y-39966000D02*
X187282000Y-38966000D01*
D11*
X187482000Y-36566000D02*
X188882000Y-36566000D01*
D10*
X187482000Y-36716000D02*
X187282000Y-36716000D01*
D11*
X187482000Y-39066000D02*
X187482000Y-39766000D01*
D10*
X187502000Y-38966000D02*
X187502000Y-36716000D01*
D12*
X187582000Y-39666000D02*
X188982000Y-39666000D01*
D13*
X187982000Y-36966000D02*
X187982000Y-39466000D01*
D14*
X189282000Y-38166000D02*
X195982000Y-38166000D01*
D10*
X192282000Y-39966000D02*
X187282000Y-39966000D01*
D15*
X196052000Y-37866000D02*
X196052000Y-40106000D01*
D16*
X197182000Y-41366000D02*
X197182000Y-39566000D01*
D10*
X197552000Y-39266000D02*
X197552000Y-41506000D01*
X197582000Y-41506000D02*
X197782000Y-41506000D01*
D12*
X197582000Y-41666000D02*
X194882000Y-41666000D01*
D17*
X197681999Y-39166000D02*
X197682000Y-38266001D01*
D10*
X197782000Y-38266000D02*
X197782000Y-39266000D01*
X197782000Y-39266000D02*
X197582000Y-39266000D01*
X197782000Y-41866000D02*
X194502000Y-41866000D01*
X197782000Y-41866000D02*
X197782000Y-41506000D01*
X194498318Y-41844529D02*
G75*
G03*
X192282000Y-39966000I-2151318J-291471D01*
G01*
D13*
X194898318Y-41444529D02*
G75*
G03*
X192682000Y-39566000I-2151318J-291471D01*
G01*
D10*
X197782001Y-38266000D02*
G75*
G03*
X195682000Y-36365999I-2000001J-100000D01*
G01*
%TO.C,SW2*%
X168232000Y-41128500D02*
X176632000Y-41128499D01*
X168232000Y-41478500D02*
X168232000Y-41128500D01*
X168232000Y-43728500D02*
X168432000Y-43728500D01*
X168232000Y-44728500D02*
X168232000Y-43728500D01*
D11*
X168432000Y-41328500D02*
X169832000Y-41328500D01*
D10*
X168432000Y-41478500D02*
X168232000Y-41478500D01*
D11*
X168432000Y-43828500D02*
X168432000Y-44528500D01*
D10*
X168452000Y-43728500D02*
X168452000Y-41478500D01*
D12*
X168532000Y-44428500D02*
X169932000Y-44428500D01*
D13*
X168932000Y-41728500D02*
X168932000Y-44228500D01*
D14*
X170232000Y-42928500D02*
X176932000Y-42928500D01*
D10*
X173232000Y-44728500D02*
X168232000Y-44728500D01*
D15*
X177002000Y-42628500D02*
X177002000Y-44868500D01*
D16*
X178132000Y-46128500D02*
X178132000Y-44328500D01*
D10*
X178502000Y-44028500D02*
X178502000Y-46268500D01*
X178532000Y-46268500D02*
X178732000Y-46268500D01*
D12*
X178532000Y-46428500D02*
X175832000Y-46428500D01*
D17*
X178631999Y-43928500D02*
X178632000Y-43028501D01*
D10*
X178732000Y-43028500D02*
X178732000Y-44028500D01*
X178732000Y-44028500D02*
X178532000Y-44028500D01*
X178732000Y-46628500D02*
X175452000Y-46628500D01*
X178732000Y-46628500D02*
X178732000Y-46268500D01*
X175448318Y-46607029D02*
G75*
G03*
X173232000Y-44728500I-2151318J-291471D01*
G01*
D13*
X175848318Y-46207029D02*
G75*
G03*
X173632000Y-44328500I-2151318J-291471D01*
G01*
D10*
X178732001Y-43028500D02*
G75*
G03*
X176632000Y-41128499I-2000001J-100000D01*
G01*
%TO.C,SW1*%
X149182000Y-55416000D02*
X157582000Y-55415999D01*
X149182000Y-55766000D02*
X149182000Y-55416000D01*
X149182000Y-58016000D02*
X149382000Y-58016000D01*
X149182000Y-59016000D02*
X149182000Y-58016000D01*
D11*
X149382000Y-55616000D02*
X150782000Y-55616000D01*
D10*
X149382000Y-55766000D02*
X149182000Y-55766000D01*
D11*
X149382000Y-58116000D02*
X149382000Y-58816000D01*
D10*
X149402000Y-58016000D02*
X149402000Y-55766000D01*
D12*
X149482000Y-58716000D02*
X150882000Y-58716000D01*
D13*
X149882000Y-56016000D02*
X149882000Y-58516000D01*
D14*
X151182000Y-57216000D02*
X157882000Y-57216000D01*
D10*
X154182000Y-59016000D02*
X149182000Y-59016000D01*
D15*
X157952000Y-56916000D02*
X157952000Y-59156000D01*
D16*
X159082000Y-60416000D02*
X159082000Y-58616000D01*
D10*
X159452000Y-58316000D02*
X159452000Y-60556000D01*
X159482000Y-60556000D02*
X159682000Y-60556000D01*
D12*
X159482000Y-60716000D02*
X156782000Y-60716000D01*
D17*
X159581999Y-58216000D02*
X159582000Y-57316001D01*
D10*
X159682000Y-57316000D02*
X159682000Y-58316000D01*
X159682000Y-58316000D02*
X159482000Y-58316000D01*
X159682000Y-60916000D02*
X156402000Y-60916000D01*
X159682000Y-60916000D02*
X159682000Y-60556000D01*
X156398318Y-60894529D02*
G75*
G03*
X154182000Y-59016000I-2151318J-291471D01*
G01*
D13*
X156798318Y-60494529D02*
G75*
G03*
X154582000Y-58616000I-2151318J-291471D01*
G01*
D10*
X159682001Y-57316000D02*
G75*
G03*
X157582000Y-55415999I-2000001J-100000D01*
G01*
%TO.C,U2*%
X239500000Y-103970000D02*
X227400000Y-103970000D01*
X239500000Y-104220000D02*
X241500000Y-104220000D01*
X241500000Y-109820000D02*
X241500000Y-104220000D01*
X239500000Y-109820000D02*
X241500000Y-109820000D01*
X239500000Y-110070000D02*
X239500000Y-103970000D01*
X239500000Y-110070000D02*
X227400000Y-110070000D01*
X227400000Y-110070000D02*
X227400000Y-103970000D01*
%TD*%
M02*
