%TF.GenerationSoftware,KiCad,Pcbnew,7.0.1*%
%TF.CreationDate,2023-09-26T17:53:04-04:00*%
%TF.ProjectId,under1hundo,756e6465-7231-4687-956e-646f2e6b6963,rev?*%
%TF.SameCoordinates,Original*%
%TF.FileFunction,Soldermask,Bot*%
%TF.FilePolarity,Negative*%
%FSLAX46Y46*%
G04 Gerber Fmt 4.6, Leading zero omitted, Abs format (unit mm)*
G04 Created by KiCad (PCBNEW 7.0.1) date 2023-09-26 17:53:04*
%MOMM*%
%LPD*%
G01*
G04 APERTURE LIST*
%ADD10C,4.200000*%
%ADD11C,1.900000*%
%ADD12C,1.700000*%
%ADD13C,3.000000*%
%ADD14C,4.100000*%
%ADD15R,2.300000X2.000000*%
%ADD16C,0.800000*%
%ADD17O,2.000000X1.600000*%
%ADD18O,1.500000X2.500000*%
%ADD19O,2.500000X1.500000*%
G04 APERTURE END LIST*
D10*
%TO.C,M2*%
X175180000Y-128940000D03*
%TD*%
%TO.C,M2*%
X153670000Y-71374000D03*
%TD*%
%TO.C,M2*%
X220218000Y-57150000D03*
%TD*%
%TO.C,M2*%
X220650000Y-128580000D03*
%TD*%
D11*
%TO.C,SW17*%
X224902000Y-123190000D03*
D12*
X225482000Y-123190000D03*
D13*
X226172000Y-120650000D03*
X227442000Y-118110000D03*
D14*
X229982000Y-123190000D03*
D13*
X232522000Y-118110000D03*
X233792000Y-120649999D03*
D12*
X234482000Y-123190000D03*
D11*
X235062000Y-123190000D03*
D15*
X222982000Y-120610000D03*
X235682000Y-118070000D03*
%TD*%
D11*
%TO.C,SW16*%
X205852000Y-118427500D03*
D12*
X206432000Y-118427500D03*
D13*
X207122000Y-115887500D03*
X208392000Y-113347500D03*
D14*
X210932000Y-118427500D03*
D13*
X213472000Y-113347500D03*
X214742000Y-115887499D03*
D12*
X215432000Y-118427500D03*
D11*
X216012000Y-118427500D03*
D15*
X203932000Y-115847500D03*
X216632000Y-113307500D03*
%TD*%
D11*
%TO.C,SW15*%
X224902000Y-90591000D03*
D12*
X225482000Y-90591000D03*
D13*
X226172000Y-88051000D03*
X227442000Y-85511000D03*
D14*
X229982000Y-90591000D03*
D13*
X232522000Y-85511000D03*
X233792000Y-88050999D03*
D12*
X234482000Y-90591000D03*
D11*
X235062000Y-90591000D03*
D15*
X222982000Y-88011000D03*
X235682000Y-85471000D03*
%TD*%
D11*
%TO.C,SW14*%
X205852000Y-85828500D03*
D12*
X206432000Y-85828500D03*
D13*
X207122000Y-83288500D03*
X208392000Y-80748500D03*
D14*
X210932000Y-85828500D03*
D13*
X213472000Y-80748500D03*
X214742000Y-83288499D03*
D12*
X215432000Y-85828500D03*
D11*
X216012000Y-85828500D03*
D15*
X203932000Y-83248500D03*
X216632000Y-80708500D03*
%TD*%
D11*
%TO.C,SW13*%
X186802000Y-81066000D03*
D12*
X187382000Y-81066000D03*
D13*
X188072000Y-78526000D03*
X189342000Y-75986000D03*
D14*
X191882000Y-81066000D03*
D13*
X194422000Y-75986000D03*
X195692000Y-78525999D03*
D12*
X196382000Y-81066000D03*
D11*
X196962000Y-81066000D03*
D15*
X184882000Y-78486000D03*
X197582000Y-75946000D03*
%TD*%
D11*
%TO.C,SW12*%
X167752000Y-85828500D03*
D12*
X168332000Y-85828500D03*
D13*
X169022000Y-83288500D03*
X170292000Y-80748500D03*
D14*
X172832000Y-85828500D03*
D13*
X175372000Y-80748500D03*
X176642000Y-83288499D03*
D12*
X177332000Y-85828500D03*
D11*
X177912000Y-85828500D03*
D15*
X165832000Y-83248500D03*
X178532000Y-80708500D03*
%TD*%
D11*
%TO.C,SW11*%
X148702000Y-100116000D03*
D12*
X149282000Y-100116000D03*
D13*
X149972000Y-97576000D03*
X151242000Y-95036000D03*
D14*
X153782000Y-100116000D03*
D13*
X156322000Y-95036000D03*
X157592000Y-97575999D03*
D12*
X158282000Y-100116000D03*
D11*
X158862000Y-100116000D03*
D15*
X146782000Y-97536000D03*
X159482000Y-94996000D03*
%TD*%
D11*
%TO.C,SW10*%
X224902000Y-71541000D03*
D12*
X225482000Y-71541000D03*
D13*
X226172000Y-69001000D03*
X227442000Y-66461000D03*
D14*
X229982000Y-71541000D03*
D13*
X232522000Y-66461000D03*
X233792000Y-69000999D03*
D12*
X234482000Y-71541000D03*
D11*
X235062000Y-71541000D03*
D15*
X222982000Y-68961000D03*
X235682000Y-66421000D03*
%TD*%
D11*
%TO.C,SW9*%
X205852000Y-66778500D03*
D12*
X206432000Y-66778500D03*
D13*
X207122000Y-64238500D03*
X208392000Y-61698500D03*
D14*
X210932000Y-66778500D03*
D13*
X213472000Y-61698500D03*
X214742000Y-64238499D03*
D12*
X215432000Y-66778500D03*
D11*
X216012000Y-66778500D03*
D15*
X203932000Y-64198500D03*
X216632000Y-61658500D03*
%TD*%
D11*
%TO.C,SW8*%
X186802000Y-62016000D03*
D12*
X187382000Y-62016000D03*
D13*
X188072000Y-59476000D03*
X189342000Y-56936000D03*
D14*
X191882000Y-62016000D03*
D13*
X194422000Y-56936000D03*
X195692000Y-59475999D03*
D12*
X196382000Y-62016000D03*
D11*
X196962000Y-62016000D03*
D15*
X184882000Y-59436000D03*
X197582000Y-56896000D03*
%TD*%
D11*
%TO.C,SW7*%
X167752000Y-66778500D03*
D12*
X168332000Y-66778500D03*
D13*
X169022000Y-64238500D03*
X170292000Y-61698500D03*
D14*
X172832000Y-66778500D03*
D13*
X175372000Y-61698500D03*
X176642000Y-64238499D03*
D12*
X177332000Y-66778500D03*
D11*
X177912000Y-66778500D03*
D15*
X165832000Y-64198500D03*
X178532000Y-61658500D03*
%TD*%
D11*
%TO.C,SW6*%
X148702000Y-81066000D03*
D12*
X149282000Y-81066000D03*
D13*
X149972000Y-78526000D03*
X151242000Y-75986000D03*
D14*
X153782000Y-81066000D03*
D13*
X156322000Y-75986000D03*
X157592000Y-78525999D03*
D12*
X158282000Y-81066000D03*
D11*
X158862000Y-81066000D03*
D15*
X146782000Y-78486000D03*
X159482000Y-75946000D03*
%TD*%
%TO.C,SW5*%
X235682000Y-47371000D03*
X222982000Y-49911000D03*
D11*
X235062000Y-52491000D03*
D12*
X234482000Y-52491000D03*
D13*
X233792000Y-49950999D03*
X232522000Y-47411000D03*
D14*
X229982000Y-52491000D03*
D13*
X227442000Y-47411000D03*
X226172000Y-49951000D03*
D12*
X225482000Y-52491000D03*
D11*
X224902000Y-52491000D03*
%TD*%
%TO.C,SW4*%
X205852000Y-47728500D03*
D12*
X206432000Y-47728500D03*
D13*
X207122000Y-45188500D03*
X208392000Y-42648500D03*
D14*
X210932000Y-47728500D03*
D13*
X213472000Y-42648500D03*
X214742000Y-45188499D03*
D12*
X215432000Y-47728500D03*
D11*
X216012000Y-47728500D03*
D15*
X203932000Y-45148500D03*
X216632000Y-42608500D03*
%TD*%
D11*
%TO.C,SW3*%
X186802000Y-42966000D03*
D12*
X187382000Y-42966000D03*
D13*
X188072000Y-40426000D03*
X189342000Y-37886000D03*
D14*
X191882000Y-42966000D03*
D13*
X194422000Y-37886000D03*
X195692000Y-40425999D03*
D12*
X196382000Y-42966000D03*
D11*
X196962000Y-42966000D03*
D15*
X184882000Y-40386000D03*
X197582000Y-37846000D03*
%TD*%
D11*
%TO.C,SW2*%
X167752000Y-47728500D03*
D12*
X168332000Y-47728500D03*
D13*
X169022000Y-45188500D03*
X170292000Y-42648500D03*
D14*
X172832000Y-47728500D03*
D13*
X175372000Y-42648500D03*
X176642000Y-45188499D03*
D12*
X177332000Y-47728500D03*
D11*
X177912000Y-47728500D03*
D15*
X165832000Y-45148500D03*
X178532000Y-42608500D03*
%TD*%
D11*
%TO.C,SW1*%
X148702000Y-62016000D03*
D12*
X149282000Y-62016000D03*
D13*
X149972000Y-59476000D03*
X151242000Y-56936000D03*
D14*
X153782000Y-62016000D03*
D13*
X156322000Y-56936000D03*
X157592000Y-59475999D03*
D12*
X158282000Y-62016000D03*
D11*
X158862000Y-62016000D03*
D15*
X146782000Y-59436000D03*
X159482000Y-56896000D03*
%TD*%
D16*
%TO.C,U2*%
X237900000Y-104920000D03*
X230900000Y-104920000D03*
X237900000Y-107020000D03*
X230900000Y-107020000D03*
D17*
X228200000Y-104720000D03*
X228200000Y-107220000D03*
X229300000Y-102620000D03*
X229300000Y-109320000D03*
X233300000Y-102620000D03*
X236300000Y-109320000D03*
X236300000Y-102620000D03*
X233300000Y-109320000D03*
%TD*%
D18*
%TO.C,U1*%
X145796000Y-126992000D03*
X148336000Y-126992000D03*
X150876000Y-126992000D03*
X153416000Y-126992000D03*
X155956000Y-126992000D03*
X158496000Y-126992000D03*
X161036000Y-126992000D03*
X163576000Y-126992000D03*
X166116000Y-126992000D03*
D19*
X166616000Y-123952000D03*
X166616000Y-121412000D03*
X166616000Y-118872000D03*
X166616000Y-116332000D03*
X166616000Y-113792000D03*
D18*
X166116000Y-110752000D03*
X163576000Y-110752000D03*
X161036000Y-110752000D03*
X158496000Y-110752000D03*
X155956000Y-110752000D03*
X153416000Y-110752000D03*
X150876000Y-110752000D03*
X148336000Y-110752000D03*
X145796000Y-110752000D03*
%TD*%
M02*
