M48
; DRILL file {KiCad 7.0.1} date Tue Sep 26 17:53:06 2023
; FORMAT={-:-/ absolute / metric / decimal}
; #@! TF.CreationDate,2023-09-26T17:53:06-04:00
; #@! TF.GenerationSoftware,Kicad,Pcbnew,7.0.1
; #@! TF.FileFunction,Plated,1,2,PTH
FMAT,2
METRIC
; #@! TA.AperFunction,Plated,PTH,ViaDrill
T1C0.400
; #@! TA.AperFunction,Plated,PTH,ComponentDrill
T2C0.900
; #@! TA.AperFunction,Plated,PTH,ComponentDrill
T3C1.000
; #@! TA.AperFunction,Plated,PTH,ComponentDrill
T4C2.300
%
G90
G05
T1
X149.38Y-54.25
X155.77Y-103.99
X158.242Y-85.344
X158.52Y-65.97
X173.482Y-71.12
X177.42Y-51.67
X177.54Y-58.84
X178.39Y-39.63
X179.578Y-89.916
X192.73Y-85.53
X195.58Y-72.898
X195.74Y-46.88
X196.14Y-53.91
X196.5Y-34.91
X198.4Y-65.13
X206.61Y-39.45
X207.518Y-109.728
X214.93Y-58.47
X215.18Y-77.61
X215.5Y-52.01
X215.69Y-90.38
X216.154Y-120.904
X216.78Y-70.56
X222.758Y-123.952
X224.79Y-114.3
X234.24Y-44.86
X234.6Y-63.29
X235.16Y-75.53
X235.29Y-94.05
X235.69Y-82.69
X236.59Y-56.27
T3
X145.796Y-111.252
X145.796Y-126.492
X148.336Y-111.252
X148.336Y-126.492
X150.876Y-111.252
X150.876Y-126.492
X153.416Y-111.252
X153.416Y-126.492
X155.956Y-111.252
X155.956Y-126.492
X158.496Y-111.252
X158.496Y-126.492
X161.036Y-111.252
X161.036Y-126.492
X163.576Y-111.252
X163.576Y-126.492
X166.116Y-111.252
X166.116Y-113.792
X166.116Y-116.332
X166.116Y-118.872
X166.116Y-121.412
X166.116Y-123.952
X166.116Y-126.492
T4
X153.67Y-71.374
X175.18Y-128.94
X220.218Y-57.15
X220.65Y-128.58
T2
X228.4Y-104.72G85X228.0Y-104.72
G05
X228.4Y-107.22G85X228.0Y-107.22
G05
X229.5Y-102.62G85X229.1Y-102.62
G05
X229.5Y-109.32G85X229.1Y-109.32
G05
X233.5Y-102.62G85X233.1Y-102.62
G05
X233.5Y-109.32G85X233.1Y-109.32
G05
X236.5Y-102.62G85X236.1Y-102.62
G05
X236.5Y-109.32G85X236.1Y-109.32
G05
T0
M30
